G04 #@! TF.GenerationSoftware,KiCad,Pcbnew,(5.1.2)-1*
G04 #@! TF.CreationDate,2023-10-09T01:29:42+09:00*
G04 #@! TF.ProjectId,usc,7573632e-6b69-4636-9164-5f7063625858,v1.4*
G04 #@! TF.SameCoordinates,Original*
G04 #@! TF.FileFunction,Copper,L2,Bot*
G04 #@! TF.FilePolarity,Positive*
%FSLAX46Y46*%
G04 Gerber Fmt 4.6, Leading zero omitted, Abs format (unit mm)*
G04 Created by KiCad (PCBNEW (5.1.2)-1) date 2023-10-09 01:29:42*
%MOMM*%
%LPD*%
G04 APERTURE LIST*
%ADD10O,1.600000X1.600000*%
%ADD11R,1.600000X1.600000*%
%ADD12O,1.700000X1.700000*%
%ADD13R,1.700000X1.700000*%
%ADD14O,2.100000X1.000000*%
%ADD15O,1.600000X1.000000*%
%ADD16C,0.800000*%
%ADD17C,0.250000*%
%ADD18C,0.350000*%
%ADD19C,0.254000*%
G04 APERTURE END LIST*
D10*
X185520000Y-108200000D03*
X177900000Y-115820000D03*
X185520000Y-110740000D03*
X177900000Y-113280000D03*
X185520000Y-113280000D03*
X177900000Y-110740000D03*
X185520000Y-115820000D03*
D11*
X177900000Y-108200000D03*
D12*
X174470000Y-123650000D03*
X171930000Y-123650000D03*
X169390000Y-123650000D03*
X166850000Y-123650000D03*
X164310000Y-123650000D03*
D13*
X161770000Y-123650000D03*
D12*
X192540000Y-119380000D03*
X190000000Y-119380000D03*
X192540000Y-116840000D03*
X190000000Y-116840000D03*
X192540000Y-114300000D03*
X190000000Y-114300000D03*
X192540000Y-111760000D03*
X190000000Y-111760000D03*
X192540000Y-109220000D03*
X190000000Y-109220000D03*
X192540000Y-106680000D03*
D13*
X190000000Y-106680000D03*
D14*
X156780000Y-108180000D03*
X156780000Y-116820000D03*
D15*
X152600000Y-108180000D03*
X152600000Y-116820000D03*
D16*
X175300000Y-119500000D03*
X180760000Y-103880000D03*
X190330000Y-101280000D03*
X168850000Y-106260000D03*
X168092000Y-110475000D03*
X169889100Y-111212500D03*
X173518300Y-113075000D03*
X173737900Y-107887600D03*
X167783800Y-114906200D03*
X167100000Y-111600000D03*
X166835500Y-109825000D03*
X177888800Y-102626400D03*
X169400000Y-109600000D03*
D17*
X174470000Y-122474700D02*
X177900000Y-119044700D01*
X174470000Y-123650000D02*
X174470000Y-122474700D01*
X177900000Y-119044700D02*
X177900000Y-115820000D01*
X156780000Y-116820000D02*
X152600000Y-116820000D01*
X177900000Y-115820000D02*
X177900000Y-117800000D01*
X176200000Y-119500000D02*
X175300000Y-119500000D01*
X177900000Y-117800000D02*
X176200000Y-119500000D01*
X180760000Y-103880000D02*
X187730000Y-103880000D01*
X187730000Y-103880000D02*
X190330000Y-101280000D01*
X187700000Y-113640000D02*
X185520000Y-115820000D01*
X187700000Y-112327900D02*
X187700000Y-113640000D01*
X190000000Y-109220000D02*
X190000000Y-110027900D01*
X190000000Y-110027900D02*
X187700000Y-112327900D01*
X176774700Y-110740000D02*
X176509700Y-110475000D01*
X176509700Y-110475000D02*
X168092000Y-110475000D01*
X177900000Y-110740000D02*
X176774700Y-110740000D01*
X173468250Y-111212500D02*
X169889100Y-111212500D01*
X176755750Y-114500000D02*
X173468250Y-111212500D01*
X180079400Y-114500000D02*
X176755750Y-114500000D01*
X190000000Y-115108000D02*
X191215000Y-116323000D01*
X190000000Y-114300000D02*
X190000000Y-115108000D01*
X191215000Y-119890000D02*
X190502600Y-120602400D01*
X190502600Y-120602400D02*
X186181800Y-120602400D01*
X191215000Y-116323000D02*
X191215000Y-119890000D01*
X186181800Y-120602400D02*
X180079400Y-114500000D01*
D18*
X185520000Y-108280000D02*
X185520000Y-108200000D01*
X183900000Y-109900000D02*
X185520000Y-108280000D01*
X183900000Y-116800000D02*
X183900000Y-109900000D01*
X190000000Y-119380000D02*
X186480000Y-119380000D01*
X186480000Y-119380000D02*
X183900000Y-116800000D01*
D17*
X173518300Y-122061700D02*
X173518300Y-113075000D01*
X171930000Y-123650000D02*
X173518300Y-122061700D01*
X179025300Y-108200000D02*
X177900000Y-108200000D01*
X180636200Y-106589100D02*
X179025300Y-108200000D01*
X190000000Y-106680000D02*
X189909100Y-106589100D01*
X189909100Y-106589100D02*
X180636200Y-106589100D01*
X178818300Y-113280000D02*
X185049500Y-107048800D01*
X177900000Y-113280000D02*
X178818300Y-113280000D01*
X185049500Y-107048800D02*
X186903700Y-107048800D01*
X186903700Y-107048800D02*
X187899600Y-108044700D01*
X187899600Y-108044700D02*
X190556800Y-108044700D01*
X191732100Y-109220000D02*
X192540000Y-109220000D01*
X190556800Y-108044700D02*
X191732100Y-109220000D01*
X176166300Y-105459200D02*
X173737900Y-107887600D01*
X190967200Y-105459200D02*
X176166300Y-105459200D01*
X191300000Y-107168200D02*
X191300000Y-105792000D01*
X192540000Y-113492000D02*
X193727700Y-112304300D01*
X192540000Y-114300000D02*
X192540000Y-113492000D01*
X193727700Y-112304300D02*
X193727700Y-108690600D01*
X191300000Y-105792000D02*
X190967200Y-105459200D01*
X193727700Y-108690600D02*
X192953700Y-107916600D01*
X192953700Y-107916600D02*
X192048400Y-107916600D01*
X192048400Y-107916600D02*
X191300000Y-107168200D01*
X167783800Y-114906200D02*
X169390000Y-116512400D01*
X169390000Y-116512400D02*
X169390000Y-123650000D01*
X166850000Y-123650000D02*
X166850000Y-111850000D01*
X166850000Y-111850000D02*
X167100000Y-111600000D01*
X164310000Y-123650000D02*
X164310000Y-112350500D01*
X164310000Y-112350500D02*
X166835500Y-109825000D01*
X177888800Y-102626400D02*
X170915200Y-109600000D01*
X161770000Y-113819500D02*
X166518000Y-109071500D01*
X168871500Y-109071500D02*
X169000001Y-109200001D01*
X161770000Y-123650000D02*
X161770000Y-113819500D01*
X166518000Y-109071500D02*
X168871500Y-109071500D01*
X169965685Y-109600000D02*
X169400000Y-109600000D01*
X170915200Y-109600000D02*
X169965685Y-109600000D01*
X169000001Y-109200001D02*
X169400000Y-109600000D01*
D19*
G36*
X194340001Y-122967711D02*
G01*
X194311375Y-123259660D01*
X194235965Y-123509429D01*
X194113477Y-123739794D01*
X193948579Y-123941979D01*
X193747546Y-124108288D01*
X193518046Y-124232378D01*
X193268805Y-124309531D01*
X192978911Y-124340000D01*
X175779163Y-124340000D01*
X175814157Y-124281252D01*
X175911481Y-124006891D01*
X175790814Y-123777000D01*
X174597000Y-123777000D01*
X174597000Y-123797000D01*
X174343000Y-123797000D01*
X174343000Y-123777000D01*
X174323000Y-123777000D01*
X174323000Y-123523000D01*
X174343000Y-123523000D01*
X174343000Y-122329845D01*
X174597000Y-122329845D01*
X174597000Y-123523000D01*
X175790814Y-123523000D01*
X175911481Y-123293109D01*
X175814157Y-123018748D01*
X175665178Y-122768645D01*
X175470269Y-122552412D01*
X175236920Y-122378359D01*
X174974099Y-122253175D01*
X174826890Y-122208524D01*
X174597000Y-122329845D01*
X174343000Y-122329845D01*
X174246591Y-122278966D01*
X174267303Y-122210686D01*
X174278300Y-122099033D01*
X174278300Y-122099024D01*
X174281976Y-122061701D01*
X174278300Y-122024378D01*
X174278300Y-116169039D01*
X176508096Y-116169039D01*
X176548754Y-116303087D01*
X176668963Y-116557420D01*
X176836481Y-116783414D01*
X177044869Y-116972385D01*
X177286119Y-117117070D01*
X177550960Y-117211909D01*
X177773000Y-117090624D01*
X177773000Y-115947000D01*
X178027000Y-115947000D01*
X178027000Y-117090624D01*
X178249040Y-117211909D01*
X178513881Y-117117070D01*
X178755131Y-116972385D01*
X178963519Y-116783414D01*
X179131037Y-116557420D01*
X179251246Y-116303087D01*
X179291904Y-116169039D01*
X179169915Y-115947000D01*
X178027000Y-115947000D01*
X177773000Y-115947000D01*
X176630085Y-115947000D01*
X176508096Y-116169039D01*
X174278300Y-116169039D01*
X174278300Y-113778711D01*
X174322237Y-113734774D01*
X174435505Y-113565256D01*
X174513526Y-113376898D01*
X174520879Y-113339931D01*
X176191950Y-115011002D01*
X176215749Y-115040001D01*
X176244747Y-115063799D01*
X176331473Y-115134974D01*
X176450220Y-115198446D01*
X176463503Y-115205546D01*
X176592368Y-115244636D01*
X176548754Y-115336913D01*
X176508096Y-115470961D01*
X176630085Y-115693000D01*
X177773000Y-115693000D01*
X177773000Y-115673000D01*
X178027000Y-115673000D01*
X178027000Y-115693000D01*
X179169915Y-115693000D01*
X179291904Y-115470961D01*
X179251246Y-115336913D01*
X179214894Y-115260000D01*
X179764599Y-115260000D01*
X185618001Y-121113403D01*
X185641799Y-121142401D01*
X185757524Y-121237374D01*
X185889553Y-121307946D01*
X186032814Y-121351403D01*
X186144467Y-121362400D01*
X186144477Y-121362400D01*
X186181800Y-121366076D01*
X186219123Y-121362400D01*
X190465278Y-121362400D01*
X190502600Y-121366076D01*
X190539922Y-121362400D01*
X190539933Y-121362400D01*
X190651586Y-121351403D01*
X190794847Y-121307946D01*
X190926876Y-121237374D01*
X191042601Y-121142401D01*
X191066403Y-121113398D01*
X191627561Y-120552241D01*
X191710986Y-120620706D01*
X191968966Y-120758599D01*
X192248889Y-120843513D01*
X192467050Y-120865000D01*
X192612950Y-120865000D01*
X192831111Y-120843513D01*
X193111034Y-120758599D01*
X193369014Y-120620706D01*
X193595134Y-120435134D01*
X193780706Y-120209014D01*
X193918599Y-119951034D01*
X194003513Y-119671111D01*
X194032185Y-119380000D01*
X194003513Y-119088889D01*
X193918599Y-118808966D01*
X193780706Y-118550986D01*
X193595134Y-118324866D01*
X193369014Y-118139294D01*
X193304477Y-118104799D01*
X193421355Y-118035178D01*
X193637588Y-117840269D01*
X193811641Y-117606920D01*
X193936825Y-117344099D01*
X193981476Y-117196890D01*
X193860155Y-116967000D01*
X192667000Y-116967000D01*
X192667000Y-116987000D01*
X192413000Y-116987000D01*
X192413000Y-116967000D01*
X192393000Y-116967000D01*
X192393000Y-116713000D01*
X192413000Y-116713000D01*
X192413000Y-116693000D01*
X192667000Y-116693000D01*
X192667000Y-116713000D01*
X193860155Y-116713000D01*
X193981476Y-116483110D01*
X193936825Y-116335901D01*
X193811641Y-116073080D01*
X193637588Y-115839731D01*
X193421355Y-115644822D01*
X193304477Y-115575201D01*
X193369014Y-115540706D01*
X193595134Y-115355134D01*
X193780706Y-115129014D01*
X193918599Y-114871034D01*
X194003513Y-114591111D01*
X194032185Y-114300000D01*
X194003513Y-114008889D01*
X193918599Y-113728966D01*
X193780706Y-113470986D01*
X193715396Y-113391406D01*
X194238709Y-112868094D01*
X194267701Y-112844301D01*
X194291495Y-112815308D01*
X194291499Y-112815304D01*
X194340001Y-112756204D01*
X194340001Y-122967711D01*
X194340001Y-122967711D01*
G37*
X194340001Y-122967711D02*
X194311375Y-123259660D01*
X194235965Y-123509429D01*
X194113477Y-123739794D01*
X193948579Y-123941979D01*
X193747546Y-124108288D01*
X193518046Y-124232378D01*
X193268805Y-124309531D01*
X192978911Y-124340000D01*
X175779163Y-124340000D01*
X175814157Y-124281252D01*
X175911481Y-124006891D01*
X175790814Y-123777000D01*
X174597000Y-123777000D01*
X174597000Y-123797000D01*
X174343000Y-123797000D01*
X174343000Y-123777000D01*
X174323000Y-123777000D01*
X174323000Y-123523000D01*
X174343000Y-123523000D01*
X174343000Y-122329845D01*
X174597000Y-122329845D01*
X174597000Y-123523000D01*
X175790814Y-123523000D01*
X175911481Y-123293109D01*
X175814157Y-123018748D01*
X175665178Y-122768645D01*
X175470269Y-122552412D01*
X175236920Y-122378359D01*
X174974099Y-122253175D01*
X174826890Y-122208524D01*
X174597000Y-122329845D01*
X174343000Y-122329845D01*
X174246591Y-122278966D01*
X174267303Y-122210686D01*
X174278300Y-122099033D01*
X174278300Y-122099024D01*
X174281976Y-122061701D01*
X174278300Y-122024378D01*
X174278300Y-116169039D01*
X176508096Y-116169039D01*
X176548754Y-116303087D01*
X176668963Y-116557420D01*
X176836481Y-116783414D01*
X177044869Y-116972385D01*
X177286119Y-117117070D01*
X177550960Y-117211909D01*
X177773000Y-117090624D01*
X177773000Y-115947000D01*
X178027000Y-115947000D01*
X178027000Y-117090624D01*
X178249040Y-117211909D01*
X178513881Y-117117070D01*
X178755131Y-116972385D01*
X178963519Y-116783414D01*
X179131037Y-116557420D01*
X179251246Y-116303087D01*
X179291904Y-116169039D01*
X179169915Y-115947000D01*
X178027000Y-115947000D01*
X177773000Y-115947000D01*
X176630085Y-115947000D01*
X176508096Y-116169039D01*
X174278300Y-116169039D01*
X174278300Y-113778711D01*
X174322237Y-113734774D01*
X174435505Y-113565256D01*
X174513526Y-113376898D01*
X174520879Y-113339931D01*
X176191950Y-115011002D01*
X176215749Y-115040001D01*
X176244747Y-115063799D01*
X176331473Y-115134974D01*
X176450220Y-115198446D01*
X176463503Y-115205546D01*
X176592368Y-115244636D01*
X176548754Y-115336913D01*
X176508096Y-115470961D01*
X176630085Y-115693000D01*
X177773000Y-115693000D01*
X177773000Y-115673000D01*
X178027000Y-115673000D01*
X178027000Y-115693000D01*
X179169915Y-115693000D01*
X179291904Y-115470961D01*
X179251246Y-115336913D01*
X179214894Y-115260000D01*
X179764599Y-115260000D01*
X185618001Y-121113403D01*
X185641799Y-121142401D01*
X185757524Y-121237374D01*
X185889553Y-121307946D01*
X186032814Y-121351403D01*
X186144467Y-121362400D01*
X186144477Y-121362400D01*
X186181800Y-121366076D01*
X186219123Y-121362400D01*
X190465278Y-121362400D01*
X190502600Y-121366076D01*
X190539922Y-121362400D01*
X190539933Y-121362400D01*
X190651586Y-121351403D01*
X190794847Y-121307946D01*
X190926876Y-121237374D01*
X191042601Y-121142401D01*
X191066403Y-121113398D01*
X191627561Y-120552241D01*
X191710986Y-120620706D01*
X191968966Y-120758599D01*
X192248889Y-120843513D01*
X192467050Y-120865000D01*
X192612950Y-120865000D01*
X192831111Y-120843513D01*
X193111034Y-120758599D01*
X193369014Y-120620706D01*
X193595134Y-120435134D01*
X193780706Y-120209014D01*
X193918599Y-119951034D01*
X194003513Y-119671111D01*
X194032185Y-119380000D01*
X194003513Y-119088889D01*
X193918599Y-118808966D01*
X193780706Y-118550986D01*
X193595134Y-118324866D01*
X193369014Y-118139294D01*
X193304477Y-118104799D01*
X193421355Y-118035178D01*
X193637588Y-117840269D01*
X193811641Y-117606920D01*
X193936825Y-117344099D01*
X193981476Y-117196890D01*
X193860155Y-116967000D01*
X192667000Y-116967000D01*
X192667000Y-116987000D01*
X192413000Y-116987000D01*
X192413000Y-116967000D01*
X192393000Y-116967000D01*
X192393000Y-116713000D01*
X192413000Y-116713000D01*
X192413000Y-116693000D01*
X192667000Y-116693000D01*
X192667000Y-116713000D01*
X193860155Y-116713000D01*
X193981476Y-116483110D01*
X193936825Y-116335901D01*
X193811641Y-116073080D01*
X193637588Y-115839731D01*
X193421355Y-115644822D01*
X193304477Y-115575201D01*
X193369014Y-115540706D01*
X193595134Y-115355134D01*
X193780706Y-115129014D01*
X193918599Y-114871034D01*
X194003513Y-114591111D01*
X194032185Y-114300000D01*
X194003513Y-114008889D01*
X193918599Y-113728966D01*
X193780706Y-113470986D01*
X193715396Y-113391406D01*
X194238709Y-112868094D01*
X194267701Y-112844301D01*
X194291495Y-112815308D01*
X194291499Y-112815304D01*
X194340001Y-112756204D01*
X194340001Y-122967711D01*
G36*
X193259659Y-100688625D02*
G01*
X193509429Y-100764035D01*
X193739792Y-100886522D01*
X193941980Y-101051422D01*
X194108286Y-101252450D01*
X194232378Y-101481954D01*
X194309531Y-101731195D01*
X194340000Y-102021089D01*
X194340000Y-108238696D01*
X194267701Y-108150599D01*
X194238702Y-108126801D01*
X193708680Y-107596778D01*
X193780706Y-107509014D01*
X193918599Y-107251034D01*
X194003513Y-106971111D01*
X194032185Y-106680000D01*
X194003513Y-106388889D01*
X193918599Y-106108966D01*
X193780706Y-105850986D01*
X193595134Y-105624866D01*
X193369014Y-105439294D01*
X193111034Y-105301401D01*
X192831111Y-105216487D01*
X192612950Y-105195000D01*
X192467050Y-105195000D01*
X192248889Y-105216487D01*
X191968966Y-105301401D01*
X191907505Y-105334253D01*
X191840001Y-105251999D01*
X191810997Y-105228196D01*
X191531004Y-104948203D01*
X191507201Y-104919199D01*
X191391476Y-104824226D01*
X191259447Y-104753654D01*
X191116186Y-104710197D01*
X191004533Y-104699200D01*
X191004522Y-104699200D01*
X190967200Y-104695524D01*
X190929878Y-104699200D01*
X176890802Y-104699200D01*
X177928602Y-103661400D01*
X177990739Y-103661400D01*
X178190698Y-103621626D01*
X178379056Y-103543605D01*
X178548574Y-103430337D01*
X178692737Y-103286174D01*
X178806005Y-103116656D01*
X178884026Y-102928298D01*
X178923800Y-102728339D01*
X178923800Y-102524461D01*
X178884026Y-102324502D01*
X178806005Y-102136144D01*
X178692737Y-101966626D01*
X178548574Y-101822463D01*
X178379056Y-101709195D01*
X178190698Y-101631174D01*
X177990739Y-101591400D01*
X177786861Y-101591400D01*
X177586902Y-101631174D01*
X177398544Y-101709195D01*
X177229026Y-101822463D01*
X177084863Y-101966626D01*
X176971595Y-102136144D01*
X176893574Y-102324502D01*
X176853800Y-102524461D01*
X176853800Y-102586598D01*
X170600399Y-108840000D01*
X170103711Y-108840000D01*
X170059774Y-108796063D01*
X169890256Y-108682795D01*
X169701898Y-108604774D01*
X169501939Y-108565000D01*
X169439801Y-108565000D01*
X169435304Y-108560503D01*
X169411501Y-108531499D01*
X169295776Y-108436526D01*
X169163747Y-108365954D01*
X169020486Y-108322497D01*
X168908833Y-108311500D01*
X168908822Y-108311500D01*
X168871500Y-108307824D01*
X168834178Y-108311500D01*
X166555322Y-108311500D01*
X166518000Y-108307824D01*
X166480677Y-108311500D01*
X166480667Y-108311500D01*
X166369014Y-108322497D01*
X166225753Y-108365954D01*
X166093723Y-108436526D01*
X166038467Y-108481874D01*
X165977999Y-108531499D01*
X165954201Y-108560497D01*
X161258998Y-113255701D01*
X161230000Y-113279499D01*
X161206202Y-113308497D01*
X161206201Y-113308498D01*
X161135026Y-113395224D01*
X161064454Y-113527254D01*
X161020998Y-113670515D01*
X161006324Y-113819500D01*
X161010001Y-113856832D01*
X161010000Y-122161928D01*
X160920000Y-122161928D01*
X160795518Y-122174188D01*
X160675820Y-122210498D01*
X160565506Y-122269463D01*
X160468815Y-122348815D01*
X160389463Y-122445506D01*
X160330498Y-122555820D01*
X160294188Y-122675518D01*
X160281928Y-122800000D01*
X160281928Y-124340000D01*
X152032279Y-124340000D01*
X151740340Y-124311375D01*
X151490571Y-124235965D01*
X151260206Y-124113477D01*
X151058021Y-123948579D01*
X150891712Y-123747546D01*
X150767622Y-123518046D01*
X150690469Y-123268805D01*
X150660000Y-122978911D01*
X150660000Y-121779872D01*
X150765000Y-121779872D01*
X150765000Y-122220128D01*
X150850890Y-122651925D01*
X151019369Y-123058669D01*
X151263962Y-123424729D01*
X151575271Y-123736038D01*
X151941331Y-123980631D01*
X152348075Y-124149110D01*
X152779872Y-124235000D01*
X153220128Y-124235000D01*
X153651925Y-124149110D01*
X154058669Y-123980631D01*
X154424729Y-123736038D01*
X154736038Y-123424729D01*
X154980631Y-123058669D01*
X155149110Y-122651925D01*
X155235000Y-122220128D01*
X155235000Y-121779872D01*
X155149110Y-121348075D01*
X154980631Y-120941331D01*
X154736038Y-120575271D01*
X154424729Y-120263962D01*
X154058669Y-120019369D01*
X153651925Y-119850890D01*
X153220128Y-119765000D01*
X152779872Y-119765000D01*
X152348075Y-119850890D01*
X151941331Y-120019369D01*
X151575271Y-120263962D01*
X151263962Y-120575271D01*
X151019369Y-120941331D01*
X150850890Y-121348075D01*
X150765000Y-121779872D01*
X150660000Y-121779872D01*
X150660000Y-117121874D01*
X151205881Y-117121874D01*
X151285724Y-117344976D01*
X151407631Y-117532764D01*
X151563831Y-117693161D01*
X151748322Y-117820003D01*
X151954013Y-117908415D01*
X152173000Y-117955000D01*
X152473000Y-117955000D01*
X152473000Y-116947000D01*
X152727000Y-116947000D01*
X152727000Y-117955000D01*
X153027000Y-117955000D01*
X153245987Y-117908415D01*
X153451678Y-117820003D01*
X153636169Y-117693161D01*
X153792369Y-117532764D01*
X153914276Y-117344976D01*
X153994119Y-117121874D01*
X155135881Y-117121874D01*
X155215724Y-117344976D01*
X155337631Y-117532764D01*
X155493831Y-117693161D01*
X155678322Y-117820003D01*
X155884013Y-117908415D01*
X156103000Y-117955000D01*
X156653000Y-117955000D01*
X156653000Y-116947000D01*
X156907000Y-116947000D01*
X156907000Y-117955000D01*
X157457000Y-117955000D01*
X157675987Y-117908415D01*
X157881678Y-117820003D01*
X158066169Y-117693161D01*
X158222369Y-117532764D01*
X158344276Y-117344976D01*
X158424119Y-117121874D01*
X158297954Y-116947000D01*
X156907000Y-116947000D01*
X156653000Y-116947000D01*
X155262046Y-116947000D01*
X155135881Y-117121874D01*
X153994119Y-117121874D01*
X153867954Y-116947000D01*
X152727000Y-116947000D01*
X152473000Y-116947000D01*
X151332046Y-116947000D01*
X151205881Y-117121874D01*
X150660000Y-117121874D01*
X150660000Y-116518126D01*
X151205881Y-116518126D01*
X151332046Y-116693000D01*
X152473000Y-116693000D01*
X152473000Y-115685000D01*
X152727000Y-115685000D01*
X152727000Y-116693000D01*
X153867954Y-116693000D01*
X153994119Y-116518126D01*
X155135881Y-116518126D01*
X155262046Y-116693000D01*
X156653000Y-116693000D01*
X156653000Y-116673000D01*
X156907000Y-116673000D01*
X156907000Y-116693000D01*
X158297954Y-116693000D01*
X158424119Y-116518126D01*
X158344276Y-116295024D01*
X158222369Y-116107236D01*
X158066169Y-115946839D01*
X157881678Y-115819997D01*
X157675987Y-115731585D01*
X157457000Y-115685000D01*
X157166904Y-115685000D01*
X157173108Y-115670022D01*
X157210000Y-115484552D01*
X157210000Y-115295448D01*
X157173108Y-115109978D01*
X157100741Y-114935269D01*
X156995681Y-114778036D01*
X156861964Y-114644319D01*
X156704731Y-114539259D01*
X156530022Y-114466892D01*
X156344552Y-114430000D01*
X156155448Y-114430000D01*
X155969978Y-114466892D01*
X155795269Y-114539259D01*
X155638036Y-114644319D01*
X155504319Y-114778036D01*
X155399259Y-114935269D01*
X155326892Y-115109978D01*
X155290000Y-115295448D01*
X155290000Y-115484552D01*
X155326892Y-115670022D01*
X155399259Y-115844731D01*
X155478206Y-115962884D01*
X155337631Y-116107236D01*
X155215724Y-116295024D01*
X155135881Y-116518126D01*
X153994119Y-116518126D01*
X153914276Y-116295024D01*
X153792369Y-116107236D01*
X153636169Y-115946839D01*
X153451678Y-115819997D01*
X153245987Y-115731585D01*
X153027000Y-115685000D01*
X152727000Y-115685000D01*
X152473000Y-115685000D01*
X152173000Y-115685000D01*
X151954013Y-115731585D01*
X151748322Y-115819997D01*
X151563831Y-115946839D01*
X151407631Y-116107236D01*
X151285724Y-116295024D01*
X151205881Y-116518126D01*
X150660000Y-116518126D01*
X150660000Y-108481874D01*
X151205881Y-108481874D01*
X151285724Y-108704976D01*
X151407631Y-108892764D01*
X151563831Y-109053161D01*
X151748322Y-109180003D01*
X151954013Y-109268415D01*
X152173000Y-109315000D01*
X152473000Y-109315000D01*
X152473000Y-108307000D01*
X152727000Y-108307000D01*
X152727000Y-109315000D01*
X153027000Y-109315000D01*
X153245987Y-109268415D01*
X153451678Y-109180003D01*
X153636169Y-109053161D01*
X153792369Y-108892764D01*
X153914276Y-108704976D01*
X153994119Y-108481874D01*
X155135881Y-108481874D01*
X155215724Y-108704976D01*
X155337631Y-108892764D01*
X155478206Y-109037116D01*
X155399259Y-109155269D01*
X155326892Y-109329978D01*
X155290000Y-109515448D01*
X155290000Y-109704552D01*
X155326892Y-109890022D01*
X155399259Y-110064731D01*
X155504319Y-110221964D01*
X155638036Y-110355681D01*
X155795269Y-110460741D01*
X155969978Y-110533108D01*
X156155448Y-110570000D01*
X156344552Y-110570000D01*
X156530022Y-110533108D01*
X156704731Y-110460741D01*
X156861964Y-110355681D01*
X156995681Y-110221964D01*
X157100741Y-110064731D01*
X157173108Y-109890022D01*
X157210000Y-109704552D01*
X157210000Y-109515448D01*
X157173108Y-109329978D01*
X157166904Y-109315000D01*
X157457000Y-109315000D01*
X157675987Y-109268415D01*
X157881678Y-109180003D01*
X158066169Y-109053161D01*
X158222369Y-108892764D01*
X158344276Y-108704976D01*
X158424119Y-108481874D01*
X158297954Y-108307000D01*
X156907000Y-108307000D01*
X156907000Y-108327000D01*
X156653000Y-108327000D01*
X156653000Y-108307000D01*
X155262046Y-108307000D01*
X155135881Y-108481874D01*
X153994119Y-108481874D01*
X153867954Y-108307000D01*
X152727000Y-108307000D01*
X152473000Y-108307000D01*
X151332046Y-108307000D01*
X151205881Y-108481874D01*
X150660000Y-108481874D01*
X150660000Y-107878126D01*
X151205881Y-107878126D01*
X151332046Y-108053000D01*
X152473000Y-108053000D01*
X152473000Y-107045000D01*
X152727000Y-107045000D01*
X152727000Y-108053000D01*
X153867954Y-108053000D01*
X153994119Y-107878126D01*
X155135881Y-107878126D01*
X155262046Y-108053000D01*
X156653000Y-108053000D01*
X156653000Y-107045000D01*
X156907000Y-107045000D01*
X156907000Y-108053000D01*
X158297954Y-108053000D01*
X158424119Y-107878126D01*
X158344276Y-107655024D01*
X158222369Y-107467236D01*
X158066169Y-107306839D01*
X157881678Y-107179997D01*
X157675987Y-107091585D01*
X157457000Y-107045000D01*
X156907000Y-107045000D01*
X156653000Y-107045000D01*
X156103000Y-107045000D01*
X155884013Y-107091585D01*
X155678322Y-107179997D01*
X155493831Y-107306839D01*
X155337631Y-107467236D01*
X155215724Y-107655024D01*
X155135881Y-107878126D01*
X153994119Y-107878126D01*
X153914276Y-107655024D01*
X153792369Y-107467236D01*
X153636169Y-107306839D01*
X153451678Y-107179997D01*
X153245987Y-107091585D01*
X153027000Y-107045000D01*
X152727000Y-107045000D01*
X152473000Y-107045000D01*
X152173000Y-107045000D01*
X151954013Y-107091585D01*
X151748322Y-107179997D01*
X151563831Y-107306839D01*
X151407631Y-107467236D01*
X151285724Y-107655024D01*
X151205881Y-107878126D01*
X150660000Y-107878126D01*
X150660000Y-102779872D01*
X150765000Y-102779872D01*
X150765000Y-103220128D01*
X150850890Y-103651925D01*
X151019369Y-104058669D01*
X151263962Y-104424729D01*
X151575271Y-104736038D01*
X151941331Y-104980631D01*
X152348075Y-105149110D01*
X152779872Y-105235000D01*
X153220128Y-105235000D01*
X153651925Y-105149110D01*
X154058669Y-104980631D01*
X154424729Y-104736038D01*
X154736038Y-104424729D01*
X154980631Y-104058669D01*
X155149110Y-103651925D01*
X155235000Y-103220128D01*
X155235000Y-102779872D01*
X155149110Y-102348075D01*
X154980631Y-101941331D01*
X154736038Y-101575271D01*
X154424729Y-101263962D01*
X154058669Y-101019369D01*
X153651925Y-100850890D01*
X153220128Y-100765000D01*
X152779872Y-100765000D01*
X152348075Y-100850890D01*
X151941331Y-101019369D01*
X151575271Y-101263962D01*
X151263962Y-101575271D01*
X151019369Y-101941331D01*
X150850890Y-102348075D01*
X150765000Y-102779872D01*
X150660000Y-102779872D01*
X150660000Y-102032279D01*
X150688625Y-101740341D01*
X150764035Y-101490571D01*
X150886522Y-101260208D01*
X151051422Y-101058020D01*
X151252450Y-100891714D01*
X151481954Y-100767622D01*
X151731195Y-100690469D01*
X152021088Y-100660000D01*
X192967721Y-100660000D01*
X193259659Y-100688625D01*
X193259659Y-100688625D01*
G37*
X193259659Y-100688625D02*
X193509429Y-100764035D01*
X193739792Y-100886522D01*
X193941980Y-101051422D01*
X194108286Y-101252450D01*
X194232378Y-101481954D01*
X194309531Y-101731195D01*
X194340000Y-102021089D01*
X194340000Y-108238696D01*
X194267701Y-108150599D01*
X194238702Y-108126801D01*
X193708680Y-107596778D01*
X193780706Y-107509014D01*
X193918599Y-107251034D01*
X194003513Y-106971111D01*
X194032185Y-106680000D01*
X194003513Y-106388889D01*
X193918599Y-106108966D01*
X193780706Y-105850986D01*
X193595134Y-105624866D01*
X193369014Y-105439294D01*
X193111034Y-105301401D01*
X192831111Y-105216487D01*
X192612950Y-105195000D01*
X192467050Y-105195000D01*
X192248889Y-105216487D01*
X191968966Y-105301401D01*
X191907505Y-105334253D01*
X191840001Y-105251999D01*
X191810997Y-105228196D01*
X191531004Y-104948203D01*
X191507201Y-104919199D01*
X191391476Y-104824226D01*
X191259447Y-104753654D01*
X191116186Y-104710197D01*
X191004533Y-104699200D01*
X191004522Y-104699200D01*
X190967200Y-104695524D01*
X190929878Y-104699200D01*
X176890802Y-104699200D01*
X177928602Y-103661400D01*
X177990739Y-103661400D01*
X178190698Y-103621626D01*
X178379056Y-103543605D01*
X178548574Y-103430337D01*
X178692737Y-103286174D01*
X178806005Y-103116656D01*
X178884026Y-102928298D01*
X178923800Y-102728339D01*
X178923800Y-102524461D01*
X178884026Y-102324502D01*
X178806005Y-102136144D01*
X178692737Y-101966626D01*
X178548574Y-101822463D01*
X178379056Y-101709195D01*
X178190698Y-101631174D01*
X177990739Y-101591400D01*
X177786861Y-101591400D01*
X177586902Y-101631174D01*
X177398544Y-101709195D01*
X177229026Y-101822463D01*
X177084863Y-101966626D01*
X176971595Y-102136144D01*
X176893574Y-102324502D01*
X176853800Y-102524461D01*
X176853800Y-102586598D01*
X170600399Y-108840000D01*
X170103711Y-108840000D01*
X170059774Y-108796063D01*
X169890256Y-108682795D01*
X169701898Y-108604774D01*
X169501939Y-108565000D01*
X169439801Y-108565000D01*
X169435304Y-108560503D01*
X169411501Y-108531499D01*
X169295776Y-108436526D01*
X169163747Y-108365954D01*
X169020486Y-108322497D01*
X168908833Y-108311500D01*
X168908822Y-108311500D01*
X168871500Y-108307824D01*
X168834178Y-108311500D01*
X166555322Y-108311500D01*
X166518000Y-108307824D01*
X166480677Y-108311500D01*
X166480667Y-108311500D01*
X166369014Y-108322497D01*
X166225753Y-108365954D01*
X166093723Y-108436526D01*
X166038467Y-108481874D01*
X165977999Y-108531499D01*
X165954201Y-108560497D01*
X161258998Y-113255701D01*
X161230000Y-113279499D01*
X161206202Y-113308497D01*
X161206201Y-113308498D01*
X161135026Y-113395224D01*
X161064454Y-113527254D01*
X161020998Y-113670515D01*
X161006324Y-113819500D01*
X161010001Y-113856832D01*
X161010000Y-122161928D01*
X160920000Y-122161928D01*
X160795518Y-122174188D01*
X160675820Y-122210498D01*
X160565506Y-122269463D01*
X160468815Y-122348815D01*
X160389463Y-122445506D01*
X160330498Y-122555820D01*
X160294188Y-122675518D01*
X160281928Y-122800000D01*
X160281928Y-124340000D01*
X152032279Y-124340000D01*
X151740340Y-124311375D01*
X151490571Y-124235965D01*
X151260206Y-124113477D01*
X151058021Y-123948579D01*
X150891712Y-123747546D01*
X150767622Y-123518046D01*
X150690469Y-123268805D01*
X150660000Y-122978911D01*
X150660000Y-121779872D01*
X150765000Y-121779872D01*
X150765000Y-122220128D01*
X150850890Y-122651925D01*
X151019369Y-123058669D01*
X151263962Y-123424729D01*
X151575271Y-123736038D01*
X151941331Y-123980631D01*
X152348075Y-124149110D01*
X152779872Y-124235000D01*
X153220128Y-124235000D01*
X153651925Y-124149110D01*
X154058669Y-123980631D01*
X154424729Y-123736038D01*
X154736038Y-123424729D01*
X154980631Y-123058669D01*
X155149110Y-122651925D01*
X155235000Y-122220128D01*
X155235000Y-121779872D01*
X155149110Y-121348075D01*
X154980631Y-120941331D01*
X154736038Y-120575271D01*
X154424729Y-120263962D01*
X154058669Y-120019369D01*
X153651925Y-119850890D01*
X153220128Y-119765000D01*
X152779872Y-119765000D01*
X152348075Y-119850890D01*
X151941331Y-120019369D01*
X151575271Y-120263962D01*
X151263962Y-120575271D01*
X151019369Y-120941331D01*
X150850890Y-121348075D01*
X150765000Y-121779872D01*
X150660000Y-121779872D01*
X150660000Y-117121874D01*
X151205881Y-117121874D01*
X151285724Y-117344976D01*
X151407631Y-117532764D01*
X151563831Y-117693161D01*
X151748322Y-117820003D01*
X151954013Y-117908415D01*
X152173000Y-117955000D01*
X152473000Y-117955000D01*
X152473000Y-116947000D01*
X152727000Y-116947000D01*
X152727000Y-117955000D01*
X153027000Y-117955000D01*
X153245987Y-117908415D01*
X153451678Y-117820003D01*
X153636169Y-117693161D01*
X153792369Y-117532764D01*
X153914276Y-117344976D01*
X153994119Y-117121874D01*
X155135881Y-117121874D01*
X155215724Y-117344976D01*
X155337631Y-117532764D01*
X155493831Y-117693161D01*
X155678322Y-117820003D01*
X155884013Y-117908415D01*
X156103000Y-117955000D01*
X156653000Y-117955000D01*
X156653000Y-116947000D01*
X156907000Y-116947000D01*
X156907000Y-117955000D01*
X157457000Y-117955000D01*
X157675987Y-117908415D01*
X157881678Y-117820003D01*
X158066169Y-117693161D01*
X158222369Y-117532764D01*
X158344276Y-117344976D01*
X158424119Y-117121874D01*
X158297954Y-116947000D01*
X156907000Y-116947000D01*
X156653000Y-116947000D01*
X155262046Y-116947000D01*
X155135881Y-117121874D01*
X153994119Y-117121874D01*
X153867954Y-116947000D01*
X152727000Y-116947000D01*
X152473000Y-116947000D01*
X151332046Y-116947000D01*
X151205881Y-117121874D01*
X150660000Y-117121874D01*
X150660000Y-116518126D01*
X151205881Y-116518126D01*
X151332046Y-116693000D01*
X152473000Y-116693000D01*
X152473000Y-115685000D01*
X152727000Y-115685000D01*
X152727000Y-116693000D01*
X153867954Y-116693000D01*
X153994119Y-116518126D01*
X155135881Y-116518126D01*
X155262046Y-116693000D01*
X156653000Y-116693000D01*
X156653000Y-116673000D01*
X156907000Y-116673000D01*
X156907000Y-116693000D01*
X158297954Y-116693000D01*
X158424119Y-116518126D01*
X158344276Y-116295024D01*
X158222369Y-116107236D01*
X158066169Y-115946839D01*
X157881678Y-115819997D01*
X157675987Y-115731585D01*
X157457000Y-115685000D01*
X157166904Y-115685000D01*
X157173108Y-115670022D01*
X157210000Y-115484552D01*
X157210000Y-115295448D01*
X157173108Y-115109978D01*
X157100741Y-114935269D01*
X156995681Y-114778036D01*
X156861964Y-114644319D01*
X156704731Y-114539259D01*
X156530022Y-114466892D01*
X156344552Y-114430000D01*
X156155448Y-114430000D01*
X155969978Y-114466892D01*
X155795269Y-114539259D01*
X155638036Y-114644319D01*
X155504319Y-114778036D01*
X155399259Y-114935269D01*
X155326892Y-115109978D01*
X155290000Y-115295448D01*
X155290000Y-115484552D01*
X155326892Y-115670022D01*
X155399259Y-115844731D01*
X155478206Y-115962884D01*
X155337631Y-116107236D01*
X155215724Y-116295024D01*
X155135881Y-116518126D01*
X153994119Y-116518126D01*
X153914276Y-116295024D01*
X153792369Y-116107236D01*
X153636169Y-115946839D01*
X153451678Y-115819997D01*
X153245987Y-115731585D01*
X153027000Y-115685000D01*
X152727000Y-115685000D01*
X152473000Y-115685000D01*
X152173000Y-115685000D01*
X151954013Y-115731585D01*
X151748322Y-115819997D01*
X151563831Y-115946839D01*
X151407631Y-116107236D01*
X151285724Y-116295024D01*
X151205881Y-116518126D01*
X150660000Y-116518126D01*
X150660000Y-108481874D01*
X151205881Y-108481874D01*
X151285724Y-108704976D01*
X151407631Y-108892764D01*
X151563831Y-109053161D01*
X151748322Y-109180003D01*
X151954013Y-109268415D01*
X152173000Y-109315000D01*
X152473000Y-109315000D01*
X152473000Y-108307000D01*
X152727000Y-108307000D01*
X152727000Y-109315000D01*
X153027000Y-109315000D01*
X153245987Y-109268415D01*
X153451678Y-109180003D01*
X153636169Y-109053161D01*
X153792369Y-108892764D01*
X153914276Y-108704976D01*
X153994119Y-108481874D01*
X155135881Y-108481874D01*
X155215724Y-108704976D01*
X155337631Y-108892764D01*
X155478206Y-109037116D01*
X155399259Y-109155269D01*
X155326892Y-109329978D01*
X155290000Y-109515448D01*
X155290000Y-109704552D01*
X155326892Y-109890022D01*
X155399259Y-110064731D01*
X155504319Y-110221964D01*
X155638036Y-110355681D01*
X155795269Y-110460741D01*
X155969978Y-110533108D01*
X156155448Y-110570000D01*
X156344552Y-110570000D01*
X156530022Y-110533108D01*
X156704731Y-110460741D01*
X156861964Y-110355681D01*
X156995681Y-110221964D01*
X157100741Y-110064731D01*
X157173108Y-109890022D01*
X157210000Y-109704552D01*
X157210000Y-109515448D01*
X157173108Y-109329978D01*
X157166904Y-109315000D01*
X157457000Y-109315000D01*
X157675987Y-109268415D01*
X157881678Y-109180003D01*
X158066169Y-109053161D01*
X158222369Y-108892764D01*
X158344276Y-108704976D01*
X158424119Y-108481874D01*
X158297954Y-108307000D01*
X156907000Y-108307000D01*
X156907000Y-108327000D01*
X156653000Y-108327000D01*
X156653000Y-108307000D01*
X155262046Y-108307000D01*
X155135881Y-108481874D01*
X153994119Y-108481874D01*
X153867954Y-108307000D01*
X152727000Y-108307000D01*
X152473000Y-108307000D01*
X151332046Y-108307000D01*
X151205881Y-108481874D01*
X150660000Y-108481874D01*
X150660000Y-107878126D01*
X151205881Y-107878126D01*
X151332046Y-108053000D01*
X152473000Y-108053000D01*
X152473000Y-107045000D01*
X152727000Y-107045000D01*
X152727000Y-108053000D01*
X153867954Y-108053000D01*
X153994119Y-107878126D01*
X155135881Y-107878126D01*
X155262046Y-108053000D01*
X156653000Y-108053000D01*
X156653000Y-107045000D01*
X156907000Y-107045000D01*
X156907000Y-108053000D01*
X158297954Y-108053000D01*
X158424119Y-107878126D01*
X158344276Y-107655024D01*
X158222369Y-107467236D01*
X158066169Y-107306839D01*
X157881678Y-107179997D01*
X157675987Y-107091585D01*
X157457000Y-107045000D01*
X156907000Y-107045000D01*
X156653000Y-107045000D01*
X156103000Y-107045000D01*
X155884013Y-107091585D01*
X155678322Y-107179997D01*
X155493831Y-107306839D01*
X155337631Y-107467236D01*
X155215724Y-107655024D01*
X155135881Y-107878126D01*
X153994119Y-107878126D01*
X153914276Y-107655024D01*
X153792369Y-107467236D01*
X153636169Y-107306839D01*
X153451678Y-107179997D01*
X153245987Y-107091585D01*
X153027000Y-107045000D01*
X152727000Y-107045000D01*
X152473000Y-107045000D01*
X152173000Y-107045000D01*
X151954013Y-107091585D01*
X151748322Y-107179997D01*
X151563831Y-107306839D01*
X151407631Y-107467236D01*
X151285724Y-107655024D01*
X151205881Y-107878126D01*
X150660000Y-107878126D01*
X150660000Y-102779872D01*
X150765000Y-102779872D01*
X150765000Y-103220128D01*
X150850890Y-103651925D01*
X151019369Y-104058669D01*
X151263962Y-104424729D01*
X151575271Y-104736038D01*
X151941331Y-104980631D01*
X152348075Y-105149110D01*
X152779872Y-105235000D01*
X153220128Y-105235000D01*
X153651925Y-105149110D01*
X154058669Y-104980631D01*
X154424729Y-104736038D01*
X154736038Y-104424729D01*
X154980631Y-104058669D01*
X155149110Y-103651925D01*
X155235000Y-103220128D01*
X155235000Y-102779872D01*
X155149110Y-102348075D01*
X154980631Y-101941331D01*
X154736038Y-101575271D01*
X154424729Y-101263962D01*
X154058669Y-101019369D01*
X153651925Y-100850890D01*
X153220128Y-100765000D01*
X152779872Y-100765000D01*
X152348075Y-100850890D01*
X151941331Y-101019369D01*
X151575271Y-101263962D01*
X151263962Y-101575271D01*
X151019369Y-101941331D01*
X150850890Y-102348075D01*
X150765000Y-102779872D01*
X150660000Y-102779872D01*
X150660000Y-102032279D01*
X150688625Y-101740341D01*
X150764035Y-101490571D01*
X150886522Y-101260208D01*
X151051422Y-101058020D01*
X151252450Y-100891714D01*
X151481954Y-100767622D01*
X151731195Y-100690469D01*
X152021088Y-100660000D01*
X192967721Y-100660000D01*
X193259659Y-100688625D01*
G36*
X188759294Y-112589014D02*
G01*
X188944866Y-112815134D01*
X189170986Y-113000706D01*
X189225791Y-113030000D01*
X189170986Y-113059294D01*
X188944866Y-113244866D01*
X188759294Y-113470986D01*
X188621401Y-113728966D01*
X188536487Y-114008889D01*
X188507815Y-114300000D01*
X188536487Y-114591111D01*
X188621401Y-114871034D01*
X188759294Y-115129014D01*
X188944866Y-115355134D01*
X189170986Y-115540706D01*
X189235523Y-115575201D01*
X189118645Y-115644822D01*
X188902412Y-115839731D01*
X188728359Y-116073080D01*
X188603175Y-116335901D01*
X188558524Y-116483110D01*
X188679845Y-116713000D01*
X189873000Y-116713000D01*
X189873000Y-116693000D01*
X190127000Y-116693000D01*
X190127000Y-116713000D01*
X190147000Y-116713000D01*
X190147000Y-116967000D01*
X190127000Y-116967000D01*
X190127000Y-116987000D01*
X189873000Y-116987000D01*
X189873000Y-116967000D01*
X188679845Y-116967000D01*
X188558524Y-117196890D01*
X188603175Y-117344099D01*
X188728359Y-117606920D01*
X188902412Y-117840269D01*
X189118645Y-118035178D01*
X189235523Y-118104799D01*
X189170986Y-118139294D01*
X188944866Y-118324866D01*
X188759294Y-118550986D01*
X188749131Y-118570000D01*
X186815513Y-118570000D01*
X185500512Y-117255000D01*
X185590492Y-117255000D01*
X185801309Y-117234236D01*
X186071808Y-117152182D01*
X186321101Y-117018932D01*
X186539608Y-116839608D01*
X186718932Y-116621101D01*
X186852182Y-116371808D01*
X186934236Y-116101309D01*
X186961943Y-115820000D01*
X186934236Y-115538691D01*
X186920708Y-115494094D01*
X188211003Y-114203799D01*
X188240001Y-114180001D01*
X188334974Y-114064276D01*
X188405546Y-113932247D01*
X188449003Y-113788986D01*
X188460000Y-113677333D01*
X188463677Y-113640000D01*
X188460000Y-113602667D01*
X188460000Y-112642701D01*
X188673743Y-112428959D01*
X188759294Y-112589014D01*
X188759294Y-112589014D01*
G37*
X188759294Y-112589014D02*
X188944866Y-112815134D01*
X189170986Y-113000706D01*
X189225791Y-113030000D01*
X189170986Y-113059294D01*
X188944866Y-113244866D01*
X188759294Y-113470986D01*
X188621401Y-113728966D01*
X188536487Y-114008889D01*
X188507815Y-114300000D01*
X188536487Y-114591111D01*
X188621401Y-114871034D01*
X188759294Y-115129014D01*
X188944866Y-115355134D01*
X189170986Y-115540706D01*
X189235523Y-115575201D01*
X189118645Y-115644822D01*
X188902412Y-115839731D01*
X188728359Y-116073080D01*
X188603175Y-116335901D01*
X188558524Y-116483110D01*
X188679845Y-116713000D01*
X189873000Y-116713000D01*
X189873000Y-116693000D01*
X190127000Y-116693000D01*
X190127000Y-116713000D01*
X190147000Y-116713000D01*
X190147000Y-116967000D01*
X190127000Y-116967000D01*
X190127000Y-116987000D01*
X189873000Y-116987000D01*
X189873000Y-116967000D01*
X188679845Y-116967000D01*
X188558524Y-117196890D01*
X188603175Y-117344099D01*
X188728359Y-117606920D01*
X188902412Y-117840269D01*
X189118645Y-118035178D01*
X189235523Y-118104799D01*
X189170986Y-118139294D01*
X188944866Y-118324866D01*
X188759294Y-118550986D01*
X188749131Y-118570000D01*
X186815513Y-118570000D01*
X185500512Y-117255000D01*
X185590492Y-117255000D01*
X185801309Y-117234236D01*
X186071808Y-117152182D01*
X186321101Y-117018932D01*
X186539608Y-116839608D01*
X186718932Y-116621101D01*
X186852182Y-116371808D01*
X186934236Y-116101309D01*
X186961943Y-115820000D01*
X186934236Y-115538691D01*
X186920708Y-115494094D01*
X188211003Y-114203799D01*
X188240001Y-114180001D01*
X188334974Y-114064276D01*
X188405546Y-113932247D01*
X188449003Y-113788986D01*
X188460000Y-113677333D01*
X188463677Y-113640000D01*
X188460000Y-113602667D01*
X188460000Y-112642701D01*
X188673743Y-112428959D01*
X188759294Y-112589014D01*
M02*
