G04 #@! TF.GenerationSoftware,KiCad,Pcbnew,(5.1.2)-1*
G04 #@! TF.CreationDate,2023-10-09T01:29:42+09:00*
G04 #@! TF.ProjectId,usc,7573632e-6b69-4636-9164-5f7063625858,v1.4*
G04 #@! TF.SameCoordinates,Original*
G04 #@! TF.FileFunction,Soldermask,Top*
G04 #@! TF.FilePolarity,Negative*
%FSLAX46Y46*%
G04 Gerber Fmt 4.6, Leading zero omitted, Abs format (unit mm)*
G04 Created by KiCad (PCBNEW (5.1.2)-1) date 2023-10-09 01:29:42*
%MOMM*%
%LPD*%
G04 APERTURE LIST*
%ADD10C,0.100000*%
G04 APERTURE END LIST*
D10*
G36*
X162671000Y-124551000D02*
G01*
X160869000Y-124551000D01*
X160869000Y-122749000D01*
X162671000Y-122749000D01*
X162671000Y-124551000D01*
X162671000Y-124551000D01*
G37*
G36*
X172040442Y-122755518D02*
G01*
X172106627Y-122762037D01*
X172276466Y-122813557D01*
X172432991Y-122897222D01*
X172468729Y-122926552D01*
X172570186Y-123009814D01*
X172653448Y-123111271D01*
X172682778Y-123147009D01*
X172766443Y-123303534D01*
X172817963Y-123473373D01*
X172835359Y-123650000D01*
X172817963Y-123826627D01*
X172766443Y-123996466D01*
X172682778Y-124152991D01*
X172653448Y-124188729D01*
X172570186Y-124290186D01*
X172468729Y-124373448D01*
X172432991Y-124402778D01*
X172276466Y-124486443D01*
X172106627Y-124537963D01*
X172040443Y-124544481D01*
X171974260Y-124551000D01*
X171885740Y-124551000D01*
X171819557Y-124544481D01*
X171753373Y-124537963D01*
X171583534Y-124486443D01*
X171427009Y-124402778D01*
X171391271Y-124373448D01*
X171289814Y-124290186D01*
X171206552Y-124188729D01*
X171177222Y-124152991D01*
X171093557Y-123996466D01*
X171042037Y-123826627D01*
X171024641Y-123650000D01*
X171042037Y-123473373D01*
X171093557Y-123303534D01*
X171177222Y-123147009D01*
X171206552Y-123111271D01*
X171289814Y-123009814D01*
X171391271Y-122926552D01*
X171427009Y-122897222D01*
X171583534Y-122813557D01*
X171753373Y-122762037D01*
X171819558Y-122755518D01*
X171885740Y-122749000D01*
X171974260Y-122749000D01*
X172040442Y-122755518D01*
X172040442Y-122755518D01*
G37*
G36*
X174580442Y-122755518D02*
G01*
X174646627Y-122762037D01*
X174816466Y-122813557D01*
X174972991Y-122897222D01*
X175008729Y-122926552D01*
X175110186Y-123009814D01*
X175193448Y-123111271D01*
X175222778Y-123147009D01*
X175306443Y-123303534D01*
X175357963Y-123473373D01*
X175375359Y-123650000D01*
X175357963Y-123826627D01*
X175306443Y-123996466D01*
X175222778Y-124152991D01*
X175193448Y-124188729D01*
X175110186Y-124290186D01*
X175008729Y-124373448D01*
X174972991Y-124402778D01*
X174816466Y-124486443D01*
X174646627Y-124537963D01*
X174580443Y-124544481D01*
X174514260Y-124551000D01*
X174425740Y-124551000D01*
X174359557Y-124544481D01*
X174293373Y-124537963D01*
X174123534Y-124486443D01*
X173967009Y-124402778D01*
X173931271Y-124373448D01*
X173829814Y-124290186D01*
X173746552Y-124188729D01*
X173717222Y-124152991D01*
X173633557Y-123996466D01*
X173582037Y-123826627D01*
X173564641Y-123650000D01*
X173582037Y-123473373D01*
X173633557Y-123303534D01*
X173717222Y-123147009D01*
X173746552Y-123111271D01*
X173829814Y-123009814D01*
X173931271Y-122926552D01*
X173967009Y-122897222D01*
X174123534Y-122813557D01*
X174293373Y-122762037D01*
X174359558Y-122755518D01*
X174425740Y-122749000D01*
X174514260Y-122749000D01*
X174580442Y-122755518D01*
X174580442Y-122755518D01*
G37*
G36*
X169500442Y-122755518D02*
G01*
X169566627Y-122762037D01*
X169736466Y-122813557D01*
X169892991Y-122897222D01*
X169928729Y-122926552D01*
X170030186Y-123009814D01*
X170113448Y-123111271D01*
X170142778Y-123147009D01*
X170226443Y-123303534D01*
X170277963Y-123473373D01*
X170295359Y-123650000D01*
X170277963Y-123826627D01*
X170226443Y-123996466D01*
X170142778Y-124152991D01*
X170113448Y-124188729D01*
X170030186Y-124290186D01*
X169928729Y-124373448D01*
X169892991Y-124402778D01*
X169736466Y-124486443D01*
X169566627Y-124537963D01*
X169500443Y-124544481D01*
X169434260Y-124551000D01*
X169345740Y-124551000D01*
X169279557Y-124544481D01*
X169213373Y-124537963D01*
X169043534Y-124486443D01*
X168887009Y-124402778D01*
X168851271Y-124373448D01*
X168749814Y-124290186D01*
X168666552Y-124188729D01*
X168637222Y-124152991D01*
X168553557Y-123996466D01*
X168502037Y-123826627D01*
X168484641Y-123650000D01*
X168502037Y-123473373D01*
X168553557Y-123303534D01*
X168637222Y-123147009D01*
X168666552Y-123111271D01*
X168749814Y-123009814D01*
X168851271Y-122926552D01*
X168887009Y-122897222D01*
X169043534Y-122813557D01*
X169213373Y-122762037D01*
X169279558Y-122755518D01*
X169345740Y-122749000D01*
X169434260Y-122749000D01*
X169500442Y-122755518D01*
X169500442Y-122755518D01*
G37*
G36*
X164420442Y-122755518D02*
G01*
X164486627Y-122762037D01*
X164656466Y-122813557D01*
X164812991Y-122897222D01*
X164848729Y-122926552D01*
X164950186Y-123009814D01*
X165033448Y-123111271D01*
X165062778Y-123147009D01*
X165146443Y-123303534D01*
X165197963Y-123473373D01*
X165215359Y-123650000D01*
X165197963Y-123826627D01*
X165146443Y-123996466D01*
X165062778Y-124152991D01*
X165033448Y-124188729D01*
X164950186Y-124290186D01*
X164848729Y-124373448D01*
X164812991Y-124402778D01*
X164656466Y-124486443D01*
X164486627Y-124537963D01*
X164420443Y-124544481D01*
X164354260Y-124551000D01*
X164265740Y-124551000D01*
X164199557Y-124544481D01*
X164133373Y-124537963D01*
X163963534Y-124486443D01*
X163807009Y-124402778D01*
X163771271Y-124373448D01*
X163669814Y-124290186D01*
X163586552Y-124188729D01*
X163557222Y-124152991D01*
X163473557Y-123996466D01*
X163422037Y-123826627D01*
X163404641Y-123650000D01*
X163422037Y-123473373D01*
X163473557Y-123303534D01*
X163557222Y-123147009D01*
X163586552Y-123111271D01*
X163669814Y-123009814D01*
X163771271Y-122926552D01*
X163807009Y-122897222D01*
X163963534Y-122813557D01*
X164133373Y-122762037D01*
X164199558Y-122755518D01*
X164265740Y-122749000D01*
X164354260Y-122749000D01*
X164420442Y-122755518D01*
X164420442Y-122755518D01*
G37*
G36*
X166960442Y-122755518D02*
G01*
X167026627Y-122762037D01*
X167196466Y-122813557D01*
X167352991Y-122897222D01*
X167388729Y-122926552D01*
X167490186Y-123009814D01*
X167573448Y-123111271D01*
X167602778Y-123147009D01*
X167686443Y-123303534D01*
X167737963Y-123473373D01*
X167755359Y-123650000D01*
X167737963Y-123826627D01*
X167686443Y-123996466D01*
X167602778Y-124152991D01*
X167573448Y-124188729D01*
X167490186Y-124290186D01*
X167388729Y-124373448D01*
X167352991Y-124402778D01*
X167196466Y-124486443D01*
X167026627Y-124537963D01*
X166960443Y-124544481D01*
X166894260Y-124551000D01*
X166805740Y-124551000D01*
X166739557Y-124544481D01*
X166673373Y-124537963D01*
X166503534Y-124486443D01*
X166347009Y-124402778D01*
X166311271Y-124373448D01*
X166209814Y-124290186D01*
X166126552Y-124188729D01*
X166097222Y-124152991D01*
X166013557Y-123996466D01*
X165962037Y-123826627D01*
X165944641Y-123650000D01*
X165962037Y-123473373D01*
X166013557Y-123303534D01*
X166097222Y-123147009D01*
X166126552Y-123111271D01*
X166209814Y-123009814D01*
X166311271Y-122926552D01*
X166347009Y-122897222D01*
X166503534Y-122813557D01*
X166673373Y-122762037D01*
X166739558Y-122755518D01*
X166805740Y-122749000D01*
X166894260Y-122749000D01*
X166960442Y-122755518D01*
X166960442Y-122755518D01*
G37*
G36*
X184931000Y-123691000D02*
G01*
X183829000Y-123691000D01*
X183829000Y-121989000D01*
X184931000Y-121989000D01*
X184931000Y-123691000D01*
X184931000Y-123691000D01*
G37*
G36*
X182431000Y-123691000D02*
G01*
X181329000Y-123691000D01*
X181329000Y-121989000D01*
X182431000Y-121989000D01*
X182431000Y-123691000D01*
X182431000Y-123691000D01*
G37*
G36*
X179931000Y-123691000D02*
G01*
X178829000Y-123691000D01*
X178829000Y-121989000D01*
X179931000Y-121989000D01*
X179931000Y-123691000D01*
X179931000Y-123691000D01*
G37*
G36*
X153375256Y-120391298D02*
G01*
X153481579Y-120412447D01*
X153782042Y-120536903D01*
X154052451Y-120717585D01*
X154282415Y-120947549D01*
X154282416Y-120947551D01*
X154463098Y-121217960D01*
X154587553Y-121518422D01*
X154651000Y-121837389D01*
X154651000Y-122162611D01*
X154587553Y-122481578D01*
X154476784Y-122749000D01*
X154463097Y-122782042D01*
X154282415Y-123052451D01*
X154052451Y-123282415D01*
X153782042Y-123463097D01*
X153481579Y-123587553D01*
X153375256Y-123608702D01*
X153162611Y-123651000D01*
X152837389Y-123651000D01*
X152624744Y-123608702D01*
X152518421Y-123587553D01*
X152217958Y-123463097D01*
X151947549Y-123282415D01*
X151717585Y-123052451D01*
X151536903Y-122782042D01*
X151523217Y-122749000D01*
X151412447Y-122481578D01*
X151349000Y-122162611D01*
X151349000Y-121837389D01*
X151412447Y-121518422D01*
X151536902Y-121217960D01*
X151717584Y-120947551D01*
X151717585Y-120947549D01*
X151947549Y-120717585D01*
X152217958Y-120536903D01*
X152518421Y-120412447D01*
X152624744Y-120391298D01*
X152837389Y-120349000D01*
X153162611Y-120349000D01*
X153375256Y-120391298D01*
X153375256Y-120391298D01*
G37*
G36*
X179931000Y-120791000D02*
G01*
X178829000Y-120791000D01*
X178829000Y-119089000D01*
X179931000Y-119089000D01*
X179931000Y-120791000D01*
X179931000Y-120791000D01*
G37*
G36*
X182431000Y-120791000D02*
G01*
X181329000Y-120791000D01*
X181329000Y-119089000D01*
X182431000Y-119089000D01*
X182431000Y-120791000D01*
X182431000Y-120791000D01*
G37*
G36*
X184931000Y-120791000D02*
G01*
X183829000Y-120791000D01*
X183829000Y-119089000D01*
X184931000Y-119089000D01*
X184931000Y-120791000D01*
X184931000Y-120791000D01*
G37*
G36*
X190110442Y-118485518D02*
G01*
X190176627Y-118492037D01*
X190346466Y-118543557D01*
X190502991Y-118627222D01*
X190538729Y-118656552D01*
X190640186Y-118739814D01*
X190723448Y-118841271D01*
X190752778Y-118877009D01*
X190752779Y-118877011D01*
X190828212Y-119018134D01*
X190836443Y-119033534D01*
X190887963Y-119203373D01*
X190905359Y-119380000D01*
X190887963Y-119556627D01*
X190836443Y-119726466D01*
X190752778Y-119882991D01*
X190745006Y-119892461D01*
X190640186Y-120020186D01*
X190538729Y-120103448D01*
X190502991Y-120132778D01*
X190346466Y-120216443D01*
X190176627Y-120267963D01*
X190110442Y-120274482D01*
X190044260Y-120281000D01*
X189955740Y-120281000D01*
X189889558Y-120274482D01*
X189823373Y-120267963D01*
X189653534Y-120216443D01*
X189497009Y-120132778D01*
X189461271Y-120103448D01*
X189359814Y-120020186D01*
X189254994Y-119892461D01*
X189247222Y-119882991D01*
X189163557Y-119726466D01*
X189112037Y-119556627D01*
X189094641Y-119380000D01*
X189112037Y-119203373D01*
X189163557Y-119033534D01*
X189171789Y-119018134D01*
X189247221Y-118877011D01*
X189247222Y-118877009D01*
X189276552Y-118841271D01*
X189359814Y-118739814D01*
X189461271Y-118656552D01*
X189497009Y-118627222D01*
X189653534Y-118543557D01*
X189823373Y-118492037D01*
X189889558Y-118485518D01*
X189955740Y-118479000D01*
X190044260Y-118479000D01*
X190110442Y-118485518D01*
X190110442Y-118485518D01*
G37*
G36*
X192650442Y-118485518D02*
G01*
X192716627Y-118492037D01*
X192886466Y-118543557D01*
X193042991Y-118627222D01*
X193078729Y-118656552D01*
X193180186Y-118739814D01*
X193263448Y-118841271D01*
X193292778Y-118877009D01*
X193292779Y-118877011D01*
X193368212Y-119018134D01*
X193376443Y-119033534D01*
X193427963Y-119203373D01*
X193445359Y-119380000D01*
X193427963Y-119556627D01*
X193376443Y-119726466D01*
X193292778Y-119882991D01*
X193285006Y-119892461D01*
X193180186Y-120020186D01*
X193078729Y-120103448D01*
X193042991Y-120132778D01*
X192886466Y-120216443D01*
X192716627Y-120267963D01*
X192650442Y-120274482D01*
X192584260Y-120281000D01*
X192495740Y-120281000D01*
X192429558Y-120274482D01*
X192363373Y-120267963D01*
X192193534Y-120216443D01*
X192037009Y-120132778D01*
X192001271Y-120103448D01*
X191899814Y-120020186D01*
X191794994Y-119892461D01*
X191787222Y-119882991D01*
X191703557Y-119726466D01*
X191652037Y-119556627D01*
X191634641Y-119380000D01*
X191652037Y-119203373D01*
X191703557Y-119033534D01*
X191711789Y-119018134D01*
X191787221Y-118877011D01*
X191787222Y-118877009D01*
X191816552Y-118841271D01*
X191899814Y-118739814D01*
X192001271Y-118656552D01*
X192037009Y-118627222D01*
X192193534Y-118543557D01*
X192363373Y-118492037D01*
X192429558Y-118485518D01*
X192495740Y-118479000D01*
X192584260Y-118479000D01*
X192650442Y-118485518D01*
X192650442Y-118485518D01*
G37*
G36*
X170421000Y-120221000D02*
G01*
X168919000Y-120221000D01*
X168919000Y-118919000D01*
X170421000Y-118919000D01*
X170421000Y-120221000D01*
X170421000Y-120221000D01*
G37*
G36*
X168021000Y-120221000D02*
G01*
X166519000Y-120221000D01*
X166519000Y-118919000D01*
X168021000Y-118919000D01*
X168021000Y-120221000D01*
X168021000Y-120221000D01*
G37*
G36*
X172379591Y-118991085D02*
G01*
X172413569Y-119001393D01*
X172444890Y-119018134D01*
X172472339Y-119040661D01*
X172494866Y-119068110D01*
X172511607Y-119099431D01*
X172521915Y-119133409D01*
X172526000Y-119174890D01*
X172526000Y-119776110D01*
X172521915Y-119817591D01*
X172511607Y-119851569D01*
X172494866Y-119882890D01*
X172472339Y-119910339D01*
X172444890Y-119932866D01*
X172413569Y-119949607D01*
X172379591Y-119959915D01*
X172338110Y-119964000D01*
X171661890Y-119964000D01*
X171620409Y-119959915D01*
X171586431Y-119949607D01*
X171555110Y-119932866D01*
X171527661Y-119910339D01*
X171505134Y-119882890D01*
X171488393Y-119851569D01*
X171478085Y-119817591D01*
X171474000Y-119776110D01*
X171474000Y-119174890D01*
X171478085Y-119133409D01*
X171488393Y-119099431D01*
X171505134Y-119068110D01*
X171527661Y-119040661D01*
X171555110Y-119018134D01*
X171586431Y-119001393D01*
X171620409Y-118991085D01*
X171661890Y-118987000D01*
X172338110Y-118987000D01*
X172379591Y-118991085D01*
X172379591Y-118991085D01*
G37*
G36*
X165379591Y-118891085D02*
G01*
X165413569Y-118901393D01*
X165444890Y-118918134D01*
X165472339Y-118940661D01*
X165494866Y-118968110D01*
X165511607Y-118999431D01*
X165521915Y-119033409D01*
X165526000Y-119074890D01*
X165526000Y-119676110D01*
X165521915Y-119717591D01*
X165511607Y-119751569D01*
X165494866Y-119782890D01*
X165472339Y-119810339D01*
X165444890Y-119832866D01*
X165413569Y-119849607D01*
X165379591Y-119859915D01*
X165338110Y-119864000D01*
X164661890Y-119864000D01*
X164620409Y-119859915D01*
X164586431Y-119849607D01*
X164555110Y-119832866D01*
X164527661Y-119810339D01*
X164505134Y-119782890D01*
X164488393Y-119751569D01*
X164478085Y-119717591D01*
X164474000Y-119676110D01*
X164474000Y-119074890D01*
X164478085Y-119033409D01*
X164488393Y-118999431D01*
X164505134Y-118968110D01*
X164527661Y-118940661D01*
X164555110Y-118918134D01*
X164586431Y-118901393D01*
X164620409Y-118891085D01*
X164661890Y-118887000D01*
X165338110Y-118887000D01*
X165379591Y-118891085D01*
X165379591Y-118891085D01*
G37*
G36*
X172379591Y-117416085D02*
G01*
X172413569Y-117426393D01*
X172444890Y-117443134D01*
X172472339Y-117465661D01*
X172494866Y-117493110D01*
X172511607Y-117524431D01*
X172521915Y-117558409D01*
X172526000Y-117599890D01*
X172526000Y-118201110D01*
X172521915Y-118242591D01*
X172511607Y-118276569D01*
X172494866Y-118307890D01*
X172472339Y-118335339D01*
X172444890Y-118357866D01*
X172413569Y-118374607D01*
X172379591Y-118384915D01*
X172338110Y-118389000D01*
X171661890Y-118389000D01*
X171620409Y-118384915D01*
X171586431Y-118374607D01*
X171555110Y-118357866D01*
X171527661Y-118335339D01*
X171505134Y-118307890D01*
X171488393Y-118276569D01*
X171478085Y-118242591D01*
X171474000Y-118201110D01*
X171474000Y-117599890D01*
X171478085Y-117558409D01*
X171488393Y-117524431D01*
X171505134Y-117493110D01*
X171527661Y-117465661D01*
X171555110Y-117443134D01*
X171586431Y-117426393D01*
X171620409Y-117416085D01*
X171661890Y-117412000D01*
X172338110Y-117412000D01*
X172379591Y-117416085D01*
X172379591Y-117416085D01*
G37*
G36*
X168021000Y-118321000D02*
G01*
X166519000Y-118321000D01*
X166519000Y-117019000D01*
X168021000Y-117019000D01*
X168021000Y-118321000D01*
X168021000Y-118321000D01*
G37*
G36*
X170421000Y-118321000D02*
G01*
X168919000Y-118321000D01*
X168919000Y-117019000D01*
X170421000Y-117019000D01*
X170421000Y-118321000D01*
X170421000Y-118321000D01*
G37*
G36*
X165379591Y-117316085D02*
G01*
X165413569Y-117326393D01*
X165444890Y-117343134D01*
X165472339Y-117365661D01*
X165494866Y-117393110D01*
X165511607Y-117424431D01*
X165521915Y-117458409D01*
X165526000Y-117499890D01*
X165526000Y-118101110D01*
X165521915Y-118142591D01*
X165511607Y-118176569D01*
X165494866Y-118207890D01*
X165472339Y-118235339D01*
X165444890Y-118257866D01*
X165413569Y-118274607D01*
X165379591Y-118284915D01*
X165338110Y-118289000D01*
X164661890Y-118289000D01*
X164620409Y-118284915D01*
X164586431Y-118274607D01*
X164555110Y-118257866D01*
X164527661Y-118235339D01*
X164505134Y-118207890D01*
X164488393Y-118176569D01*
X164478085Y-118142591D01*
X164474000Y-118101110D01*
X164474000Y-117499890D01*
X164478085Y-117458409D01*
X164488393Y-117424431D01*
X164505134Y-117393110D01*
X164527661Y-117365661D01*
X164555110Y-117343134D01*
X164586431Y-117326393D01*
X164620409Y-117316085D01*
X164661890Y-117312000D01*
X165338110Y-117312000D01*
X165379591Y-117316085D01*
X165379591Y-117316085D01*
G37*
G36*
X190110442Y-115945518D02*
G01*
X190176627Y-115952037D01*
X190346466Y-116003557D01*
X190502991Y-116087222D01*
X190533927Y-116112611D01*
X190640186Y-116199814D01*
X190718364Y-116295076D01*
X190752778Y-116337009D01*
X190836443Y-116493534D01*
X190887963Y-116663373D01*
X190905359Y-116840000D01*
X190887963Y-117016627D01*
X190836443Y-117186466D01*
X190752778Y-117342991D01*
X190734173Y-117365661D01*
X190640186Y-117480186D01*
X190539543Y-117562780D01*
X190502991Y-117592778D01*
X190346466Y-117676443D01*
X190176627Y-117727963D01*
X190110442Y-117734482D01*
X190044260Y-117741000D01*
X189955740Y-117741000D01*
X189889558Y-117734482D01*
X189823373Y-117727963D01*
X189653534Y-117676443D01*
X189497009Y-117592778D01*
X189460457Y-117562780D01*
X189359814Y-117480186D01*
X189265827Y-117365661D01*
X189247222Y-117342991D01*
X189163557Y-117186466D01*
X189112037Y-117016627D01*
X189094641Y-116840000D01*
X189112037Y-116663373D01*
X189163557Y-116493534D01*
X189247222Y-116337009D01*
X189281636Y-116295076D01*
X189359814Y-116199814D01*
X189466073Y-116112611D01*
X189497009Y-116087222D01*
X189653534Y-116003557D01*
X189823373Y-115952037D01*
X189889558Y-115945518D01*
X189955740Y-115939000D01*
X190044260Y-115939000D01*
X190110442Y-115945518D01*
X190110442Y-115945518D01*
G37*
G36*
X192650442Y-115945518D02*
G01*
X192716627Y-115952037D01*
X192886466Y-116003557D01*
X193042991Y-116087222D01*
X193073927Y-116112611D01*
X193180186Y-116199814D01*
X193258364Y-116295076D01*
X193292778Y-116337009D01*
X193376443Y-116493534D01*
X193427963Y-116663373D01*
X193445359Y-116840000D01*
X193427963Y-117016627D01*
X193376443Y-117186466D01*
X193292778Y-117342991D01*
X193274173Y-117365661D01*
X193180186Y-117480186D01*
X193079543Y-117562780D01*
X193042991Y-117592778D01*
X192886466Y-117676443D01*
X192716627Y-117727963D01*
X192650442Y-117734482D01*
X192584260Y-117741000D01*
X192495740Y-117741000D01*
X192429558Y-117734482D01*
X192363373Y-117727963D01*
X192193534Y-117676443D01*
X192037009Y-117592778D01*
X192000457Y-117562780D01*
X191899814Y-117480186D01*
X191805827Y-117365661D01*
X191787222Y-117342991D01*
X191703557Y-117186466D01*
X191652037Y-117016627D01*
X191634641Y-116840000D01*
X191652037Y-116663373D01*
X191703557Y-116493534D01*
X191787222Y-116337009D01*
X191821636Y-116295076D01*
X191899814Y-116199814D01*
X192006073Y-116112611D01*
X192037009Y-116087222D01*
X192193534Y-116003557D01*
X192363373Y-115952037D01*
X192429558Y-115945518D01*
X192495740Y-115939000D01*
X192584260Y-115939000D01*
X192650442Y-115945518D01*
X192650442Y-115945518D01*
G37*
G36*
X157438015Y-107636973D02*
G01*
X157541879Y-107668479D01*
X157569055Y-107683005D01*
X157637600Y-107719643D01*
X157721501Y-107788499D01*
X157790357Y-107872400D01*
X157826995Y-107940945D01*
X157841521Y-107968121D01*
X157873027Y-108071985D01*
X157883666Y-108180000D01*
X157873027Y-108288015D01*
X157841521Y-108391879D01*
X157841519Y-108391882D01*
X157790357Y-108487600D01*
X157721501Y-108571501D01*
X157637603Y-108640354D01*
X157637601Y-108640355D01*
X157637600Y-108640356D01*
X157547025Y-108688770D01*
X157526665Y-108702375D01*
X157509338Y-108719702D01*
X157495724Y-108740076D01*
X157486347Y-108762715D01*
X157481566Y-108786748D01*
X157481566Y-108811252D01*
X157486346Y-108835286D01*
X157495723Y-108857925D01*
X157509337Y-108878299D01*
X157526664Y-108895626D01*
X157547038Y-108909240D01*
X157569677Y-108918617D01*
X157593710Y-108923398D01*
X157605963Y-108924000D01*
X158471000Y-108924000D01*
X158471000Y-116076000D01*
X157605963Y-116076000D01*
X157581577Y-116078402D01*
X157558128Y-116085515D01*
X157536517Y-116097066D01*
X157517575Y-116112611D01*
X157502030Y-116131553D01*
X157490479Y-116153164D01*
X157483366Y-116176613D01*
X157480964Y-116200999D01*
X157483366Y-116225385D01*
X157490479Y-116248834D01*
X157502030Y-116270445D01*
X157517575Y-116289387D01*
X157536517Y-116304932D01*
X157547010Y-116311222D01*
X157637600Y-116359644D01*
X157637601Y-116359645D01*
X157637603Y-116359646D01*
X157721501Y-116428499D01*
X157790357Y-116512400D01*
X157814124Y-116556866D01*
X157841521Y-116608121D01*
X157873027Y-116711985D01*
X157883666Y-116820000D01*
X157873027Y-116928015D01*
X157841521Y-117031879D01*
X157841519Y-117031882D01*
X157790357Y-117127600D01*
X157721501Y-117211501D01*
X157637600Y-117280357D01*
X157570757Y-117316085D01*
X157541879Y-117331521D01*
X157438015Y-117363027D01*
X157357067Y-117371000D01*
X156202933Y-117371000D01*
X156121985Y-117363027D01*
X156018121Y-117331521D01*
X155989243Y-117316085D01*
X155922400Y-117280357D01*
X155838499Y-117211501D01*
X155769643Y-117127600D01*
X155718481Y-117031882D01*
X155718479Y-117031879D01*
X155686973Y-116928015D01*
X155676334Y-116820000D01*
X155686973Y-116711985D01*
X155718479Y-116608121D01*
X155745876Y-116556866D01*
X155769643Y-116512400D01*
X155838499Y-116428499D01*
X155922400Y-116359643D01*
X156012958Y-116311239D01*
X156018121Y-116308479D01*
X156121985Y-116276973D01*
X156202933Y-116269000D01*
X156794001Y-116269000D01*
X156818387Y-116266598D01*
X156841836Y-116259485D01*
X156863447Y-116247934D01*
X156882389Y-116232389D01*
X156897934Y-116213447D01*
X156909485Y-116191836D01*
X156916598Y-116168387D01*
X156919000Y-116144001D01*
X156919000Y-108855999D01*
X156916598Y-108831613D01*
X156909485Y-108808164D01*
X156897934Y-108786553D01*
X156882389Y-108767611D01*
X156863447Y-108752066D01*
X156841836Y-108740515D01*
X156818387Y-108733402D01*
X156794001Y-108731000D01*
X156202933Y-108731000D01*
X156121985Y-108723027D01*
X156018121Y-108691521D01*
X155987355Y-108675076D01*
X155922400Y-108640357D01*
X155838499Y-108571501D01*
X155769643Y-108487600D01*
X155718481Y-108391882D01*
X155718479Y-108391879D01*
X155686973Y-108288015D01*
X155676334Y-108180000D01*
X155686973Y-108071985D01*
X155718479Y-107968121D01*
X155733005Y-107940945D01*
X155769643Y-107872400D01*
X155838499Y-107788499D01*
X155922400Y-107719643D01*
X155990945Y-107683005D01*
X156018121Y-107668479D01*
X156121985Y-107636973D01*
X156202933Y-107629000D01*
X157357067Y-107629000D01*
X157438015Y-107636973D01*
X157438015Y-107636973D01*
G37*
G36*
X153008015Y-116276973D02*
G01*
X153111879Y-116308479D01*
X153117042Y-116311239D01*
X153207600Y-116359643D01*
X153291501Y-116428499D01*
X153360357Y-116512400D01*
X153384124Y-116556866D01*
X153411521Y-116608121D01*
X153443027Y-116711985D01*
X153453666Y-116820000D01*
X153443027Y-116928015D01*
X153411521Y-117031879D01*
X153411519Y-117031882D01*
X153360357Y-117127600D01*
X153291501Y-117211501D01*
X153207600Y-117280357D01*
X153140757Y-117316085D01*
X153111879Y-117331521D01*
X153008015Y-117363027D01*
X152927067Y-117371000D01*
X152272933Y-117371000D01*
X152191985Y-117363027D01*
X152088121Y-117331521D01*
X152059243Y-117316085D01*
X151992400Y-117280357D01*
X151908499Y-117211501D01*
X151839643Y-117127600D01*
X151788481Y-117031882D01*
X151788479Y-117031879D01*
X151756973Y-116928015D01*
X151746334Y-116820000D01*
X151756973Y-116711985D01*
X151788479Y-116608121D01*
X151815876Y-116556866D01*
X151839643Y-116512400D01*
X151908499Y-116428499D01*
X151992400Y-116359643D01*
X152082958Y-116311239D01*
X152088121Y-116308479D01*
X152191985Y-116276973D01*
X152272933Y-116269000D01*
X152927067Y-116269000D01*
X153008015Y-116276973D01*
X153008015Y-116276973D01*
G37*
G36*
X178066823Y-114981313D02*
G01*
X178189764Y-115018607D01*
X178223745Y-115028915D01*
X178227242Y-115029976D01*
X178354397Y-115097942D01*
X178375078Y-115108996D01*
X178504659Y-115215341D01*
X178611004Y-115344922D01*
X178611005Y-115344924D01*
X178690024Y-115492758D01*
X178738687Y-115653177D01*
X178755117Y-115820000D01*
X178738687Y-115986823D01*
X178690024Y-116147242D01*
X178644512Y-116232389D01*
X178611004Y-116295078D01*
X178504659Y-116424659D01*
X178375078Y-116531004D01*
X178375076Y-116531005D01*
X178227242Y-116610024D01*
X178066823Y-116658687D01*
X177941804Y-116671000D01*
X177858196Y-116671000D01*
X177733177Y-116658687D01*
X177572758Y-116610024D01*
X177424924Y-116531005D01*
X177424922Y-116531004D01*
X177295341Y-116424659D01*
X177188996Y-116295078D01*
X177155488Y-116232389D01*
X177109976Y-116147242D01*
X177061313Y-115986823D01*
X177044883Y-115820000D01*
X177061313Y-115653177D01*
X177109976Y-115492758D01*
X177188995Y-115344924D01*
X177188996Y-115344922D01*
X177295341Y-115215341D01*
X177424922Y-115108996D01*
X177445603Y-115097942D01*
X177572758Y-115029976D01*
X177576256Y-115028915D01*
X177610236Y-115018607D01*
X177733177Y-114981313D01*
X177858196Y-114969000D01*
X177941804Y-114969000D01*
X178066823Y-114981313D01*
X178066823Y-114981313D01*
G37*
G36*
X185686823Y-114981313D02*
G01*
X185809764Y-115018607D01*
X185843745Y-115028915D01*
X185847242Y-115029976D01*
X185974397Y-115097942D01*
X185995078Y-115108996D01*
X186124659Y-115215341D01*
X186231004Y-115344922D01*
X186231005Y-115344924D01*
X186310024Y-115492758D01*
X186358687Y-115653177D01*
X186375117Y-115820000D01*
X186358687Y-115986823D01*
X186310024Y-116147242D01*
X186264512Y-116232389D01*
X186231004Y-116295078D01*
X186124659Y-116424659D01*
X185995078Y-116531004D01*
X185995076Y-116531005D01*
X185847242Y-116610024D01*
X185686823Y-116658687D01*
X185561804Y-116671000D01*
X185478196Y-116671000D01*
X185353177Y-116658687D01*
X185192758Y-116610024D01*
X185044924Y-116531005D01*
X185044922Y-116531004D01*
X184915341Y-116424659D01*
X184808996Y-116295078D01*
X184775488Y-116232389D01*
X184729976Y-116147242D01*
X184681313Y-115986823D01*
X184664883Y-115820000D01*
X184681313Y-115653177D01*
X184729976Y-115492758D01*
X184808995Y-115344924D01*
X184808996Y-115344922D01*
X184915341Y-115215341D01*
X185044922Y-115108996D01*
X185065603Y-115097942D01*
X185192758Y-115029976D01*
X185196256Y-115028915D01*
X185230236Y-115018607D01*
X185353177Y-114981313D01*
X185478196Y-114969000D01*
X185561804Y-114969000D01*
X185686823Y-114981313D01*
X185686823Y-114981313D01*
G37*
G36*
X175399591Y-115635085D02*
G01*
X175433569Y-115645393D01*
X175464890Y-115662134D01*
X175492339Y-115684661D01*
X175514866Y-115712110D01*
X175531607Y-115743431D01*
X175541915Y-115777409D01*
X175546000Y-115818890D01*
X175546000Y-116420110D01*
X175541915Y-116461591D01*
X175531607Y-116495569D01*
X175514866Y-116526890D01*
X175492339Y-116554339D01*
X175464890Y-116576866D01*
X175433569Y-116593607D01*
X175399591Y-116603915D01*
X175358110Y-116608000D01*
X174681890Y-116608000D01*
X174640409Y-116603915D01*
X174606431Y-116593607D01*
X174575110Y-116576866D01*
X174547661Y-116554339D01*
X174525134Y-116526890D01*
X174508393Y-116495569D01*
X174498085Y-116461591D01*
X174494000Y-116420110D01*
X174494000Y-115818890D01*
X174498085Y-115777409D01*
X174508393Y-115743431D01*
X174525134Y-115712110D01*
X174547661Y-115684661D01*
X174575110Y-115662134D01*
X174606431Y-115645393D01*
X174640409Y-115635085D01*
X174681890Y-115631000D01*
X175358110Y-115631000D01*
X175399591Y-115635085D01*
X175399591Y-115635085D01*
G37*
G36*
X173879591Y-115615085D02*
G01*
X173913569Y-115625393D01*
X173944890Y-115642134D01*
X173972339Y-115664661D01*
X173994866Y-115692110D01*
X174011607Y-115723431D01*
X174021915Y-115757409D01*
X174026000Y-115798890D01*
X174026000Y-116400110D01*
X174021915Y-116441591D01*
X174011607Y-116475569D01*
X173994866Y-116506890D01*
X173972339Y-116534339D01*
X173944890Y-116556866D01*
X173913569Y-116573607D01*
X173879591Y-116583915D01*
X173838110Y-116588000D01*
X173161890Y-116588000D01*
X173120409Y-116583915D01*
X173086431Y-116573607D01*
X173055110Y-116556866D01*
X173027661Y-116534339D01*
X173005134Y-116506890D01*
X172988393Y-116475569D01*
X172978085Y-116441591D01*
X172974000Y-116400110D01*
X172974000Y-115798890D01*
X172978085Y-115757409D01*
X172988393Y-115723431D01*
X173005134Y-115692110D01*
X173027661Y-115664661D01*
X173055110Y-115642134D01*
X173086431Y-115625393D01*
X173120409Y-115615085D01*
X173161890Y-115611000D01*
X173838110Y-115611000D01*
X173879591Y-115615085D01*
X173879591Y-115615085D01*
G37*
G36*
X162017591Y-115478085D02*
G01*
X162051569Y-115488393D01*
X162082890Y-115505134D01*
X162110339Y-115527661D01*
X162132866Y-115555110D01*
X162149607Y-115586431D01*
X162159915Y-115620409D01*
X162164000Y-115661890D01*
X162164000Y-116338110D01*
X162159915Y-116379591D01*
X162149607Y-116413569D01*
X162132866Y-116444890D01*
X162110339Y-116472339D01*
X162082890Y-116494866D01*
X162051569Y-116511607D01*
X162017591Y-116521915D01*
X161976110Y-116526000D01*
X161374890Y-116526000D01*
X161333409Y-116521915D01*
X161299431Y-116511607D01*
X161268110Y-116494866D01*
X161240661Y-116472339D01*
X161218134Y-116444890D01*
X161201393Y-116413569D01*
X161191085Y-116379591D01*
X161187000Y-116338110D01*
X161187000Y-115661890D01*
X161191085Y-115620409D01*
X161201393Y-115586431D01*
X161218134Y-115555110D01*
X161240661Y-115527661D01*
X161268110Y-115505134D01*
X161299431Y-115488393D01*
X161333409Y-115478085D01*
X161374890Y-115474000D01*
X161976110Y-115474000D01*
X162017591Y-115478085D01*
X162017591Y-115478085D01*
G37*
G36*
X160442591Y-115478085D02*
G01*
X160476569Y-115488393D01*
X160507890Y-115505134D01*
X160535339Y-115527661D01*
X160557866Y-115555110D01*
X160574607Y-115586431D01*
X160584915Y-115620409D01*
X160589000Y-115661890D01*
X160589000Y-116338110D01*
X160584915Y-116379591D01*
X160574607Y-116413569D01*
X160557866Y-116444890D01*
X160535339Y-116472339D01*
X160507890Y-116494866D01*
X160476569Y-116511607D01*
X160442591Y-116521915D01*
X160401110Y-116526000D01*
X159799890Y-116526000D01*
X159758409Y-116521915D01*
X159724431Y-116511607D01*
X159693110Y-116494866D01*
X159665661Y-116472339D01*
X159643134Y-116444890D01*
X159626393Y-116413569D01*
X159616085Y-116379591D01*
X159612000Y-116338110D01*
X159612000Y-115661890D01*
X159616085Y-115620409D01*
X159626393Y-115586431D01*
X159643134Y-115555110D01*
X159665661Y-115527661D01*
X159693110Y-115505134D01*
X159724431Y-115488393D01*
X159758409Y-115478085D01*
X159799890Y-115474000D01*
X160401110Y-115474000D01*
X160442591Y-115478085D01*
X160442591Y-115478085D01*
G37*
G36*
X156359672Y-115028449D02*
G01*
X156359674Y-115028450D01*
X156359675Y-115028450D01*
X156428103Y-115056793D01*
X156489686Y-115097942D01*
X156542058Y-115150314D01*
X156583207Y-115211897D01*
X156611550Y-115280325D01*
X156611551Y-115280328D01*
X156626000Y-115352966D01*
X156626000Y-115427034D01*
X156612926Y-115492761D01*
X156611550Y-115499675D01*
X156583207Y-115568103D01*
X156542058Y-115629686D01*
X156489686Y-115682058D01*
X156428103Y-115723207D01*
X156359675Y-115751550D01*
X156359674Y-115751550D01*
X156359672Y-115751551D01*
X156287034Y-115766000D01*
X156212966Y-115766000D01*
X156140328Y-115751551D01*
X156140326Y-115751550D01*
X156140325Y-115751550D01*
X156071897Y-115723207D01*
X156010314Y-115682058D01*
X155957942Y-115629686D01*
X155916793Y-115568103D01*
X155888450Y-115499675D01*
X155887075Y-115492761D01*
X155874000Y-115427034D01*
X155874000Y-115352966D01*
X155888449Y-115280328D01*
X155888450Y-115280325D01*
X155916793Y-115211897D01*
X155957942Y-115150314D01*
X156010314Y-115097942D01*
X156071897Y-115056793D01*
X156140325Y-115028450D01*
X156140326Y-115028450D01*
X156140328Y-115028449D01*
X156212966Y-115014000D01*
X156287034Y-115014000D01*
X156359672Y-115028449D01*
X156359672Y-115028449D01*
G37*
G36*
X172026000Y-115301000D02*
G01*
X170474000Y-115301000D01*
X170474000Y-108899000D01*
X172026000Y-108899000D01*
X172026000Y-115301000D01*
X172026000Y-115301000D01*
G37*
G36*
X166126000Y-115301000D02*
G01*
X164574000Y-115301000D01*
X164574000Y-108899000D01*
X166126000Y-108899000D01*
X166126000Y-115301000D01*
X166126000Y-115301000D01*
G37*
G36*
X192650443Y-113405519D02*
G01*
X192716627Y-113412037D01*
X192886466Y-113463557D01*
X193042991Y-113547222D01*
X193045157Y-113549000D01*
X193180186Y-113659814D01*
X193258364Y-113755076D01*
X193292778Y-113797009D01*
X193376443Y-113953534D01*
X193427963Y-114123373D01*
X193445359Y-114300000D01*
X193427963Y-114476627D01*
X193386422Y-114613569D01*
X193376442Y-114646468D01*
X193355934Y-114684836D01*
X193292778Y-114802991D01*
X193274625Y-114825110D01*
X193180186Y-114940186D01*
X193090242Y-115014000D01*
X193042991Y-115052778D01*
X192886466Y-115136443D01*
X192716627Y-115187963D01*
X192650442Y-115194482D01*
X192584260Y-115201000D01*
X192495740Y-115201000D01*
X192429558Y-115194482D01*
X192363373Y-115187963D01*
X192193534Y-115136443D01*
X192037009Y-115052778D01*
X191989758Y-115014000D01*
X191899814Y-114940186D01*
X191805375Y-114825110D01*
X191787222Y-114802991D01*
X191724066Y-114684836D01*
X191703558Y-114646468D01*
X191693578Y-114613569D01*
X191652037Y-114476627D01*
X191634641Y-114300000D01*
X191652037Y-114123373D01*
X191703557Y-113953534D01*
X191787222Y-113797009D01*
X191821636Y-113755076D01*
X191899814Y-113659814D01*
X192034843Y-113549000D01*
X192037009Y-113547222D01*
X192193534Y-113463557D01*
X192363373Y-113412037D01*
X192429557Y-113405519D01*
X192495740Y-113399000D01*
X192584260Y-113399000D01*
X192650443Y-113405519D01*
X192650443Y-113405519D01*
G37*
G36*
X190110443Y-113405519D02*
G01*
X190176627Y-113412037D01*
X190346466Y-113463557D01*
X190502991Y-113547222D01*
X190505157Y-113549000D01*
X190640186Y-113659814D01*
X190718364Y-113755076D01*
X190752778Y-113797009D01*
X190836443Y-113953534D01*
X190887963Y-114123373D01*
X190905359Y-114300000D01*
X190887963Y-114476627D01*
X190846422Y-114613569D01*
X190836442Y-114646468D01*
X190815934Y-114684836D01*
X190752778Y-114802991D01*
X190734625Y-114825110D01*
X190640186Y-114940186D01*
X190550242Y-115014000D01*
X190502991Y-115052778D01*
X190346466Y-115136443D01*
X190176627Y-115187963D01*
X190110442Y-115194482D01*
X190044260Y-115201000D01*
X189955740Y-115201000D01*
X189889558Y-115194482D01*
X189823373Y-115187963D01*
X189653534Y-115136443D01*
X189497009Y-115052778D01*
X189449758Y-115014000D01*
X189359814Y-114940186D01*
X189265375Y-114825110D01*
X189247222Y-114802991D01*
X189184066Y-114684836D01*
X189163558Y-114646468D01*
X189153578Y-114613569D01*
X189112037Y-114476627D01*
X189094641Y-114300000D01*
X189112037Y-114123373D01*
X189163557Y-113953534D01*
X189247222Y-113797009D01*
X189281636Y-113755076D01*
X189359814Y-113659814D01*
X189494843Y-113549000D01*
X189497009Y-113547222D01*
X189653534Y-113463557D01*
X189823373Y-113412037D01*
X189889557Y-113405519D01*
X189955740Y-113399000D01*
X190044260Y-113399000D01*
X190110443Y-113405519D01*
X190110443Y-113405519D01*
G37*
G36*
X175399591Y-114060085D02*
G01*
X175433569Y-114070393D01*
X175464890Y-114087134D01*
X175492339Y-114109661D01*
X175514866Y-114137110D01*
X175531607Y-114168431D01*
X175541915Y-114202409D01*
X175546000Y-114243890D01*
X175546000Y-114845110D01*
X175541915Y-114886591D01*
X175531607Y-114920569D01*
X175514866Y-114951890D01*
X175492339Y-114979339D01*
X175464890Y-115001866D01*
X175433569Y-115018607D01*
X175399591Y-115028915D01*
X175358110Y-115033000D01*
X174681890Y-115033000D01*
X174640409Y-115028915D01*
X174606431Y-115018607D01*
X174575110Y-115001866D01*
X174547661Y-114979339D01*
X174525134Y-114951890D01*
X174508393Y-114920569D01*
X174498085Y-114886591D01*
X174494000Y-114845110D01*
X174494000Y-114243890D01*
X174498085Y-114202409D01*
X174508393Y-114168431D01*
X174525134Y-114137110D01*
X174547661Y-114109661D01*
X174575110Y-114087134D01*
X174606431Y-114070393D01*
X174640409Y-114060085D01*
X174681890Y-114056000D01*
X175358110Y-114056000D01*
X175399591Y-114060085D01*
X175399591Y-114060085D01*
G37*
G36*
X173879591Y-114040085D02*
G01*
X173913569Y-114050393D01*
X173944890Y-114067134D01*
X173972339Y-114089661D01*
X173994866Y-114117110D01*
X174011607Y-114148431D01*
X174021915Y-114182409D01*
X174026000Y-114223890D01*
X174026000Y-114825110D01*
X174021915Y-114866591D01*
X174011607Y-114900569D01*
X173994866Y-114931890D01*
X173972339Y-114959339D01*
X173944890Y-114981866D01*
X173913569Y-114998607D01*
X173879591Y-115008915D01*
X173838110Y-115013000D01*
X173161890Y-115013000D01*
X173120409Y-115008915D01*
X173086431Y-114998607D01*
X173055110Y-114981866D01*
X173027661Y-114959339D01*
X173005134Y-114931890D01*
X172988393Y-114900569D01*
X172978085Y-114866591D01*
X172974000Y-114825110D01*
X172974000Y-114223890D01*
X172978085Y-114182409D01*
X172988393Y-114148431D01*
X173005134Y-114117110D01*
X173027661Y-114089661D01*
X173055110Y-114067134D01*
X173086431Y-114050393D01*
X173120409Y-114040085D01*
X173161890Y-114036000D01*
X173838110Y-114036000D01*
X173879591Y-114040085D01*
X173879591Y-114040085D01*
G37*
G36*
X162017591Y-113678085D02*
G01*
X162051569Y-113688393D01*
X162082890Y-113705134D01*
X162110339Y-113727661D01*
X162132866Y-113755110D01*
X162149607Y-113786431D01*
X162159915Y-113820409D01*
X162164000Y-113861890D01*
X162164000Y-114538110D01*
X162159915Y-114579591D01*
X162149607Y-114613569D01*
X162132866Y-114644890D01*
X162110339Y-114672339D01*
X162082890Y-114694866D01*
X162051569Y-114711607D01*
X162017591Y-114721915D01*
X161976110Y-114726000D01*
X161374890Y-114726000D01*
X161333409Y-114721915D01*
X161299431Y-114711607D01*
X161268110Y-114694866D01*
X161240661Y-114672339D01*
X161218134Y-114644890D01*
X161201393Y-114613569D01*
X161191085Y-114579591D01*
X161187000Y-114538110D01*
X161187000Y-113861890D01*
X161191085Y-113820409D01*
X161201393Y-113786431D01*
X161218134Y-113755110D01*
X161240661Y-113727661D01*
X161268110Y-113705134D01*
X161299431Y-113688393D01*
X161333409Y-113678085D01*
X161374890Y-113674000D01*
X161976110Y-113674000D01*
X162017591Y-113678085D01*
X162017591Y-113678085D01*
G37*
G36*
X160442591Y-113678085D02*
G01*
X160476569Y-113688393D01*
X160507890Y-113705134D01*
X160535339Y-113727661D01*
X160557866Y-113755110D01*
X160574607Y-113786431D01*
X160584915Y-113820409D01*
X160589000Y-113861890D01*
X160589000Y-114538110D01*
X160584915Y-114579591D01*
X160574607Y-114613569D01*
X160557866Y-114644890D01*
X160535339Y-114672339D01*
X160507890Y-114694866D01*
X160476569Y-114711607D01*
X160442591Y-114721915D01*
X160401110Y-114726000D01*
X159799890Y-114726000D01*
X159758409Y-114721915D01*
X159724431Y-114711607D01*
X159693110Y-114694866D01*
X159665661Y-114672339D01*
X159643134Y-114644890D01*
X159626393Y-114613569D01*
X159616085Y-114579591D01*
X159612000Y-114538110D01*
X159612000Y-113861890D01*
X159616085Y-113820409D01*
X159626393Y-113786431D01*
X159643134Y-113755110D01*
X159665661Y-113727661D01*
X159693110Y-113705134D01*
X159724431Y-113688393D01*
X159758409Y-113678085D01*
X159799890Y-113674000D01*
X160401110Y-113674000D01*
X160442591Y-113678085D01*
X160442591Y-113678085D01*
G37*
G36*
X178066823Y-112441313D02*
G01*
X178227242Y-112489976D01*
X178337668Y-112549000D01*
X178375078Y-112568996D01*
X178504659Y-112675341D01*
X178611004Y-112804922D01*
X178611005Y-112804924D01*
X178690024Y-112952758D01*
X178738687Y-113113177D01*
X178755117Y-113280000D01*
X178738687Y-113446823D01*
X178690024Y-113607242D01*
X178632338Y-113715164D01*
X178611004Y-113755078D01*
X178504659Y-113884659D01*
X178375078Y-113991004D01*
X178375076Y-113991005D01*
X178227242Y-114070024D01*
X178227239Y-114070025D01*
X178203705Y-114077164D01*
X178066823Y-114118687D01*
X177941804Y-114131000D01*
X177858196Y-114131000D01*
X177733177Y-114118687D01*
X177596295Y-114077164D01*
X177572761Y-114070025D01*
X177572758Y-114070024D01*
X177424924Y-113991005D01*
X177424922Y-113991004D01*
X177295341Y-113884659D01*
X177188996Y-113755078D01*
X177167662Y-113715164D01*
X177109976Y-113607242D01*
X177061313Y-113446823D01*
X177044883Y-113280000D01*
X177061313Y-113113177D01*
X177109976Y-112952758D01*
X177188995Y-112804924D01*
X177188996Y-112804922D01*
X177295341Y-112675341D01*
X177424922Y-112568996D01*
X177462332Y-112549000D01*
X177572758Y-112489976D01*
X177733177Y-112441313D01*
X177858196Y-112429000D01*
X177941804Y-112429000D01*
X178066823Y-112441313D01*
X178066823Y-112441313D01*
G37*
G36*
X185686823Y-112441313D02*
G01*
X185847242Y-112489976D01*
X185957668Y-112549000D01*
X185995078Y-112568996D01*
X186124659Y-112675341D01*
X186231004Y-112804922D01*
X186231005Y-112804924D01*
X186310024Y-112952758D01*
X186358687Y-113113177D01*
X186375117Y-113280000D01*
X186358687Y-113446823D01*
X186310024Y-113607242D01*
X186252338Y-113715164D01*
X186231004Y-113755078D01*
X186124659Y-113884659D01*
X185995078Y-113991004D01*
X185995076Y-113991005D01*
X185847242Y-114070024D01*
X185847239Y-114070025D01*
X185823705Y-114077164D01*
X185686823Y-114118687D01*
X185561804Y-114131000D01*
X185478196Y-114131000D01*
X185353177Y-114118687D01*
X185216295Y-114077164D01*
X185192761Y-114070025D01*
X185192758Y-114070024D01*
X185044924Y-113991005D01*
X185044922Y-113991004D01*
X184915341Y-113884659D01*
X184808996Y-113755078D01*
X184787662Y-113715164D01*
X184729976Y-113607242D01*
X184681313Y-113446823D01*
X184664883Y-113280000D01*
X184681313Y-113113177D01*
X184729976Y-112952758D01*
X184808995Y-112804924D01*
X184808996Y-112804922D01*
X184915341Y-112675341D01*
X185044922Y-112568996D01*
X185082332Y-112549000D01*
X185192758Y-112489976D01*
X185353177Y-112441313D01*
X185478196Y-112429000D01*
X185561804Y-112429000D01*
X185686823Y-112441313D01*
X185686823Y-112441313D01*
G37*
G36*
X175379591Y-112415085D02*
G01*
X175413569Y-112425393D01*
X175444890Y-112442134D01*
X175472339Y-112464661D01*
X175494866Y-112492110D01*
X175511607Y-112523431D01*
X175521915Y-112557409D01*
X175526000Y-112598890D01*
X175526000Y-113200110D01*
X175521915Y-113241591D01*
X175511607Y-113275569D01*
X175494866Y-113306890D01*
X175472339Y-113334339D01*
X175444890Y-113356866D01*
X175413569Y-113373607D01*
X175379591Y-113383915D01*
X175338110Y-113388000D01*
X174661890Y-113388000D01*
X174620409Y-113383915D01*
X174586431Y-113373607D01*
X174555110Y-113356866D01*
X174527661Y-113334339D01*
X174505134Y-113306890D01*
X174488393Y-113275569D01*
X174478085Y-113241591D01*
X174474000Y-113200110D01*
X174474000Y-112598890D01*
X174478085Y-112557409D01*
X174488393Y-112523431D01*
X174505134Y-112492110D01*
X174527661Y-112464661D01*
X174555110Y-112442134D01*
X174586431Y-112425393D01*
X174620409Y-112415085D01*
X174661890Y-112411000D01*
X175338110Y-112411000D01*
X175379591Y-112415085D01*
X175379591Y-112415085D01*
G37*
G36*
X162017591Y-111878085D02*
G01*
X162051569Y-111888393D01*
X162082890Y-111905134D01*
X162110339Y-111927661D01*
X162132866Y-111955110D01*
X162149607Y-111986431D01*
X162159915Y-112020409D01*
X162164000Y-112061890D01*
X162164000Y-112738110D01*
X162159915Y-112779591D01*
X162149607Y-112813569D01*
X162132866Y-112844890D01*
X162110339Y-112872339D01*
X162082890Y-112894866D01*
X162051569Y-112911607D01*
X162017591Y-112921915D01*
X161976110Y-112926000D01*
X161374890Y-112926000D01*
X161333409Y-112921915D01*
X161299431Y-112911607D01*
X161268110Y-112894866D01*
X161240661Y-112872339D01*
X161218134Y-112844890D01*
X161201393Y-112813569D01*
X161191085Y-112779591D01*
X161187000Y-112738110D01*
X161187000Y-112061890D01*
X161191085Y-112020409D01*
X161201393Y-111986431D01*
X161218134Y-111955110D01*
X161240661Y-111927661D01*
X161268110Y-111905134D01*
X161299431Y-111888393D01*
X161333409Y-111878085D01*
X161374890Y-111874000D01*
X161976110Y-111874000D01*
X162017591Y-111878085D01*
X162017591Y-111878085D01*
G37*
G36*
X160442591Y-111878085D02*
G01*
X160476569Y-111888393D01*
X160507890Y-111905134D01*
X160535339Y-111927661D01*
X160557866Y-111955110D01*
X160574607Y-111986431D01*
X160584915Y-112020409D01*
X160589000Y-112061890D01*
X160589000Y-112738110D01*
X160584915Y-112779591D01*
X160574607Y-112813569D01*
X160557866Y-112844890D01*
X160535339Y-112872339D01*
X160507890Y-112894866D01*
X160476569Y-112911607D01*
X160442591Y-112921915D01*
X160401110Y-112926000D01*
X159799890Y-112926000D01*
X159758409Y-112921915D01*
X159724431Y-112911607D01*
X159693110Y-112894866D01*
X159665661Y-112872339D01*
X159643134Y-112844890D01*
X159626393Y-112813569D01*
X159616085Y-112779591D01*
X159612000Y-112738110D01*
X159612000Y-112061890D01*
X159616085Y-112020409D01*
X159626393Y-111986431D01*
X159643134Y-111955110D01*
X159665661Y-111927661D01*
X159693110Y-111905134D01*
X159724431Y-111888393D01*
X159758409Y-111878085D01*
X159799890Y-111874000D01*
X160401110Y-111874000D01*
X160442591Y-111878085D01*
X160442591Y-111878085D01*
G37*
G36*
X192650442Y-110865518D02*
G01*
X192716627Y-110872037D01*
X192886466Y-110923557D01*
X193042991Y-111007222D01*
X193055451Y-111017448D01*
X193180186Y-111119814D01*
X193258364Y-111215076D01*
X193292778Y-111257009D01*
X193376443Y-111413534D01*
X193427963Y-111583373D01*
X193445359Y-111760000D01*
X193427963Y-111936627D01*
X193376443Y-112106466D01*
X193292778Y-112262991D01*
X193263448Y-112298729D01*
X193180186Y-112400186D01*
X193079837Y-112482539D01*
X193042991Y-112512778D01*
X192886466Y-112596443D01*
X192716627Y-112647963D01*
X192650442Y-112654482D01*
X192584260Y-112661000D01*
X192495740Y-112661000D01*
X192429558Y-112654482D01*
X192363373Y-112647963D01*
X192193534Y-112596443D01*
X192037009Y-112512778D01*
X192000163Y-112482539D01*
X191899814Y-112400186D01*
X191816552Y-112298729D01*
X191787222Y-112262991D01*
X191703557Y-112106466D01*
X191652037Y-111936627D01*
X191634641Y-111760000D01*
X191652037Y-111583373D01*
X191703557Y-111413534D01*
X191787222Y-111257009D01*
X191821636Y-111215076D01*
X191899814Y-111119814D01*
X192024549Y-111017448D01*
X192037009Y-111007222D01*
X192193534Y-110923557D01*
X192363373Y-110872037D01*
X192429558Y-110865518D01*
X192495740Y-110859000D01*
X192584260Y-110859000D01*
X192650442Y-110865518D01*
X192650442Y-110865518D01*
G37*
G36*
X190110442Y-110865518D02*
G01*
X190176627Y-110872037D01*
X190346466Y-110923557D01*
X190502991Y-111007222D01*
X190515451Y-111017448D01*
X190640186Y-111119814D01*
X190718364Y-111215076D01*
X190752778Y-111257009D01*
X190836443Y-111413534D01*
X190887963Y-111583373D01*
X190905359Y-111760000D01*
X190887963Y-111936627D01*
X190836443Y-112106466D01*
X190752778Y-112262991D01*
X190723448Y-112298729D01*
X190640186Y-112400186D01*
X190539837Y-112482539D01*
X190502991Y-112512778D01*
X190346466Y-112596443D01*
X190176627Y-112647963D01*
X190110442Y-112654482D01*
X190044260Y-112661000D01*
X189955740Y-112661000D01*
X189889558Y-112654482D01*
X189823373Y-112647963D01*
X189653534Y-112596443D01*
X189497009Y-112512778D01*
X189460163Y-112482539D01*
X189359814Y-112400186D01*
X189276552Y-112298729D01*
X189247222Y-112262991D01*
X189163557Y-112106466D01*
X189112037Y-111936627D01*
X189094641Y-111760000D01*
X189112037Y-111583373D01*
X189163557Y-111413534D01*
X189247222Y-111257009D01*
X189281636Y-111215076D01*
X189359814Y-111119814D01*
X189484549Y-111017448D01*
X189497009Y-111007222D01*
X189653534Y-110923557D01*
X189823373Y-110872037D01*
X189889558Y-110865518D01*
X189955740Y-110859000D01*
X190044260Y-110859000D01*
X190110442Y-110865518D01*
X190110442Y-110865518D01*
G37*
G36*
X175379591Y-110840085D02*
G01*
X175413569Y-110850393D01*
X175444890Y-110867134D01*
X175472339Y-110889661D01*
X175494866Y-110917110D01*
X175511607Y-110948431D01*
X175521915Y-110982409D01*
X175526000Y-111023890D01*
X175526000Y-111625110D01*
X175521915Y-111666591D01*
X175511607Y-111700569D01*
X175494866Y-111731890D01*
X175472339Y-111759339D01*
X175444890Y-111781866D01*
X175413569Y-111798607D01*
X175379591Y-111808915D01*
X175338110Y-111813000D01*
X174661890Y-111813000D01*
X174620409Y-111808915D01*
X174586431Y-111798607D01*
X174555110Y-111781866D01*
X174527661Y-111759339D01*
X174505134Y-111731890D01*
X174488393Y-111700569D01*
X174478085Y-111666591D01*
X174474000Y-111625110D01*
X174474000Y-111023890D01*
X174478085Y-110982409D01*
X174488393Y-110948431D01*
X174505134Y-110917110D01*
X174527661Y-110889661D01*
X174555110Y-110867134D01*
X174586431Y-110850393D01*
X174620409Y-110840085D01*
X174661890Y-110836000D01*
X175338110Y-110836000D01*
X175379591Y-110840085D01*
X175379591Y-110840085D01*
G37*
G36*
X178066823Y-109901313D02*
G01*
X178197380Y-109940917D01*
X178204925Y-109943206D01*
X178227242Y-109949976D01*
X178269901Y-109972778D01*
X178375078Y-110028996D01*
X178504659Y-110135341D01*
X178611004Y-110264922D01*
X178611005Y-110264924D01*
X178690024Y-110412758D01*
X178738687Y-110573177D01*
X178755117Y-110740000D01*
X178738687Y-110906823D01*
X178690024Y-111067242D01*
X178658617Y-111126000D01*
X178611004Y-111215078D01*
X178504659Y-111344659D01*
X178375078Y-111451004D01*
X178375076Y-111451005D01*
X178227242Y-111530024D01*
X178066823Y-111578687D01*
X177941804Y-111591000D01*
X177858196Y-111591000D01*
X177733177Y-111578687D01*
X177572758Y-111530024D01*
X177424924Y-111451005D01*
X177424922Y-111451004D01*
X177295341Y-111344659D01*
X177188996Y-111215078D01*
X177141383Y-111126000D01*
X177109976Y-111067242D01*
X177061313Y-110906823D01*
X177044883Y-110740000D01*
X177061313Y-110573177D01*
X177109976Y-110412758D01*
X177188995Y-110264924D01*
X177188996Y-110264922D01*
X177295341Y-110135341D01*
X177424922Y-110028996D01*
X177530099Y-109972778D01*
X177572758Y-109949976D01*
X177595076Y-109943206D01*
X177602620Y-109940917D01*
X177733177Y-109901313D01*
X177858196Y-109889000D01*
X177941804Y-109889000D01*
X178066823Y-109901313D01*
X178066823Y-109901313D01*
G37*
G36*
X185686823Y-109901313D02*
G01*
X185817380Y-109940917D01*
X185824925Y-109943206D01*
X185847242Y-109949976D01*
X185889901Y-109972778D01*
X185995078Y-110028996D01*
X186124659Y-110135341D01*
X186231004Y-110264922D01*
X186231005Y-110264924D01*
X186310024Y-110412758D01*
X186358687Y-110573177D01*
X186375117Y-110740000D01*
X186358687Y-110906823D01*
X186310024Y-111067242D01*
X186278617Y-111126000D01*
X186231004Y-111215078D01*
X186124659Y-111344659D01*
X185995078Y-111451004D01*
X185995076Y-111451005D01*
X185847242Y-111530024D01*
X185686823Y-111578687D01*
X185561804Y-111591000D01*
X185478196Y-111591000D01*
X185353177Y-111578687D01*
X185192758Y-111530024D01*
X185044924Y-111451005D01*
X185044922Y-111451004D01*
X184915341Y-111344659D01*
X184808996Y-111215078D01*
X184761383Y-111126000D01*
X184729976Y-111067242D01*
X184681313Y-110906823D01*
X184664883Y-110740000D01*
X184681313Y-110573177D01*
X184729976Y-110412758D01*
X184808995Y-110264924D01*
X184808996Y-110264922D01*
X184915341Y-110135341D01*
X185044922Y-110028996D01*
X185150099Y-109972778D01*
X185192758Y-109949976D01*
X185215076Y-109943206D01*
X185222620Y-109940917D01*
X185353177Y-109901313D01*
X185478196Y-109889000D01*
X185561804Y-109889000D01*
X185686823Y-109901313D01*
X185686823Y-109901313D01*
G37*
G36*
X160466591Y-110078085D02*
G01*
X160500569Y-110088393D01*
X160531890Y-110105134D01*
X160559339Y-110127661D01*
X160581866Y-110155110D01*
X160598607Y-110186431D01*
X160608915Y-110220409D01*
X160613000Y-110261890D01*
X160613000Y-110938110D01*
X160608915Y-110979591D01*
X160598607Y-111013569D01*
X160581866Y-111044890D01*
X160559339Y-111072339D01*
X160531890Y-111094866D01*
X160500569Y-111111607D01*
X160466591Y-111121915D01*
X160425110Y-111126000D01*
X159823890Y-111126000D01*
X159782409Y-111121915D01*
X159748431Y-111111607D01*
X159717110Y-111094866D01*
X159689661Y-111072339D01*
X159667134Y-111044890D01*
X159650393Y-111013569D01*
X159640085Y-110979591D01*
X159636000Y-110938110D01*
X159636000Y-110261890D01*
X159640085Y-110220409D01*
X159650393Y-110186431D01*
X159667134Y-110155110D01*
X159689661Y-110127661D01*
X159717110Y-110105134D01*
X159748431Y-110088393D01*
X159782409Y-110078085D01*
X159823890Y-110074000D01*
X160425110Y-110074000D01*
X160466591Y-110078085D01*
X160466591Y-110078085D01*
G37*
G36*
X162041591Y-110078085D02*
G01*
X162075569Y-110088393D01*
X162106890Y-110105134D01*
X162134339Y-110127661D01*
X162156866Y-110155110D01*
X162173607Y-110186431D01*
X162183915Y-110220409D01*
X162188000Y-110261890D01*
X162188000Y-110938110D01*
X162183915Y-110979591D01*
X162173607Y-111013569D01*
X162156866Y-111044890D01*
X162134339Y-111072339D01*
X162106890Y-111094866D01*
X162075569Y-111111607D01*
X162041591Y-111121915D01*
X162000110Y-111126000D01*
X161398890Y-111126000D01*
X161357409Y-111121915D01*
X161323431Y-111111607D01*
X161292110Y-111094866D01*
X161264661Y-111072339D01*
X161242134Y-111044890D01*
X161225393Y-111013569D01*
X161215085Y-110979591D01*
X161211000Y-110938110D01*
X161211000Y-110261890D01*
X161215085Y-110220409D01*
X161225393Y-110186431D01*
X161242134Y-110155110D01*
X161264661Y-110127661D01*
X161292110Y-110105134D01*
X161323431Y-110088393D01*
X161357409Y-110078085D01*
X161398890Y-110074000D01*
X162000110Y-110074000D01*
X162041591Y-110078085D01*
X162041591Y-110078085D01*
G37*
G36*
X192650443Y-108325519D02*
G01*
X192716627Y-108332037D01*
X192886466Y-108383557D01*
X193042991Y-108467222D01*
X193067821Y-108487600D01*
X193180186Y-108579814D01*
X193258364Y-108675076D01*
X193292778Y-108717009D01*
X193376443Y-108873534D01*
X193427963Y-109043373D01*
X193445359Y-109220000D01*
X193427963Y-109396627D01*
X193376443Y-109566466D01*
X193292778Y-109722991D01*
X193263448Y-109758729D01*
X193180186Y-109860186D01*
X193079024Y-109943206D01*
X193042991Y-109972778D01*
X192886466Y-110056443D01*
X192716627Y-110107963D01*
X192650443Y-110114481D01*
X192584260Y-110121000D01*
X192495740Y-110121000D01*
X192429557Y-110114481D01*
X192363373Y-110107963D01*
X192193534Y-110056443D01*
X192037009Y-109972778D01*
X192000976Y-109943206D01*
X191899814Y-109860186D01*
X191816552Y-109758729D01*
X191787222Y-109722991D01*
X191703557Y-109566466D01*
X191652037Y-109396627D01*
X191634641Y-109220000D01*
X191652037Y-109043373D01*
X191703557Y-108873534D01*
X191787222Y-108717009D01*
X191821636Y-108675076D01*
X191899814Y-108579814D01*
X192012179Y-108487600D01*
X192037009Y-108467222D01*
X192193534Y-108383557D01*
X192363373Y-108332037D01*
X192429557Y-108325519D01*
X192495740Y-108319000D01*
X192584260Y-108319000D01*
X192650443Y-108325519D01*
X192650443Y-108325519D01*
G37*
G36*
X190110443Y-108325519D02*
G01*
X190176627Y-108332037D01*
X190346466Y-108383557D01*
X190502991Y-108467222D01*
X190527821Y-108487600D01*
X190640186Y-108579814D01*
X190718364Y-108675076D01*
X190752778Y-108717009D01*
X190836443Y-108873534D01*
X190887963Y-109043373D01*
X190905359Y-109220000D01*
X190887963Y-109396627D01*
X190836443Y-109566466D01*
X190752778Y-109722991D01*
X190723448Y-109758729D01*
X190640186Y-109860186D01*
X190539024Y-109943206D01*
X190502991Y-109972778D01*
X190346466Y-110056443D01*
X190176627Y-110107963D01*
X190110443Y-110114481D01*
X190044260Y-110121000D01*
X189955740Y-110121000D01*
X189889557Y-110114481D01*
X189823373Y-110107963D01*
X189653534Y-110056443D01*
X189497009Y-109972778D01*
X189460976Y-109943206D01*
X189359814Y-109860186D01*
X189276552Y-109758729D01*
X189247222Y-109722991D01*
X189163557Y-109566466D01*
X189112037Y-109396627D01*
X189094641Y-109220000D01*
X189112037Y-109043373D01*
X189163557Y-108873534D01*
X189247222Y-108717009D01*
X189281636Y-108675076D01*
X189359814Y-108579814D01*
X189472179Y-108487600D01*
X189497009Y-108467222D01*
X189653534Y-108383557D01*
X189823373Y-108332037D01*
X189889557Y-108325519D01*
X189955740Y-108319000D01*
X190044260Y-108319000D01*
X190110443Y-108325519D01*
X190110443Y-108325519D01*
G37*
G36*
X156359672Y-109248449D02*
G01*
X156359674Y-109248450D01*
X156359675Y-109248450D01*
X156428103Y-109276793D01*
X156489686Y-109317942D01*
X156542058Y-109370314D01*
X156583207Y-109431897D01*
X156591119Y-109451000D01*
X156611551Y-109500328D01*
X156624707Y-109566466D01*
X156626000Y-109572967D01*
X156626000Y-109647033D01*
X156611550Y-109719675D01*
X156583207Y-109788103D01*
X156542058Y-109849686D01*
X156489686Y-109902058D01*
X156428103Y-109943207D01*
X156359675Y-109971550D01*
X156359674Y-109971550D01*
X156359672Y-109971551D01*
X156287034Y-109986000D01*
X156212966Y-109986000D01*
X156140328Y-109971551D01*
X156140326Y-109971550D01*
X156140325Y-109971550D01*
X156071897Y-109943207D01*
X156010314Y-109902058D01*
X155957942Y-109849686D01*
X155916793Y-109788103D01*
X155888450Y-109719675D01*
X155874000Y-109647033D01*
X155874000Y-109572967D01*
X155875293Y-109566466D01*
X155888449Y-109500328D01*
X155908881Y-109451000D01*
X155916793Y-109431897D01*
X155957942Y-109370314D01*
X156010314Y-109317942D01*
X156071897Y-109276793D01*
X156140325Y-109248450D01*
X156140326Y-109248450D01*
X156140328Y-109248449D01*
X156212966Y-109234000D01*
X156287034Y-109234000D01*
X156359672Y-109248449D01*
X156359672Y-109248449D01*
G37*
G36*
X160466591Y-108278085D02*
G01*
X160500569Y-108288393D01*
X160531890Y-108305134D01*
X160559339Y-108327661D01*
X160581866Y-108355110D01*
X160598607Y-108386431D01*
X160608915Y-108420409D01*
X160613000Y-108461890D01*
X160613000Y-109138110D01*
X160608915Y-109179591D01*
X160598607Y-109213569D01*
X160581866Y-109244890D01*
X160559339Y-109272339D01*
X160531890Y-109294866D01*
X160500569Y-109311607D01*
X160466591Y-109321915D01*
X160425110Y-109326000D01*
X159823890Y-109326000D01*
X159782409Y-109321915D01*
X159748431Y-109311607D01*
X159717110Y-109294866D01*
X159689661Y-109272339D01*
X159667134Y-109244890D01*
X159650393Y-109213569D01*
X159640085Y-109179591D01*
X159636000Y-109138110D01*
X159636000Y-108461890D01*
X159640085Y-108420409D01*
X159650393Y-108386431D01*
X159667134Y-108355110D01*
X159689661Y-108327661D01*
X159717110Y-108305134D01*
X159748431Y-108288393D01*
X159782409Y-108278085D01*
X159823890Y-108274000D01*
X160425110Y-108274000D01*
X160466591Y-108278085D01*
X160466591Y-108278085D01*
G37*
G36*
X162041591Y-108278085D02*
G01*
X162075569Y-108288393D01*
X162106890Y-108305134D01*
X162134339Y-108327661D01*
X162156866Y-108355110D01*
X162173607Y-108386431D01*
X162183915Y-108420409D01*
X162188000Y-108461890D01*
X162188000Y-109138110D01*
X162183915Y-109179591D01*
X162173607Y-109213569D01*
X162156866Y-109244890D01*
X162134339Y-109272339D01*
X162106890Y-109294866D01*
X162075569Y-109311607D01*
X162041591Y-109321915D01*
X162000110Y-109326000D01*
X161398890Y-109326000D01*
X161357409Y-109321915D01*
X161323431Y-109311607D01*
X161292110Y-109294866D01*
X161264661Y-109272339D01*
X161242134Y-109244890D01*
X161225393Y-109213569D01*
X161215085Y-109179591D01*
X161211000Y-109138110D01*
X161211000Y-108461890D01*
X161215085Y-108420409D01*
X161225393Y-108386431D01*
X161242134Y-108355110D01*
X161264661Y-108327661D01*
X161292110Y-108305134D01*
X161323431Y-108288393D01*
X161357409Y-108278085D01*
X161398890Y-108274000D01*
X162000110Y-108274000D01*
X162041591Y-108278085D01*
X162041591Y-108278085D01*
G37*
G36*
X185686823Y-107361313D02*
G01*
X185847242Y-107409976D01*
X185889901Y-107432778D01*
X185995078Y-107488996D01*
X186124659Y-107595341D01*
X186231004Y-107724922D01*
X186231005Y-107724924D01*
X186310024Y-107872758D01*
X186358687Y-108033177D01*
X186375117Y-108200000D01*
X186358687Y-108366823D01*
X186310024Y-108527242D01*
X186281923Y-108579815D01*
X186231004Y-108675078D01*
X186124659Y-108804659D01*
X185995078Y-108911004D01*
X185995076Y-108911005D01*
X185847242Y-108990024D01*
X185686823Y-109038687D01*
X185561804Y-109051000D01*
X185478196Y-109051000D01*
X185353177Y-109038687D01*
X185192758Y-108990024D01*
X185044924Y-108911005D01*
X185044922Y-108911004D01*
X184915341Y-108804659D01*
X184808996Y-108675078D01*
X184758077Y-108579815D01*
X184729976Y-108527242D01*
X184681313Y-108366823D01*
X184664883Y-108200000D01*
X184681313Y-108033177D01*
X184729976Y-107872758D01*
X184808995Y-107724924D01*
X184808996Y-107724922D01*
X184915341Y-107595341D01*
X185044922Y-107488996D01*
X185150099Y-107432778D01*
X185192758Y-107409976D01*
X185353177Y-107361313D01*
X185478196Y-107349000D01*
X185561804Y-107349000D01*
X185686823Y-107361313D01*
X185686823Y-107361313D01*
G37*
G36*
X178751000Y-109051000D02*
G01*
X177049000Y-109051000D01*
X177049000Y-107349000D01*
X178751000Y-107349000D01*
X178751000Y-109051000D01*
X178751000Y-109051000D01*
G37*
G36*
X153008015Y-107636973D02*
G01*
X153111879Y-107668479D01*
X153139055Y-107683005D01*
X153207600Y-107719643D01*
X153291501Y-107788499D01*
X153360357Y-107872400D01*
X153396995Y-107940945D01*
X153411521Y-107968121D01*
X153443027Y-108071985D01*
X153453666Y-108180000D01*
X153443027Y-108288015D01*
X153411521Y-108391879D01*
X153411519Y-108391882D01*
X153360357Y-108487600D01*
X153291501Y-108571501D01*
X153207600Y-108640357D01*
X153142645Y-108675076D01*
X153111879Y-108691521D01*
X153008015Y-108723027D01*
X152927067Y-108731000D01*
X152272933Y-108731000D01*
X152191985Y-108723027D01*
X152088121Y-108691521D01*
X152057355Y-108675076D01*
X151992400Y-108640357D01*
X151908499Y-108571501D01*
X151839643Y-108487600D01*
X151788481Y-108391882D01*
X151788479Y-108391879D01*
X151756973Y-108288015D01*
X151746334Y-108180000D01*
X151756973Y-108071985D01*
X151788479Y-107968121D01*
X151803005Y-107940945D01*
X151839643Y-107872400D01*
X151908499Y-107788499D01*
X151992400Y-107719643D01*
X152060945Y-107683005D01*
X152088121Y-107668479D01*
X152191985Y-107636973D01*
X152272933Y-107629000D01*
X152927067Y-107629000D01*
X153008015Y-107636973D01*
X153008015Y-107636973D01*
G37*
G36*
X192650443Y-105785519D02*
G01*
X192716627Y-105792037D01*
X192886466Y-105843557D01*
X193042991Y-105927222D01*
X193078729Y-105956552D01*
X193180186Y-106039814D01*
X193242023Y-106115164D01*
X193292778Y-106177009D01*
X193292779Y-106177011D01*
X193368274Y-106318250D01*
X193376443Y-106333534D01*
X193427963Y-106503373D01*
X193445359Y-106680000D01*
X193427963Y-106856627D01*
X193376443Y-107026466D01*
X193292778Y-107182991D01*
X193263448Y-107218729D01*
X193180186Y-107320186D01*
X193078729Y-107403448D01*
X193042991Y-107432778D01*
X192886466Y-107516443D01*
X192716627Y-107567963D01*
X192650443Y-107574481D01*
X192584260Y-107581000D01*
X192495740Y-107581000D01*
X192429557Y-107574481D01*
X192363373Y-107567963D01*
X192193534Y-107516443D01*
X192037009Y-107432778D01*
X192001271Y-107403448D01*
X191899814Y-107320186D01*
X191816552Y-107218729D01*
X191787222Y-107182991D01*
X191703557Y-107026466D01*
X191652037Y-106856627D01*
X191634641Y-106680000D01*
X191652037Y-106503373D01*
X191703557Y-106333534D01*
X191711727Y-106318250D01*
X191787221Y-106177011D01*
X191787222Y-106177009D01*
X191837977Y-106115164D01*
X191899814Y-106039814D01*
X192001271Y-105956552D01*
X192037009Y-105927222D01*
X192193534Y-105843557D01*
X192363373Y-105792037D01*
X192429557Y-105785519D01*
X192495740Y-105779000D01*
X192584260Y-105779000D01*
X192650443Y-105785519D01*
X192650443Y-105785519D01*
G37*
G36*
X190901000Y-107581000D02*
G01*
X189099000Y-107581000D01*
X189099000Y-105779000D01*
X190901000Y-105779000D01*
X190901000Y-107581000D01*
X190901000Y-107581000D01*
G37*
G36*
X164016591Y-106078085D02*
G01*
X164050569Y-106088393D01*
X164081890Y-106105134D01*
X164109339Y-106127661D01*
X164131866Y-106155110D01*
X164148607Y-106186431D01*
X164158915Y-106220409D01*
X164163000Y-106261890D01*
X164163000Y-106938110D01*
X164158915Y-106979591D01*
X164148607Y-107013569D01*
X164131866Y-107044890D01*
X164109339Y-107072339D01*
X164081890Y-107094866D01*
X164050569Y-107111607D01*
X164016591Y-107121915D01*
X163975110Y-107126000D01*
X163373890Y-107126000D01*
X163332409Y-107121915D01*
X163298431Y-107111607D01*
X163267110Y-107094866D01*
X163239661Y-107072339D01*
X163217134Y-107044890D01*
X163200393Y-107013569D01*
X163190085Y-106979591D01*
X163186000Y-106938110D01*
X163186000Y-106261890D01*
X163190085Y-106220409D01*
X163200393Y-106186431D01*
X163217134Y-106155110D01*
X163239661Y-106127661D01*
X163267110Y-106105134D01*
X163298431Y-106088393D01*
X163332409Y-106078085D01*
X163373890Y-106074000D01*
X163975110Y-106074000D01*
X164016591Y-106078085D01*
X164016591Y-106078085D01*
G37*
G36*
X165591591Y-106078085D02*
G01*
X165625569Y-106088393D01*
X165656890Y-106105134D01*
X165684339Y-106127661D01*
X165706866Y-106155110D01*
X165723607Y-106186431D01*
X165733915Y-106220409D01*
X165738000Y-106261890D01*
X165738000Y-106938110D01*
X165733915Y-106979591D01*
X165723607Y-107013569D01*
X165706866Y-107044890D01*
X165684339Y-107072339D01*
X165656890Y-107094866D01*
X165625569Y-107111607D01*
X165591591Y-107121915D01*
X165550110Y-107126000D01*
X164948890Y-107126000D01*
X164907409Y-107121915D01*
X164873431Y-107111607D01*
X164842110Y-107094866D01*
X164814661Y-107072339D01*
X164792134Y-107044890D01*
X164775393Y-107013569D01*
X164765085Y-106979591D01*
X164761000Y-106938110D01*
X164761000Y-106261890D01*
X164765085Y-106220409D01*
X164775393Y-106186431D01*
X164792134Y-106155110D01*
X164814661Y-106127661D01*
X164842110Y-106105134D01*
X164873431Y-106088393D01*
X164907409Y-106078085D01*
X164948890Y-106074000D01*
X165550110Y-106074000D01*
X165591591Y-106078085D01*
X165591591Y-106078085D01*
G37*
G36*
X184242591Y-104578085D02*
G01*
X184276569Y-104588393D01*
X184307890Y-104605134D01*
X184335339Y-104627661D01*
X184357866Y-104655110D01*
X184374607Y-104686431D01*
X184384915Y-104720409D01*
X184389000Y-104761890D01*
X184389000Y-105438110D01*
X184384915Y-105479591D01*
X184374607Y-105513569D01*
X184357866Y-105544890D01*
X184335339Y-105572339D01*
X184307890Y-105594866D01*
X184276569Y-105611607D01*
X184242591Y-105621915D01*
X184201110Y-105626000D01*
X183599890Y-105626000D01*
X183558409Y-105621915D01*
X183524431Y-105611607D01*
X183493110Y-105594866D01*
X183465661Y-105572339D01*
X183443134Y-105544890D01*
X183426393Y-105513569D01*
X183416085Y-105479591D01*
X183412000Y-105438110D01*
X183412000Y-104761890D01*
X183416085Y-104720409D01*
X183426393Y-104686431D01*
X183443134Y-104655110D01*
X183465661Y-104627661D01*
X183493110Y-104605134D01*
X183524431Y-104588393D01*
X183558409Y-104578085D01*
X183599890Y-104574000D01*
X184201110Y-104574000D01*
X184242591Y-104578085D01*
X184242591Y-104578085D01*
G37*
G36*
X185817591Y-104578085D02*
G01*
X185851569Y-104588393D01*
X185882890Y-104605134D01*
X185910339Y-104627661D01*
X185932866Y-104655110D01*
X185949607Y-104686431D01*
X185959915Y-104720409D01*
X185964000Y-104761890D01*
X185964000Y-105438110D01*
X185959915Y-105479591D01*
X185949607Y-105513569D01*
X185932866Y-105544890D01*
X185910339Y-105572339D01*
X185882890Y-105594866D01*
X185851569Y-105611607D01*
X185817591Y-105621915D01*
X185776110Y-105626000D01*
X185174890Y-105626000D01*
X185133409Y-105621915D01*
X185099431Y-105611607D01*
X185068110Y-105594866D01*
X185040661Y-105572339D01*
X185018134Y-105544890D01*
X185001393Y-105513569D01*
X184991085Y-105479591D01*
X184987000Y-105438110D01*
X184987000Y-104761890D01*
X184991085Y-104720409D01*
X185001393Y-104686431D01*
X185018134Y-104655110D01*
X185040661Y-104627661D01*
X185068110Y-104605134D01*
X185099431Y-104588393D01*
X185133409Y-104578085D01*
X185174890Y-104574000D01*
X185776110Y-104574000D01*
X185817591Y-104578085D01*
X185817591Y-104578085D01*
G37*
G36*
X168634468Y-104065565D02*
G01*
X168673138Y-104077296D01*
X168708777Y-104096346D01*
X168740017Y-104121983D01*
X168765654Y-104153223D01*
X168784704Y-104188862D01*
X168796435Y-104227532D01*
X168801000Y-104273888D01*
X168801000Y-104925112D01*
X168796435Y-104971468D01*
X168784704Y-105010138D01*
X168765654Y-105045777D01*
X168740017Y-105077017D01*
X168708777Y-105102654D01*
X168673138Y-105121704D01*
X168634468Y-105133435D01*
X168588112Y-105138000D01*
X167511888Y-105138000D01*
X167465532Y-105133435D01*
X167426862Y-105121704D01*
X167391223Y-105102654D01*
X167359983Y-105077017D01*
X167334346Y-105045777D01*
X167315296Y-105010138D01*
X167303565Y-104971468D01*
X167299000Y-104925112D01*
X167299000Y-104273888D01*
X167303565Y-104227532D01*
X167315296Y-104188862D01*
X167334346Y-104153223D01*
X167359983Y-104121983D01*
X167391223Y-104096346D01*
X167426862Y-104077296D01*
X167465532Y-104065565D01*
X167511888Y-104061000D01*
X168588112Y-104061000D01*
X168634468Y-104065565D01*
X168634468Y-104065565D01*
G37*
G36*
X161534468Y-104041565D02*
G01*
X161573138Y-104053296D01*
X161608777Y-104072346D01*
X161640017Y-104097983D01*
X161665654Y-104129223D01*
X161684704Y-104164862D01*
X161696435Y-104203532D01*
X161701000Y-104249888D01*
X161701000Y-104901112D01*
X161696435Y-104947468D01*
X161684704Y-104986138D01*
X161665654Y-105021777D01*
X161640017Y-105053017D01*
X161608777Y-105078654D01*
X161573138Y-105097704D01*
X161534468Y-105109435D01*
X161488112Y-105114000D01*
X160411888Y-105114000D01*
X160365532Y-105109435D01*
X160326862Y-105097704D01*
X160291223Y-105078654D01*
X160259983Y-105053017D01*
X160234346Y-105021777D01*
X160215296Y-104986138D01*
X160203565Y-104947468D01*
X160199000Y-104901112D01*
X160199000Y-104249888D01*
X160203565Y-104203532D01*
X160215296Y-104164862D01*
X160234346Y-104129223D01*
X160259983Y-104097983D01*
X160291223Y-104072346D01*
X160326862Y-104053296D01*
X160365532Y-104041565D01*
X160411888Y-104037000D01*
X161488112Y-104037000D01*
X161534468Y-104041565D01*
X161534468Y-104041565D01*
G37*
G36*
X166131000Y-105026000D02*
G01*
X164969000Y-105026000D01*
X164969000Y-104274000D01*
X166131000Y-104274000D01*
X166131000Y-105026000D01*
X166131000Y-105026000D01*
G37*
G36*
X163931000Y-105026000D02*
G01*
X162769000Y-105026000D01*
X162769000Y-102374000D01*
X163931000Y-102374000D01*
X163931000Y-105026000D01*
X163931000Y-105026000D01*
G37*
G36*
X173072591Y-103791085D02*
G01*
X173106569Y-103801393D01*
X173137890Y-103818134D01*
X173165339Y-103840661D01*
X173187866Y-103868110D01*
X173204607Y-103899431D01*
X173214915Y-103933409D01*
X173219000Y-103974890D01*
X173219000Y-104576110D01*
X173214915Y-104617591D01*
X173204607Y-104651569D01*
X173187866Y-104682890D01*
X173165339Y-104710339D01*
X173137890Y-104732866D01*
X173106569Y-104749607D01*
X173072591Y-104759915D01*
X173031110Y-104764000D01*
X172354890Y-104764000D01*
X172313409Y-104759915D01*
X172279431Y-104749607D01*
X172248110Y-104732866D01*
X172220661Y-104710339D01*
X172198134Y-104682890D01*
X172181393Y-104651569D01*
X172171085Y-104617591D01*
X172167000Y-104576110D01*
X172167000Y-103974890D01*
X172171085Y-103933409D01*
X172181393Y-103899431D01*
X172198134Y-103868110D01*
X172220661Y-103840661D01*
X172248110Y-103818134D01*
X172279431Y-103801393D01*
X172313409Y-103791085D01*
X172354890Y-103787000D01*
X173031110Y-103787000D01*
X173072591Y-103791085D01*
X173072591Y-103791085D01*
G37*
G36*
X171029591Y-103791085D02*
G01*
X171063569Y-103801393D01*
X171094890Y-103818134D01*
X171122339Y-103840661D01*
X171144866Y-103868110D01*
X171161607Y-103899431D01*
X171171915Y-103933409D01*
X171176000Y-103974890D01*
X171176000Y-104576110D01*
X171171915Y-104617591D01*
X171161607Y-104651569D01*
X171144866Y-104682890D01*
X171122339Y-104710339D01*
X171094890Y-104732866D01*
X171063569Y-104749607D01*
X171029591Y-104759915D01*
X170988110Y-104764000D01*
X170311890Y-104764000D01*
X170270409Y-104759915D01*
X170236431Y-104749607D01*
X170205110Y-104732866D01*
X170177661Y-104710339D01*
X170155134Y-104682890D01*
X170138393Y-104651569D01*
X170128085Y-104617591D01*
X170124000Y-104576110D01*
X170124000Y-103974890D01*
X170128085Y-103933409D01*
X170138393Y-103899431D01*
X170155134Y-103868110D01*
X170177661Y-103840661D01*
X170205110Y-103818134D01*
X170236431Y-103801393D01*
X170270409Y-103791085D01*
X170311890Y-103787000D01*
X170988110Y-103787000D01*
X171029591Y-103791085D01*
X171029591Y-103791085D01*
G37*
G36*
X175116591Y-103723085D02*
G01*
X175150569Y-103733393D01*
X175181890Y-103750134D01*
X175209339Y-103772661D01*
X175231866Y-103800110D01*
X175248607Y-103831431D01*
X175258915Y-103865409D01*
X175263000Y-103906890D01*
X175263000Y-104508110D01*
X175258915Y-104549591D01*
X175248607Y-104583569D01*
X175231866Y-104614890D01*
X175209339Y-104642339D01*
X175181890Y-104664866D01*
X175150569Y-104681607D01*
X175116591Y-104691915D01*
X175075110Y-104696000D01*
X174398890Y-104696000D01*
X174357409Y-104691915D01*
X174323431Y-104681607D01*
X174292110Y-104664866D01*
X174264661Y-104642339D01*
X174242134Y-104614890D01*
X174225393Y-104583569D01*
X174215085Y-104549591D01*
X174211000Y-104508110D01*
X174211000Y-103906890D01*
X174215085Y-103865409D01*
X174225393Y-103831431D01*
X174242134Y-103800110D01*
X174264661Y-103772661D01*
X174292110Y-103750134D01*
X174323431Y-103733393D01*
X174357409Y-103723085D01*
X174398890Y-103719000D01*
X175075110Y-103719000D01*
X175116591Y-103723085D01*
X175116591Y-103723085D01*
G37*
G36*
X177159591Y-103721085D02*
G01*
X177193569Y-103731393D01*
X177224890Y-103748134D01*
X177252339Y-103770661D01*
X177274866Y-103798110D01*
X177291607Y-103829431D01*
X177301915Y-103863409D01*
X177306000Y-103904890D01*
X177306000Y-104506110D01*
X177301915Y-104547591D01*
X177291607Y-104581569D01*
X177274866Y-104612890D01*
X177252339Y-104640339D01*
X177224890Y-104662866D01*
X177193569Y-104679607D01*
X177159591Y-104689915D01*
X177118110Y-104694000D01*
X176441890Y-104694000D01*
X176400409Y-104689915D01*
X176366431Y-104679607D01*
X176335110Y-104662866D01*
X176307661Y-104640339D01*
X176285134Y-104612890D01*
X176268393Y-104581569D01*
X176258085Y-104547591D01*
X176254000Y-104506110D01*
X176254000Y-103904890D01*
X176258085Y-103863409D01*
X176268393Y-103829431D01*
X176285134Y-103798110D01*
X176307661Y-103770661D01*
X176335110Y-103748134D01*
X176366431Y-103731393D01*
X176400409Y-103721085D01*
X176441890Y-103717000D01*
X177118110Y-103717000D01*
X177159591Y-103721085D01*
X177159591Y-103721085D01*
G37*
G36*
X159129591Y-103715085D02*
G01*
X159163569Y-103725393D01*
X159194890Y-103742134D01*
X159222339Y-103764661D01*
X159244866Y-103792110D01*
X159261607Y-103823431D01*
X159271915Y-103857409D01*
X159276000Y-103898890D01*
X159276000Y-104500110D01*
X159271915Y-104541591D01*
X159261607Y-104575569D01*
X159244866Y-104606890D01*
X159222339Y-104634339D01*
X159194890Y-104656866D01*
X159163569Y-104673607D01*
X159129591Y-104683915D01*
X159088110Y-104688000D01*
X158411890Y-104688000D01*
X158370409Y-104683915D01*
X158336431Y-104673607D01*
X158305110Y-104656866D01*
X158277661Y-104634339D01*
X158255134Y-104606890D01*
X158238393Y-104575569D01*
X158228085Y-104541591D01*
X158224000Y-104500110D01*
X158224000Y-103898890D01*
X158228085Y-103857409D01*
X158238393Y-103823431D01*
X158255134Y-103792110D01*
X158277661Y-103764661D01*
X158305110Y-103742134D01*
X158336431Y-103725393D01*
X158370409Y-103715085D01*
X158411890Y-103711000D01*
X159088110Y-103711000D01*
X159129591Y-103715085D01*
X159129591Y-103715085D01*
G37*
G36*
X153375256Y-101391298D02*
G01*
X153481579Y-101412447D01*
X153782042Y-101536903D01*
X154052451Y-101717585D01*
X154282415Y-101947549D01*
X154462530Y-102217110D01*
X154463098Y-102217960D01*
X154478205Y-102254431D01*
X154561387Y-102455250D01*
X154587553Y-102518422D01*
X154651000Y-102837389D01*
X154651000Y-103162611D01*
X154587553Y-103481578D01*
X154470297Y-103764661D01*
X154463097Y-103782042D01*
X154282415Y-104052451D01*
X154052451Y-104282415D01*
X153782042Y-104463097D01*
X153481579Y-104587553D01*
X153393193Y-104605134D01*
X153162611Y-104651000D01*
X152837389Y-104651000D01*
X152606807Y-104605134D01*
X152518421Y-104587553D01*
X152217958Y-104463097D01*
X151947549Y-104282415D01*
X151717585Y-104052451D01*
X151536903Y-103782042D01*
X151529704Y-103764661D01*
X151412447Y-103481578D01*
X151349000Y-103162611D01*
X151349000Y-102837389D01*
X151412447Y-102518422D01*
X151438614Y-102455250D01*
X151521795Y-102254431D01*
X151536902Y-102217960D01*
X151537470Y-102217110D01*
X151717585Y-101947549D01*
X151947549Y-101717585D01*
X152217958Y-101536903D01*
X152518421Y-101412447D01*
X152624744Y-101391298D01*
X152837389Y-101349000D01*
X153162611Y-101349000D01*
X153375256Y-101391298D01*
X153375256Y-101391298D01*
G37*
G36*
X168634468Y-102190565D02*
G01*
X168673138Y-102202296D01*
X168708777Y-102221346D01*
X168740017Y-102246983D01*
X168765654Y-102278223D01*
X168784704Y-102313862D01*
X168796435Y-102352532D01*
X168801000Y-102398888D01*
X168801000Y-103050112D01*
X168796435Y-103096468D01*
X168784704Y-103135138D01*
X168765654Y-103170777D01*
X168740017Y-103202017D01*
X168708777Y-103227654D01*
X168673138Y-103246704D01*
X168634468Y-103258435D01*
X168588112Y-103263000D01*
X167511888Y-103263000D01*
X167465532Y-103258435D01*
X167426862Y-103246704D01*
X167391223Y-103227654D01*
X167359983Y-103202017D01*
X167334346Y-103170777D01*
X167315296Y-103135138D01*
X167303565Y-103096468D01*
X167299000Y-103050112D01*
X167299000Y-102398888D01*
X167303565Y-102352532D01*
X167315296Y-102313862D01*
X167334346Y-102278223D01*
X167359983Y-102246983D01*
X167391223Y-102221346D01*
X167426862Y-102202296D01*
X167465532Y-102190565D01*
X167511888Y-102186000D01*
X168588112Y-102186000D01*
X168634468Y-102190565D01*
X168634468Y-102190565D01*
G37*
G36*
X161534468Y-102166565D02*
G01*
X161573138Y-102178296D01*
X161608777Y-102197346D01*
X161640017Y-102222983D01*
X161665654Y-102254223D01*
X161684704Y-102289862D01*
X161696435Y-102328532D01*
X161701000Y-102374888D01*
X161701000Y-103026112D01*
X161696435Y-103072468D01*
X161684704Y-103111138D01*
X161665654Y-103146777D01*
X161640017Y-103178017D01*
X161608777Y-103203654D01*
X161573138Y-103222704D01*
X161534468Y-103234435D01*
X161488112Y-103239000D01*
X160411888Y-103239000D01*
X160365532Y-103234435D01*
X160326862Y-103222704D01*
X160291223Y-103203654D01*
X160259983Y-103178017D01*
X160234346Y-103146777D01*
X160215296Y-103111138D01*
X160203565Y-103072468D01*
X160199000Y-103026112D01*
X160199000Y-102374888D01*
X160203565Y-102328532D01*
X160215296Y-102289862D01*
X160234346Y-102254223D01*
X160259983Y-102222983D01*
X160291223Y-102197346D01*
X160326862Y-102178296D01*
X160365532Y-102166565D01*
X160411888Y-102162000D01*
X161488112Y-102162000D01*
X161534468Y-102166565D01*
X161534468Y-102166565D01*
G37*
G36*
X171029591Y-102216085D02*
G01*
X171063569Y-102226393D01*
X171094890Y-102243134D01*
X171122339Y-102265661D01*
X171144866Y-102293110D01*
X171161607Y-102324431D01*
X171171915Y-102358409D01*
X171176000Y-102399890D01*
X171176000Y-103001110D01*
X171171915Y-103042591D01*
X171161607Y-103076569D01*
X171144866Y-103107890D01*
X171122339Y-103135339D01*
X171094890Y-103157866D01*
X171063569Y-103174607D01*
X171029591Y-103184915D01*
X170988110Y-103189000D01*
X170311890Y-103189000D01*
X170270409Y-103184915D01*
X170236431Y-103174607D01*
X170205110Y-103157866D01*
X170177661Y-103135339D01*
X170155134Y-103107890D01*
X170138393Y-103076569D01*
X170128085Y-103042591D01*
X170124000Y-103001110D01*
X170124000Y-102399890D01*
X170128085Y-102358409D01*
X170138393Y-102324431D01*
X170155134Y-102293110D01*
X170177661Y-102265661D01*
X170205110Y-102243134D01*
X170236431Y-102226393D01*
X170270409Y-102216085D01*
X170311890Y-102212000D01*
X170988110Y-102212000D01*
X171029591Y-102216085D01*
X171029591Y-102216085D01*
G37*
G36*
X173072591Y-102216085D02*
G01*
X173106569Y-102226393D01*
X173137890Y-102243134D01*
X173165339Y-102265661D01*
X173187866Y-102293110D01*
X173204607Y-102324431D01*
X173214915Y-102358409D01*
X173219000Y-102399890D01*
X173219000Y-103001110D01*
X173214915Y-103042591D01*
X173204607Y-103076569D01*
X173187866Y-103107890D01*
X173165339Y-103135339D01*
X173137890Y-103157866D01*
X173106569Y-103174607D01*
X173072591Y-103184915D01*
X173031110Y-103189000D01*
X172354890Y-103189000D01*
X172313409Y-103184915D01*
X172279431Y-103174607D01*
X172248110Y-103157866D01*
X172220661Y-103135339D01*
X172198134Y-103107890D01*
X172181393Y-103076569D01*
X172171085Y-103042591D01*
X172167000Y-103001110D01*
X172167000Y-102399890D01*
X172171085Y-102358409D01*
X172181393Y-102324431D01*
X172198134Y-102293110D01*
X172220661Y-102265661D01*
X172248110Y-102243134D01*
X172279431Y-102226393D01*
X172313409Y-102216085D01*
X172354890Y-102212000D01*
X173031110Y-102212000D01*
X173072591Y-102216085D01*
X173072591Y-102216085D01*
G37*
G36*
X166131000Y-103126000D02*
G01*
X164969000Y-103126000D01*
X164969000Y-102374000D01*
X166131000Y-102374000D01*
X166131000Y-103126000D01*
X166131000Y-103126000D01*
G37*
G36*
X175116591Y-102148085D02*
G01*
X175150569Y-102158393D01*
X175181890Y-102175134D01*
X175209339Y-102197661D01*
X175231866Y-102225110D01*
X175248607Y-102256431D01*
X175258915Y-102290409D01*
X175263000Y-102331890D01*
X175263000Y-102933110D01*
X175258915Y-102974591D01*
X175248607Y-103008569D01*
X175231866Y-103039890D01*
X175209339Y-103067339D01*
X175181890Y-103089866D01*
X175150569Y-103106607D01*
X175116591Y-103116915D01*
X175075110Y-103121000D01*
X174398890Y-103121000D01*
X174357409Y-103116915D01*
X174323431Y-103106607D01*
X174292110Y-103089866D01*
X174264661Y-103067339D01*
X174242134Y-103039890D01*
X174225393Y-103008569D01*
X174215085Y-102974591D01*
X174211000Y-102933110D01*
X174211000Y-102331890D01*
X174215085Y-102290409D01*
X174225393Y-102256431D01*
X174242134Y-102225110D01*
X174264661Y-102197661D01*
X174292110Y-102175134D01*
X174323431Y-102158393D01*
X174357409Y-102148085D01*
X174398890Y-102144000D01*
X175075110Y-102144000D01*
X175116591Y-102148085D01*
X175116591Y-102148085D01*
G37*
G36*
X177159591Y-102146085D02*
G01*
X177193569Y-102156393D01*
X177224890Y-102173134D01*
X177252339Y-102195661D01*
X177274866Y-102223110D01*
X177291607Y-102254431D01*
X177301915Y-102288409D01*
X177306000Y-102329890D01*
X177306000Y-102931110D01*
X177301915Y-102972591D01*
X177291607Y-103006569D01*
X177274866Y-103037890D01*
X177252339Y-103065339D01*
X177224890Y-103087866D01*
X177193569Y-103104607D01*
X177159591Y-103114915D01*
X177118110Y-103119000D01*
X176441890Y-103119000D01*
X176400409Y-103114915D01*
X176366431Y-103104607D01*
X176335110Y-103087866D01*
X176307661Y-103065339D01*
X176285134Y-103037890D01*
X176268393Y-103006569D01*
X176258085Y-102972591D01*
X176254000Y-102931110D01*
X176254000Y-102329890D01*
X176258085Y-102288409D01*
X176268393Y-102254431D01*
X176285134Y-102223110D01*
X176307661Y-102195661D01*
X176335110Y-102173134D01*
X176366431Y-102156393D01*
X176400409Y-102146085D01*
X176441890Y-102142000D01*
X177118110Y-102142000D01*
X177159591Y-102146085D01*
X177159591Y-102146085D01*
G37*
G36*
X159129591Y-102140085D02*
G01*
X159163569Y-102150393D01*
X159194890Y-102167134D01*
X159222339Y-102189661D01*
X159244866Y-102217110D01*
X159261607Y-102248431D01*
X159271915Y-102282409D01*
X159276000Y-102323890D01*
X159276000Y-102925110D01*
X159271915Y-102966591D01*
X159261607Y-103000569D01*
X159244866Y-103031890D01*
X159222339Y-103059339D01*
X159194890Y-103081866D01*
X159163569Y-103098607D01*
X159129591Y-103108915D01*
X159088110Y-103113000D01*
X158411890Y-103113000D01*
X158370409Y-103108915D01*
X158336431Y-103098607D01*
X158305110Y-103081866D01*
X158277661Y-103059339D01*
X158255134Y-103031890D01*
X158238393Y-103000569D01*
X158228085Y-102966591D01*
X158224000Y-102925110D01*
X158224000Y-102323890D01*
X158228085Y-102282409D01*
X158238393Y-102248431D01*
X158255134Y-102217110D01*
X158277661Y-102189661D01*
X158305110Y-102167134D01*
X158336431Y-102150393D01*
X158370409Y-102140085D01*
X158411890Y-102136000D01*
X159088110Y-102136000D01*
X159129591Y-102140085D01*
X159129591Y-102140085D01*
G37*
M02*
