G04 #@! TF.GenerationSoftware,KiCad,Pcbnew,(5.1.2)-1*
G04 #@! TF.CreationDate,2023-10-09T01:29:42+09:00*
G04 #@! TF.ProjectId,usc,7573632e-6b69-4636-9164-5f7063625858,v1.4*
G04 #@! TF.SameCoordinates,Original*
G04 #@! TF.FileFunction,Legend,Top*
G04 #@! TF.FilePolarity,Positive*
%FSLAX46Y46*%
G04 Gerber Fmt 4.6, Leading zero omitted, Abs format (unit mm)*
G04 Created by KiCad (PCBNEW (5.1.2)-1) date 2023-10-09 01:29:42*
%MOMM*%
%LPD*%
G04 APERTURE LIST*
%ADD10C,0.120000*%
%ADD11C,0.150000*%
%ADD12R,1.102000X1.702000*%
%ADD13O,1.702000X1.702000*%
%ADD14R,1.702000X1.702000*%
%ADD15O,1.802000X1.802000*%
%ADD16R,1.802000X1.802000*%
%ADD17C,0.100000*%
%ADD18C,0.977000*%
%ADD19C,3.302000*%
%ADD20R,1.502000X1.302000*%
%ADD21R,1.552000X0.552000*%
%ADD22R,1.162000X0.752000*%
%ADD23R,1.552000X0.702000*%
%ADD24R,1.552000X0.402000*%
%ADD25C,0.752000*%
%ADD26O,2.202000X1.102000*%
%ADD27O,1.702000X1.102000*%
%ADD28C,1.077000*%
G04 APERTURE END LIST*
D10*
X182013809Y-115243333D02*
X182051904Y-115129047D01*
X182051904Y-114938571D01*
X182013809Y-114862380D01*
X181975714Y-114824285D01*
X181899523Y-114786190D01*
X181823333Y-114786190D01*
X181747142Y-114824285D01*
X181709047Y-114862380D01*
X181670952Y-114938571D01*
X181632857Y-115090952D01*
X181594761Y-115167142D01*
X181556666Y-115205238D01*
X181480476Y-115243333D01*
X181404285Y-115243333D01*
X181328095Y-115205238D01*
X181290000Y-115167142D01*
X181251904Y-115090952D01*
X181251904Y-114900476D01*
X181290000Y-114786190D01*
X182051904Y-114443333D02*
X181251904Y-114443333D01*
X181251904Y-114138571D01*
X181290000Y-114062380D01*
X181328095Y-114024285D01*
X181404285Y-113986190D01*
X181518571Y-113986190D01*
X181594761Y-114024285D01*
X181632857Y-114062380D01*
X181670952Y-114138571D01*
X181670952Y-114443333D01*
X182051904Y-113643333D02*
X181251904Y-113643333D01*
X181632857Y-112386190D02*
X181632857Y-112652857D01*
X182051904Y-112652857D02*
X181251904Y-112652857D01*
X181251904Y-112271904D01*
X182051904Y-111586190D02*
X182051904Y-111967142D01*
X181251904Y-111967142D01*
X181823333Y-111357619D02*
X181823333Y-110976666D01*
X182051904Y-111433809D02*
X181251904Y-111167142D01*
X182051904Y-110900476D01*
X182013809Y-110671904D02*
X182051904Y-110557619D01*
X182051904Y-110367142D01*
X182013809Y-110290952D01*
X181975714Y-110252857D01*
X181899523Y-110214761D01*
X181823333Y-110214761D01*
X181747142Y-110252857D01*
X181709047Y-110290952D01*
X181670952Y-110367142D01*
X181632857Y-110519523D01*
X181594761Y-110595714D01*
X181556666Y-110633809D01*
X181480476Y-110671904D01*
X181404285Y-110671904D01*
X181328095Y-110633809D01*
X181290000Y-110595714D01*
X181251904Y-110519523D01*
X181251904Y-110329047D01*
X181290000Y-110214761D01*
X182051904Y-109871904D02*
X181251904Y-109871904D01*
X181632857Y-109871904D02*
X181632857Y-109414761D01*
X182051904Y-109414761D02*
X181251904Y-109414761D01*
X182009523Y-118061904D02*
X182504761Y-118061904D01*
X182238095Y-118366666D01*
X182352380Y-118366666D01*
X182428571Y-118404761D01*
X182466666Y-118442857D01*
X182504761Y-118519047D01*
X182504761Y-118709523D01*
X182466666Y-118785714D01*
X182428571Y-118823809D01*
X182352380Y-118861904D01*
X182123809Y-118861904D01*
X182047619Y-118823809D01*
X182009523Y-118785714D01*
X182733333Y-118061904D02*
X183000000Y-118861904D01*
X183266666Y-118061904D01*
X183457142Y-118061904D02*
X183952380Y-118061904D01*
X183685714Y-118366666D01*
X183800000Y-118366666D01*
X183876190Y-118404761D01*
X183914285Y-118442857D01*
X183952380Y-118519047D01*
X183952380Y-118709523D01*
X183914285Y-118785714D01*
X183876190Y-118823809D01*
X183800000Y-118861904D01*
X183571428Y-118861904D01*
X183495238Y-118823809D01*
X183457142Y-118785714D01*
X180347619Y-118061904D02*
X179966666Y-118061904D01*
X179928571Y-118442857D01*
X179966666Y-118404761D01*
X180042857Y-118366666D01*
X180233333Y-118366666D01*
X180309523Y-118404761D01*
X180347619Y-118442857D01*
X180385714Y-118519047D01*
X180385714Y-118709523D01*
X180347619Y-118785714D01*
X180309523Y-118823809D01*
X180233333Y-118861904D01*
X180042857Y-118861904D01*
X179966666Y-118823809D01*
X179928571Y-118785714D01*
X180614285Y-118061904D02*
X180880952Y-118861904D01*
X181147619Y-118061904D01*
X179261904Y-123961904D02*
X179528571Y-124761904D01*
X179795238Y-123961904D01*
X180061904Y-124761904D02*
X180061904Y-123961904D01*
X180252380Y-123961904D01*
X180366666Y-124000000D01*
X180442857Y-124076190D01*
X180480952Y-124152380D01*
X180519047Y-124304761D01*
X180519047Y-124419047D01*
X180480952Y-124571428D01*
X180442857Y-124647619D01*
X180366666Y-124723809D01*
X180252380Y-124761904D01*
X180061904Y-124761904D01*
X180861904Y-124761904D02*
X180861904Y-123961904D01*
X181052380Y-123961904D01*
X181166666Y-124000000D01*
X181242857Y-124076190D01*
X181280952Y-124152380D01*
X181319047Y-124304761D01*
X181319047Y-124419047D01*
X181280952Y-124571428D01*
X181242857Y-124647619D01*
X181166666Y-124723809D01*
X181052380Y-124761904D01*
X180861904Y-124761904D01*
X182233333Y-124723809D02*
X182347619Y-124761904D01*
X182538095Y-124761904D01*
X182614285Y-124723809D01*
X182652380Y-124685714D01*
X182690476Y-124609523D01*
X182690476Y-124533333D01*
X182652380Y-124457142D01*
X182614285Y-124419047D01*
X182538095Y-124380952D01*
X182385714Y-124342857D01*
X182309523Y-124304761D01*
X182271428Y-124266666D01*
X182233333Y-124190476D01*
X182233333Y-124114285D01*
X182271428Y-124038095D01*
X182309523Y-124000000D01*
X182385714Y-123961904D01*
X182576190Y-123961904D01*
X182690476Y-124000000D01*
X183033333Y-124342857D02*
X183300000Y-124342857D01*
X183414285Y-124761904D02*
X183033333Y-124761904D01*
X183033333Y-123961904D01*
X183414285Y-123961904D01*
X184138095Y-124761904D02*
X183757142Y-124761904D01*
X183757142Y-123961904D01*
X171421904Y-122131904D02*
X171155238Y-121750952D01*
X170964761Y-122131904D02*
X170964761Y-121331904D01*
X171269523Y-121331904D01*
X171345714Y-121370000D01*
X171383809Y-121408095D01*
X171421904Y-121484285D01*
X171421904Y-121598571D01*
X171383809Y-121674761D01*
X171345714Y-121712857D01*
X171269523Y-121750952D01*
X170964761Y-121750952D01*
X171726666Y-122093809D02*
X171840952Y-122131904D01*
X172031428Y-122131904D01*
X172107619Y-122093809D01*
X172145714Y-122055714D01*
X172183809Y-121979523D01*
X172183809Y-121903333D01*
X172145714Y-121827142D01*
X172107619Y-121789047D01*
X172031428Y-121750952D01*
X171879047Y-121712857D01*
X171802857Y-121674761D01*
X171764761Y-121636666D01*
X171726666Y-121560476D01*
X171726666Y-121484285D01*
X171764761Y-121408095D01*
X171802857Y-121370000D01*
X171879047Y-121331904D01*
X172069523Y-121331904D01*
X172183809Y-121370000D01*
X172412380Y-121331904D02*
X172869523Y-121331904D01*
X172640952Y-122131904D02*
X172640952Y-121331904D01*
X171051904Y-107405714D02*
X170251904Y-107405714D01*
X170251904Y-107100952D01*
X170290000Y-107024761D01*
X170328095Y-106986666D01*
X170404285Y-106948571D01*
X170518571Y-106948571D01*
X170594761Y-106986666D01*
X170632857Y-107024761D01*
X170670952Y-107100952D01*
X170670952Y-107405714D01*
X170251904Y-106453333D02*
X170251904Y-106300952D01*
X170290000Y-106224761D01*
X170366190Y-106148571D01*
X170518571Y-106110476D01*
X170785238Y-106110476D01*
X170937619Y-106148571D01*
X171013809Y-106224761D01*
X171051904Y-106300952D01*
X171051904Y-106453333D01*
X171013809Y-106529523D01*
X170937619Y-106605714D01*
X170785238Y-106643809D01*
X170518571Y-106643809D01*
X170366190Y-106605714D01*
X170290000Y-106529523D01*
X170251904Y-106453333D01*
X170251904Y-105843809D02*
X171051904Y-105653333D01*
X170480476Y-105500952D01*
X171051904Y-105348571D01*
X170251904Y-105158095D01*
X175235714Y-106838571D02*
X175273809Y-106876666D01*
X175311904Y-106990952D01*
X175311904Y-107067142D01*
X175273809Y-107181428D01*
X175197619Y-107257619D01*
X175121428Y-107295714D01*
X174969047Y-107333809D01*
X174854761Y-107333809D01*
X174702380Y-107295714D01*
X174626190Y-107257619D01*
X174550000Y-107181428D01*
X174511904Y-107067142D01*
X174511904Y-106990952D01*
X174550000Y-106876666D01*
X174588095Y-106838571D01*
X174511904Y-106343333D02*
X174511904Y-106190952D01*
X174550000Y-106114761D01*
X174626190Y-106038571D01*
X174778571Y-106000476D01*
X175045238Y-106000476D01*
X175197619Y-106038571D01*
X175273809Y-106114761D01*
X175311904Y-106190952D01*
X175311904Y-106343333D01*
X175273809Y-106419523D01*
X175197619Y-106495714D01*
X175045238Y-106533809D01*
X174778571Y-106533809D01*
X174626190Y-106495714D01*
X174550000Y-106419523D01*
X174511904Y-106343333D01*
X175311904Y-105657619D02*
X174511904Y-105657619D01*
X175083333Y-105390952D01*
X174511904Y-105124285D01*
X175311904Y-105124285D01*
X174020476Y-121390000D02*
X173944285Y-121351904D01*
X173830000Y-121351904D01*
X173715714Y-121390000D01*
X173639523Y-121466190D01*
X173601428Y-121542380D01*
X173563333Y-121694761D01*
X173563333Y-121809047D01*
X173601428Y-121961428D01*
X173639523Y-122037619D01*
X173715714Y-122113809D01*
X173830000Y-122151904D01*
X173906190Y-122151904D01*
X174020476Y-122113809D01*
X174058571Y-122075714D01*
X174058571Y-121809047D01*
X173906190Y-121809047D01*
X174401428Y-122151904D02*
X174401428Y-121351904D01*
X174858571Y-122151904D01*
X174858571Y-121351904D01*
X175239523Y-122151904D02*
X175239523Y-121351904D01*
X175430000Y-121351904D01*
X175544285Y-121390000D01*
X175620476Y-121466190D01*
X175658571Y-121542380D01*
X175696666Y-121694761D01*
X175696666Y-121809047D01*
X175658571Y-121961428D01*
X175620476Y-122037619D01*
X175544285Y-122113809D01*
X175430000Y-122151904D01*
X175239523Y-122151904D01*
X168690000Y-122131904D02*
X168690000Y-121331904D01*
X169223333Y-121331904D02*
X169375714Y-121331904D01*
X169451904Y-121370000D01*
X169528095Y-121446190D01*
X169566190Y-121598571D01*
X169566190Y-121865238D01*
X169528095Y-122017619D01*
X169451904Y-122093809D01*
X169375714Y-122131904D01*
X169223333Y-122131904D01*
X169147142Y-122093809D01*
X169070952Y-122017619D01*
X169032857Y-121865238D01*
X169032857Y-121598571D01*
X169070952Y-121446190D01*
X169147142Y-121370000D01*
X169223333Y-121331904D01*
X170023333Y-121674761D02*
X169947142Y-121636666D01*
X169909047Y-121598571D01*
X169870952Y-121522380D01*
X169870952Y-121484285D01*
X169909047Y-121408095D01*
X169947142Y-121370000D01*
X170023333Y-121331904D01*
X170175714Y-121331904D01*
X170251904Y-121370000D01*
X170290000Y-121408095D01*
X170328095Y-121484285D01*
X170328095Y-121522380D01*
X170290000Y-121598571D01*
X170251904Y-121636666D01*
X170175714Y-121674761D01*
X170023333Y-121674761D01*
X169947142Y-121712857D01*
X169909047Y-121750952D01*
X169870952Y-121827142D01*
X169870952Y-121979523D01*
X169909047Y-122055714D01*
X169947142Y-122093809D01*
X170023333Y-122131904D01*
X170175714Y-122131904D01*
X170251904Y-122093809D01*
X170290000Y-122055714D01*
X170328095Y-121979523D01*
X170328095Y-121827142D01*
X170290000Y-121750952D01*
X170251904Y-121712857D01*
X170175714Y-121674761D01*
X166150000Y-122131904D02*
X166150000Y-121331904D01*
X166683333Y-121331904D02*
X166835714Y-121331904D01*
X166911904Y-121370000D01*
X166988095Y-121446190D01*
X167026190Y-121598571D01*
X167026190Y-121865238D01*
X166988095Y-122017619D01*
X166911904Y-122093809D01*
X166835714Y-122131904D01*
X166683333Y-122131904D01*
X166607142Y-122093809D01*
X166530952Y-122017619D01*
X166492857Y-121865238D01*
X166492857Y-121598571D01*
X166530952Y-121446190D01*
X166607142Y-121370000D01*
X166683333Y-121331904D01*
X167292857Y-121331904D02*
X167826190Y-121331904D01*
X167483333Y-122131904D01*
X163630000Y-122131904D02*
X163630000Y-121331904D01*
X164163333Y-121331904D02*
X164315714Y-121331904D01*
X164391904Y-121370000D01*
X164468095Y-121446190D01*
X164506190Y-121598571D01*
X164506190Y-121865238D01*
X164468095Y-122017619D01*
X164391904Y-122093809D01*
X164315714Y-122131904D01*
X164163333Y-122131904D01*
X164087142Y-122093809D01*
X164010952Y-122017619D01*
X163972857Y-121865238D01*
X163972857Y-121598571D01*
X164010952Y-121446190D01*
X164087142Y-121370000D01*
X164163333Y-121331904D01*
X165230000Y-121331904D02*
X164849047Y-121331904D01*
X164810952Y-121712857D01*
X164849047Y-121674761D01*
X164925238Y-121636666D01*
X165115714Y-121636666D01*
X165191904Y-121674761D01*
X165230000Y-121712857D01*
X165268095Y-121789047D01*
X165268095Y-121979523D01*
X165230000Y-122055714D01*
X165191904Y-122093809D01*
X165115714Y-122131904D01*
X164925238Y-122131904D01*
X164849047Y-122093809D01*
X164810952Y-122055714D01*
X161140000Y-122131904D02*
X161140000Y-121331904D01*
X161673333Y-121331904D02*
X161825714Y-121331904D01*
X161901904Y-121370000D01*
X161978095Y-121446190D01*
X162016190Y-121598571D01*
X162016190Y-121865238D01*
X161978095Y-122017619D01*
X161901904Y-122093809D01*
X161825714Y-122131904D01*
X161673333Y-122131904D01*
X161597142Y-122093809D01*
X161520952Y-122017619D01*
X161482857Y-121865238D01*
X161482857Y-121598571D01*
X161520952Y-121446190D01*
X161597142Y-121370000D01*
X161673333Y-121331904D01*
X162282857Y-121331904D02*
X162778095Y-121331904D01*
X162511428Y-121636666D01*
X162625714Y-121636666D01*
X162701904Y-121674761D01*
X162740000Y-121712857D01*
X162778095Y-121789047D01*
X162778095Y-121979523D01*
X162740000Y-122055714D01*
X162701904Y-122093809D01*
X162625714Y-122131904D01*
X162397142Y-122131904D01*
X162320952Y-122093809D01*
X162282857Y-122055714D01*
X194141904Y-120406666D02*
X194941904Y-120140000D01*
X194141904Y-119873333D01*
X194941904Y-119606666D02*
X194141904Y-119606666D01*
X194141904Y-119416190D01*
X194180000Y-119301904D01*
X194256190Y-119225714D01*
X194332380Y-119187619D01*
X194484761Y-119149523D01*
X194599047Y-119149523D01*
X194751428Y-119187619D01*
X194827619Y-119225714D01*
X194903809Y-119301904D01*
X194941904Y-119416190D01*
X194941904Y-119606666D01*
X194941904Y-118806666D02*
X194141904Y-118806666D01*
X194141904Y-118616190D01*
X194180000Y-118501904D01*
X194256190Y-118425714D01*
X194332380Y-118387619D01*
X194484761Y-118349523D01*
X194599047Y-118349523D01*
X194751428Y-118387619D01*
X194827619Y-118425714D01*
X194903809Y-118501904D01*
X194941904Y-118616190D01*
X194941904Y-118806666D01*
X194180000Y-117509523D02*
X194141904Y-117585714D01*
X194141904Y-117700000D01*
X194180000Y-117814285D01*
X194256190Y-117890476D01*
X194332380Y-117928571D01*
X194484761Y-117966666D01*
X194599047Y-117966666D01*
X194751428Y-117928571D01*
X194827619Y-117890476D01*
X194903809Y-117814285D01*
X194941904Y-117700000D01*
X194941904Y-117623809D01*
X194903809Y-117509523D01*
X194865714Y-117471428D01*
X194599047Y-117471428D01*
X194599047Y-117623809D01*
X194941904Y-117128571D02*
X194141904Y-117128571D01*
X194941904Y-116671428D01*
X194141904Y-116671428D01*
X194941904Y-116290476D02*
X194141904Y-116290476D01*
X194141904Y-116100000D01*
X194180000Y-115985714D01*
X194256190Y-115909523D01*
X194332380Y-115871428D01*
X194484761Y-115833333D01*
X194599047Y-115833333D01*
X194751428Y-115871428D01*
X194827619Y-115909523D01*
X194903809Y-115985714D01*
X194941904Y-116100000D01*
X194941904Y-116290476D01*
X194941904Y-115030000D02*
X194141904Y-115030000D01*
X194141904Y-114496666D02*
X194141904Y-114344285D01*
X194180000Y-114268095D01*
X194256190Y-114191904D01*
X194408571Y-114153809D01*
X194675238Y-114153809D01*
X194827619Y-114191904D01*
X194903809Y-114268095D01*
X194941904Y-114344285D01*
X194941904Y-114496666D01*
X194903809Y-114572857D01*
X194827619Y-114649047D01*
X194675238Y-114687142D01*
X194408571Y-114687142D01*
X194256190Y-114649047D01*
X194180000Y-114572857D01*
X194141904Y-114496666D01*
X194408571Y-113468095D02*
X194941904Y-113468095D01*
X194103809Y-113658571D02*
X194675238Y-113849047D01*
X194675238Y-113353809D01*
X194941904Y-112560000D02*
X194141904Y-112560000D01*
X194141904Y-112026666D02*
X194141904Y-111874285D01*
X194180000Y-111798095D01*
X194256190Y-111721904D01*
X194408571Y-111683809D01*
X194675238Y-111683809D01*
X194827619Y-111721904D01*
X194903809Y-111798095D01*
X194941904Y-111874285D01*
X194941904Y-112026666D01*
X194903809Y-112102857D01*
X194827619Y-112179047D01*
X194675238Y-112217142D01*
X194408571Y-112217142D01*
X194256190Y-112179047D01*
X194180000Y-112102857D01*
X194141904Y-112026666D01*
X194218095Y-111379047D02*
X194180000Y-111340952D01*
X194141904Y-111264761D01*
X194141904Y-111074285D01*
X194180000Y-110998095D01*
X194218095Y-110960000D01*
X194294285Y-110921904D01*
X194370476Y-110921904D01*
X194484761Y-110960000D01*
X194941904Y-111417142D01*
X194941904Y-110921904D01*
X194941904Y-109990000D02*
X194141904Y-109990000D01*
X194141904Y-109456666D02*
X194141904Y-109304285D01*
X194180000Y-109228095D01*
X194256190Y-109151904D01*
X194408571Y-109113809D01*
X194675238Y-109113809D01*
X194827619Y-109151904D01*
X194903809Y-109228095D01*
X194941904Y-109304285D01*
X194941904Y-109456666D01*
X194903809Y-109532857D01*
X194827619Y-109609047D01*
X194675238Y-109647142D01*
X194408571Y-109647142D01*
X194256190Y-109609047D01*
X194180000Y-109532857D01*
X194141904Y-109456666D01*
X194141904Y-108618571D02*
X194141904Y-108542380D01*
X194180000Y-108466190D01*
X194218095Y-108428095D01*
X194294285Y-108390000D01*
X194446666Y-108351904D01*
X194637142Y-108351904D01*
X194789523Y-108390000D01*
X194865714Y-108428095D01*
X194903809Y-108466190D01*
X194941904Y-108542380D01*
X194941904Y-108618571D01*
X194903809Y-108694761D01*
X194865714Y-108732857D01*
X194789523Y-108770952D01*
X194637142Y-108809047D01*
X194446666Y-108809047D01*
X194294285Y-108770952D01*
X194218095Y-108732857D01*
X194180000Y-108694761D01*
X194141904Y-108618571D01*
X194941904Y-107380000D02*
X194141904Y-107380000D01*
X194141904Y-106846666D02*
X194141904Y-106694285D01*
X194180000Y-106618095D01*
X194256190Y-106541904D01*
X194408571Y-106503809D01*
X194675238Y-106503809D01*
X194827619Y-106541904D01*
X194903809Y-106618095D01*
X194941904Y-106694285D01*
X194941904Y-106846666D01*
X194903809Y-106922857D01*
X194827619Y-106999047D01*
X194675238Y-107037142D01*
X194408571Y-107037142D01*
X194256190Y-106999047D01*
X194180000Y-106922857D01*
X194141904Y-106846666D01*
X194141904Y-105818095D02*
X194141904Y-105970476D01*
X194180000Y-106046666D01*
X194218095Y-106084761D01*
X194332380Y-106160952D01*
X194484761Y-106199047D01*
X194789523Y-106199047D01*
X194865714Y-106160952D01*
X194903809Y-106122857D01*
X194941904Y-106046666D01*
X194941904Y-105894285D01*
X194903809Y-105818095D01*
X194865714Y-105780000D01*
X194789523Y-105741904D01*
X194599047Y-105741904D01*
X194522857Y-105780000D01*
X194484761Y-105818095D01*
X194446666Y-105894285D01*
X194446666Y-106046666D01*
X194484761Y-106122857D01*
X194522857Y-106160952D01*
X194599047Y-106199047D01*
X187711904Y-120416666D02*
X188511904Y-120150000D01*
X187711904Y-119883333D01*
X188511904Y-119616666D02*
X187711904Y-119616666D01*
X187711904Y-119426190D01*
X187750000Y-119311904D01*
X187826190Y-119235714D01*
X187902380Y-119197619D01*
X188054761Y-119159523D01*
X188169047Y-119159523D01*
X188321428Y-119197619D01*
X188397619Y-119235714D01*
X188473809Y-119311904D01*
X188511904Y-119426190D01*
X188511904Y-119616666D01*
X188511904Y-118816666D02*
X187711904Y-118816666D01*
X187711904Y-118626190D01*
X187750000Y-118511904D01*
X187826190Y-118435714D01*
X187902380Y-118397619D01*
X188054761Y-118359523D01*
X188169047Y-118359523D01*
X188321428Y-118397619D01*
X188397619Y-118435714D01*
X188473809Y-118511904D01*
X188511904Y-118626190D01*
X188511904Y-118816666D01*
X187750000Y-117539523D02*
X187711904Y-117615714D01*
X187711904Y-117730000D01*
X187750000Y-117844285D01*
X187826190Y-117920476D01*
X187902380Y-117958571D01*
X188054761Y-117996666D01*
X188169047Y-117996666D01*
X188321428Y-117958571D01*
X188397619Y-117920476D01*
X188473809Y-117844285D01*
X188511904Y-117730000D01*
X188511904Y-117653809D01*
X188473809Y-117539523D01*
X188435714Y-117501428D01*
X188169047Y-117501428D01*
X188169047Y-117653809D01*
X188511904Y-117158571D02*
X187711904Y-117158571D01*
X188511904Y-116701428D01*
X187711904Y-116701428D01*
X188511904Y-116320476D02*
X187711904Y-116320476D01*
X187711904Y-116130000D01*
X187750000Y-116015714D01*
X187826190Y-115939523D01*
X187902380Y-115901428D01*
X188054761Y-115863333D01*
X188169047Y-115863333D01*
X188321428Y-115901428D01*
X188397619Y-115939523D01*
X188473809Y-116015714D01*
X188511904Y-116130000D01*
X188511904Y-116320476D01*
X188473809Y-115318571D02*
X188511904Y-115204285D01*
X188511904Y-115013809D01*
X188473809Y-114937619D01*
X188435714Y-114899523D01*
X188359523Y-114861428D01*
X188283333Y-114861428D01*
X188207142Y-114899523D01*
X188169047Y-114937619D01*
X188130952Y-115013809D01*
X188092857Y-115166190D01*
X188054761Y-115242380D01*
X188016666Y-115280476D01*
X187940476Y-115318571D01*
X187864285Y-115318571D01*
X187788095Y-115280476D01*
X187750000Y-115242380D01*
X187711904Y-115166190D01*
X187711904Y-114975714D01*
X187750000Y-114861428D01*
X188435714Y-114061428D02*
X188473809Y-114099523D01*
X188511904Y-114213809D01*
X188511904Y-114290000D01*
X188473809Y-114404285D01*
X188397619Y-114480476D01*
X188321428Y-114518571D01*
X188169047Y-114556666D01*
X188054761Y-114556666D01*
X187902380Y-114518571D01*
X187826190Y-114480476D01*
X187750000Y-114404285D01*
X187711904Y-114290000D01*
X187711904Y-114213809D01*
X187750000Y-114099523D01*
X187788095Y-114061428D01*
X188511904Y-113718571D02*
X187711904Y-113718571D01*
X188511904Y-113261428D02*
X188054761Y-113604285D01*
X187711904Y-113261428D02*
X188169047Y-113718571D01*
X188427428Y-112852857D02*
X187827428Y-112852857D01*
X188256000Y-112652857D01*
X187827428Y-112452857D01*
X188427428Y-112452857D01*
X188427428Y-112167142D02*
X187827428Y-112167142D01*
X188398857Y-111910000D02*
X188427428Y-111824285D01*
X188427428Y-111681428D01*
X188398857Y-111624285D01*
X188370285Y-111595714D01*
X188313142Y-111567142D01*
X188256000Y-111567142D01*
X188198857Y-111595714D01*
X188170285Y-111624285D01*
X188141714Y-111681428D01*
X188113142Y-111795714D01*
X188084571Y-111852857D01*
X188056000Y-111881428D01*
X187998857Y-111910000D01*
X187941714Y-111910000D01*
X187884571Y-111881428D01*
X187856000Y-111852857D01*
X187827428Y-111795714D01*
X187827428Y-111652857D01*
X187856000Y-111567142D01*
X187827428Y-111195714D02*
X187827428Y-111081428D01*
X187856000Y-111024285D01*
X187913142Y-110967142D01*
X188027428Y-110938571D01*
X188227428Y-110938571D01*
X188341714Y-110967142D01*
X188398857Y-111024285D01*
X188427428Y-111081428D01*
X188427428Y-111195714D01*
X188398857Y-111252857D01*
X188341714Y-111310000D01*
X188227428Y-111338571D01*
X188027428Y-111338571D01*
X187913142Y-111310000D01*
X187856000Y-111252857D01*
X187827428Y-111195714D01*
X188427428Y-110342857D02*
X187827428Y-110342857D01*
X188256000Y-110142857D01*
X187827428Y-109942857D01*
X188427428Y-109942857D01*
X187827428Y-109542857D02*
X187827428Y-109428571D01*
X187856000Y-109371428D01*
X187913142Y-109314285D01*
X188027428Y-109285714D01*
X188227428Y-109285714D01*
X188341714Y-109314285D01*
X188398857Y-109371428D01*
X188427428Y-109428571D01*
X188427428Y-109542857D01*
X188398857Y-109600000D01*
X188341714Y-109657142D01*
X188227428Y-109685714D01*
X188027428Y-109685714D01*
X187913142Y-109657142D01*
X187856000Y-109600000D01*
X187827428Y-109542857D01*
X188398857Y-109057142D02*
X188427428Y-108971428D01*
X188427428Y-108828571D01*
X188398857Y-108771428D01*
X188370285Y-108742857D01*
X188313142Y-108714285D01*
X188256000Y-108714285D01*
X188198857Y-108742857D01*
X188170285Y-108771428D01*
X188141714Y-108828571D01*
X188113142Y-108942857D01*
X188084571Y-109000000D01*
X188056000Y-109028571D01*
X187998857Y-109057142D01*
X187941714Y-109057142D01*
X187884571Y-109028571D01*
X187856000Y-109000000D01*
X187827428Y-108942857D01*
X187827428Y-108800000D01*
X187856000Y-108714285D01*
X188427428Y-108457142D02*
X187827428Y-108457142D01*
X188511904Y-107610000D02*
X187711904Y-107610000D01*
X187711904Y-107076666D02*
X187711904Y-106924285D01*
X187750000Y-106848095D01*
X187826190Y-106771904D01*
X187978571Y-106733809D01*
X188245238Y-106733809D01*
X188397619Y-106771904D01*
X188473809Y-106848095D01*
X188511904Y-106924285D01*
X188511904Y-107076666D01*
X188473809Y-107152857D01*
X188397619Y-107229047D01*
X188245238Y-107267142D01*
X187978571Y-107267142D01*
X187826190Y-107229047D01*
X187750000Y-107152857D01*
X187711904Y-107076666D01*
X188511904Y-105971904D02*
X188511904Y-106429047D01*
X188511904Y-106200476D02*
X187711904Y-106200476D01*
X187826190Y-106276666D01*
X187902380Y-106352857D01*
X187940476Y-106429047D01*
X184360000Y-106870000D02*
X182710000Y-106870000D01*
X184360000Y-117150000D02*
X184360000Y-106870000D01*
X179060000Y-117150000D02*
X184360000Y-117150000D01*
X179060000Y-106870000D02*
X179060000Y-117150000D01*
X180710000Y-106870000D02*
X179060000Y-106870000D01*
X182710000Y-106870000D02*
G75*
G02X180710000Y-106870000I-1000000J0D01*
G01*
X160440000Y-124980000D02*
X160440000Y-123650000D01*
X161770000Y-124980000D02*
X160440000Y-124980000D01*
X163040000Y-124980000D02*
X163040000Y-122320000D01*
X163040000Y-122320000D02*
X175800000Y-122320000D01*
X163040000Y-124980000D02*
X175800000Y-124980000D01*
X175800000Y-124980000D02*
X175800000Y-122320000D01*
X175510000Y-112274779D02*
X175510000Y-111949221D01*
X174490000Y-112274779D02*
X174490000Y-111949221D01*
X161074779Y-110090000D02*
X160749221Y-110090000D01*
X161074779Y-111110000D02*
X160749221Y-111110000D01*
X184850779Y-104590000D02*
X184525221Y-104590000D01*
X184850779Y-105610000D02*
X184525221Y-105610000D01*
D11*
X172050000Y-115550000D02*
X166075000Y-115550000D01*
X170525000Y-108650000D02*
X166075000Y-108650000D01*
D10*
X165350000Y-102090000D02*
X162900000Y-102090000D01*
X163550000Y-105310000D02*
X165350000Y-105310000D01*
X161050779Y-111890000D02*
X160725221Y-111890000D01*
X161050779Y-112910000D02*
X160725221Y-112910000D01*
X161050779Y-113690000D02*
X160725221Y-113690000D01*
X161050779Y-114710000D02*
X160725221Y-114710000D01*
X177290000Y-103580779D02*
X177290000Y-103255221D01*
X176270000Y-103580779D02*
X176270000Y-103255221D01*
X175530000Y-115494779D02*
X175530000Y-115169221D01*
X174510000Y-115494779D02*
X174510000Y-115169221D01*
X173203000Y-103650779D02*
X173203000Y-103325221D01*
X172183000Y-103650779D02*
X172183000Y-103325221D01*
X160725221Y-116510000D02*
X161050779Y-116510000D01*
X160725221Y-115490000D02*
X161050779Y-115490000D01*
X160749221Y-109310000D02*
X161074779Y-109310000D01*
X160749221Y-108290000D02*
X161074779Y-108290000D01*
X188670000Y-106680000D02*
X188670000Y-105570000D01*
X188670000Y-105570000D02*
X190000000Y-105570000D01*
X205170000Y-105350000D02*
X205170000Y-120710000D01*
X205170000Y-120710000D02*
X196540000Y-120710000D01*
X196540000Y-105350000D02*
X196540000Y-120710000D01*
X205170000Y-105350000D02*
X196540000Y-105350000D01*
X205170000Y-118110000D02*
X196540000Y-118110000D01*
X205170000Y-115570000D02*
X196540000Y-115570000D01*
X205170000Y-113030000D02*
X196540000Y-113030000D01*
X205170000Y-110490000D02*
X196540000Y-110490000D01*
X205170000Y-107950000D02*
X196540000Y-107950000D01*
X194030000Y-119740000D02*
X193590000Y-119740000D01*
X196540000Y-119740000D02*
X196130000Y-119740000D01*
X194030000Y-119020000D02*
X193590000Y-119020000D01*
X196540000Y-119020000D02*
X196130000Y-119020000D01*
X194030000Y-117200000D02*
X193590000Y-117200000D01*
X196540000Y-117200000D02*
X196130000Y-117200000D01*
X194030000Y-116480000D02*
X193590000Y-116480000D01*
X196540000Y-116480000D02*
X196130000Y-116480000D01*
X194030000Y-114660000D02*
X193590000Y-114660000D01*
X196540000Y-114660000D02*
X196130000Y-114660000D01*
X194030000Y-113940000D02*
X193590000Y-113940000D01*
X196540000Y-113940000D02*
X196130000Y-113940000D01*
X194030000Y-112120000D02*
X193590000Y-112120000D01*
X196540000Y-112120000D02*
X196130000Y-112120000D01*
X194030000Y-111400000D02*
X193590000Y-111400000D01*
X196540000Y-111400000D02*
X196130000Y-111400000D01*
X194030000Y-109580000D02*
X193590000Y-109580000D01*
X196540000Y-109580000D02*
X196130000Y-109580000D01*
X194030000Y-108860000D02*
X193590000Y-108860000D01*
X196540000Y-108860000D02*
X196130000Y-108860000D01*
X194030000Y-107040000D02*
X193650000Y-107040000D01*
X196540000Y-107040000D02*
X196130000Y-107040000D01*
X194030000Y-106320000D02*
X193650000Y-106320000D01*
X196540000Y-106320000D02*
X196130000Y-106320000D01*
X205170000Y-107831900D02*
X196540000Y-107831900D01*
X205170000Y-107713805D02*
X196540000Y-107713805D01*
X205170000Y-107595710D02*
X196540000Y-107595710D01*
X205170000Y-107477615D02*
X196540000Y-107477615D01*
X205170000Y-107359520D02*
X196540000Y-107359520D01*
X205170000Y-107241425D02*
X196540000Y-107241425D01*
X205170000Y-107123330D02*
X196540000Y-107123330D01*
X205170000Y-107005235D02*
X196540000Y-107005235D01*
X205170000Y-106887140D02*
X196540000Y-106887140D01*
X205170000Y-106769045D02*
X196540000Y-106769045D01*
X205170000Y-106650950D02*
X196540000Y-106650950D01*
X205170000Y-106532855D02*
X196540000Y-106532855D01*
X205170000Y-106414760D02*
X196540000Y-106414760D01*
X205170000Y-106296665D02*
X196540000Y-106296665D01*
X205170000Y-106178570D02*
X196540000Y-106178570D01*
X205170000Y-106060475D02*
X196540000Y-106060475D01*
X205170000Y-105942380D02*
X196540000Y-105942380D01*
X205170000Y-105824285D02*
X196540000Y-105824285D01*
X205170000Y-105706190D02*
X196540000Y-105706190D01*
X205170000Y-105588095D02*
X196540000Y-105588095D01*
X205170000Y-105470000D02*
X196540000Y-105470000D01*
X159260000Y-103574779D02*
X159260000Y-103249221D01*
X158240000Y-103574779D02*
X158240000Y-103249221D01*
X175472000Y-104905000D02*
X175472000Y-102620000D01*
X174002000Y-104905000D02*
X175472000Y-104905000D01*
X174002000Y-102620000D02*
X174002000Y-104905000D01*
X171385000Y-104973000D02*
X171385000Y-102688000D01*
X169915000Y-104973000D02*
X171385000Y-104973000D01*
X169915000Y-102688000D02*
X169915000Y-104973000D01*
X174010000Y-115474779D02*
X174010000Y-115149221D01*
X172990000Y-115474779D02*
X172990000Y-115149221D01*
X167340000Y-103403422D02*
X167340000Y-103920578D01*
X168760000Y-103403422D02*
X168760000Y-103920578D01*
X165510000Y-118750779D02*
X165510000Y-118425221D01*
X164490000Y-118750779D02*
X164490000Y-118425221D01*
X164624779Y-106090000D02*
X164299221Y-106090000D01*
X164624779Y-107110000D02*
X164299221Y-107110000D01*
X171490000Y-118525221D02*
X171490000Y-118850779D01*
X172510000Y-118525221D02*
X172510000Y-118850779D01*
X160240000Y-103379422D02*
X160240000Y-103896578D01*
X161660000Y-103379422D02*
X161660000Y-103896578D01*
D11*
X178284761Y-123273333D02*
X178332380Y-123130476D01*
X178332380Y-122892380D01*
X178284761Y-122797142D01*
X178237142Y-122749523D01*
X178141904Y-122701904D01*
X178046666Y-122701904D01*
X177951428Y-122749523D01*
X177903809Y-122797142D01*
X177856190Y-122892380D01*
X177808571Y-123082857D01*
X177760952Y-123178095D01*
X177713333Y-123225714D01*
X177618095Y-123273333D01*
X177522857Y-123273333D01*
X177427619Y-123225714D01*
X177380000Y-123178095D01*
X177332380Y-123082857D01*
X177332380Y-122844761D01*
X177380000Y-122701904D01*
X177332380Y-122368571D02*
X178332380Y-122130476D01*
X177618095Y-121940000D01*
X178332380Y-121749523D01*
X177332380Y-121511428D01*
X178332380Y-120606666D02*
X178332380Y-121178095D01*
X178332380Y-120892380D02*
X177332380Y-120892380D01*
X177475238Y-120987619D01*
X177570476Y-121082857D01*
X177618095Y-121178095D01*
X180948095Y-105552380D02*
X180948095Y-106361904D01*
X180995714Y-106457142D01*
X181043333Y-106504761D01*
X181138571Y-106552380D01*
X181329047Y-106552380D01*
X181424285Y-106504761D01*
X181471904Y-106457142D01*
X181519523Y-106361904D01*
X181519523Y-105552380D01*
X181900476Y-105552380D02*
X182519523Y-105552380D01*
X182186190Y-105933333D01*
X182329047Y-105933333D01*
X182424285Y-105980952D01*
X182471904Y-106028571D01*
X182519523Y-106123809D01*
X182519523Y-106361904D01*
X182471904Y-106457142D01*
X182424285Y-106504761D01*
X182329047Y-106552380D01*
X182043333Y-106552380D01*
X181948095Y-106504761D01*
X181900476Y-106457142D01*
X158892380Y-123983333D02*
X159606666Y-123983333D01*
X159749523Y-124030952D01*
X159844761Y-124126190D01*
X159892380Y-124269047D01*
X159892380Y-124364285D01*
X158892380Y-123602380D02*
X158892380Y-122983333D01*
X159273333Y-123316666D01*
X159273333Y-123173809D01*
X159320952Y-123078571D01*
X159368571Y-123030952D01*
X159463809Y-122983333D01*
X159701904Y-122983333D01*
X159797142Y-123030952D01*
X159844761Y-123078571D01*
X159892380Y-123173809D01*
X159892380Y-123459523D01*
X159844761Y-123554761D01*
X159797142Y-123602380D01*
X175357142Y-109766166D02*
X175404761Y-109813785D01*
X175452380Y-109956642D01*
X175452380Y-110051880D01*
X175404761Y-110194738D01*
X175309523Y-110289976D01*
X175214285Y-110337595D01*
X175023809Y-110385214D01*
X174880952Y-110385214D01*
X174690476Y-110337595D01*
X174595238Y-110289976D01*
X174500000Y-110194738D01*
X174452380Y-110051880D01*
X174452380Y-109956642D01*
X174500000Y-109813785D01*
X174547619Y-109766166D01*
X175452380Y-109289976D02*
X175452380Y-109099500D01*
X175404761Y-109004261D01*
X175357142Y-108956642D01*
X175214285Y-108861404D01*
X175023809Y-108813785D01*
X174642857Y-108813785D01*
X174547619Y-108861404D01*
X174500000Y-108909023D01*
X174452380Y-109004261D01*
X174452380Y-109194738D01*
X174500000Y-109289976D01*
X174547619Y-109337595D01*
X174642857Y-109385214D01*
X174880952Y-109385214D01*
X174976190Y-109337595D01*
X175023809Y-109289976D01*
X175071428Y-109194738D01*
X175071428Y-109004261D01*
X175023809Y-108909023D01*
X174976190Y-108861404D01*
X174880952Y-108813785D01*
X163132833Y-110957142D02*
X163085214Y-111004761D01*
X162942357Y-111052380D01*
X162847119Y-111052380D01*
X162704261Y-111004761D01*
X162609023Y-110909523D01*
X162561404Y-110814285D01*
X162513785Y-110623809D01*
X162513785Y-110480952D01*
X162561404Y-110290476D01*
X162609023Y-110195238D01*
X162704261Y-110100000D01*
X162847119Y-110052380D01*
X162942357Y-110052380D01*
X163085214Y-110100000D01*
X163132833Y-110147619D01*
X163704261Y-110480952D02*
X163609023Y-110433333D01*
X163561404Y-110385714D01*
X163513785Y-110290476D01*
X163513785Y-110242857D01*
X163561404Y-110147619D01*
X163609023Y-110100000D01*
X163704261Y-110052380D01*
X163894738Y-110052380D01*
X163989976Y-110100000D01*
X164037595Y-110147619D01*
X164085214Y-110242857D01*
X164085214Y-110290476D01*
X164037595Y-110385714D01*
X163989976Y-110433333D01*
X163894738Y-110480952D01*
X163704261Y-110480952D01*
X163609023Y-110528571D01*
X163561404Y-110576190D01*
X163513785Y-110671428D01*
X163513785Y-110861904D01*
X163561404Y-110957142D01*
X163609023Y-111004761D01*
X163704261Y-111052380D01*
X163894738Y-111052380D01*
X163989976Y-111004761D01*
X164037595Y-110957142D01*
X164085214Y-110861904D01*
X164085214Y-110671428D01*
X164037595Y-110576190D01*
X163989976Y-110528571D01*
X163894738Y-110480952D01*
X184621333Y-104157142D02*
X184573714Y-104204761D01*
X184430857Y-104252380D01*
X184335619Y-104252380D01*
X184192761Y-104204761D01*
X184097523Y-104109523D01*
X184049904Y-104014285D01*
X184002285Y-103823809D01*
X184002285Y-103680952D01*
X184049904Y-103490476D01*
X184097523Y-103395238D01*
X184192761Y-103300000D01*
X184335619Y-103252380D01*
X184430857Y-103252380D01*
X184573714Y-103300000D01*
X184621333Y-103347619D01*
X184954666Y-103252380D02*
X185621333Y-103252380D01*
X185192761Y-104252380D01*
X167890476Y-115852380D02*
X168557142Y-116852380D01*
X168557142Y-115852380D02*
X167890476Y-116852380D01*
X169461904Y-116852380D02*
X168890476Y-116852380D01*
X169176190Y-116852380D02*
X169176190Y-115852380D01*
X169080952Y-115995238D01*
X168985714Y-116090476D01*
X168890476Y-116138095D01*
X167488095Y-107402380D02*
X167488095Y-108211904D01*
X167535714Y-108307142D01*
X167583333Y-108354761D01*
X167678571Y-108402380D01*
X167869047Y-108402380D01*
X167964285Y-108354761D01*
X168011904Y-108307142D01*
X168059523Y-108211904D01*
X168059523Y-107402380D01*
X168488095Y-107497619D02*
X168535714Y-107450000D01*
X168630952Y-107402380D01*
X168869047Y-107402380D01*
X168964285Y-107450000D01*
X169011904Y-107497619D01*
X169059523Y-107592857D01*
X169059523Y-107688095D01*
X169011904Y-107830952D01*
X168440476Y-108402380D01*
X169059523Y-108402380D01*
X163688095Y-100252380D02*
X163688095Y-101061904D01*
X163735714Y-101157142D01*
X163783333Y-101204761D01*
X163878571Y-101252380D01*
X164069047Y-101252380D01*
X164164285Y-101204761D01*
X164211904Y-101157142D01*
X164259523Y-101061904D01*
X164259523Y-100252380D01*
X165259523Y-101252380D02*
X164688095Y-101252380D01*
X164973809Y-101252380D02*
X164973809Y-100252380D01*
X164878571Y-100395238D01*
X164783333Y-100490476D01*
X164688095Y-100538095D01*
X163108833Y-112902380D02*
X162775500Y-112426190D01*
X162537404Y-112902380D02*
X162537404Y-111902380D01*
X162918357Y-111902380D01*
X163013595Y-111950000D01*
X163061214Y-111997619D01*
X163108833Y-112092857D01*
X163108833Y-112235714D01*
X163061214Y-112330952D01*
X163013595Y-112378571D01*
X162918357Y-112426190D01*
X162537404Y-112426190D01*
X163442166Y-111902380D02*
X164108833Y-111902380D01*
X163680261Y-112902380D01*
X163121333Y-114752380D02*
X162788000Y-114276190D01*
X162549904Y-114752380D02*
X162549904Y-113752380D01*
X162930857Y-113752380D01*
X163026095Y-113800000D01*
X163073714Y-113847619D01*
X163121333Y-113942857D01*
X163121333Y-114085714D01*
X163073714Y-114180952D01*
X163026095Y-114228571D01*
X162930857Y-114276190D01*
X162549904Y-114276190D01*
X163978476Y-113752380D02*
X163788000Y-113752380D01*
X163692761Y-113800000D01*
X163645142Y-113847619D01*
X163549904Y-113990476D01*
X163502285Y-114180952D01*
X163502285Y-114561904D01*
X163549904Y-114657142D01*
X163597523Y-114704761D01*
X163692761Y-114752380D01*
X163883238Y-114752380D01*
X163978476Y-114704761D01*
X164026095Y-114657142D01*
X164073714Y-114561904D01*
X164073714Y-114323809D01*
X164026095Y-114228571D01*
X163978476Y-114180952D01*
X163883238Y-114133333D01*
X163692761Y-114133333D01*
X163597523Y-114180952D01*
X163549904Y-114228571D01*
X163502285Y-114323809D01*
X177232380Y-101147166D02*
X176756190Y-101480500D01*
X177232380Y-101718595D02*
X176232380Y-101718595D01*
X176232380Y-101337642D01*
X176280000Y-101242404D01*
X176327619Y-101194785D01*
X176422857Y-101147166D01*
X176565714Y-101147166D01*
X176660952Y-101194785D01*
X176708571Y-101242404D01*
X176756190Y-101337642D01*
X176756190Y-101718595D01*
X176232380Y-100242404D02*
X176232380Y-100718595D01*
X176708571Y-100766214D01*
X176660952Y-100718595D01*
X176613333Y-100623357D01*
X176613333Y-100385261D01*
X176660952Y-100290023D01*
X176708571Y-100242404D01*
X176803809Y-100194785D01*
X177041904Y-100194785D01*
X177137142Y-100242404D01*
X177184761Y-100290023D01*
X177232380Y-100385261D01*
X177232380Y-100623357D01*
X177184761Y-100718595D01*
X177137142Y-100766214D01*
X175452380Y-118066666D02*
X174976190Y-118400000D01*
X175452380Y-118638095D02*
X174452380Y-118638095D01*
X174452380Y-118257142D01*
X174500000Y-118161904D01*
X174547619Y-118114285D01*
X174642857Y-118066666D01*
X174785714Y-118066666D01*
X174880952Y-118114285D01*
X174928571Y-118161904D01*
X174976190Y-118257142D01*
X174976190Y-118638095D01*
X174785714Y-117209523D02*
X175452380Y-117209523D01*
X174404761Y-117447619D02*
X175119047Y-117685714D01*
X175119047Y-117066666D01*
X173145380Y-101117166D02*
X172669190Y-101450500D01*
X173145380Y-101688595D02*
X172145380Y-101688595D01*
X172145380Y-101307642D01*
X172193000Y-101212404D01*
X172240619Y-101164785D01*
X172335857Y-101117166D01*
X172478714Y-101117166D01*
X172573952Y-101164785D01*
X172621571Y-101212404D01*
X172669190Y-101307642D01*
X172669190Y-101688595D01*
X172145380Y-100783833D02*
X172145380Y-100164785D01*
X172526333Y-100498119D01*
X172526333Y-100355261D01*
X172573952Y-100260023D01*
X172621571Y-100212404D01*
X172716809Y-100164785D01*
X172954904Y-100164785D01*
X173050142Y-100212404D01*
X173097761Y-100260023D01*
X173145380Y-100355261D01*
X173145380Y-100640976D01*
X173097761Y-100736214D01*
X173050142Y-100783833D01*
X163021333Y-116452380D02*
X162688000Y-115976190D01*
X162449904Y-116452380D02*
X162449904Y-115452380D01*
X162830857Y-115452380D01*
X162926095Y-115500000D01*
X162973714Y-115547619D01*
X163021333Y-115642857D01*
X163021333Y-115785714D01*
X162973714Y-115880952D01*
X162926095Y-115928571D01*
X162830857Y-115976190D01*
X162449904Y-115976190D01*
X163402285Y-115547619D02*
X163449904Y-115500000D01*
X163545142Y-115452380D01*
X163783238Y-115452380D01*
X163878476Y-115500000D01*
X163926095Y-115547619D01*
X163973714Y-115642857D01*
X163973714Y-115738095D01*
X163926095Y-115880952D01*
X163354666Y-116452380D01*
X163973714Y-116452380D01*
X163157833Y-109352380D02*
X162824500Y-108876190D01*
X162586404Y-109352380D02*
X162586404Y-108352380D01*
X162967357Y-108352380D01*
X163062595Y-108400000D01*
X163110214Y-108447619D01*
X163157833Y-108542857D01*
X163157833Y-108685714D01*
X163110214Y-108780952D01*
X163062595Y-108828571D01*
X162967357Y-108876190D01*
X162586404Y-108876190D01*
X164110214Y-109352380D02*
X163538785Y-109352380D01*
X163824500Y-109352380D02*
X163824500Y-108352380D01*
X163729261Y-108495238D01*
X163634023Y-108590476D01*
X163538785Y-108638095D01*
X199826666Y-103362380D02*
X199826666Y-104076666D01*
X199779047Y-104219523D01*
X199683809Y-104314761D01*
X199540952Y-104362380D01*
X199445714Y-104362380D01*
X200255238Y-103457619D02*
X200302857Y-103410000D01*
X200398095Y-103362380D01*
X200636190Y-103362380D01*
X200731428Y-103410000D01*
X200779047Y-103457619D01*
X200826666Y-103552857D01*
X200826666Y-103648095D01*
X200779047Y-103790952D01*
X200207619Y-104362380D01*
X200826666Y-104362380D01*
X154316666Y-117252380D02*
X154316666Y-117966666D01*
X154269047Y-118109523D01*
X154173809Y-118204761D01*
X154030952Y-118252380D01*
X153935714Y-118252380D01*
X155316666Y-118252380D02*
X154745238Y-118252380D01*
X155030952Y-118252380D02*
X155030952Y-117252380D01*
X154935714Y-117395238D01*
X154840476Y-117490476D01*
X154745238Y-117538095D01*
X158678571Y-101332833D02*
X158678571Y-101666166D01*
X159202380Y-101666166D02*
X158202380Y-101666166D01*
X158202380Y-101189976D01*
X159202380Y-100285214D02*
X159202380Y-100856642D01*
X159202380Y-100570928D02*
X158202380Y-100570928D01*
X158345238Y-100666166D01*
X158440476Y-100761404D01*
X158488095Y-100856642D01*
X175209380Y-101788095D02*
X174209380Y-101788095D01*
X174209380Y-101550000D01*
X174257000Y-101407142D01*
X174352238Y-101311904D01*
X174447476Y-101264285D01*
X174637952Y-101216666D01*
X174780809Y-101216666D01*
X174971285Y-101264285D01*
X175066523Y-101311904D01*
X175161761Y-101407142D01*
X175209380Y-101550000D01*
X175209380Y-101788095D01*
X174304619Y-100835714D02*
X174257000Y-100788095D01*
X174209380Y-100692857D01*
X174209380Y-100454761D01*
X174257000Y-100359523D01*
X174304619Y-100311904D01*
X174399857Y-100264285D01*
X174495095Y-100264285D01*
X174637952Y-100311904D01*
X175209380Y-100883333D01*
X175209380Y-100264285D01*
X171052380Y-101638595D02*
X170052380Y-101638595D01*
X170052380Y-101400500D01*
X170100000Y-101257642D01*
X170195238Y-101162404D01*
X170290476Y-101114785D01*
X170480952Y-101067166D01*
X170623809Y-101067166D01*
X170814285Y-101114785D01*
X170909523Y-101162404D01*
X171004761Y-101257642D01*
X171052380Y-101400500D01*
X171052380Y-101638595D01*
X171052380Y-100114785D02*
X171052380Y-100686214D01*
X171052380Y-100400500D02*
X170052380Y-100400500D01*
X170195238Y-100495738D01*
X170290476Y-100590976D01*
X170338095Y-100686214D01*
X173857142Y-117866166D02*
X173904761Y-117913785D01*
X173952380Y-118056642D01*
X173952380Y-118151880D01*
X173904761Y-118294738D01*
X173809523Y-118389976D01*
X173714285Y-118437595D01*
X173523809Y-118485214D01*
X173380952Y-118485214D01*
X173190476Y-118437595D01*
X173095238Y-118389976D01*
X173000000Y-118294738D01*
X172952380Y-118151880D01*
X172952380Y-118056642D01*
X173000000Y-117913785D01*
X173047619Y-117866166D01*
X172952380Y-117009023D02*
X172952380Y-117199500D01*
X173000000Y-117294738D01*
X173047619Y-117342357D01*
X173190476Y-117437595D01*
X173380952Y-117485214D01*
X173761904Y-117485214D01*
X173857142Y-117437595D01*
X173904761Y-117389976D01*
X173952380Y-117294738D01*
X173952380Y-117104261D01*
X173904761Y-117009023D01*
X173857142Y-116961404D01*
X173761904Y-116913785D01*
X173523809Y-116913785D01*
X173428571Y-116961404D01*
X173380952Y-117009023D01*
X173333333Y-117104261D01*
X173333333Y-117294738D01*
X173380952Y-117389976D01*
X173428571Y-117437595D01*
X173523809Y-117485214D01*
X168407142Y-101166166D02*
X168454761Y-101213785D01*
X168502380Y-101356642D01*
X168502380Y-101451880D01*
X168454761Y-101594738D01*
X168359523Y-101689976D01*
X168264285Y-101737595D01*
X168073809Y-101785214D01*
X167930952Y-101785214D01*
X167740476Y-101737595D01*
X167645238Y-101689976D01*
X167550000Y-101594738D01*
X167502380Y-101451880D01*
X167502380Y-101356642D01*
X167550000Y-101213785D01*
X167597619Y-101166166D01*
X167502380Y-100261404D02*
X167502380Y-100737595D01*
X167978571Y-100785214D01*
X167930952Y-100737595D01*
X167883333Y-100642357D01*
X167883333Y-100404261D01*
X167930952Y-100309023D01*
X167978571Y-100261404D01*
X168073809Y-100213785D01*
X168311904Y-100213785D01*
X168407142Y-100261404D01*
X168454761Y-100309023D01*
X168502380Y-100404261D01*
X168502380Y-100642357D01*
X168454761Y-100737595D01*
X168407142Y-100785214D01*
X164057142Y-118767166D02*
X164104761Y-118814785D01*
X164152380Y-118957642D01*
X164152380Y-119052880D01*
X164104761Y-119195738D01*
X164009523Y-119290976D01*
X163914285Y-119338595D01*
X163723809Y-119386214D01*
X163580952Y-119386214D01*
X163390476Y-119338595D01*
X163295238Y-119290976D01*
X163200000Y-119195738D01*
X163152380Y-119052880D01*
X163152380Y-118957642D01*
X163200000Y-118814785D01*
X163247619Y-118767166D01*
X163485714Y-117910023D02*
X164152380Y-117910023D01*
X163104761Y-118148119D02*
X163819047Y-118386214D01*
X163819047Y-117767166D01*
X161833333Y-106957142D02*
X161785714Y-107004761D01*
X161642857Y-107052380D01*
X161547619Y-107052380D01*
X161404761Y-107004761D01*
X161309523Y-106909523D01*
X161261904Y-106814285D01*
X161214285Y-106623809D01*
X161214285Y-106480952D01*
X161261904Y-106290476D01*
X161309523Y-106195238D01*
X161404761Y-106100000D01*
X161547619Y-106052380D01*
X161642857Y-106052380D01*
X161785714Y-106100000D01*
X161833333Y-106147619D01*
X162166666Y-106052380D02*
X162785714Y-106052380D01*
X162452380Y-106433333D01*
X162595238Y-106433333D01*
X162690476Y-106480952D01*
X162738095Y-106528571D01*
X162785714Y-106623809D01*
X162785714Y-106861904D01*
X162738095Y-106957142D01*
X162690476Y-107004761D01*
X162595238Y-107052380D01*
X162309523Y-107052380D01*
X162214285Y-107004761D01*
X162166666Y-106957142D01*
X173857142Y-119967166D02*
X173904761Y-120014785D01*
X173952380Y-120157642D01*
X173952380Y-120252880D01*
X173904761Y-120395738D01*
X173809523Y-120490976D01*
X173714285Y-120538595D01*
X173523809Y-120586214D01*
X173380952Y-120586214D01*
X173190476Y-120538595D01*
X173095238Y-120490976D01*
X173000000Y-120395738D01*
X172952380Y-120252880D01*
X172952380Y-120157642D01*
X173000000Y-120014785D01*
X173047619Y-119967166D01*
X173047619Y-119586214D02*
X173000000Y-119538595D01*
X172952380Y-119443357D01*
X172952380Y-119205261D01*
X173000000Y-119110023D01*
X173047619Y-119062404D01*
X173142857Y-119014785D01*
X173238095Y-119014785D01*
X173380952Y-119062404D01*
X173952380Y-119633833D01*
X173952380Y-119014785D01*
X161407142Y-101067166D02*
X161454761Y-101114785D01*
X161502380Y-101257642D01*
X161502380Y-101352880D01*
X161454761Y-101495738D01*
X161359523Y-101590976D01*
X161264285Y-101638595D01*
X161073809Y-101686214D01*
X160930952Y-101686214D01*
X160740476Y-101638595D01*
X160645238Y-101590976D01*
X160550000Y-101495738D01*
X160502380Y-101352880D01*
X160502380Y-101257642D01*
X160550000Y-101114785D01*
X160597619Y-101067166D01*
X161502380Y-100114785D02*
X161502380Y-100686214D01*
X161502380Y-100400500D02*
X160502380Y-100400500D01*
X160645238Y-100495738D01*
X160740476Y-100590976D01*
X160788095Y-100686214D01*
%LPC*%
D12*
X184380000Y-122840000D03*
X181880000Y-122840000D03*
X179380000Y-122840000D03*
X184380000Y-119940000D03*
X181880000Y-119940000D03*
X179380000Y-119940000D03*
D13*
X185520000Y-108200000D03*
X177900000Y-115820000D03*
X185520000Y-110740000D03*
X177900000Y-113280000D03*
X185520000Y-113280000D03*
X177900000Y-110740000D03*
X185520000Y-115820000D03*
D14*
X177900000Y-108200000D03*
D15*
X174470000Y-123650000D03*
X171930000Y-123650000D03*
X169390000Y-123650000D03*
X166850000Y-123650000D03*
X164310000Y-123650000D03*
D16*
X161770000Y-123650000D03*
D17*
G36*
X175305691Y-110837176D02*
G01*
X175329401Y-110840693D01*
X175352652Y-110846517D01*
X175375220Y-110854592D01*
X175396889Y-110864841D01*
X175417448Y-110877164D01*
X175436701Y-110891442D01*
X175454461Y-110907539D01*
X175470558Y-110925299D01*
X175484836Y-110944552D01*
X175497159Y-110965111D01*
X175507408Y-110986780D01*
X175515483Y-111009348D01*
X175521307Y-111032599D01*
X175524824Y-111056309D01*
X175526000Y-111080250D01*
X175526000Y-111568750D01*
X175524824Y-111592691D01*
X175521307Y-111616401D01*
X175515483Y-111639652D01*
X175507408Y-111662220D01*
X175497159Y-111683889D01*
X175484836Y-111704448D01*
X175470558Y-111723701D01*
X175454461Y-111741461D01*
X175436701Y-111757558D01*
X175417448Y-111771836D01*
X175396889Y-111784159D01*
X175375220Y-111794408D01*
X175352652Y-111802483D01*
X175329401Y-111808307D01*
X175305691Y-111811824D01*
X175281750Y-111813000D01*
X174718250Y-111813000D01*
X174694309Y-111811824D01*
X174670599Y-111808307D01*
X174647348Y-111802483D01*
X174624780Y-111794408D01*
X174603111Y-111784159D01*
X174582552Y-111771836D01*
X174563299Y-111757558D01*
X174545539Y-111741461D01*
X174529442Y-111723701D01*
X174515164Y-111704448D01*
X174502841Y-111683889D01*
X174492592Y-111662220D01*
X174484517Y-111639652D01*
X174478693Y-111616401D01*
X174475176Y-111592691D01*
X174474000Y-111568750D01*
X174474000Y-111080250D01*
X174475176Y-111056309D01*
X174478693Y-111032599D01*
X174484517Y-111009348D01*
X174492592Y-110986780D01*
X174502841Y-110965111D01*
X174515164Y-110944552D01*
X174529442Y-110925299D01*
X174545539Y-110907539D01*
X174563299Y-110891442D01*
X174582552Y-110877164D01*
X174603111Y-110864841D01*
X174624780Y-110854592D01*
X174647348Y-110846517D01*
X174670599Y-110840693D01*
X174694309Y-110837176D01*
X174718250Y-110836000D01*
X175281750Y-110836000D01*
X175305691Y-110837176D01*
X175305691Y-110837176D01*
G37*
D18*
X175000000Y-111324500D03*
D17*
G36*
X175305691Y-112412176D02*
G01*
X175329401Y-112415693D01*
X175352652Y-112421517D01*
X175375220Y-112429592D01*
X175396889Y-112439841D01*
X175417448Y-112452164D01*
X175436701Y-112466442D01*
X175454461Y-112482539D01*
X175470558Y-112500299D01*
X175484836Y-112519552D01*
X175497159Y-112540111D01*
X175507408Y-112561780D01*
X175515483Y-112584348D01*
X175521307Y-112607599D01*
X175524824Y-112631309D01*
X175526000Y-112655250D01*
X175526000Y-113143750D01*
X175524824Y-113167691D01*
X175521307Y-113191401D01*
X175515483Y-113214652D01*
X175507408Y-113237220D01*
X175497159Y-113258889D01*
X175484836Y-113279448D01*
X175470558Y-113298701D01*
X175454461Y-113316461D01*
X175436701Y-113332558D01*
X175417448Y-113346836D01*
X175396889Y-113359159D01*
X175375220Y-113369408D01*
X175352652Y-113377483D01*
X175329401Y-113383307D01*
X175305691Y-113386824D01*
X175281750Y-113388000D01*
X174718250Y-113388000D01*
X174694309Y-113386824D01*
X174670599Y-113383307D01*
X174647348Y-113377483D01*
X174624780Y-113369408D01*
X174603111Y-113359159D01*
X174582552Y-113346836D01*
X174563299Y-113332558D01*
X174545539Y-113316461D01*
X174529442Y-113298701D01*
X174515164Y-113279448D01*
X174502841Y-113258889D01*
X174492592Y-113237220D01*
X174484517Y-113214652D01*
X174478693Y-113191401D01*
X174475176Y-113167691D01*
X174474000Y-113143750D01*
X174474000Y-112655250D01*
X174475176Y-112631309D01*
X174478693Y-112607599D01*
X174484517Y-112584348D01*
X174492592Y-112561780D01*
X174502841Y-112540111D01*
X174515164Y-112519552D01*
X174529442Y-112500299D01*
X174545539Y-112482539D01*
X174563299Y-112466442D01*
X174582552Y-112452164D01*
X174603111Y-112439841D01*
X174624780Y-112429592D01*
X174647348Y-112421517D01*
X174670599Y-112415693D01*
X174694309Y-112412176D01*
X174718250Y-112411000D01*
X175281750Y-112411000D01*
X175305691Y-112412176D01*
X175305691Y-112412176D01*
G37*
D18*
X175000000Y-112899500D03*
D17*
G36*
X160392691Y-110075176D02*
G01*
X160416401Y-110078693D01*
X160439652Y-110084517D01*
X160462220Y-110092592D01*
X160483889Y-110102841D01*
X160504448Y-110115164D01*
X160523701Y-110129442D01*
X160541461Y-110145539D01*
X160557558Y-110163299D01*
X160571836Y-110182552D01*
X160584159Y-110203111D01*
X160594408Y-110224780D01*
X160602483Y-110247348D01*
X160608307Y-110270599D01*
X160611824Y-110294309D01*
X160613000Y-110318250D01*
X160613000Y-110881750D01*
X160611824Y-110905691D01*
X160608307Y-110929401D01*
X160602483Y-110952652D01*
X160594408Y-110975220D01*
X160584159Y-110996889D01*
X160571836Y-111017448D01*
X160557558Y-111036701D01*
X160541461Y-111054461D01*
X160523701Y-111070558D01*
X160504448Y-111084836D01*
X160483889Y-111097159D01*
X160462220Y-111107408D01*
X160439652Y-111115483D01*
X160416401Y-111121307D01*
X160392691Y-111124824D01*
X160368750Y-111126000D01*
X159880250Y-111126000D01*
X159856309Y-111124824D01*
X159832599Y-111121307D01*
X159809348Y-111115483D01*
X159786780Y-111107408D01*
X159765111Y-111097159D01*
X159744552Y-111084836D01*
X159725299Y-111070558D01*
X159707539Y-111054461D01*
X159691442Y-111036701D01*
X159677164Y-111017448D01*
X159664841Y-110996889D01*
X159654592Y-110975220D01*
X159646517Y-110952652D01*
X159640693Y-110929401D01*
X159637176Y-110905691D01*
X159636000Y-110881750D01*
X159636000Y-110318250D01*
X159637176Y-110294309D01*
X159640693Y-110270599D01*
X159646517Y-110247348D01*
X159654592Y-110224780D01*
X159664841Y-110203111D01*
X159677164Y-110182552D01*
X159691442Y-110163299D01*
X159707539Y-110145539D01*
X159725299Y-110129442D01*
X159744552Y-110115164D01*
X159765111Y-110102841D01*
X159786780Y-110092592D01*
X159809348Y-110084517D01*
X159832599Y-110078693D01*
X159856309Y-110075176D01*
X159880250Y-110074000D01*
X160368750Y-110074000D01*
X160392691Y-110075176D01*
X160392691Y-110075176D01*
G37*
D18*
X160124500Y-110600000D03*
D17*
G36*
X161967691Y-110075176D02*
G01*
X161991401Y-110078693D01*
X162014652Y-110084517D01*
X162037220Y-110092592D01*
X162058889Y-110102841D01*
X162079448Y-110115164D01*
X162098701Y-110129442D01*
X162116461Y-110145539D01*
X162132558Y-110163299D01*
X162146836Y-110182552D01*
X162159159Y-110203111D01*
X162169408Y-110224780D01*
X162177483Y-110247348D01*
X162183307Y-110270599D01*
X162186824Y-110294309D01*
X162188000Y-110318250D01*
X162188000Y-110881750D01*
X162186824Y-110905691D01*
X162183307Y-110929401D01*
X162177483Y-110952652D01*
X162169408Y-110975220D01*
X162159159Y-110996889D01*
X162146836Y-111017448D01*
X162132558Y-111036701D01*
X162116461Y-111054461D01*
X162098701Y-111070558D01*
X162079448Y-111084836D01*
X162058889Y-111097159D01*
X162037220Y-111107408D01*
X162014652Y-111115483D01*
X161991401Y-111121307D01*
X161967691Y-111124824D01*
X161943750Y-111126000D01*
X161455250Y-111126000D01*
X161431309Y-111124824D01*
X161407599Y-111121307D01*
X161384348Y-111115483D01*
X161361780Y-111107408D01*
X161340111Y-111097159D01*
X161319552Y-111084836D01*
X161300299Y-111070558D01*
X161282539Y-111054461D01*
X161266442Y-111036701D01*
X161252164Y-111017448D01*
X161239841Y-110996889D01*
X161229592Y-110975220D01*
X161221517Y-110952652D01*
X161215693Y-110929401D01*
X161212176Y-110905691D01*
X161211000Y-110881750D01*
X161211000Y-110318250D01*
X161212176Y-110294309D01*
X161215693Y-110270599D01*
X161221517Y-110247348D01*
X161229592Y-110224780D01*
X161239841Y-110203111D01*
X161252164Y-110182552D01*
X161266442Y-110163299D01*
X161282539Y-110145539D01*
X161300299Y-110129442D01*
X161319552Y-110115164D01*
X161340111Y-110102841D01*
X161361780Y-110092592D01*
X161384348Y-110084517D01*
X161407599Y-110078693D01*
X161431309Y-110075176D01*
X161455250Y-110074000D01*
X161943750Y-110074000D01*
X161967691Y-110075176D01*
X161967691Y-110075176D01*
G37*
D18*
X161699500Y-110600000D03*
D17*
G36*
X184168691Y-104575176D02*
G01*
X184192401Y-104578693D01*
X184215652Y-104584517D01*
X184238220Y-104592592D01*
X184259889Y-104602841D01*
X184280448Y-104615164D01*
X184299701Y-104629442D01*
X184317461Y-104645539D01*
X184333558Y-104663299D01*
X184347836Y-104682552D01*
X184360159Y-104703111D01*
X184370408Y-104724780D01*
X184378483Y-104747348D01*
X184384307Y-104770599D01*
X184387824Y-104794309D01*
X184389000Y-104818250D01*
X184389000Y-105381750D01*
X184387824Y-105405691D01*
X184384307Y-105429401D01*
X184378483Y-105452652D01*
X184370408Y-105475220D01*
X184360159Y-105496889D01*
X184347836Y-105517448D01*
X184333558Y-105536701D01*
X184317461Y-105554461D01*
X184299701Y-105570558D01*
X184280448Y-105584836D01*
X184259889Y-105597159D01*
X184238220Y-105607408D01*
X184215652Y-105615483D01*
X184192401Y-105621307D01*
X184168691Y-105624824D01*
X184144750Y-105626000D01*
X183656250Y-105626000D01*
X183632309Y-105624824D01*
X183608599Y-105621307D01*
X183585348Y-105615483D01*
X183562780Y-105607408D01*
X183541111Y-105597159D01*
X183520552Y-105584836D01*
X183501299Y-105570558D01*
X183483539Y-105554461D01*
X183467442Y-105536701D01*
X183453164Y-105517448D01*
X183440841Y-105496889D01*
X183430592Y-105475220D01*
X183422517Y-105452652D01*
X183416693Y-105429401D01*
X183413176Y-105405691D01*
X183412000Y-105381750D01*
X183412000Y-104818250D01*
X183413176Y-104794309D01*
X183416693Y-104770599D01*
X183422517Y-104747348D01*
X183430592Y-104724780D01*
X183440841Y-104703111D01*
X183453164Y-104682552D01*
X183467442Y-104663299D01*
X183483539Y-104645539D01*
X183501299Y-104629442D01*
X183520552Y-104615164D01*
X183541111Y-104602841D01*
X183562780Y-104592592D01*
X183585348Y-104584517D01*
X183608599Y-104578693D01*
X183632309Y-104575176D01*
X183656250Y-104574000D01*
X184144750Y-104574000D01*
X184168691Y-104575176D01*
X184168691Y-104575176D01*
G37*
D18*
X183900500Y-105100000D03*
D17*
G36*
X185743691Y-104575176D02*
G01*
X185767401Y-104578693D01*
X185790652Y-104584517D01*
X185813220Y-104592592D01*
X185834889Y-104602841D01*
X185855448Y-104615164D01*
X185874701Y-104629442D01*
X185892461Y-104645539D01*
X185908558Y-104663299D01*
X185922836Y-104682552D01*
X185935159Y-104703111D01*
X185945408Y-104724780D01*
X185953483Y-104747348D01*
X185959307Y-104770599D01*
X185962824Y-104794309D01*
X185964000Y-104818250D01*
X185964000Y-105381750D01*
X185962824Y-105405691D01*
X185959307Y-105429401D01*
X185953483Y-105452652D01*
X185945408Y-105475220D01*
X185935159Y-105496889D01*
X185922836Y-105517448D01*
X185908558Y-105536701D01*
X185892461Y-105554461D01*
X185874701Y-105570558D01*
X185855448Y-105584836D01*
X185834889Y-105597159D01*
X185813220Y-105607408D01*
X185790652Y-105615483D01*
X185767401Y-105621307D01*
X185743691Y-105624824D01*
X185719750Y-105626000D01*
X185231250Y-105626000D01*
X185207309Y-105624824D01*
X185183599Y-105621307D01*
X185160348Y-105615483D01*
X185137780Y-105607408D01*
X185116111Y-105597159D01*
X185095552Y-105584836D01*
X185076299Y-105570558D01*
X185058539Y-105554461D01*
X185042442Y-105536701D01*
X185028164Y-105517448D01*
X185015841Y-105496889D01*
X185005592Y-105475220D01*
X184997517Y-105452652D01*
X184991693Y-105429401D01*
X184988176Y-105405691D01*
X184987000Y-105381750D01*
X184987000Y-104818250D01*
X184988176Y-104794309D01*
X184991693Y-104770599D01*
X184997517Y-104747348D01*
X185005592Y-104724780D01*
X185015841Y-104703111D01*
X185028164Y-104682552D01*
X185042442Y-104663299D01*
X185058539Y-104645539D01*
X185076299Y-104629442D01*
X185095552Y-104615164D01*
X185116111Y-104602841D01*
X185137780Y-104592592D01*
X185160348Y-104584517D01*
X185183599Y-104578693D01*
X185207309Y-104575176D01*
X185231250Y-104574000D01*
X185719750Y-104574000D01*
X185743691Y-104575176D01*
X185743691Y-104575176D01*
G37*
D18*
X185475500Y-105100000D03*
D19*
X153000000Y-122000000D03*
X153000000Y-103000000D03*
D20*
X169670000Y-119570000D03*
X167270000Y-117670000D03*
X167270000Y-119570000D03*
X169670000Y-117670000D03*
D21*
X165350000Y-115025000D03*
X165350000Y-114375000D03*
X165350000Y-113725000D03*
X165350000Y-113075000D03*
X165350000Y-112425000D03*
X165350000Y-111775000D03*
X165350000Y-111125000D03*
X165350000Y-110475000D03*
X165350000Y-109825000D03*
X165350000Y-109175000D03*
X171250000Y-109175000D03*
X171250000Y-109825000D03*
X171250000Y-110475000D03*
X171250000Y-111125000D03*
X171250000Y-111775000D03*
X171250000Y-112425000D03*
X171250000Y-113075000D03*
X171250000Y-113725000D03*
X171250000Y-114375000D03*
X171250000Y-115025000D03*
D22*
X165550000Y-102750000D03*
X165550000Y-104650000D03*
X163350000Y-104650000D03*
X163350000Y-103700000D03*
X163350000Y-102750000D03*
D17*
G36*
X160368691Y-111875176D02*
G01*
X160392401Y-111878693D01*
X160415652Y-111884517D01*
X160438220Y-111892592D01*
X160459889Y-111902841D01*
X160480448Y-111915164D01*
X160499701Y-111929442D01*
X160517461Y-111945539D01*
X160533558Y-111963299D01*
X160547836Y-111982552D01*
X160560159Y-112003111D01*
X160570408Y-112024780D01*
X160578483Y-112047348D01*
X160584307Y-112070599D01*
X160587824Y-112094309D01*
X160589000Y-112118250D01*
X160589000Y-112681750D01*
X160587824Y-112705691D01*
X160584307Y-112729401D01*
X160578483Y-112752652D01*
X160570408Y-112775220D01*
X160560159Y-112796889D01*
X160547836Y-112817448D01*
X160533558Y-112836701D01*
X160517461Y-112854461D01*
X160499701Y-112870558D01*
X160480448Y-112884836D01*
X160459889Y-112897159D01*
X160438220Y-112907408D01*
X160415652Y-112915483D01*
X160392401Y-112921307D01*
X160368691Y-112924824D01*
X160344750Y-112926000D01*
X159856250Y-112926000D01*
X159832309Y-112924824D01*
X159808599Y-112921307D01*
X159785348Y-112915483D01*
X159762780Y-112907408D01*
X159741111Y-112897159D01*
X159720552Y-112884836D01*
X159701299Y-112870558D01*
X159683539Y-112854461D01*
X159667442Y-112836701D01*
X159653164Y-112817448D01*
X159640841Y-112796889D01*
X159630592Y-112775220D01*
X159622517Y-112752652D01*
X159616693Y-112729401D01*
X159613176Y-112705691D01*
X159612000Y-112681750D01*
X159612000Y-112118250D01*
X159613176Y-112094309D01*
X159616693Y-112070599D01*
X159622517Y-112047348D01*
X159630592Y-112024780D01*
X159640841Y-112003111D01*
X159653164Y-111982552D01*
X159667442Y-111963299D01*
X159683539Y-111945539D01*
X159701299Y-111929442D01*
X159720552Y-111915164D01*
X159741111Y-111902841D01*
X159762780Y-111892592D01*
X159785348Y-111884517D01*
X159808599Y-111878693D01*
X159832309Y-111875176D01*
X159856250Y-111874000D01*
X160344750Y-111874000D01*
X160368691Y-111875176D01*
X160368691Y-111875176D01*
G37*
D18*
X160100500Y-112400000D03*
D17*
G36*
X161943691Y-111875176D02*
G01*
X161967401Y-111878693D01*
X161990652Y-111884517D01*
X162013220Y-111892592D01*
X162034889Y-111902841D01*
X162055448Y-111915164D01*
X162074701Y-111929442D01*
X162092461Y-111945539D01*
X162108558Y-111963299D01*
X162122836Y-111982552D01*
X162135159Y-112003111D01*
X162145408Y-112024780D01*
X162153483Y-112047348D01*
X162159307Y-112070599D01*
X162162824Y-112094309D01*
X162164000Y-112118250D01*
X162164000Y-112681750D01*
X162162824Y-112705691D01*
X162159307Y-112729401D01*
X162153483Y-112752652D01*
X162145408Y-112775220D01*
X162135159Y-112796889D01*
X162122836Y-112817448D01*
X162108558Y-112836701D01*
X162092461Y-112854461D01*
X162074701Y-112870558D01*
X162055448Y-112884836D01*
X162034889Y-112897159D01*
X162013220Y-112907408D01*
X161990652Y-112915483D01*
X161967401Y-112921307D01*
X161943691Y-112924824D01*
X161919750Y-112926000D01*
X161431250Y-112926000D01*
X161407309Y-112924824D01*
X161383599Y-112921307D01*
X161360348Y-112915483D01*
X161337780Y-112907408D01*
X161316111Y-112897159D01*
X161295552Y-112884836D01*
X161276299Y-112870558D01*
X161258539Y-112854461D01*
X161242442Y-112836701D01*
X161228164Y-112817448D01*
X161215841Y-112796889D01*
X161205592Y-112775220D01*
X161197517Y-112752652D01*
X161191693Y-112729401D01*
X161188176Y-112705691D01*
X161187000Y-112681750D01*
X161187000Y-112118250D01*
X161188176Y-112094309D01*
X161191693Y-112070599D01*
X161197517Y-112047348D01*
X161205592Y-112024780D01*
X161215841Y-112003111D01*
X161228164Y-111982552D01*
X161242442Y-111963299D01*
X161258539Y-111945539D01*
X161276299Y-111929442D01*
X161295552Y-111915164D01*
X161316111Y-111902841D01*
X161337780Y-111892592D01*
X161360348Y-111884517D01*
X161383599Y-111878693D01*
X161407309Y-111875176D01*
X161431250Y-111874000D01*
X161919750Y-111874000D01*
X161943691Y-111875176D01*
X161943691Y-111875176D01*
G37*
D18*
X161675500Y-112400000D03*
D17*
G36*
X160368691Y-113675176D02*
G01*
X160392401Y-113678693D01*
X160415652Y-113684517D01*
X160438220Y-113692592D01*
X160459889Y-113702841D01*
X160480448Y-113715164D01*
X160499701Y-113729442D01*
X160517461Y-113745539D01*
X160533558Y-113763299D01*
X160547836Y-113782552D01*
X160560159Y-113803111D01*
X160570408Y-113824780D01*
X160578483Y-113847348D01*
X160584307Y-113870599D01*
X160587824Y-113894309D01*
X160589000Y-113918250D01*
X160589000Y-114481750D01*
X160587824Y-114505691D01*
X160584307Y-114529401D01*
X160578483Y-114552652D01*
X160570408Y-114575220D01*
X160560159Y-114596889D01*
X160547836Y-114617448D01*
X160533558Y-114636701D01*
X160517461Y-114654461D01*
X160499701Y-114670558D01*
X160480448Y-114684836D01*
X160459889Y-114697159D01*
X160438220Y-114707408D01*
X160415652Y-114715483D01*
X160392401Y-114721307D01*
X160368691Y-114724824D01*
X160344750Y-114726000D01*
X159856250Y-114726000D01*
X159832309Y-114724824D01*
X159808599Y-114721307D01*
X159785348Y-114715483D01*
X159762780Y-114707408D01*
X159741111Y-114697159D01*
X159720552Y-114684836D01*
X159701299Y-114670558D01*
X159683539Y-114654461D01*
X159667442Y-114636701D01*
X159653164Y-114617448D01*
X159640841Y-114596889D01*
X159630592Y-114575220D01*
X159622517Y-114552652D01*
X159616693Y-114529401D01*
X159613176Y-114505691D01*
X159612000Y-114481750D01*
X159612000Y-113918250D01*
X159613176Y-113894309D01*
X159616693Y-113870599D01*
X159622517Y-113847348D01*
X159630592Y-113824780D01*
X159640841Y-113803111D01*
X159653164Y-113782552D01*
X159667442Y-113763299D01*
X159683539Y-113745539D01*
X159701299Y-113729442D01*
X159720552Y-113715164D01*
X159741111Y-113702841D01*
X159762780Y-113692592D01*
X159785348Y-113684517D01*
X159808599Y-113678693D01*
X159832309Y-113675176D01*
X159856250Y-113674000D01*
X160344750Y-113674000D01*
X160368691Y-113675176D01*
X160368691Y-113675176D01*
G37*
D18*
X160100500Y-114200000D03*
D17*
G36*
X161943691Y-113675176D02*
G01*
X161967401Y-113678693D01*
X161990652Y-113684517D01*
X162013220Y-113692592D01*
X162034889Y-113702841D01*
X162055448Y-113715164D01*
X162074701Y-113729442D01*
X162092461Y-113745539D01*
X162108558Y-113763299D01*
X162122836Y-113782552D01*
X162135159Y-113803111D01*
X162145408Y-113824780D01*
X162153483Y-113847348D01*
X162159307Y-113870599D01*
X162162824Y-113894309D01*
X162164000Y-113918250D01*
X162164000Y-114481750D01*
X162162824Y-114505691D01*
X162159307Y-114529401D01*
X162153483Y-114552652D01*
X162145408Y-114575220D01*
X162135159Y-114596889D01*
X162122836Y-114617448D01*
X162108558Y-114636701D01*
X162092461Y-114654461D01*
X162074701Y-114670558D01*
X162055448Y-114684836D01*
X162034889Y-114697159D01*
X162013220Y-114707408D01*
X161990652Y-114715483D01*
X161967401Y-114721307D01*
X161943691Y-114724824D01*
X161919750Y-114726000D01*
X161431250Y-114726000D01*
X161407309Y-114724824D01*
X161383599Y-114721307D01*
X161360348Y-114715483D01*
X161337780Y-114707408D01*
X161316111Y-114697159D01*
X161295552Y-114684836D01*
X161276299Y-114670558D01*
X161258539Y-114654461D01*
X161242442Y-114636701D01*
X161228164Y-114617448D01*
X161215841Y-114596889D01*
X161205592Y-114575220D01*
X161197517Y-114552652D01*
X161191693Y-114529401D01*
X161188176Y-114505691D01*
X161187000Y-114481750D01*
X161187000Y-113918250D01*
X161188176Y-113894309D01*
X161191693Y-113870599D01*
X161197517Y-113847348D01*
X161205592Y-113824780D01*
X161215841Y-113803111D01*
X161228164Y-113782552D01*
X161242442Y-113763299D01*
X161258539Y-113745539D01*
X161276299Y-113729442D01*
X161295552Y-113715164D01*
X161316111Y-113702841D01*
X161337780Y-113692592D01*
X161360348Y-113684517D01*
X161383599Y-113678693D01*
X161407309Y-113675176D01*
X161431250Y-113674000D01*
X161919750Y-113674000D01*
X161943691Y-113675176D01*
X161943691Y-113675176D01*
G37*
D18*
X161675500Y-114200000D03*
D17*
G36*
X177085691Y-102143176D02*
G01*
X177109401Y-102146693D01*
X177132652Y-102152517D01*
X177155220Y-102160592D01*
X177176889Y-102170841D01*
X177197448Y-102183164D01*
X177216701Y-102197442D01*
X177234461Y-102213539D01*
X177250558Y-102231299D01*
X177264836Y-102250552D01*
X177277159Y-102271111D01*
X177287408Y-102292780D01*
X177295483Y-102315348D01*
X177301307Y-102338599D01*
X177304824Y-102362309D01*
X177306000Y-102386250D01*
X177306000Y-102874750D01*
X177304824Y-102898691D01*
X177301307Y-102922401D01*
X177295483Y-102945652D01*
X177287408Y-102968220D01*
X177277159Y-102989889D01*
X177264836Y-103010448D01*
X177250558Y-103029701D01*
X177234461Y-103047461D01*
X177216701Y-103063558D01*
X177197448Y-103077836D01*
X177176889Y-103090159D01*
X177155220Y-103100408D01*
X177132652Y-103108483D01*
X177109401Y-103114307D01*
X177085691Y-103117824D01*
X177061750Y-103119000D01*
X176498250Y-103119000D01*
X176474309Y-103117824D01*
X176450599Y-103114307D01*
X176427348Y-103108483D01*
X176404780Y-103100408D01*
X176383111Y-103090159D01*
X176362552Y-103077836D01*
X176343299Y-103063558D01*
X176325539Y-103047461D01*
X176309442Y-103029701D01*
X176295164Y-103010448D01*
X176282841Y-102989889D01*
X176272592Y-102968220D01*
X176264517Y-102945652D01*
X176258693Y-102922401D01*
X176255176Y-102898691D01*
X176254000Y-102874750D01*
X176254000Y-102386250D01*
X176255176Y-102362309D01*
X176258693Y-102338599D01*
X176264517Y-102315348D01*
X176272592Y-102292780D01*
X176282841Y-102271111D01*
X176295164Y-102250552D01*
X176309442Y-102231299D01*
X176325539Y-102213539D01*
X176343299Y-102197442D01*
X176362552Y-102183164D01*
X176383111Y-102170841D01*
X176404780Y-102160592D01*
X176427348Y-102152517D01*
X176450599Y-102146693D01*
X176474309Y-102143176D01*
X176498250Y-102142000D01*
X177061750Y-102142000D01*
X177085691Y-102143176D01*
X177085691Y-102143176D01*
G37*
D18*
X176780000Y-102630500D03*
D17*
G36*
X177085691Y-103718176D02*
G01*
X177109401Y-103721693D01*
X177132652Y-103727517D01*
X177155220Y-103735592D01*
X177176889Y-103745841D01*
X177197448Y-103758164D01*
X177216701Y-103772442D01*
X177234461Y-103788539D01*
X177250558Y-103806299D01*
X177264836Y-103825552D01*
X177277159Y-103846111D01*
X177287408Y-103867780D01*
X177295483Y-103890348D01*
X177301307Y-103913599D01*
X177304824Y-103937309D01*
X177306000Y-103961250D01*
X177306000Y-104449750D01*
X177304824Y-104473691D01*
X177301307Y-104497401D01*
X177295483Y-104520652D01*
X177287408Y-104543220D01*
X177277159Y-104564889D01*
X177264836Y-104585448D01*
X177250558Y-104604701D01*
X177234461Y-104622461D01*
X177216701Y-104638558D01*
X177197448Y-104652836D01*
X177176889Y-104665159D01*
X177155220Y-104675408D01*
X177132652Y-104683483D01*
X177109401Y-104689307D01*
X177085691Y-104692824D01*
X177061750Y-104694000D01*
X176498250Y-104694000D01*
X176474309Y-104692824D01*
X176450599Y-104689307D01*
X176427348Y-104683483D01*
X176404780Y-104675408D01*
X176383111Y-104665159D01*
X176362552Y-104652836D01*
X176343299Y-104638558D01*
X176325539Y-104622461D01*
X176309442Y-104604701D01*
X176295164Y-104585448D01*
X176282841Y-104564889D01*
X176272592Y-104543220D01*
X176264517Y-104520652D01*
X176258693Y-104497401D01*
X176255176Y-104473691D01*
X176254000Y-104449750D01*
X176254000Y-103961250D01*
X176255176Y-103937309D01*
X176258693Y-103913599D01*
X176264517Y-103890348D01*
X176272592Y-103867780D01*
X176282841Y-103846111D01*
X176295164Y-103825552D01*
X176309442Y-103806299D01*
X176325539Y-103788539D01*
X176343299Y-103772442D01*
X176362552Y-103758164D01*
X176383111Y-103745841D01*
X176404780Y-103735592D01*
X176427348Y-103727517D01*
X176450599Y-103721693D01*
X176474309Y-103718176D01*
X176498250Y-103717000D01*
X177061750Y-103717000D01*
X177085691Y-103718176D01*
X177085691Y-103718176D01*
G37*
D18*
X176780000Y-104205500D03*
D17*
G36*
X175325691Y-114057176D02*
G01*
X175349401Y-114060693D01*
X175372652Y-114066517D01*
X175395220Y-114074592D01*
X175416889Y-114084841D01*
X175437448Y-114097164D01*
X175456701Y-114111442D01*
X175474461Y-114127539D01*
X175490558Y-114145299D01*
X175504836Y-114164552D01*
X175517159Y-114185111D01*
X175527408Y-114206780D01*
X175535483Y-114229348D01*
X175541307Y-114252599D01*
X175544824Y-114276309D01*
X175546000Y-114300250D01*
X175546000Y-114788750D01*
X175544824Y-114812691D01*
X175541307Y-114836401D01*
X175535483Y-114859652D01*
X175527408Y-114882220D01*
X175517159Y-114903889D01*
X175504836Y-114924448D01*
X175490558Y-114943701D01*
X175474461Y-114961461D01*
X175456701Y-114977558D01*
X175437448Y-114991836D01*
X175416889Y-115004159D01*
X175395220Y-115014408D01*
X175372652Y-115022483D01*
X175349401Y-115028307D01*
X175325691Y-115031824D01*
X175301750Y-115033000D01*
X174738250Y-115033000D01*
X174714309Y-115031824D01*
X174690599Y-115028307D01*
X174667348Y-115022483D01*
X174644780Y-115014408D01*
X174623111Y-115004159D01*
X174602552Y-114991836D01*
X174583299Y-114977558D01*
X174565539Y-114961461D01*
X174549442Y-114943701D01*
X174535164Y-114924448D01*
X174522841Y-114903889D01*
X174512592Y-114882220D01*
X174504517Y-114859652D01*
X174498693Y-114836401D01*
X174495176Y-114812691D01*
X174494000Y-114788750D01*
X174494000Y-114300250D01*
X174495176Y-114276309D01*
X174498693Y-114252599D01*
X174504517Y-114229348D01*
X174512592Y-114206780D01*
X174522841Y-114185111D01*
X174535164Y-114164552D01*
X174549442Y-114145299D01*
X174565539Y-114127539D01*
X174583299Y-114111442D01*
X174602552Y-114097164D01*
X174623111Y-114084841D01*
X174644780Y-114074592D01*
X174667348Y-114066517D01*
X174690599Y-114060693D01*
X174714309Y-114057176D01*
X174738250Y-114056000D01*
X175301750Y-114056000D01*
X175325691Y-114057176D01*
X175325691Y-114057176D01*
G37*
D18*
X175020000Y-114544500D03*
D17*
G36*
X175325691Y-115632176D02*
G01*
X175349401Y-115635693D01*
X175372652Y-115641517D01*
X175395220Y-115649592D01*
X175416889Y-115659841D01*
X175437448Y-115672164D01*
X175456701Y-115686442D01*
X175474461Y-115702539D01*
X175490558Y-115720299D01*
X175504836Y-115739552D01*
X175517159Y-115760111D01*
X175527408Y-115781780D01*
X175535483Y-115804348D01*
X175541307Y-115827599D01*
X175544824Y-115851309D01*
X175546000Y-115875250D01*
X175546000Y-116363750D01*
X175544824Y-116387691D01*
X175541307Y-116411401D01*
X175535483Y-116434652D01*
X175527408Y-116457220D01*
X175517159Y-116478889D01*
X175504836Y-116499448D01*
X175490558Y-116518701D01*
X175474461Y-116536461D01*
X175456701Y-116552558D01*
X175437448Y-116566836D01*
X175416889Y-116579159D01*
X175395220Y-116589408D01*
X175372652Y-116597483D01*
X175349401Y-116603307D01*
X175325691Y-116606824D01*
X175301750Y-116608000D01*
X174738250Y-116608000D01*
X174714309Y-116606824D01*
X174690599Y-116603307D01*
X174667348Y-116597483D01*
X174644780Y-116589408D01*
X174623111Y-116579159D01*
X174602552Y-116566836D01*
X174583299Y-116552558D01*
X174565539Y-116536461D01*
X174549442Y-116518701D01*
X174535164Y-116499448D01*
X174522841Y-116478889D01*
X174512592Y-116457220D01*
X174504517Y-116434652D01*
X174498693Y-116411401D01*
X174495176Y-116387691D01*
X174494000Y-116363750D01*
X174494000Y-115875250D01*
X174495176Y-115851309D01*
X174498693Y-115827599D01*
X174504517Y-115804348D01*
X174512592Y-115781780D01*
X174522841Y-115760111D01*
X174535164Y-115739552D01*
X174549442Y-115720299D01*
X174565539Y-115702539D01*
X174583299Y-115686442D01*
X174602552Y-115672164D01*
X174623111Y-115659841D01*
X174644780Y-115649592D01*
X174667348Y-115641517D01*
X174690599Y-115635693D01*
X174714309Y-115632176D01*
X174738250Y-115631000D01*
X175301750Y-115631000D01*
X175325691Y-115632176D01*
X175325691Y-115632176D01*
G37*
D18*
X175020000Y-116119500D03*
D17*
G36*
X172998691Y-102213176D02*
G01*
X173022401Y-102216693D01*
X173045652Y-102222517D01*
X173068220Y-102230592D01*
X173089889Y-102240841D01*
X173110448Y-102253164D01*
X173129701Y-102267442D01*
X173147461Y-102283539D01*
X173163558Y-102301299D01*
X173177836Y-102320552D01*
X173190159Y-102341111D01*
X173200408Y-102362780D01*
X173208483Y-102385348D01*
X173214307Y-102408599D01*
X173217824Y-102432309D01*
X173219000Y-102456250D01*
X173219000Y-102944750D01*
X173217824Y-102968691D01*
X173214307Y-102992401D01*
X173208483Y-103015652D01*
X173200408Y-103038220D01*
X173190159Y-103059889D01*
X173177836Y-103080448D01*
X173163558Y-103099701D01*
X173147461Y-103117461D01*
X173129701Y-103133558D01*
X173110448Y-103147836D01*
X173089889Y-103160159D01*
X173068220Y-103170408D01*
X173045652Y-103178483D01*
X173022401Y-103184307D01*
X172998691Y-103187824D01*
X172974750Y-103189000D01*
X172411250Y-103189000D01*
X172387309Y-103187824D01*
X172363599Y-103184307D01*
X172340348Y-103178483D01*
X172317780Y-103170408D01*
X172296111Y-103160159D01*
X172275552Y-103147836D01*
X172256299Y-103133558D01*
X172238539Y-103117461D01*
X172222442Y-103099701D01*
X172208164Y-103080448D01*
X172195841Y-103059889D01*
X172185592Y-103038220D01*
X172177517Y-103015652D01*
X172171693Y-102992401D01*
X172168176Y-102968691D01*
X172167000Y-102944750D01*
X172167000Y-102456250D01*
X172168176Y-102432309D01*
X172171693Y-102408599D01*
X172177517Y-102385348D01*
X172185592Y-102362780D01*
X172195841Y-102341111D01*
X172208164Y-102320552D01*
X172222442Y-102301299D01*
X172238539Y-102283539D01*
X172256299Y-102267442D01*
X172275552Y-102253164D01*
X172296111Y-102240841D01*
X172317780Y-102230592D01*
X172340348Y-102222517D01*
X172363599Y-102216693D01*
X172387309Y-102213176D01*
X172411250Y-102212000D01*
X172974750Y-102212000D01*
X172998691Y-102213176D01*
X172998691Y-102213176D01*
G37*
D18*
X172693000Y-102700500D03*
D17*
G36*
X172998691Y-103788176D02*
G01*
X173022401Y-103791693D01*
X173045652Y-103797517D01*
X173068220Y-103805592D01*
X173089889Y-103815841D01*
X173110448Y-103828164D01*
X173129701Y-103842442D01*
X173147461Y-103858539D01*
X173163558Y-103876299D01*
X173177836Y-103895552D01*
X173190159Y-103916111D01*
X173200408Y-103937780D01*
X173208483Y-103960348D01*
X173214307Y-103983599D01*
X173217824Y-104007309D01*
X173219000Y-104031250D01*
X173219000Y-104519750D01*
X173217824Y-104543691D01*
X173214307Y-104567401D01*
X173208483Y-104590652D01*
X173200408Y-104613220D01*
X173190159Y-104634889D01*
X173177836Y-104655448D01*
X173163558Y-104674701D01*
X173147461Y-104692461D01*
X173129701Y-104708558D01*
X173110448Y-104722836D01*
X173089889Y-104735159D01*
X173068220Y-104745408D01*
X173045652Y-104753483D01*
X173022401Y-104759307D01*
X172998691Y-104762824D01*
X172974750Y-104764000D01*
X172411250Y-104764000D01*
X172387309Y-104762824D01*
X172363599Y-104759307D01*
X172340348Y-104753483D01*
X172317780Y-104745408D01*
X172296111Y-104735159D01*
X172275552Y-104722836D01*
X172256299Y-104708558D01*
X172238539Y-104692461D01*
X172222442Y-104674701D01*
X172208164Y-104655448D01*
X172195841Y-104634889D01*
X172185592Y-104613220D01*
X172177517Y-104590652D01*
X172171693Y-104567401D01*
X172168176Y-104543691D01*
X172167000Y-104519750D01*
X172167000Y-104031250D01*
X172168176Y-104007309D01*
X172171693Y-103983599D01*
X172177517Y-103960348D01*
X172185592Y-103937780D01*
X172195841Y-103916111D01*
X172208164Y-103895552D01*
X172222442Y-103876299D01*
X172238539Y-103858539D01*
X172256299Y-103842442D01*
X172275552Y-103828164D01*
X172296111Y-103815841D01*
X172317780Y-103805592D01*
X172340348Y-103797517D01*
X172363599Y-103791693D01*
X172387309Y-103788176D01*
X172411250Y-103787000D01*
X172974750Y-103787000D01*
X172998691Y-103788176D01*
X172998691Y-103788176D01*
G37*
D18*
X172693000Y-104275500D03*
D17*
G36*
X161943691Y-115475176D02*
G01*
X161967401Y-115478693D01*
X161990652Y-115484517D01*
X162013220Y-115492592D01*
X162034889Y-115502841D01*
X162055448Y-115515164D01*
X162074701Y-115529442D01*
X162092461Y-115545539D01*
X162108558Y-115563299D01*
X162122836Y-115582552D01*
X162135159Y-115603111D01*
X162145408Y-115624780D01*
X162153483Y-115647348D01*
X162159307Y-115670599D01*
X162162824Y-115694309D01*
X162164000Y-115718250D01*
X162164000Y-116281750D01*
X162162824Y-116305691D01*
X162159307Y-116329401D01*
X162153483Y-116352652D01*
X162145408Y-116375220D01*
X162135159Y-116396889D01*
X162122836Y-116417448D01*
X162108558Y-116436701D01*
X162092461Y-116454461D01*
X162074701Y-116470558D01*
X162055448Y-116484836D01*
X162034889Y-116497159D01*
X162013220Y-116507408D01*
X161990652Y-116515483D01*
X161967401Y-116521307D01*
X161943691Y-116524824D01*
X161919750Y-116526000D01*
X161431250Y-116526000D01*
X161407309Y-116524824D01*
X161383599Y-116521307D01*
X161360348Y-116515483D01*
X161337780Y-116507408D01*
X161316111Y-116497159D01*
X161295552Y-116484836D01*
X161276299Y-116470558D01*
X161258539Y-116454461D01*
X161242442Y-116436701D01*
X161228164Y-116417448D01*
X161215841Y-116396889D01*
X161205592Y-116375220D01*
X161197517Y-116352652D01*
X161191693Y-116329401D01*
X161188176Y-116305691D01*
X161187000Y-116281750D01*
X161187000Y-115718250D01*
X161188176Y-115694309D01*
X161191693Y-115670599D01*
X161197517Y-115647348D01*
X161205592Y-115624780D01*
X161215841Y-115603111D01*
X161228164Y-115582552D01*
X161242442Y-115563299D01*
X161258539Y-115545539D01*
X161276299Y-115529442D01*
X161295552Y-115515164D01*
X161316111Y-115502841D01*
X161337780Y-115492592D01*
X161360348Y-115484517D01*
X161383599Y-115478693D01*
X161407309Y-115475176D01*
X161431250Y-115474000D01*
X161919750Y-115474000D01*
X161943691Y-115475176D01*
X161943691Y-115475176D01*
G37*
D18*
X161675500Y-116000000D03*
D17*
G36*
X160368691Y-115475176D02*
G01*
X160392401Y-115478693D01*
X160415652Y-115484517D01*
X160438220Y-115492592D01*
X160459889Y-115502841D01*
X160480448Y-115515164D01*
X160499701Y-115529442D01*
X160517461Y-115545539D01*
X160533558Y-115563299D01*
X160547836Y-115582552D01*
X160560159Y-115603111D01*
X160570408Y-115624780D01*
X160578483Y-115647348D01*
X160584307Y-115670599D01*
X160587824Y-115694309D01*
X160589000Y-115718250D01*
X160589000Y-116281750D01*
X160587824Y-116305691D01*
X160584307Y-116329401D01*
X160578483Y-116352652D01*
X160570408Y-116375220D01*
X160560159Y-116396889D01*
X160547836Y-116417448D01*
X160533558Y-116436701D01*
X160517461Y-116454461D01*
X160499701Y-116470558D01*
X160480448Y-116484836D01*
X160459889Y-116497159D01*
X160438220Y-116507408D01*
X160415652Y-116515483D01*
X160392401Y-116521307D01*
X160368691Y-116524824D01*
X160344750Y-116526000D01*
X159856250Y-116526000D01*
X159832309Y-116524824D01*
X159808599Y-116521307D01*
X159785348Y-116515483D01*
X159762780Y-116507408D01*
X159741111Y-116497159D01*
X159720552Y-116484836D01*
X159701299Y-116470558D01*
X159683539Y-116454461D01*
X159667442Y-116436701D01*
X159653164Y-116417448D01*
X159640841Y-116396889D01*
X159630592Y-116375220D01*
X159622517Y-116352652D01*
X159616693Y-116329401D01*
X159613176Y-116305691D01*
X159612000Y-116281750D01*
X159612000Y-115718250D01*
X159613176Y-115694309D01*
X159616693Y-115670599D01*
X159622517Y-115647348D01*
X159630592Y-115624780D01*
X159640841Y-115603111D01*
X159653164Y-115582552D01*
X159667442Y-115563299D01*
X159683539Y-115545539D01*
X159701299Y-115529442D01*
X159720552Y-115515164D01*
X159741111Y-115502841D01*
X159762780Y-115492592D01*
X159785348Y-115484517D01*
X159808599Y-115478693D01*
X159832309Y-115475176D01*
X159856250Y-115474000D01*
X160344750Y-115474000D01*
X160368691Y-115475176D01*
X160368691Y-115475176D01*
G37*
D18*
X160100500Y-116000000D03*
D17*
G36*
X161967691Y-108275176D02*
G01*
X161991401Y-108278693D01*
X162014652Y-108284517D01*
X162037220Y-108292592D01*
X162058889Y-108302841D01*
X162079448Y-108315164D01*
X162098701Y-108329442D01*
X162116461Y-108345539D01*
X162132558Y-108363299D01*
X162146836Y-108382552D01*
X162159159Y-108403111D01*
X162169408Y-108424780D01*
X162177483Y-108447348D01*
X162183307Y-108470599D01*
X162186824Y-108494309D01*
X162188000Y-108518250D01*
X162188000Y-109081750D01*
X162186824Y-109105691D01*
X162183307Y-109129401D01*
X162177483Y-109152652D01*
X162169408Y-109175220D01*
X162159159Y-109196889D01*
X162146836Y-109217448D01*
X162132558Y-109236701D01*
X162116461Y-109254461D01*
X162098701Y-109270558D01*
X162079448Y-109284836D01*
X162058889Y-109297159D01*
X162037220Y-109307408D01*
X162014652Y-109315483D01*
X161991401Y-109321307D01*
X161967691Y-109324824D01*
X161943750Y-109326000D01*
X161455250Y-109326000D01*
X161431309Y-109324824D01*
X161407599Y-109321307D01*
X161384348Y-109315483D01*
X161361780Y-109307408D01*
X161340111Y-109297159D01*
X161319552Y-109284836D01*
X161300299Y-109270558D01*
X161282539Y-109254461D01*
X161266442Y-109236701D01*
X161252164Y-109217448D01*
X161239841Y-109196889D01*
X161229592Y-109175220D01*
X161221517Y-109152652D01*
X161215693Y-109129401D01*
X161212176Y-109105691D01*
X161211000Y-109081750D01*
X161211000Y-108518250D01*
X161212176Y-108494309D01*
X161215693Y-108470599D01*
X161221517Y-108447348D01*
X161229592Y-108424780D01*
X161239841Y-108403111D01*
X161252164Y-108382552D01*
X161266442Y-108363299D01*
X161282539Y-108345539D01*
X161300299Y-108329442D01*
X161319552Y-108315164D01*
X161340111Y-108302841D01*
X161361780Y-108292592D01*
X161384348Y-108284517D01*
X161407599Y-108278693D01*
X161431309Y-108275176D01*
X161455250Y-108274000D01*
X161943750Y-108274000D01*
X161967691Y-108275176D01*
X161967691Y-108275176D01*
G37*
D18*
X161699500Y-108800000D03*
D17*
G36*
X160392691Y-108275176D02*
G01*
X160416401Y-108278693D01*
X160439652Y-108284517D01*
X160462220Y-108292592D01*
X160483889Y-108302841D01*
X160504448Y-108315164D01*
X160523701Y-108329442D01*
X160541461Y-108345539D01*
X160557558Y-108363299D01*
X160571836Y-108382552D01*
X160584159Y-108403111D01*
X160594408Y-108424780D01*
X160602483Y-108447348D01*
X160608307Y-108470599D01*
X160611824Y-108494309D01*
X160613000Y-108518250D01*
X160613000Y-109081750D01*
X160611824Y-109105691D01*
X160608307Y-109129401D01*
X160602483Y-109152652D01*
X160594408Y-109175220D01*
X160584159Y-109196889D01*
X160571836Y-109217448D01*
X160557558Y-109236701D01*
X160541461Y-109254461D01*
X160523701Y-109270558D01*
X160504448Y-109284836D01*
X160483889Y-109297159D01*
X160462220Y-109307408D01*
X160439652Y-109315483D01*
X160416401Y-109321307D01*
X160392691Y-109324824D01*
X160368750Y-109326000D01*
X159880250Y-109326000D01*
X159856309Y-109324824D01*
X159832599Y-109321307D01*
X159809348Y-109315483D01*
X159786780Y-109307408D01*
X159765111Y-109297159D01*
X159744552Y-109284836D01*
X159725299Y-109270558D01*
X159707539Y-109254461D01*
X159691442Y-109236701D01*
X159677164Y-109217448D01*
X159664841Y-109196889D01*
X159654592Y-109175220D01*
X159646517Y-109152652D01*
X159640693Y-109129401D01*
X159637176Y-109105691D01*
X159636000Y-109081750D01*
X159636000Y-108518250D01*
X159637176Y-108494309D01*
X159640693Y-108470599D01*
X159646517Y-108447348D01*
X159654592Y-108424780D01*
X159664841Y-108403111D01*
X159677164Y-108382552D01*
X159691442Y-108363299D01*
X159707539Y-108345539D01*
X159725299Y-108329442D01*
X159744552Y-108315164D01*
X159765111Y-108302841D01*
X159786780Y-108292592D01*
X159809348Y-108284517D01*
X159832599Y-108278693D01*
X159856309Y-108275176D01*
X159880250Y-108274000D01*
X160368750Y-108274000D01*
X160392691Y-108275176D01*
X160392691Y-108275176D01*
G37*
D18*
X160124500Y-108800000D03*
D15*
X192540000Y-119380000D03*
X190000000Y-119380000D03*
X192540000Y-116840000D03*
X190000000Y-116840000D03*
X192540000Y-114300000D03*
X190000000Y-114300000D03*
X192540000Y-111760000D03*
X190000000Y-111760000D03*
X192540000Y-109220000D03*
X190000000Y-109220000D03*
X192540000Y-106680000D03*
D16*
X190000000Y-106680000D03*
D23*
X157695000Y-115725000D03*
X157695000Y-109275000D03*
X157695000Y-114950000D03*
X157695000Y-110050000D03*
D24*
X157695000Y-110750000D03*
X157695000Y-114250000D03*
X157695000Y-111250000D03*
X157695000Y-113750000D03*
X157695000Y-111750000D03*
X157695000Y-113250000D03*
X157695000Y-112750000D03*
X157695000Y-112250000D03*
D25*
X156250000Y-115390000D03*
X156250000Y-109610000D03*
D26*
X156780000Y-108180000D03*
X156780000Y-116820000D03*
D27*
X152600000Y-108180000D03*
X152600000Y-116820000D03*
D17*
G36*
X159055691Y-102137176D02*
G01*
X159079401Y-102140693D01*
X159102652Y-102146517D01*
X159125220Y-102154592D01*
X159146889Y-102164841D01*
X159167448Y-102177164D01*
X159186701Y-102191442D01*
X159204461Y-102207539D01*
X159220558Y-102225299D01*
X159234836Y-102244552D01*
X159247159Y-102265111D01*
X159257408Y-102286780D01*
X159265483Y-102309348D01*
X159271307Y-102332599D01*
X159274824Y-102356309D01*
X159276000Y-102380250D01*
X159276000Y-102868750D01*
X159274824Y-102892691D01*
X159271307Y-102916401D01*
X159265483Y-102939652D01*
X159257408Y-102962220D01*
X159247159Y-102983889D01*
X159234836Y-103004448D01*
X159220558Y-103023701D01*
X159204461Y-103041461D01*
X159186701Y-103057558D01*
X159167448Y-103071836D01*
X159146889Y-103084159D01*
X159125220Y-103094408D01*
X159102652Y-103102483D01*
X159079401Y-103108307D01*
X159055691Y-103111824D01*
X159031750Y-103113000D01*
X158468250Y-103113000D01*
X158444309Y-103111824D01*
X158420599Y-103108307D01*
X158397348Y-103102483D01*
X158374780Y-103094408D01*
X158353111Y-103084159D01*
X158332552Y-103071836D01*
X158313299Y-103057558D01*
X158295539Y-103041461D01*
X158279442Y-103023701D01*
X158265164Y-103004448D01*
X158252841Y-102983889D01*
X158242592Y-102962220D01*
X158234517Y-102939652D01*
X158228693Y-102916401D01*
X158225176Y-102892691D01*
X158224000Y-102868750D01*
X158224000Y-102380250D01*
X158225176Y-102356309D01*
X158228693Y-102332599D01*
X158234517Y-102309348D01*
X158242592Y-102286780D01*
X158252841Y-102265111D01*
X158265164Y-102244552D01*
X158279442Y-102225299D01*
X158295539Y-102207539D01*
X158313299Y-102191442D01*
X158332552Y-102177164D01*
X158353111Y-102164841D01*
X158374780Y-102154592D01*
X158397348Y-102146517D01*
X158420599Y-102140693D01*
X158444309Y-102137176D01*
X158468250Y-102136000D01*
X159031750Y-102136000D01*
X159055691Y-102137176D01*
X159055691Y-102137176D01*
G37*
D18*
X158750000Y-102624500D03*
D17*
G36*
X159055691Y-103712176D02*
G01*
X159079401Y-103715693D01*
X159102652Y-103721517D01*
X159125220Y-103729592D01*
X159146889Y-103739841D01*
X159167448Y-103752164D01*
X159186701Y-103766442D01*
X159204461Y-103782539D01*
X159220558Y-103800299D01*
X159234836Y-103819552D01*
X159247159Y-103840111D01*
X159257408Y-103861780D01*
X159265483Y-103884348D01*
X159271307Y-103907599D01*
X159274824Y-103931309D01*
X159276000Y-103955250D01*
X159276000Y-104443750D01*
X159274824Y-104467691D01*
X159271307Y-104491401D01*
X159265483Y-104514652D01*
X159257408Y-104537220D01*
X159247159Y-104558889D01*
X159234836Y-104579448D01*
X159220558Y-104598701D01*
X159204461Y-104616461D01*
X159186701Y-104632558D01*
X159167448Y-104646836D01*
X159146889Y-104659159D01*
X159125220Y-104669408D01*
X159102652Y-104677483D01*
X159079401Y-104683307D01*
X159055691Y-104686824D01*
X159031750Y-104688000D01*
X158468250Y-104688000D01*
X158444309Y-104686824D01*
X158420599Y-104683307D01*
X158397348Y-104677483D01*
X158374780Y-104669408D01*
X158353111Y-104659159D01*
X158332552Y-104646836D01*
X158313299Y-104632558D01*
X158295539Y-104616461D01*
X158279442Y-104598701D01*
X158265164Y-104579448D01*
X158252841Y-104558889D01*
X158242592Y-104537220D01*
X158234517Y-104514652D01*
X158228693Y-104491401D01*
X158225176Y-104467691D01*
X158224000Y-104443750D01*
X158224000Y-103955250D01*
X158225176Y-103931309D01*
X158228693Y-103907599D01*
X158234517Y-103884348D01*
X158242592Y-103861780D01*
X158252841Y-103840111D01*
X158265164Y-103819552D01*
X158279442Y-103800299D01*
X158295539Y-103782539D01*
X158313299Y-103766442D01*
X158332552Y-103752164D01*
X158353111Y-103739841D01*
X158374780Y-103729592D01*
X158397348Y-103721517D01*
X158420599Y-103715693D01*
X158444309Y-103712176D01*
X158468250Y-103711000D01*
X159031750Y-103711000D01*
X159055691Y-103712176D01*
X159055691Y-103712176D01*
G37*
D18*
X158750000Y-104199500D03*
D17*
G36*
X175042691Y-102145176D02*
G01*
X175066401Y-102148693D01*
X175089652Y-102154517D01*
X175112220Y-102162592D01*
X175133889Y-102172841D01*
X175154448Y-102185164D01*
X175173701Y-102199442D01*
X175191461Y-102215539D01*
X175207558Y-102233299D01*
X175221836Y-102252552D01*
X175234159Y-102273111D01*
X175244408Y-102294780D01*
X175252483Y-102317348D01*
X175258307Y-102340599D01*
X175261824Y-102364309D01*
X175263000Y-102388250D01*
X175263000Y-102876750D01*
X175261824Y-102900691D01*
X175258307Y-102924401D01*
X175252483Y-102947652D01*
X175244408Y-102970220D01*
X175234159Y-102991889D01*
X175221836Y-103012448D01*
X175207558Y-103031701D01*
X175191461Y-103049461D01*
X175173701Y-103065558D01*
X175154448Y-103079836D01*
X175133889Y-103092159D01*
X175112220Y-103102408D01*
X175089652Y-103110483D01*
X175066401Y-103116307D01*
X175042691Y-103119824D01*
X175018750Y-103121000D01*
X174455250Y-103121000D01*
X174431309Y-103119824D01*
X174407599Y-103116307D01*
X174384348Y-103110483D01*
X174361780Y-103102408D01*
X174340111Y-103092159D01*
X174319552Y-103079836D01*
X174300299Y-103065558D01*
X174282539Y-103049461D01*
X174266442Y-103031701D01*
X174252164Y-103012448D01*
X174239841Y-102991889D01*
X174229592Y-102970220D01*
X174221517Y-102947652D01*
X174215693Y-102924401D01*
X174212176Y-102900691D01*
X174211000Y-102876750D01*
X174211000Y-102388250D01*
X174212176Y-102364309D01*
X174215693Y-102340599D01*
X174221517Y-102317348D01*
X174229592Y-102294780D01*
X174239841Y-102273111D01*
X174252164Y-102252552D01*
X174266442Y-102233299D01*
X174282539Y-102215539D01*
X174300299Y-102199442D01*
X174319552Y-102185164D01*
X174340111Y-102172841D01*
X174361780Y-102162592D01*
X174384348Y-102154517D01*
X174407599Y-102148693D01*
X174431309Y-102145176D01*
X174455250Y-102144000D01*
X175018750Y-102144000D01*
X175042691Y-102145176D01*
X175042691Y-102145176D01*
G37*
D18*
X174737000Y-102632500D03*
D17*
G36*
X175042691Y-103720176D02*
G01*
X175066401Y-103723693D01*
X175089652Y-103729517D01*
X175112220Y-103737592D01*
X175133889Y-103747841D01*
X175154448Y-103760164D01*
X175173701Y-103774442D01*
X175191461Y-103790539D01*
X175207558Y-103808299D01*
X175221836Y-103827552D01*
X175234159Y-103848111D01*
X175244408Y-103869780D01*
X175252483Y-103892348D01*
X175258307Y-103915599D01*
X175261824Y-103939309D01*
X175263000Y-103963250D01*
X175263000Y-104451750D01*
X175261824Y-104475691D01*
X175258307Y-104499401D01*
X175252483Y-104522652D01*
X175244408Y-104545220D01*
X175234159Y-104566889D01*
X175221836Y-104587448D01*
X175207558Y-104606701D01*
X175191461Y-104624461D01*
X175173701Y-104640558D01*
X175154448Y-104654836D01*
X175133889Y-104667159D01*
X175112220Y-104677408D01*
X175089652Y-104685483D01*
X175066401Y-104691307D01*
X175042691Y-104694824D01*
X175018750Y-104696000D01*
X174455250Y-104696000D01*
X174431309Y-104694824D01*
X174407599Y-104691307D01*
X174384348Y-104685483D01*
X174361780Y-104677408D01*
X174340111Y-104667159D01*
X174319552Y-104654836D01*
X174300299Y-104640558D01*
X174282539Y-104624461D01*
X174266442Y-104606701D01*
X174252164Y-104587448D01*
X174239841Y-104566889D01*
X174229592Y-104545220D01*
X174221517Y-104522652D01*
X174215693Y-104499401D01*
X174212176Y-104475691D01*
X174211000Y-104451750D01*
X174211000Y-103963250D01*
X174212176Y-103939309D01*
X174215693Y-103915599D01*
X174221517Y-103892348D01*
X174229592Y-103869780D01*
X174239841Y-103848111D01*
X174252164Y-103827552D01*
X174266442Y-103808299D01*
X174282539Y-103790539D01*
X174300299Y-103774442D01*
X174319552Y-103760164D01*
X174340111Y-103747841D01*
X174361780Y-103737592D01*
X174384348Y-103729517D01*
X174407599Y-103723693D01*
X174431309Y-103720176D01*
X174455250Y-103719000D01*
X175018750Y-103719000D01*
X175042691Y-103720176D01*
X175042691Y-103720176D01*
G37*
D18*
X174737000Y-104207500D03*
D17*
G36*
X170955691Y-102213176D02*
G01*
X170979401Y-102216693D01*
X171002652Y-102222517D01*
X171025220Y-102230592D01*
X171046889Y-102240841D01*
X171067448Y-102253164D01*
X171086701Y-102267442D01*
X171104461Y-102283539D01*
X171120558Y-102301299D01*
X171134836Y-102320552D01*
X171147159Y-102341111D01*
X171157408Y-102362780D01*
X171165483Y-102385348D01*
X171171307Y-102408599D01*
X171174824Y-102432309D01*
X171176000Y-102456250D01*
X171176000Y-102944750D01*
X171174824Y-102968691D01*
X171171307Y-102992401D01*
X171165483Y-103015652D01*
X171157408Y-103038220D01*
X171147159Y-103059889D01*
X171134836Y-103080448D01*
X171120558Y-103099701D01*
X171104461Y-103117461D01*
X171086701Y-103133558D01*
X171067448Y-103147836D01*
X171046889Y-103160159D01*
X171025220Y-103170408D01*
X171002652Y-103178483D01*
X170979401Y-103184307D01*
X170955691Y-103187824D01*
X170931750Y-103189000D01*
X170368250Y-103189000D01*
X170344309Y-103187824D01*
X170320599Y-103184307D01*
X170297348Y-103178483D01*
X170274780Y-103170408D01*
X170253111Y-103160159D01*
X170232552Y-103147836D01*
X170213299Y-103133558D01*
X170195539Y-103117461D01*
X170179442Y-103099701D01*
X170165164Y-103080448D01*
X170152841Y-103059889D01*
X170142592Y-103038220D01*
X170134517Y-103015652D01*
X170128693Y-102992401D01*
X170125176Y-102968691D01*
X170124000Y-102944750D01*
X170124000Y-102456250D01*
X170125176Y-102432309D01*
X170128693Y-102408599D01*
X170134517Y-102385348D01*
X170142592Y-102362780D01*
X170152841Y-102341111D01*
X170165164Y-102320552D01*
X170179442Y-102301299D01*
X170195539Y-102283539D01*
X170213299Y-102267442D01*
X170232552Y-102253164D01*
X170253111Y-102240841D01*
X170274780Y-102230592D01*
X170297348Y-102222517D01*
X170320599Y-102216693D01*
X170344309Y-102213176D01*
X170368250Y-102212000D01*
X170931750Y-102212000D01*
X170955691Y-102213176D01*
X170955691Y-102213176D01*
G37*
D18*
X170650000Y-102700500D03*
D17*
G36*
X170955691Y-103788176D02*
G01*
X170979401Y-103791693D01*
X171002652Y-103797517D01*
X171025220Y-103805592D01*
X171046889Y-103815841D01*
X171067448Y-103828164D01*
X171086701Y-103842442D01*
X171104461Y-103858539D01*
X171120558Y-103876299D01*
X171134836Y-103895552D01*
X171147159Y-103916111D01*
X171157408Y-103937780D01*
X171165483Y-103960348D01*
X171171307Y-103983599D01*
X171174824Y-104007309D01*
X171176000Y-104031250D01*
X171176000Y-104519750D01*
X171174824Y-104543691D01*
X171171307Y-104567401D01*
X171165483Y-104590652D01*
X171157408Y-104613220D01*
X171147159Y-104634889D01*
X171134836Y-104655448D01*
X171120558Y-104674701D01*
X171104461Y-104692461D01*
X171086701Y-104708558D01*
X171067448Y-104722836D01*
X171046889Y-104735159D01*
X171025220Y-104745408D01*
X171002652Y-104753483D01*
X170979401Y-104759307D01*
X170955691Y-104762824D01*
X170931750Y-104764000D01*
X170368250Y-104764000D01*
X170344309Y-104762824D01*
X170320599Y-104759307D01*
X170297348Y-104753483D01*
X170274780Y-104745408D01*
X170253111Y-104735159D01*
X170232552Y-104722836D01*
X170213299Y-104708558D01*
X170195539Y-104692461D01*
X170179442Y-104674701D01*
X170165164Y-104655448D01*
X170152841Y-104634889D01*
X170142592Y-104613220D01*
X170134517Y-104590652D01*
X170128693Y-104567401D01*
X170125176Y-104543691D01*
X170124000Y-104519750D01*
X170124000Y-104031250D01*
X170125176Y-104007309D01*
X170128693Y-103983599D01*
X170134517Y-103960348D01*
X170142592Y-103937780D01*
X170152841Y-103916111D01*
X170165164Y-103895552D01*
X170179442Y-103876299D01*
X170195539Y-103858539D01*
X170213299Y-103842442D01*
X170232552Y-103828164D01*
X170253111Y-103815841D01*
X170274780Y-103805592D01*
X170297348Y-103797517D01*
X170320599Y-103791693D01*
X170344309Y-103788176D01*
X170368250Y-103787000D01*
X170931750Y-103787000D01*
X170955691Y-103788176D01*
X170955691Y-103788176D01*
G37*
D18*
X170650000Y-104275500D03*
D17*
G36*
X173805691Y-114037176D02*
G01*
X173829401Y-114040693D01*
X173852652Y-114046517D01*
X173875220Y-114054592D01*
X173896889Y-114064841D01*
X173917448Y-114077164D01*
X173936701Y-114091442D01*
X173954461Y-114107539D01*
X173970558Y-114125299D01*
X173984836Y-114144552D01*
X173997159Y-114165111D01*
X174007408Y-114186780D01*
X174015483Y-114209348D01*
X174021307Y-114232599D01*
X174024824Y-114256309D01*
X174026000Y-114280250D01*
X174026000Y-114768750D01*
X174024824Y-114792691D01*
X174021307Y-114816401D01*
X174015483Y-114839652D01*
X174007408Y-114862220D01*
X173997159Y-114883889D01*
X173984836Y-114904448D01*
X173970558Y-114923701D01*
X173954461Y-114941461D01*
X173936701Y-114957558D01*
X173917448Y-114971836D01*
X173896889Y-114984159D01*
X173875220Y-114994408D01*
X173852652Y-115002483D01*
X173829401Y-115008307D01*
X173805691Y-115011824D01*
X173781750Y-115013000D01*
X173218250Y-115013000D01*
X173194309Y-115011824D01*
X173170599Y-115008307D01*
X173147348Y-115002483D01*
X173124780Y-114994408D01*
X173103111Y-114984159D01*
X173082552Y-114971836D01*
X173063299Y-114957558D01*
X173045539Y-114941461D01*
X173029442Y-114923701D01*
X173015164Y-114904448D01*
X173002841Y-114883889D01*
X172992592Y-114862220D01*
X172984517Y-114839652D01*
X172978693Y-114816401D01*
X172975176Y-114792691D01*
X172974000Y-114768750D01*
X172974000Y-114280250D01*
X172975176Y-114256309D01*
X172978693Y-114232599D01*
X172984517Y-114209348D01*
X172992592Y-114186780D01*
X173002841Y-114165111D01*
X173015164Y-114144552D01*
X173029442Y-114125299D01*
X173045539Y-114107539D01*
X173063299Y-114091442D01*
X173082552Y-114077164D01*
X173103111Y-114064841D01*
X173124780Y-114054592D01*
X173147348Y-114046517D01*
X173170599Y-114040693D01*
X173194309Y-114037176D01*
X173218250Y-114036000D01*
X173781750Y-114036000D01*
X173805691Y-114037176D01*
X173805691Y-114037176D01*
G37*
D18*
X173500000Y-114524500D03*
D17*
G36*
X173805691Y-115612176D02*
G01*
X173829401Y-115615693D01*
X173852652Y-115621517D01*
X173875220Y-115629592D01*
X173896889Y-115639841D01*
X173917448Y-115652164D01*
X173936701Y-115666442D01*
X173954461Y-115682539D01*
X173970558Y-115700299D01*
X173984836Y-115719552D01*
X173997159Y-115740111D01*
X174007408Y-115761780D01*
X174015483Y-115784348D01*
X174021307Y-115807599D01*
X174024824Y-115831309D01*
X174026000Y-115855250D01*
X174026000Y-116343750D01*
X174024824Y-116367691D01*
X174021307Y-116391401D01*
X174015483Y-116414652D01*
X174007408Y-116437220D01*
X173997159Y-116458889D01*
X173984836Y-116479448D01*
X173970558Y-116498701D01*
X173954461Y-116516461D01*
X173936701Y-116532558D01*
X173917448Y-116546836D01*
X173896889Y-116559159D01*
X173875220Y-116569408D01*
X173852652Y-116577483D01*
X173829401Y-116583307D01*
X173805691Y-116586824D01*
X173781750Y-116588000D01*
X173218250Y-116588000D01*
X173194309Y-116586824D01*
X173170599Y-116583307D01*
X173147348Y-116577483D01*
X173124780Y-116569408D01*
X173103111Y-116559159D01*
X173082552Y-116546836D01*
X173063299Y-116532558D01*
X173045539Y-116516461D01*
X173029442Y-116498701D01*
X173015164Y-116479448D01*
X173002841Y-116458889D01*
X172992592Y-116437220D01*
X172984517Y-116414652D01*
X172978693Y-116391401D01*
X172975176Y-116367691D01*
X172974000Y-116343750D01*
X172974000Y-115855250D01*
X172975176Y-115831309D01*
X172978693Y-115807599D01*
X172984517Y-115784348D01*
X172992592Y-115761780D01*
X173002841Y-115740111D01*
X173015164Y-115719552D01*
X173029442Y-115700299D01*
X173045539Y-115682539D01*
X173063299Y-115666442D01*
X173082552Y-115652164D01*
X173103111Y-115639841D01*
X173124780Y-115629592D01*
X173147348Y-115621517D01*
X173170599Y-115615693D01*
X173194309Y-115612176D01*
X173218250Y-115611000D01*
X173781750Y-115611000D01*
X173805691Y-115612176D01*
X173805691Y-115612176D01*
G37*
D18*
X173500000Y-116099500D03*
D17*
G36*
X168558141Y-104062297D02*
G01*
X168584278Y-104066174D01*
X168609909Y-104072594D01*
X168634788Y-104081495D01*
X168658674Y-104092793D01*
X168681337Y-104106377D01*
X168702560Y-104122117D01*
X168722139Y-104139861D01*
X168739883Y-104159440D01*
X168755623Y-104180663D01*
X168769207Y-104203326D01*
X168780505Y-104227212D01*
X168789406Y-104252091D01*
X168795826Y-104277722D01*
X168799703Y-104303859D01*
X168801000Y-104330250D01*
X168801000Y-104868750D01*
X168799703Y-104895141D01*
X168795826Y-104921278D01*
X168789406Y-104946909D01*
X168780505Y-104971788D01*
X168769207Y-104995674D01*
X168755623Y-105018337D01*
X168739883Y-105039560D01*
X168722139Y-105059139D01*
X168702560Y-105076883D01*
X168681337Y-105092623D01*
X168658674Y-105106207D01*
X168634788Y-105117505D01*
X168609909Y-105126406D01*
X168584278Y-105132826D01*
X168558141Y-105136703D01*
X168531750Y-105138000D01*
X167568250Y-105138000D01*
X167541859Y-105136703D01*
X167515722Y-105132826D01*
X167490091Y-105126406D01*
X167465212Y-105117505D01*
X167441326Y-105106207D01*
X167418663Y-105092623D01*
X167397440Y-105076883D01*
X167377861Y-105059139D01*
X167360117Y-105039560D01*
X167344377Y-105018337D01*
X167330793Y-104995674D01*
X167319495Y-104971788D01*
X167310594Y-104946909D01*
X167304174Y-104921278D01*
X167300297Y-104895141D01*
X167299000Y-104868750D01*
X167299000Y-104330250D01*
X167300297Y-104303859D01*
X167304174Y-104277722D01*
X167310594Y-104252091D01*
X167319495Y-104227212D01*
X167330793Y-104203326D01*
X167344377Y-104180663D01*
X167360117Y-104159440D01*
X167377861Y-104139861D01*
X167397440Y-104122117D01*
X167418663Y-104106377D01*
X167441326Y-104092793D01*
X167465212Y-104081495D01*
X167490091Y-104072594D01*
X167515722Y-104066174D01*
X167541859Y-104062297D01*
X167568250Y-104061000D01*
X168531750Y-104061000D01*
X168558141Y-104062297D01*
X168558141Y-104062297D01*
G37*
D28*
X168050000Y-104599500D03*
D17*
G36*
X168558141Y-102187297D02*
G01*
X168584278Y-102191174D01*
X168609909Y-102197594D01*
X168634788Y-102206495D01*
X168658674Y-102217793D01*
X168681337Y-102231377D01*
X168702560Y-102247117D01*
X168722139Y-102264861D01*
X168739883Y-102284440D01*
X168755623Y-102305663D01*
X168769207Y-102328326D01*
X168780505Y-102352212D01*
X168789406Y-102377091D01*
X168795826Y-102402722D01*
X168799703Y-102428859D01*
X168801000Y-102455250D01*
X168801000Y-102993750D01*
X168799703Y-103020141D01*
X168795826Y-103046278D01*
X168789406Y-103071909D01*
X168780505Y-103096788D01*
X168769207Y-103120674D01*
X168755623Y-103143337D01*
X168739883Y-103164560D01*
X168722139Y-103184139D01*
X168702560Y-103201883D01*
X168681337Y-103217623D01*
X168658674Y-103231207D01*
X168634788Y-103242505D01*
X168609909Y-103251406D01*
X168584278Y-103257826D01*
X168558141Y-103261703D01*
X168531750Y-103263000D01*
X167568250Y-103263000D01*
X167541859Y-103261703D01*
X167515722Y-103257826D01*
X167490091Y-103251406D01*
X167465212Y-103242505D01*
X167441326Y-103231207D01*
X167418663Y-103217623D01*
X167397440Y-103201883D01*
X167377861Y-103184139D01*
X167360117Y-103164560D01*
X167344377Y-103143337D01*
X167330793Y-103120674D01*
X167319495Y-103096788D01*
X167310594Y-103071909D01*
X167304174Y-103046278D01*
X167300297Y-103020141D01*
X167299000Y-102993750D01*
X167299000Y-102455250D01*
X167300297Y-102428859D01*
X167304174Y-102402722D01*
X167310594Y-102377091D01*
X167319495Y-102352212D01*
X167330793Y-102328326D01*
X167344377Y-102305663D01*
X167360117Y-102284440D01*
X167377861Y-102264861D01*
X167397440Y-102247117D01*
X167418663Y-102231377D01*
X167441326Y-102217793D01*
X167465212Y-102206495D01*
X167490091Y-102197594D01*
X167515722Y-102191174D01*
X167541859Y-102187297D01*
X167568250Y-102186000D01*
X168531750Y-102186000D01*
X168558141Y-102187297D01*
X168558141Y-102187297D01*
G37*
D28*
X168050000Y-102724500D03*
D17*
G36*
X165305691Y-117313176D02*
G01*
X165329401Y-117316693D01*
X165352652Y-117322517D01*
X165375220Y-117330592D01*
X165396889Y-117340841D01*
X165417448Y-117353164D01*
X165436701Y-117367442D01*
X165454461Y-117383539D01*
X165470558Y-117401299D01*
X165484836Y-117420552D01*
X165497159Y-117441111D01*
X165507408Y-117462780D01*
X165515483Y-117485348D01*
X165521307Y-117508599D01*
X165524824Y-117532309D01*
X165526000Y-117556250D01*
X165526000Y-118044750D01*
X165524824Y-118068691D01*
X165521307Y-118092401D01*
X165515483Y-118115652D01*
X165507408Y-118138220D01*
X165497159Y-118159889D01*
X165484836Y-118180448D01*
X165470558Y-118199701D01*
X165454461Y-118217461D01*
X165436701Y-118233558D01*
X165417448Y-118247836D01*
X165396889Y-118260159D01*
X165375220Y-118270408D01*
X165352652Y-118278483D01*
X165329401Y-118284307D01*
X165305691Y-118287824D01*
X165281750Y-118289000D01*
X164718250Y-118289000D01*
X164694309Y-118287824D01*
X164670599Y-118284307D01*
X164647348Y-118278483D01*
X164624780Y-118270408D01*
X164603111Y-118260159D01*
X164582552Y-118247836D01*
X164563299Y-118233558D01*
X164545539Y-118217461D01*
X164529442Y-118199701D01*
X164515164Y-118180448D01*
X164502841Y-118159889D01*
X164492592Y-118138220D01*
X164484517Y-118115652D01*
X164478693Y-118092401D01*
X164475176Y-118068691D01*
X164474000Y-118044750D01*
X164474000Y-117556250D01*
X164475176Y-117532309D01*
X164478693Y-117508599D01*
X164484517Y-117485348D01*
X164492592Y-117462780D01*
X164502841Y-117441111D01*
X164515164Y-117420552D01*
X164529442Y-117401299D01*
X164545539Y-117383539D01*
X164563299Y-117367442D01*
X164582552Y-117353164D01*
X164603111Y-117340841D01*
X164624780Y-117330592D01*
X164647348Y-117322517D01*
X164670599Y-117316693D01*
X164694309Y-117313176D01*
X164718250Y-117312000D01*
X165281750Y-117312000D01*
X165305691Y-117313176D01*
X165305691Y-117313176D01*
G37*
D18*
X165000000Y-117800500D03*
D17*
G36*
X165305691Y-118888176D02*
G01*
X165329401Y-118891693D01*
X165352652Y-118897517D01*
X165375220Y-118905592D01*
X165396889Y-118915841D01*
X165417448Y-118928164D01*
X165436701Y-118942442D01*
X165454461Y-118958539D01*
X165470558Y-118976299D01*
X165484836Y-118995552D01*
X165497159Y-119016111D01*
X165507408Y-119037780D01*
X165515483Y-119060348D01*
X165521307Y-119083599D01*
X165524824Y-119107309D01*
X165526000Y-119131250D01*
X165526000Y-119619750D01*
X165524824Y-119643691D01*
X165521307Y-119667401D01*
X165515483Y-119690652D01*
X165507408Y-119713220D01*
X165497159Y-119734889D01*
X165484836Y-119755448D01*
X165470558Y-119774701D01*
X165454461Y-119792461D01*
X165436701Y-119808558D01*
X165417448Y-119822836D01*
X165396889Y-119835159D01*
X165375220Y-119845408D01*
X165352652Y-119853483D01*
X165329401Y-119859307D01*
X165305691Y-119862824D01*
X165281750Y-119864000D01*
X164718250Y-119864000D01*
X164694309Y-119862824D01*
X164670599Y-119859307D01*
X164647348Y-119853483D01*
X164624780Y-119845408D01*
X164603111Y-119835159D01*
X164582552Y-119822836D01*
X164563299Y-119808558D01*
X164545539Y-119792461D01*
X164529442Y-119774701D01*
X164515164Y-119755448D01*
X164502841Y-119734889D01*
X164492592Y-119713220D01*
X164484517Y-119690652D01*
X164478693Y-119667401D01*
X164475176Y-119643691D01*
X164474000Y-119619750D01*
X164474000Y-119131250D01*
X164475176Y-119107309D01*
X164478693Y-119083599D01*
X164484517Y-119060348D01*
X164492592Y-119037780D01*
X164502841Y-119016111D01*
X164515164Y-118995552D01*
X164529442Y-118976299D01*
X164545539Y-118958539D01*
X164563299Y-118942442D01*
X164582552Y-118928164D01*
X164603111Y-118915841D01*
X164624780Y-118905592D01*
X164647348Y-118897517D01*
X164670599Y-118891693D01*
X164694309Y-118888176D01*
X164718250Y-118887000D01*
X165281750Y-118887000D01*
X165305691Y-118888176D01*
X165305691Y-118888176D01*
G37*
D18*
X165000000Y-119375500D03*
D17*
G36*
X163942691Y-106075176D02*
G01*
X163966401Y-106078693D01*
X163989652Y-106084517D01*
X164012220Y-106092592D01*
X164033889Y-106102841D01*
X164054448Y-106115164D01*
X164073701Y-106129442D01*
X164091461Y-106145539D01*
X164107558Y-106163299D01*
X164121836Y-106182552D01*
X164134159Y-106203111D01*
X164144408Y-106224780D01*
X164152483Y-106247348D01*
X164158307Y-106270599D01*
X164161824Y-106294309D01*
X164163000Y-106318250D01*
X164163000Y-106881750D01*
X164161824Y-106905691D01*
X164158307Y-106929401D01*
X164152483Y-106952652D01*
X164144408Y-106975220D01*
X164134159Y-106996889D01*
X164121836Y-107017448D01*
X164107558Y-107036701D01*
X164091461Y-107054461D01*
X164073701Y-107070558D01*
X164054448Y-107084836D01*
X164033889Y-107097159D01*
X164012220Y-107107408D01*
X163989652Y-107115483D01*
X163966401Y-107121307D01*
X163942691Y-107124824D01*
X163918750Y-107126000D01*
X163430250Y-107126000D01*
X163406309Y-107124824D01*
X163382599Y-107121307D01*
X163359348Y-107115483D01*
X163336780Y-107107408D01*
X163315111Y-107097159D01*
X163294552Y-107084836D01*
X163275299Y-107070558D01*
X163257539Y-107054461D01*
X163241442Y-107036701D01*
X163227164Y-107017448D01*
X163214841Y-106996889D01*
X163204592Y-106975220D01*
X163196517Y-106952652D01*
X163190693Y-106929401D01*
X163187176Y-106905691D01*
X163186000Y-106881750D01*
X163186000Y-106318250D01*
X163187176Y-106294309D01*
X163190693Y-106270599D01*
X163196517Y-106247348D01*
X163204592Y-106224780D01*
X163214841Y-106203111D01*
X163227164Y-106182552D01*
X163241442Y-106163299D01*
X163257539Y-106145539D01*
X163275299Y-106129442D01*
X163294552Y-106115164D01*
X163315111Y-106102841D01*
X163336780Y-106092592D01*
X163359348Y-106084517D01*
X163382599Y-106078693D01*
X163406309Y-106075176D01*
X163430250Y-106074000D01*
X163918750Y-106074000D01*
X163942691Y-106075176D01*
X163942691Y-106075176D01*
G37*
D18*
X163674500Y-106600000D03*
D17*
G36*
X165517691Y-106075176D02*
G01*
X165541401Y-106078693D01*
X165564652Y-106084517D01*
X165587220Y-106092592D01*
X165608889Y-106102841D01*
X165629448Y-106115164D01*
X165648701Y-106129442D01*
X165666461Y-106145539D01*
X165682558Y-106163299D01*
X165696836Y-106182552D01*
X165709159Y-106203111D01*
X165719408Y-106224780D01*
X165727483Y-106247348D01*
X165733307Y-106270599D01*
X165736824Y-106294309D01*
X165738000Y-106318250D01*
X165738000Y-106881750D01*
X165736824Y-106905691D01*
X165733307Y-106929401D01*
X165727483Y-106952652D01*
X165719408Y-106975220D01*
X165709159Y-106996889D01*
X165696836Y-107017448D01*
X165682558Y-107036701D01*
X165666461Y-107054461D01*
X165648701Y-107070558D01*
X165629448Y-107084836D01*
X165608889Y-107097159D01*
X165587220Y-107107408D01*
X165564652Y-107115483D01*
X165541401Y-107121307D01*
X165517691Y-107124824D01*
X165493750Y-107126000D01*
X165005250Y-107126000D01*
X164981309Y-107124824D01*
X164957599Y-107121307D01*
X164934348Y-107115483D01*
X164911780Y-107107408D01*
X164890111Y-107097159D01*
X164869552Y-107084836D01*
X164850299Y-107070558D01*
X164832539Y-107054461D01*
X164816442Y-107036701D01*
X164802164Y-107017448D01*
X164789841Y-106996889D01*
X164779592Y-106975220D01*
X164771517Y-106952652D01*
X164765693Y-106929401D01*
X164762176Y-106905691D01*
X164761000Y-106881750D01*
X164761000Y-106318250D01*
X164762176Y-106294309D01*
X164765693Y-106270599D01*
X164771517Y-106247348D01*
X164779592Y-106224780D01*
X164789841Y-106203111D01*
X164802164Y-106182552D01*
X164816442Y-106163299D01*
X164832539Y-106145539D01*
X164850299Y-106129442D01*
X164869552Y-106115164D01*
X164890111Y-106102841D01*
X164911780Y-106092592D01*
X164934348Y-106084517D01*
X164957599Y-106078693D01*
X164981309Y-106075176D01*
X165005250Y-106074000D01*
X165493750Y-106074000D01*
X165517691Y-106075176D01*
X165517691Y-106075176D01*
G37*
D18*
X165249500Y-106600000D03*
D17*
G36*
X172305691Y-118988176D02*
G01*
X172329401Y-118991693D01*
X172352652Y-118997517D01*
X172375220Y-119005592D01*
X172396889Y-119015841D01*
X172417448Y-119028164D01*
X172436701Y-119042442D01*
X172454461Y-119058539D01*
X172470558Y-119076299D01*
X172484836Y-119095552D01*
X172497159Y-119116111D01*
X172507408Y-119137780D01*
X172515483Y-119160348D01*
X172521307Y-119183599D01*
X172524824Y-119207309D01*
X172526000Y-119231250D01*
X172526000Y-119719750D01*
X172524824Y-119743691D01*
X172521307Y-119767401D01*
X172515483Y-119790652D01*
X172507408Y-119813220D01*
X172497159Y-119834889D01*
X172484836Y-119855448D01*
X172470558Y-119874701D01*
X172454461Y-119892461D01*
X172436701Y-119908558D01*
X172417448Y-119922836D01*
X172396889Y-119935159D01*
X172375220Y-119945408D01*
X172352652Y-119953483D01*
X172329401Y-119959307D01*
X172305691Y-119962824D01*
X172281750Y-119964000D01*
X171718250Y-119964000D01*
X171694309Y-119962824D01*
X171670599Y-119959307D01*
X171647348Y-119953483D01*
X171624780Y-119945408D01*
X171603111Y-119935159D01*
X171582552Y-119922836D01*
X171563299Y-119908558D01*
X171545539Y-119892461D01*
X171529442Y-119874701D01*
X171515164Y-119855448D01*
X171502841Y-119834889D01*
X171492592Y-119813220D01*
X171484517Y-119790652D01*
X171478693Y-119767401D01*
X171475176Y-119743691D01*
X171474000Y-119719750D01*
X171474000Y-119231250D01*
X171475176Y-119207309D01*
X171478693Y-119183599D01*
X171484517Y-119160348D01*
X171492592Y-119137780D01*
X171502841Y-119116111D01*
X171515164Y-119095552D01*
X171529442Y-119076299D01*
X171545539Y-119058539D01*
X171563299Y-119042442D01*
X171582552Y-119028164D01*
X171603111Y-119015841D01*
X171624780Y-119005592D01*
X171647348Y-118997517D01*
X171670599Y-118991693D01*
X171694309Y-118988176D01*
X171718250Y-118987000D01*
X172281750Y-118987000D01*
X172305691Y-118988176D01*
X172305691Y-118988176D01*
G37*
D18*
X172000000Y-119475500D03*
D17*
G36*
X172305691Y-117413176D02*
G01*
X172329401Y-117416693D01*
X172352652Y-117422517D01*
X172375220Y-117430592D01*
X172396889Y-117440841D01*
X172417448Y-117453164D01*
X172436701Y-117467442D01*
X172454461Y-117483539D01*
X172470558Y-117501299D01*
X172484836Y-117520552D01*
X172497159Y-117541111D01*
X172507408Y-117562780D01*
X172515483Y-117585348D01*
X172521307Y-117608599D01*
X172524824Y-117632309D01*
X172526000Y-117656250D01*
X172526000Y-118144750D01*
X172524824Y-118168691D01*
X172521307Y-118192401D01*
X172515483Y-118215652D01*
X172507408Y-118238220D01*
X172497159Y-118259889D01*
X172484836Y-118280448D01*
X172470558Y-118299701D01*
X172454461Y-118317461D01*
X172436701Y-118333558D01*
X172417448Y-118347836D01*
X172396889Y-118360159D01*
X172375220Y-118370408D01*
X172352652Y-118378483D01*
X172329401Y-118384307D01*
X172305691Y-118387824D01*
X172281750Y-118389000D01*
X171718250Y-118389000D01*
X171694309Y-118387824D01*
X171670599Y-118384307D01*
X171647348Y-118378483D01*
X171624780Y-118370408D01*
X171603111Y-118360159D01*
X171582552Y-118347836D01*
X171563299Y-118333558D01*
X171545539Y-118317461D01*
X171529442Y-118299701D01*
X171515164Y-118280448D01*
X171502841Y-118259889D01*
X171492592Y-118238220D01*
X171484517Y-118215652D01*
X171478693Y-118192401D01*
X171475176Y-118168691D01*
X171474000Y-118144750D01*
X171474000Y-117656250D01*
X171475176Y-117632309D01*
X171478693Y-117608599D01*
X171484517Y-117585348D01*
X171492592Y-117562780D01*
X171502841Y-117541111D01*
X171515164Y-117520552D01*
X171529442Y-117501299D01*
X171545539Y-117483539D01*
X171563299Y-117467442D01*
X171582552Y-117453164D01*
X171603111Y-117440841D01*
X171624780Y-117430592D01*
X171647348Y-117422517D01*
X171670599Y-117416693D01*
X171694309Y-117413176D01*
X171718250Y-117412000D01*
X172281750Y-117412000D01*
X172305691Y-117413176D01*
X172305691Y-117413176D01*
G37*
D18*
X172000000Y-117900500D03*
D17*
G36*
X161458141Y-104038297D02*
G01*
X161484278Y-104042174D01*
X161509909Y-104048594D01*
X161534788Y-104057495D01*
X161558674Y-104068793D01*
X161581337Y-104082377D01*
X161602560Y-104098117D01*
X161622139Y-104115861D01*
X161639883Y-104135440D01*
X161655623Y-104156663D01*
X161669207Y-104179326D01*
X161680505Y-104203212D01*
X161689406Y-104228091D01*
X161695826Y-104253722D01*
X161699703Y-104279859D01*
X161701000Y-104306250D01*
X161701000Y-104844750D01*
X161699703Y-104871141D01*
X161695826Y-104897278D01*
X161689406Y-104922909D01*
X161680505Y-104947788D01*
X161669207Y-104971674D01*
X161655623Y-104994337D01*
X161639883Y-105015560D01*
X161622139Y-105035139D01*
X161602560Y-105052883D01*
X161581337Y-105068623D01*
X161558674Y-105082207D01*
X161534788Y-105093505D01*
X161509909Y-105102406D01*
X161484278Y-105108826D01*
X161458141Y-105112703D01*
X161431750Y-105114000D01*
X160468250Y-105114000D01*
X160441859Y-105112703D01*
X160415722Y-105108826D01*
X160390091Y-105102406D01*
X160365212Y-105093505D01*
X160341326Y-105082207D01*
X160318663Y-105068623D01*
X160297440Y-105052883D01*
X160277861Y-105035139D01*
X160260117Y-105015560D01*
X160244377Y-104994337D01*
X160230793Y-104971674D01*
X160219495Y-104947788D01*
X160210594Y-104922909D01*
X160204174Y-104897278D01*
X160200297Y-104871141D01*
X160199000Y-104844750D01*
X160199000Y-104306250D01*
X160200297Y-104279859D01*
X160204174Y-104253722D01*
X160210594Y-104228091D01*
X160219495Y-104203212D01*
X160230793Y-104179326D01*
X160244377Y-104156663D01*
X160260117Y-104135440D01*
X160277861Y-104115861D01*
X160297440Y-104098117D01*
X160318663Y-104082377D01*
X160341326Y-104068793D01*
X160365212Y-104057495D01*
X160390091Y-104048594D01*
X160415722Y-104042174D01*
X160441859Y-104038297D01*
X160468250Y-104037000D01*
X161431750Y-104037000D01*
X161458141Y-104038297D01*
X161458141Y-104038297D01*
G37*
D28*
X160950000Y-104575500D03*
D17*
G36*
X161458141Y-102163297D02*
G01*
X161484278Y-102167174D01*
X161509909Y-102173594D01*
X161534788Y-102182495D01*
X161558674Y-102193793D01*
X161581337Y-102207377D01*
X161602560Y-102223117D01*
X161622139Y-102240861D01*
X161639883Y-102260440D01*
X161655623Y-102281663D01*
X161669207Y-102304326D01*
X161680505Y-102328212D01*
X161689406Y-102353091D01*
X161695826Y-102378722D01*
X161699703Y-102404859D01*
X161701000Y-102431250D01*
X161701000Y-102969750D01*
X161699703Y-102996141D01*
X161695826Y-103022278D01*
X161689406Y-103047909D01*
X161680505Y-103072788D01*
X161669207Y-103096674D01*
X161655623Y-103119337D01*
X161639883Y-103140560D01*
X161622139Y-103160139D01*
X161602560Y-103177883D01*
X161581337Y-103193623D01*
X161558674Y-103207207D01*
X161534788Y-103218505D01*
X161509909Y-103227406D01*
X161484278Y-103233826D01*
X161458141Y-103237703D01*
X161431750Y-103239000D01*
X160468250Y-103239000D01*
X160441859Y-103237703D01*
X160415722Y-103233826D01*
X160390091Y-103227406D01*
X160365212Y-103218505D01*
X160341326Y-103207207D01*
X160318663Y-103193623D01*
X160297440Y-103177883D01*
X160277861Y-103160139D01*
X160260117Y-103140560D01*
X160244377Y-103119337D01*
X160230793Y-103096674D01*
X160219495Y-103072788D01*
X160210594Y-103047909D01*
X160204174Y-103022278D01*
X160200297Y-102996141D01*
X160199000Y-102969750D01*
X160199000Y-102431250D01*
X160200297Y-102404859D01*
X160204174Y-102378722D01*
X160210594Y-102353091D01*
X160219495Y-102328212D01*
X160230793Y-102304326D01*
X160244377Y-102281663D01*
X160260117Y-102260440D01*
X160277861Y-102240861D01*
X160297440Y-102223117D01*
X160318663Y-102207377D01*
X160341326Y-102193793D01*
X160365212Y-102182495D01*
X160390091Y-102173594D01*
X160415722Y-102167174D01*
X160441859Y-102163297D01*
X160468250Y-102162000D01*
X161431750Y-102162000D01*
X161458141Y-102163297D01*
X161458141Y-102163297D01*
G37*
D28*
X160950000Y-102700500D03*
M02*
