G04 #@! TF.GenerationSoftware,KiCad,Pcbnew,(5.1.2)-1*
G04 #@! TF.CreationDate,2023-10-09T01:29:42+09:00*
G04 #@! TF.ProjectId,usc,7573632e-6b69-4636-9164-5f7063625858,v1.4*
G04 #@! TF.SameCoordinates,Original*
G04 #@! TF.FileFunction,Soldermask,Bot*
G04 #@! TF.FilePolarity,Negative*
%FSLAX46Y46*%
G04 Gerber Fmt 4.6, Leading zero omitted, Abs format (unit mm)*
G04 Created by KiCad (PCBNEW (5.1.2)-1) date 2023-10-09 01:29:42*
%MOMM*%
%LPD*%
G04 APERTURE LIST*
%ADD10C,0.100000*%
G04 APERTURE END LIST*
D10*
G36*
X174580442Y-122755518D02*
G01*
X174646627Y-122762037D01*
X174816466Y-122813557D01*
X174972991Y-122897222D01*
X175008729Y-122926552D01*
X175110186Y-123009814D01*
X175193448Y-123111271D01*
X175222778Y-123147009D01*
X175306443Y-123303534D01*
X175357963Y-123473373D01*
X175375359Y-123650000D01*
X175357963Y-123826627D01*
X175306443Y-123996466D01*
X175222778Y-124152991D01*
X175193448Y-124188729D01*
X175110186Y-124290186D01*
X175008729Y-124373448D01*
X174972991Y-124402778D01*
X174816466Y-124486443D01*
X174646627Y-124537963D01*
X174580443Y-124544481D01*
X174514260Y-124551000D01*
X174425740Y-124551000D01*
X174359557Y-124544481D01*
X174293373Y-124537963D01*
X174123534Y-124486443D01*
X173967009Y-124402778D01*
X173931271Y-124373448D01*
X173829814Y-124290186D01*
X173746552Y-124188729D01*
X173717222Y-124152991D01*
X173633557Y-123996466D01*
X173582037Y-123826627D01*
X173564641Y-123650000D01*
X173582037Y-123473373D01*
X173633557Y-123303534D01*
X173717222Y-123147009D01*
X173746552Y-123111271D01*
X173829814Y-123009814D01*
X173931271Y-122926552D01*
X173967009Y-122897222D01*
X174123534Y-122813557D01*
X174293373Y-122762037D01*
X174359558Y-122755518D01*
X174425740Y-122749000D01*
X174514260Y-122749000D01*
X174580442Y-122755518D01*
X174580442Y-122755518D01*
G37*
G36*
X172040442Y-122755518D02*
G01*
X172106627Y-122762037D01*
X172276466Y-122813557D01*
X172432991Y-122897222D01*
X172468729Y-122926552D01*
X172570186Y-123009814D01*
X172653448Y-123111271D01*
X172682778Y-123147009D01*
X172766443Y-123303534D01*
X172817963Y-123473373D01*
X172835359Y-123650000D01*
X172817963Y-123826627D01*
X172766443Y-123996466D01*
X172682778Y-124152991D01*
X172653448Y-124188729D01*
X172570186Y-124290186D01*
X172468729Y-124373448D01*
X172432991Y-124402778D01*
X172276466Y-124486443D01*
X172106627Y-124537963D01*
X172040443Y-124544481D01*
X171974260Y-124551000D01*
X171885740Y-124551000D01*
X171819557Y-124544481D01*
X171753373Y-124537963D01*
X171583534Y-124486443D01*
X171427009Y-124402778D01*
X171391271Y-124373448D01*
X171289814Y-124290186D01*
X171206552Y-124188729D01*
X171177222Y-124152991D01*
X171093557Y-123996466D01*
X171042037Y-123826627D01*
X171024641Y-123650000D01*
X171042037Y-123473373D01*
X171093557Y-123303534D01*
X171177222Y-123147009D01*
X171206552Y-123111271D01*
X171289814Y-123009814D01*
X171391271Y-122926552D01*
X171427009Y-122897222D01*
X171583534Y-122813557D01*
X171753373Y-122762037D01*
X171819558Y-122755518D01*
X171885740Y-122749000D01*
X171974260Y-122749000D01*
X172040442Y-122755518D01*
X172040442Y-122755518D01*
G37*
G36*
X162671000Y-124551000D02*
G01*
X160869000Y-124551000D01*
X160869000Y-122749000D01*
X162671000Y-122749000D01*
X162671000Y-124551000D01*
X162671000Y-124551000D01*
G37*
G36*
X164420442Y-122755518D02*
G01*
X164486627Y-122762037D01*
X164656466Y-122813557D01*
X164812991Y-122897222D01*
X164848729Y-122926552D01*
X164950186Y-123009814D01*
X165033448Y-123111271D01*
X165062778Y-123147009D01*
X165146443Y-123303534D01*
X165197963Y-123473373D01*
X165215359Y-123650000D01*
X165197963Y-123826627D01*
X165146443Y-123996466D01*
X165062778Y-124152991D01*
X165033448Y-124188729D01*
X164950186Y-124290186D01*
X164848729Y-124373448D01*
X164812991Y-124402778D01*
X164656466Y-124486443D01*
X164486627Y-124537963D01*
X164420443Y-124544481D01*
X164354260Y-124551000D01*
X164265740Y-124551000D01*
X164199557Y-124544481D01*
X164133373Y-124537963D01*
X163963534Y-124486443D01*
X163807009Y-124402778D01*
X163771271Y-124373448D01*
X163669814Y-124290186D01*
X163586552Y-124188729D01*
X163557222Y-124152991D01*
X163473557Y-123996466D01*
X163422037Y-123826627D01*
X163404641Y-123650000D01*
X163422037Y-123473373D01*
X163473557Y-123303534D01*
X163557222Y-123147009D01*
X163586552Y-123111271D01*
X163669814Y-123009814D01*
X163771271Y-122926552D01*
X163807009Y-122897222D01*
X163963534Y-122813557D01*
X164133373Y-122762037D01*
X164199558Y-122755518D01*
X164265740Y-122749000D01*
X164354260Y-122749000D01*
X164420442Y-122755518D01*
X164420442Y-122755518D01*
G37*
G36*
X166960442Y-122755518D02*
G01*
X167026627Y-122762037D01*
X167196466Y-122813557D01*
X167352991Y-122897222D01*
X167388729Y-122926552D01*
X167490186Y-123009814D01*
X167573448Y-123111271D01*
X167602778Y-123147009D01*
X167686443Y-123303534D01*
X167737963Y-123473373D01*
X167755359Y-123650000D01*
X167737963Y-123826627D01*
X167686443Y-123996466D01*
X167602778Y-124152991D01*
X167573448Y-124188729D01*
X167490186Y-124290186D01*
X167388729Y-124373448D01*
X167352991Y-124402778D01*
X167196466Y-124486443D01*
X167026627Y-124537963D01*
X166960443Y-124544481D01*
X166894260Y-124551000D01*
X166805740Y-124551000D01*
X166739557Y-124544481D01*
X166673373Y-124537963D01*
X166503534Y-124486443D01*
X166347009Y-124402778D01*
X166311271Y-124373448D01*
X166209814Y-124290186D01*
X166126552Y-124188729D01*
X166097222Y-124152991D01*
X166013557Y-123996466D01*
X165962037Y-123826627D01*
X165944641Y-123650000D01*
X165962037Y-123473373D01*
X166013557Y-123303534D01*
X166097222Y-123147009D01*
X166126552Y-123111271D01*
X166209814Y-123009814D01*
X166311271Y-122926552D01*
X166347009Y-122897222D01*
X166503534Y-122813557D01*
X166673373Y-122762037D01*
X166739558Y-122755518D01*
X166805740Y-122749000D01*
X166894260Y-122749000D01*
X166960442Y-122755518D01*
X166960442Y-122755518D01*
G37*
G36*
X169500442Y-122755518D02*
G01*
X169566627Y-122762037D01*
X169736466Y-122813557D01*
X169892991Y-122897222D01*
X169928729Y-122926552D01*
X170030186Y-123009814D01*
X170113448Y-123111271D01*
X170142778Y-123147009D01*
X170226443Y-123303534D01*
X170277963Y-123473373D01*
X170295359Y-123650000D01*
X170277963Y-123826627D01*
X170226443Y-123996466D01*
X170142778Y-124152991D01*
X170113448Y-124188729D01*
X170030186Y-124290186D01*
X169928729Y-124373448D01*
X169892991Y-124402778D01*
X169736466Y-124486443D01*
X169566627Y-124537963D01*
X169500443Y-124544481D01*
X169434260Y-124551000D01*
X169345740Y-124551000D01*
X169279557Y-124544481D01*
X169213373Y-124537963D01*
X169043534Y-124486443D01*
X168887009Y-124402778D01*
X168851271Y-124373448D01*
X168749814Y-124290186D01*
X168666552Y-124188729D01*
X168637222Y-124152991D01*
X168553557Y-123996466D01*
X168502037Y-123826627D01*
X168484641Y-123650000D01*
X168502037Y-123473373D01*
X168553557Y-123303534D01*
X168637222Y-123147009D01*
X168666552Y-123111271D01*
X168749814Y-123009814D01*
X168851271Y-122926552D01*
X168887009Y-122897222D01*
X169043534Y-122813557D01*
X169213373Y-122762037D01*
X169279558Y-122755518D01*
X169345740Y-122749000D01*
X169434260Y-122749000D01*
X169500442Y-122755518D01*
X169500442Y-122755518D01*
G37*
G36*
X153375256Y-120391298D02*
G01*
X153481579Y-120412447D01*
X153782042Y-120536903D01*
X154052451Y-120717585D01*
X154282415Y-120947549D01*
X154282416Y-120947551D01*
X154463098Y-121217960D01*
X154587553Y-121518422D01*
X154651000Y-121837389D01*
X154651000Y-122162611D01*
X154587553Y-122481578D01*
X154476784Y-122749000D01*
X154463097Y-122782042D01*
X154282415Y-123052451D01*
X154052451Y-123282415D01*
X153782042Y-123463097D01*
X153481579Y-123587553D01*
X153375256Y-123608702D01*
X153162611Y-123651000D01*
X152837389Y-123651000D01*
X152624744Y-123608702D01*
X152518421Y-123587553D01*
X152217958Y-123463097D01*
X151947549Y-123282415D01*
X151717585Y-123052451D01*
X151536903Y-122782042D01*
X151523217Y-122749000D01*
X151412447Y-122481578D01*
X151349000Y-122162611D01*
X151349000Y-121837389D01*
X151412447Y-121518422D01*
X151536902Y-121217960D01*
X151717584Y-120947551D01*
X151717585Y-120947549D01*
X151947549Y-120717585D01*
X152217958Y-120536903D01*
X152518421Y-120412447D01*
X152624744Y-120391298D01*
X152837389Y-120349000D01*
X153162611Y-120349000D01*
X153375256Y-120391298D01*
X153375256Y-120391298D01*
G37*
G36*
X190110442Y-118485518D02*
G01*
X190176627Y-118492037D01*
X190346466Y-118543557D01*
X190502991Y-118627222D01*
X190538729Y-118656552D01*
X190640186Y-118739814D01*
X190723448Y-118841271D01*
X190752778Y-118877009D01*
X190836443Y-119033534D01*
X190887963Y-119203373D01*
X190905359Y-119380000D01*
X190887963Y-119556627D01*
X190836443Y-119726466D01*
X190752778Y-119882991D01*
X190723448Y-119918729D01*
X190640186Y-120020186D01*
X190538729Y-120103448D01*
X190502991Y-120132778D01*
X190346466Y-120216443D01*
X190176627Y-120267963D01*
X190110442Y-120274482D01*
X190044260Y-120281000D01*
X189955740Y-120281000D01*
X189889558Y-120274482D01*
X189823373Y-120267963D01*
X189653534Y-120216443D01*
X189497009Y-120132778D01*
X189461271Y-120103448D01*
X189359814Y-120020186D01*
X189276552Y-119918729D01*
X189247222Y-119882991D01*
X189163557Y-119726466D01*
X189112037Y-119556627D01*
X189094641Y-119380000D01*
X189112037Y-119203373D01*
X189163557Y-119033534D01*
X189247222Y-118877009D01*
X189276552Y-118841271D01*
X189359814Y-118739814D01*
X189461271Y-118656552D01*
X189497009Y-118627222D01*
X189653534Y-118543557D01*
X189823373Y-118492037D01*
X189889558Y-118485518D01*
X189955740Y-118479000D01*
X190044260Y-118479000D01*
X190110442Y-118485518D01*
X190110442Y-118485518D01*
G37*
G36*
X192650442Y-118485518D02*
G01*
X192716627Y-118492037D01*
X192886466Y-118543557D01*
X193042991Y-118627222D01*
X193078729Y-118656552D01*
X193180186Y-118739814D01*
X193263448Y-118841271D01*
X193292778Y-118877009D01*
X193376443Y-119033534D01*
X193427963Y-119203373D01*
X193445359Y-119380000D01*
X193427963Y-119556627D01*
X193376443Y-119726466D01*
X193292778Y-119882991D01*
X193263448Y-119918729D01*
X193180186Y-120020186D01*
X193078729Y-120103448D01*
X193042991Y-120132778D01*
X192886466Y-120216443D01*
X192716627Y-120267963D01*
X192650442Y-120274482D01*
X192584260Y-120281000D01*
X192495740Y-120281000D01*
X192429558Y-120274482D01*
X192363373Y-120267963D01*
X192193534Y-120216443D01*
X192037009Y-120132778D01*
X192001271Y-120103448D01*
X191899814Y-120020186D01*
X191816552Y-119918729D01*
X191787222Y-119882991D01*
X191703557Y-119726466D01*
X191652037Y-119556627D01*
X191634641Y-119380000D01*
X191652037Y-119203373D01*
X191703557Y-119033534D01*
X191787222Y-118877009D01*
X191816552Y-118841271D01*
X191899814Y-118739814D01*
X192001271Y-118656552D01*
X192037009Y-118627222D01*
X192193534Y-118543557D01*
X192363373Y-118492037D01*
X192429558Y-118485518D01*
X192495740Y-118479000D01*
X192584260Y-118479000D01*
X192650442Y-118485518D01*
X192650442Y-118485518D01*
G37*
G36*
X192650442Y-115945518D02*
G01*
X192716627Y-115952037D01*
X192886466Y-116003557D01*
X193042991Y-116087222D01*
X193078729Y-116116552D01*
X193180186Y-116199814D01*
X193258364Y-116295076D01*
X193292778Y-116337009D01*
X193376443Y-116493534D01*
X193427963Y-116663373D01*
X193445359Y-116840000D01*
X193427963Y-117016627D01*
X193376443Y-117186466D01*
X193292778Y-117342991D01*
X193269791Y-117371000D01*
X193180186Y-117480186D01*
X193078729Y-117563448D01*
X193042991Y-117592778D01*
X192886466Y-117676443D01*
X192716627Y-117727963D01*
X192650442Y-117734482D01*
X192584260Y-117741000D01*
X192495740Y-117741000D01*
X192429558Y-117734482D01*
X192363373Y-117727963D01*
X192193534Y-117676443D01*
X192037009Y-117592778D01*
X192001271Y-117563448D01*
X191899814Y-117480186D01*
X191810209Y-117371000D01*
X191787222Y-117342991D01*
X191703557Y-117186466D01*
X191652037Y-117016627D01*
X191634641Y-116840000D01*
X191652037Y-116663373D01*
X191703557Y-116493534D01*
X191787222Y-116337009D01*
X191821636Y-116295076D01*
X191899814Y-116199814D01*
X192001271Y-116116552D01*
X192037009Y-116087222D01*
X192193534Y-116003557D01*
X192363373Y-115952037D01*
X192429558Y-115945518D01*
X192495740Y-115939000D01*
X192584260Y-115939000D01*
X192650442Y-115945518D01*
X192650442Y-115945518D01*
G37*
G36*
X190110442Y-115945518D02*
G01*
X190176627Y-115952037D01*
X190346466Y-116003557D01*
X190502991Y-116087222D01*
X190538729Y-116116552D01*
X190640186Y-116199814D01*
X190718364Y-116295076D01*
X190752778Y-116337009D01*
X190836443Y-116493534D01*
X190887963Y-116663373D01*
X190905359Y-116840000D01*
X190887963Y-117016627D01*
X190836443Y-117186466D01*
X190752778Y-117342991D01*
X190729791Y-117371000D01*
X190640186Y-117480186D01*
X190538729Y-117563448D01*
X190502991Y-117592778D01*
X190346466Y-117676443D01*
X190176627Y-117727963D01*
X190110442Y-117734482D01*
X190044260Y-117741000D01*
X189955740Y-117741000D01*
X189889558Y-117734482D01*
X189823373Y-117727963D01*
X189653534Y-117676443D01*
X189497009Y-117592778D01*
X189461271Y-117563448D01*
X189359814Y-117480186D01*
X189270209Y-117371000D01*
X189247222Y-117342991D01*
X189163557Y-117186466D01*
X189112037Y-117016627D01*
X189094641Y-116840000D01*
X189112037Y-116663373D01*
X189163557Y-116493534D01*
X189247222Y-116337009D01*
X189281636Y-116295076D01*
X189359814Y-116199814D01*
X189461271Y-116116552D01*
X189497009Y-116087222D01*
X189653534Y-116003557D01*
X189823373Y-115952037D01*
X189889558Y-115945518D01*
X189955740Y-115939000D01*
X190044260Y-115939000D01*
X190110442Y-115945518D01*
X190110442Y-115945518D01*
G37*
G36*
X157438015Y-116276973D02*
G01*
X157541879Y-116308479D01*
X157569055Y-116323005D01*
X157637600Y-116359643D01*
X157721501Y-116428499D01*
X157790357Y-116512400D01*
X157826995Y-116580945D01*
X157841521Y-116608121D01*
X157873027Y-116711985D01*
X157883666Y-116820000D01*
X157873027Y-116928015D01*
X157841521Y-117031879D01*
X157841519Y-117031882D01*
X157790357Y-117127600D01*
X157721501Y-117211501D01*
X157637600Y-117280357D01*
X157569055Y-117316995D01*
X157541879Y-117331521D01*
X157438015Y-117363027D01*
X157357067Y-117371000D01*
X156202933Y-117371000D01*
X156121985Y-117363027D01*
X156018121Y-117331521D01*
X155990945Y-117316995D01*
X155922400Y-117280357D01*
X155838499Y-117211501D01*
X155769643Y-117127600D01*
X155718481Y-117031882D01*
X155718479Y-117031879D01*
X155686973Y-116928015D01*
X155676334Y-116820000D01*
X155686973Y-116711985D01*
X155718479Y-116608121D01*
X155733005Y-116580945D01*
X155769643Y-116512400D01*
X155838499Y-116428499D01*
X155922400Y-116359643D01*
X155990945Y-116323005D01*
X156018121Y-116308479D01*
X156121985Y-116276973D01*
X156202933Y-116269000D01*
X157357067Y-116269000D01*
X157438015Y-116276973D01*
X157438015Y-116276973D01*
G37*
G36*
X153008015Y-116276973D02*
G01*
X153111879Y-116308479D01*
X153139055Y-116323005D01*
X153207600Y-116359643D01*
X153291501Y-116428499D01*
X153360357Y-116512400D01*
X153396995Y-116580945D01*
X153411521Y-116608121D01*
X153443027Y-116711985D01*
X153453666Y-116820000D01*
X153443027Y-116928015D01*
X153411521Y-117031879D01*
X153411519Y-117031882D01*
X153360357Y-117127600D01*
X153291501Y-117211501D01*
X153207600Y-117280357D01*
X153139055Y-117316995D01*
X153111879Y-117331521D01*
X153008015Y-117363027D01*
X152927067Y-117371000D01*
X152272933Y-117371000D01*
X152191985Y-117363027D01*
X152088121Y-117331521D01*
X152060945Y-117316995D01*
X151992400Y-117280357D01*
X151908499Y-117211501D01*
X151839643Y-117127600D01*
X151788481Y-117031882D01*
X151788479Y-117031879D01*
X151756973Y-116928015D01*
X151746334Y-116820000D01*
X151756973Y-116711985D01*
X151788479Y-116608121D01*
X151803005Y-116580945D01*
X151839643Y-116512400D01*
X151908499Y-116428499D01*
X151992400Y-116359643D01*
X152060945Y-116323005D01*
X152088121Y-116308479D01*
X152191985Y-116276973D01*
X152272933Y-116269000D01*
X152927067Y-116269000D01*
X153008015Y-116276973D01*
X153008015Y-116276973D01*
G37*
G36*
X185686823Y-114981313D02*
G01*
X185817380Y-115020917D01*
X185842212Y-115028450D01*
X185847242Y-115029976D01*
X185974397Y-115097942D01*
X185995078Y-115108996D01*
X186124659Y-115215341D01*
X186231004Y-115344922D01*
X186231005Y-115344924D01*
X186310024Y-115492758D01*
X186358687Y-115653177D01*
X186375117Y-115820000D01*
X186358687Y-115986823D01*
X186310024Y-116147242D01*
X186281923Y-116199815D01*
X186231004Y-116295078D01*
X186124659Y-116424659D01*
X185995078Y-116531004D01*
X185995076Y-116531005D01*
X185847242Y-116610024D01*
X185686823Y-116658687D01*
X185561804Y-116671000D01*
X185478196Y-116671000D01*
X185353177Y-116658687D01*
X185192758Y-116610024D01*
X185044924Y-116531005D01*
X185044922Y-116531004D01*
X184915341Y-116424659D01*
X184808996Y-116295078D01*
X184758077Y-116199815D01*
X184729976Y-116147242D01*
X184681313Y-115986823D01*
X184664883Y-115820000D01*
X184681313Y-115653177D01*
X184729976Y-115492758D01*
X184808995Y-115344924D01*
X184808996Y-115344922D01*
X184915341Y-115215341D01*
X185044922Y-115108996D01*
X185065603Y-115097942D01*
X185192758Y-115029976D01*
X185197789Y-115028450D01*
X185222620Y-115020917D01*
X185353177Y-114981313D01*
X185478196Y-114969000D01*
X185561804Y-114969000D01*
X185686823Y-114981313D01*
X185686823Y-114981313D01*
G37*
G36*
X178066823Y-114981313D02*
G01*
X178197380Y-115020917D01*
X178222212Y-115028450D01*
X178227242Y-115029976D01*
X178354397Y-115097942D01*
X178375078Y-115108996D01*
X178504659Y-115215341D01*
X178611004Y-115344922D01*
X178611005Y-115344924D01*
X178690024Y-115492758D01*
X178738687Y-115653177D01*
X178755117Y-115820000D01*
X178738687Y-115986823D01*
X178690024Y-116147242D01*
X178661923Y-116199815D01*
X178611004Y-116295078D01*
X178504659Y-116424659D01*
X178375078Y-116531004D01*
X178375076Y-116531005D01*
X178227242Y-116610024D01*
X178066823Y-116658687D01*
X177941804Y-116671000D01*
X177858196Y-116671000D01*
X177733177Y-116658687D01*
X177572758Y-116610024D01*
X177424924Y-116531005D01*
X177424922Y-116531004D01*
X177295341Y-116424659D01*
X177188996Y-116295078D01*
X177138077Y-116199815D01*
X177109976Y-116147242D01*
X177061313Y-115986823D01*
X177044883Y-115820000D01*
X177061313Y-115653177D01*
X177109976Y-115492758D01*
X177188995Y-115344924D01*
X177188996Y-115344922D01*
X177295341Y-115215341D01*
X177424922Y-115108996D01*
X177445603Y-115097942D01*
X177572758Y-115029976D01*
X177577789Y-115028450D01*
X177602620Y-115020917D01*
X177733177Y-114981313D01*
X177858196Y-114969000D01*
X177941804Y-114969000D01*
X178066823Y-114981313D01*
X178066823Y-114981313D01*
G37*
G36*
X156359672Y-115028449D02*
G01*
X156359674Y-115028450D01*
X156359675Y-115028450D01*
X156428103Y-115056793D01*
X156489686Y-115097942D01*
X156542058Y-115150314D01*
X156583207Y-115211897D01*
X156611550Y-115280325D01*
X156611551Y-115280328D01*
X156626000Y-115352966D01*
X156626000Y-115427034D01*
X156612926Y-115492761D01*
X156611550Y-115499675D01*
X156583207Y-115568103D01*
X156542058Y-115629686D01*
X156489686Y-115682058D01*
X156428103Y-115723207D01*
X156359675Y-115751550D01*
X156359674Y-115751550D01*
X156359672Y-115751551D01*
X156287034Y-115766000D01*
X156212966Y-115766000D01*
X156140328Y-115751551D01*
X156140326Y-115751550D01*
X156140325Y-115751550D01*
X156071897Y-115723207D01*
X156010314Y-115682058D01*
X155957942Y-115629686D01*
X155916793Y-115568103D01*
X155888450Y-115499675D01*
X155887075Y-115492761D01*
X155874000Y-115427034D01*
X155874000Y-115352966D01*
X155888449Y-115280328D01*
X155888450Y-115280325D01*
X155916793Y-115211897D01*
X155957942Y-115150314D01*
X156010314Y-115097942D01*
X156071897Y-115056793D01*
X156140325Y-115028450D01*
X156140326Y-115028450D01*
X156140328Y-115028449D01*
X156212966Y-115014000D01*
X156287034Y-115014000D01*
X156359672Y-115028449D01*
X156359672Y-115028449D01*
G37*
G36*
X192650443Y-113405519D02*
G01*
X192716627Y-113412037D01*
X192886466Y-113463557D01*
X193042991Y-113547222D01*
X193078729Y-113576552D01*
X193180186Y-113659814D01*
X193258364Y-113755076D01*
X193292778Y-113797009D01*
X193376443Y-113953534D01*
X193427963Y-114123373D01*
X193445359Y-114300000D01*
X193427963Y-114476627D01*
X193376443Y-114646466D01*
X193292778Y-114802991D01*
X193263448Y-114838729D01*
X193180186Y-114940186D01*
X193090242Y-115014000D01*
X193042991Y-115052778D01*
X192886466Y-115136443D01*
X192716627Y-115187963D01*
X192650442Y-115194482D01*
X192584260Y-115201000D01*
X192495740Y-115201000D01*
X192429558Y-115194482D01*
X192363373Y-115187963D01*
X192193534Y-115136443D01*
X192037009Y-115052778D01*
X191989758Y-115014000D01*
X191899814Y-114940186D01*
X191816552Y-114838729D01*
X191787222Y-114802991D01*
X191703557Y-114646466D01*
X191652037Y-114476627D01*
X191634641Y-114300000D01*
X191652037Y-114123373D01*
X191703557Y-113953534D01*
X191787222Y-113797009D01*
X191821636Y-113755076D01*
X191899814Y-113659814D01*
X192001271Y-113576552D01*
X192037009Y-113547222D01*
X192193534Y-113463557D01*
X192363373Y-113412037D01*
X192429557Y-113405519D01*
X192495740Y-113399000D01*
X192584260Y-113399000D01*
X192650443Y-113405519D01*
X192650443Y-113405519D01*
G37*
G36*
X190110443Y-113405519D02*
G01*
X190176627Y-113412037D01*
X190346466Y-113463557D01*
X190502991Y-113547222D01*
X190538729Y-113576552D01*
X190640186Y-113659814D01*
X190718364Y-113755076D01*
X190752778Y-113797009D01*
X190836443Y-113953534D01*
X190887963Y-114123373D01*
X190905359Y-114300000D01*
X190887963Y-114476627D01*
X190836443Y-114646466D01*
X190752778Y-114802991D01*
X190723448Y-114838729D01*
X190640186Y-114940186D01*
X190550242Y-115014000D01*
X190502991Y-115052778D01*
X190346466Y-115136443D01*
X190176627Y-115187963D01*
X190110442Y-115194482D01*
X190044260Y-115201000D01*
X189955740Y-115201000D01*
X189889558Y-115194482D01*
X189823373Y-115187963D01*
X189653534Y-115136443D01*
X189497009Y-115052778D01*
X189449758Y-115014000D01*
X189359814Y-114940186D01*
X189276552Y-114838729D01*
X189247222Y-114802991D01*
X189163557Y-114646466D01*
X189112037Y-114476627D01*
X189094641Y-114300000D01*
X189112037Y-114123373D01*
X189163557Y-113953534D01*
X189247222Y-113797009D01*
X189281636Y-113755076D01*
X189359814Y-113659814D01*
X189461271Y-113576552D01*
X189497009Y-113547222D01*
X189653534Y-113463557D01*
X189823373Y-113412037D01*
X189889557Y-113405519D01*
X189955740Y-113399000D01*
X190044260Y-113399000D01*
X190110443Y-113405519D01*
X190110443Y-113405519D01*
G37*
G36*
X178066823Y-112441313D02*
G01*
X178227242Y-112489976D01*
X178269901Y-112512778D01*
X178375078Y-112568996D01*
X178504659Y-112675341D01*
X178611004Y-112804922D01*
X178611005Y-112804924D01*
X178690024Y-112952758D01*
X178738687Y-113113177D01*
X178755117Y-113280000D01*
X178738687Y-113446823D01*
X178690024Y-113607242D01*
X178661923Y-113659815D01*
X178611004Y-113755078D01*
X178504659Y-113884659D01*
X178375078Y-113991004D01*
X178375076Y-113991005D01*
X178227242Y-114070024D01*
X178066823Y-114118687D01*
X177941804Y-114131000D01*
X177858196Y-114131000D01*
X177733177Y-114118687D01*
X177572758Y-114070024D01*
X177424924Y-113991005D01*
X177424922Y-113991004D01*
X177295341Y-113884659D01*
X177188996Y-113755078D01*
X177138077Y-113659815D01*
X177109976Y-113607242D01*
X177061313Y-113446823D01*
X177044883Y-113280000D01*
X177061313Y-113113177D01*
X177109976Y-112952758D01*
X177188995Y-112804924D01*
X177188996Y-112804922D01*
X177295341Y-112675341D01*
X177424922Y-112568996D01*
X177530099Y-112512778D01*
X177572758Y-112489976D01*
X177733177Y-112441313D01*
X177858196Y-112429000D01*
X177941804Y-112429000D01*
X178066823Y-112441313D01*
X178066823Y-112441313D01*
G37*
G36*
X185686823Y-112441313D02*
G01*
X185847242Y-112489976D01*
X185889901Y-112512778D01*
X185995078Y-112568996D01*
X186124659Y-112675341D01*
X186231004Y-112804922D01*
X186231005Y-112804924D01*
X186310024Y-112952758D01*
X186358687Y-113113177D01*
X186375117Y-113280000D01*
X186358687Y-113446823D01*
X186310024Y-113607242D01*
X186281923Y-113659815D01*
X186231004Y-113755078D01*
X186124659Y-113884659D01*
X185995078Y-113991004D01*
X185995076Y-113991005D01*
X185847242Y-114070024D01*
X185686823Y-114118687D01*
X185561804Y-114131000D01*
X185478196Y-114131000D01*
X185353177Y-114118687D01*
X185192758Y-114070024D01*
X185044924Y-113991005D01*
X185044922Y-113991004D01*
X184915341Y-113884659D01*
X184808996Y-113755078D01*
X184758077Y-113659815D01*
X184729976Y-113607242D01*
X184681313Y-113446823D01*
X184664883Y-113280000D01*
X184681313Y-113113177D01*
X184729976Y-112952758D01*
X184808995Y-112804924D01*
X184808996Y-112804922D01*
X184915341Y-112675341D01*
X185044922Y-112568996D01*
X185150099Y-112512778D01*
X185192758Y-112489976D01*
X185353177Y-112441313D01*
X185478196Y-112429000D01*
X185561804Y-112429000D01*
X185686823Y-112441313D01*
X185686823Y-112441313D01*
G37*
G36*
X190110442Y-110865518D02*
G01*
X190176627Y-110872037D01*
X190346466Y-110923557D01*
X190502991Y-111007222D01*
X190538729Y-111036552D01*
X190640186Y-111119814D01*
X190718364Y-111215076D01*
X190752778Y-111257009D01*
X190836443Y-111413534D01*
X190887963Y-111583373D01*
X190905359Y-111760000D01*
X190887963Y-111936627D01*
X190836443Y-112106466D01*
X190752778Y-112262991D01*
X190723448Y-112298729D01*
X190640186Y-112400186D01*
X190538729Y-112483448D01*
X190502991Y-112512778D01*
X190346466Y-112596443D01*
X190176627Y-112647963D01*
X190110442Y-112654482D01*
X190044260Y-112661000D01*
X189955740Y-112661000D01*
X189889558Y-112654482D01*
X189823373Y-112647963D01*
X189653534Y-112596443D01*
X189497009Y-112512778D01*
X189461271Y-112483448D01*
X189359814Y-112400186D01*
X189276552Y-112298729D01*
X189247222Y-112262991D01*
X189163557Y-112106466D01*
X189112037Y-111936627D01*
X189094641Y-111760000D01*
X189112037Y-111583373D01*
X189163557Y-111413534D01*
X189247222Y-111257009D01*
X189281636Y-111215076D01*
X189359814Y-111119814D01*
X189461271Y-111036552D01*
X189497009Y-111007222D01*
X189653534Y-110923557D01*
X189823373Y-110872037D01*
X189889558Y-110865518D01*
X189955740Y-110859000D01*
X190044260Y-110859000D01*
X190110442Y-110865518D01*
X190110442Y-110865518D01*
G37*
G36*
X192650442Y-110865518D02*
G01*
X192716627Y-110872037D01*
X192886466Y-110923557D01*
X193042991Y-111007222D01*
X193078729Y-111036552D01*
X193180186Y-111119814D01*
X193258364Y-111215076D01*
X193292778Y-111257009D01*
X193376443Y-111413534D01*
X193427963Y-111583373D01*
X193445359Y-111760000D01*
X193427963Y-111936627D01*
X193376443Y-112106466D01*
X193292778Y-112262991D01*
X193263448Y-112298729D01*
X193180186Y-112400186D01*
X193078729Y-112483448D01*
X193042991Y-112512778D01*
X192886466Y-112596443D01*
X192716627Y-112647963D01*
X192650442Y-112654482D01*
X192584260Y-112661000D01*
X192495740Y-112661000D01*
X192429558Y-112654482D01*
X192363373Y-112647963D01*
X192193534Y-112596443D01*
X192037009Y-112512778D01*
X192001271Y-112483448D01*
X191899814Y-112400186D01*
X191816552Y-112298729D01*
X191787222Y-112262991D01*
X191703557Y-112106466D01*
X191652037Y-111936627D01*
X191634641Y-111760000D01*
X191652037Y-111583373D01*
X191703557Y-111413534D01*
X191787222Y-111257009D01*
X191821636Y-111215076D01*
X191899814Y-111119814D01*
X192001271Y-111036552D01*
X192037009Y-111007222D01*
X192193534Y-110923557D01*
X192363373Y-110872037D01*
X192429558Y-110865518D01*
X192495740Y-110859000D01*
X192584260Y-110859000D01*
X192650442Y-110865518D01*
X192650442Y-110865518D01*
G37*
G36*
X178066823Y-109901313D02*
G01*
X178197380Y-109940917D01*
X178204925Y-109943206D01*
X178227242Y-109949976D01*
X178269901Y-109972778D01*
X178375078Y-110028996D01*
X178504659Y-110135341D01*
X178611004Y-110264922D01*
X178611005Y-110264924D01*
X178690024Y-110412758D01*
X178738687Y-110573177D01*
X178755117Y-110740000D01*
X178738687Y-110906823D01*
X178690024Y-111067242D01*
X178661923Y-111119815D01*
X178611004Y-111215078D01*
X178504659Y-111344659D01*
X178375078Y-111451004D01*
X178375076Y-111451005D01*
X178227242Y-111530024D01*
X178066823Y-111578687D01*
X177941804Y-111591000D01*
X177858196Y-111591000D01*
X177733177Y-111578687D01*
X177572758Y-111530024D01*
X177424924Y-111451005D01*
X177424922Y-111451004D01*
X177295341Y-111344659D01*
X177188996Y-111215078D01*
X177138077Y-111119815D01*
X177109976Y-111067242D01*
X177061313Y-110906823D01*
X177044883Y-110740000D01*
X177061313Y-110573177D01*
X177109976Y-110412758D01*
X177188995Y-110264924D01*
X177188996Y-110264922D01*
X177295341Y-110135341D01*
X177424922Y-110028996D01*
X177530099Y-109972778D01*
X177572758Y-109949976D01*
X177595076Y-109943206D01*
X177602620Y-109940917D01*
X177733177Y-109901313D01*
X177858196Y-109889000D01*
X177941804Y-109889000D01*
X178066823Y-109901313D01*
X178066823Y-109901313D01*
G37*
G36*
X185686823Y-109901313D02*
G01*
X185817380Y-109940917D01*
X185824925Y-109943206D01*
X185847242Y-109949976D01*
X185889901Y-109972778D01*
X185995078Y-110028996D01*
X186124659Y-110135341D01*
X186231004Y-110264922D01*
X186231005Y-110264924D01*
X186310024Y-110412758D01*
X186358687Y-110573177D01*
X186375117Y-110740000D01*
X186358687Y-110906823D01*
X186310024Y-111067242D01*
X186281923Y-111119815D01*
X186231004Y-111215078D01*
X186124659Y-111344659D01*
X185995078Y-111451004D01*
X185995076Y-111451005D01*
X185847242Y-111530024D01*
X185686823Y-111578687D01*
X185561804Y-111591000D01*
X185478196Y-111591000D01*
X185353177Y-111578687D01*
X185192758Y-111530024D01*
X185044924Y-111451005D01*
X185044922Y-111451004D01*
X184915341Y-111344659D01*
X184808996Y-111215078D01*
X184758077Y-111119815D01*
X184729976Y-111067242D01*
X184681313Y-110906823D01*
X184664883Y-110740000D01*
X184681313Y-110573177D01*
X184729976Y-110412758D01*
X184808995Y-110264924D01*
X184808996Y-110264922D01*
X184915341Y-110135341D01*
X185044922Y-110028996D01*
X185150099Y-109972778D01*
X185192758Y-109949976D01*
X185215076Y-109943206D01*
X185222620Y-109940917D01*
X185353177Y-109901313D01*
X185478196Y-109889000D01*
X185561804Y-109889000D01*
X185686823Y-109901313D01*
X185686823Y-109901313D01*
G37*
G36*
X192650443Y-108325519D02*
G01*
X192716627Y-108332037D01*
X192886466Y-108383557D01*
X193042991Y-108467222D01*
X193067821Y-108487600D01*
X193180186Y-108579814D01*
X193258364Y-108675076D01*
X193292778Y-108717009D01*
X193376443Y-108873534D01*
X193427963Y-109043373D01*
X193445359Y-109220000D01*
X193427963Y-109396627D01*
X193376443Y-109566466D01*
X193292778Y-109722991D01*
X193263448Y-109758729D01*
X193180186Y-109860186D01*
X193079024Y-109943206D01*
X193042991Y-109972778D01*
X192886466Y-110056443D01*
X192716627Y-110107963D01*
X192650443Y-110114481D01*
X192584260Y-110121000D01*
X192495740Y-110121000D01*
X192429557Y-110114481D01*
X192363373Y-110107963D01*
X192193534Y-110056443D01*
X192037009Y-109972778D01*
X192000976Y-109943206D01*
X191899814Y-109860186D01*
X191816552Y-109758729D01*
X191787222Y-109722991D01*
X191703557Y-109566466D01*
X191652037Y-109396627D01*
X191634641Y-109220000D01*
X191652037Y-109043373D01*
X191703557Y-108873534D01*
X191787222Y-108717009D01*
X191821636Y-108675076D01*
X191899814Y-108579814D01*
X192012179Y-108487600D01*
X192037009Y-108467222D01*
X192193534Y-108383557D01*
X192363373Y-108332037D01*
X192429557Y-108325519D01*
X192495740Y-108319000D01*
X192584260Y-108319000D01*
X192650443Y-108325519D01*
X192650443Y-108325519D01*
G37*
G36*
X190110443Y-108325519D02*
G01*
X190176627Y-108332037D01*
X190346466Y-108383557D01*
X190502991Y-108467222D01*
X190527821Y-108487600D01*
X190640186Y-108579814D01*
X190718364Y-108675076D01*
X190752778Y-108717009D01*
X190836443Y-108873534D01*
X190887963Y-109043373D01*
X190905359Y-109220000D01*
X190887963Y-109396627D01*
X190836443Y-109566466D01*
X190752778Y-109722991D01*
X190723448Y-109758729D01*
X190640186Y-109860186D01*
X190539024Y-109943206D01*
X190502991Y-109972778D01*
X190346466Y-110056443D01*
X190176627Y-110107963D01*
X190110443Y-110114481D01*
X190044260Y-110121000D01*
X189955740Y-110121000D01*
X189889557Y-110114481D01*
X189823373Y-110107963D01*
X189653534Y-110056443D01*
X189497009Y-109972778D01*
X189460976Y-109943206D01*
X189359814Y-109860186D01*
X189276552Y-109758729D01*
X189247222Y-109722991D01*
X189163557Y-109566466D01*
X189112037Y-109396627D01*
X189094641Y-109220000D01*
X189112037Y-109043373D01*
X189163557Y-108873534D01*
X189247222Y-108717009D01*
X189281636Y-108675076D01*
X189359814Y-108579814D01*
X189472179Y-108487600D01*
X189497009Y-108467222D01*
X189653534Y-108383557D01*
X189823373Y-108332037D01*
X189889557Y-108325519D01*
X189955740Y-108319000D01*
X190044260Y-108319000D01*
X190110443Y-108325519D01*
X190110443Y-108325519D01*
G37*
G36*
X156359672Y-109248449D02*
G01*
X156359674Y-109248450D01*
X156359675Y-109248450D01*
X156428103Y-109276793D01*
X156489686Y-109317942D01*
X156542058Y-109370314D01*
X156583207Y-109431897D01*
X156611550Y-109500325D01*
X156626000Y-109572967D01*
X156626000Y-109647033D01*
X156611550Y-109719675D01*
X156583207Y-109788103D01*
X156542058Y-109849686D01*
X156489686Y-109902058D01*
X156428103Y-109943207D01*
X156359675Y-109971550D01*
X156359674Y-109971550D01*
X156359672Y-109971551D01*
X156287034Y-109986000D01*
X156212966Y-109986000D01*
X156140328Y-109971551D01*
X156140326Y-109971550D01*
X156140325Y-109971550D01*
X156071897Y-109943207D01*
X156010314Y-109902058D01*
X155957942Y-109849686D01*
X155916793Y-109788103D01*
X155888450Y-109719675D01*
X155874000Y-109647033D01*
X155874000Y-109572967D01*
X155888450Y-109500325D01*
X155916793Y-109431897D01*
X155957942Y-109370314D01*
X156010314Y-109317942D01*
X156071897Y-109276793D01*
X156140325Y-109248450D01*
X156140326Y-109248450D01*
X156140328Y-109248449D01*
X156212966Y-109234000D01*
X156287034Y-109234000D01*
X156359672Y-109248449D01*
X156359672Y-109248449D01*
G37*
G36*
X178751000Y-109051000D02*
G01*
X177049000Y-109051000D01*
X177049000Y-107349000D01*
X178751000Y-107349000D01*
X178751000Y-109051000D01*
X178751000Y-109051000D01*
G37*
G36*
X185686823Y-107361313D02*
G01*
X185847242Y-107409976D01*
X185889901Y-107432778D01*
X185995078Y-107488996D01*
X186124659Y-107595341D01*
X186231004Y-107724922D01*
X186231005Y-107724924D01*
X186310024Y-107872758D01*
X186358687Y-108033177D01*
X186375117Y-108200000D01*
X186358687Y-108366823D01*
X186310024Y-108527242D01*
X186281923Y-108579815D01*
X186231004Y-108675078D01*
X186124659Y-108804659D01*
X185995078Y-108911004D01*
X185995076Y-108911005D01*
X185847242Y-108990024D01*
X185686823Y-109038687D01*
X185561804Y-109051000D01*
X185478196Y-109051000D01*
X185353177Y-109038687D01*
X185192758Y-108990024D01*
X185044924Y-108911005D01*
X185044922Y-108911004D01*
X184915341Y-108804659D01*
X184808996Y-108675078D01*
X184758077Y-108579815D01*
X184729976Y-108527242D01*
X184681313Y-108366823D01*
X184664883Y-108200000D01*
X184681313Y-108033177D01*
X184729976Y-107872758D01*
X184808995Y-107724924D01*
X184808996Y-107724922D01*
X184915341Y-107595341D01*
X185044922Y-107488996D01*
X185150099Y-107432778D01*
X185192758Y-107409976D01*
X185353177Y-107361313D01*
X185478196Y-107349000D01*
X185561804Y-107349000D01*
X185686823Y-107361313D01*
X185686823Y-107361313D01*
G37*
G36*
X157438015Y-107636973D02*
G01*
X157541879Y-107668479D01*
X157569055Y-107683005D01*
X157637600Y-107719643D01*
X157721501Y-107788499D01*
X157790357Y-107872400D01*
X157826995Y-107940945D01*
X157841521Y-107968121D01*
X157873027Y-108071985D01*
X157883666Y-108180000D01*
X157873027Y-108288015D01*
X157841521Y-108391879D01*
X157841519Y-108391882D01*
X157790357Y-108487600D01*
X157721501Y-108571501D01*
X157637600Y-108640357D01*
X157572645Y-108675076D01*
X157541879Y-108691521D01*
X157438015Y-108723027D01*
X157357067Y-108731000D01*
X156202933Y-108731000D01*
X156121985Y-108723027D01*
X156018121Y-108691521D01*
X155987355Y-108675076D01*
X155922400Y-108640357D01*
X155838499Y-108571501D01*
X155769643Y-108487600D01*
X155718481Y-108391882D01*
X155718479Y-108391879D01*
X155686973Y-108288015D01*
X155676334Y-108180000D01*
X155686973Y-108071985D01*
X155718479Y-107968121D01*
X155733005Y-107940945D01*
X155769643Y-107872400D01*
X155838499Y-107788499D01*
X155922400Y-107719643D01*
X155990945Y-107683005D01*
X156018121Y-107668479D01*
X156121985Y-107636973D01*
X156202933Y-107629000D01*
X157357067Y-107629000D01*
X157438015Y-107636973D01*
X157438015Y-107636973D01*
G37*
G36*
X153008015Y-107636973D02*
G01*
X153111879Y-107668479D01*
X153139055Y-107683005D01*
X153207600Y-107719643D01*
X153291501Y-107788499D01*
X153360357Y-107872400D01*
X153396995Y-107940945D01*
X153411521Y-107968121D01*
X153443027Y-108071985D01*
X153453666Y-108180000D01*
X153443027Y-108288015D01*
X153411521Y-108391879D01*
X153411519Y-108391882D01*
X153360357Y-108487600D01*
X153291501Y-108571501D01*
X153207600Y-108640357D01*
X153142645Y-108675076D01*
X153111879Y-108691521D01*
X153008015Y-108723027D01*
X152927067Y-108731000D01*
X152272933Y-108731000D01*
X152191985Y-108723027D01*
X152088121Y-108691521D01*
X152057355Y-108675076D01*
X151992400Y-108640357D01*
X151908499Y-108571501D01*
X151839643Y-108487600D01*
X151788481Y-108391882D01*
X151788479Y-108391879D01*
X151756973Y-108288015D01*
X151746334Y-108180000D01*
X151756973Y-108071985D01*
X151788479Y-107968121D01*
X151803005Y-107940945D01*
X151839643Y-107872400D01*
X151908499Y-107788499D01*
X151992400Y-107719643D01*
X152060945Y-107683005D01*
X152088121Y-107668479D01*
X152191985Y-107636973D01*
X152272933Y-107629000D01*
X152927067Y-107629000D01*
X153008015Y-107636973D01*
X153008015Y-107636973D01*
G37*
G36*
X192650443Y-105785519D02*
G01*
X192716627Y-105792037D01*
X192886466Y-105843557D01*
X193042991Y-105927222D01*
X193078729Y-105956552D01*
X193180186Y-106039814D01*
X193263448Y-106141271D01*
X193292778Y-106177009D01*
X193376443Y-106333534D01*
X193427963Y-106503373D01*
X193445359Y-106680000D01*
X193427963Y-106856627D01*
X193376443Y-107026466D01*
X193292778Y-107182991D01*
X193263448Y-107218729D01*
X193180186Y-107320186D01*
X193078729Y-107403448D01*
X193042991Y-107432778D01*
X192886466Y-107516443D01*
X192716627Y-107567963D01*
X192650443Y-107574481D01*
X192584260Y-107581000D01*
X192495740Y-107581000D01*
X192429557Y-107574481D01*
X192363373Y-107567963D01*
X192193534Y-107516443D01*
X192037009Y-107432778D01*
X192001271Y-107403448D01*
X191899814Y-107320186D01*
X191816552Y-107218729D01*
X191787222Y-107182991D01*
X191703557Y-107026466D01*
X191652037Y-106856627D01*
X191634641Y-106680000D01*
X191652037Y-106503373D01*
X191703557Y-106333534D01*
X191787222Y-106177009D01*
X191816552Y-106141271D01*
X191899814Y-106039814D01*
X192001271Y-105956552D01*
X192037009Y-105927222D01*
X192193534Y-105843557D01*
X192363373Y-105792037D01*
X192429557Y-105785519D01*
X192495740Y-105779000D01*
X192584260Y-105779000D01*
X192650443Y-105785519D01*
X192650443Y-105785519D01*
G37*
G36*
X190901000Y-107581000D02*
G01*
X189099000Y-107581000D01*
X189099000Y-105779000D01*
X190901000Y-105779000D01*
X190901000Y-107581000D01*
X190901000Y-107581000D01*
G37*
G36*
X153375256Y-101391298D02*
G01*
X153481579Y-101412447D01*
X153782042Y-101536903D01*
X154052451Y-101717585D01*
X154282415Y-101947549D01*
X154463097Y-102217958D01*
X154587553Y-102518421D01*
X154651000Y-102837391D01*
X154651000Y-103162609D01*
X154587553Y-103481579D01*
X154463097Y-103782042D01*
X154282415Y-104052451D01*
X154052451Y-104282415D01*
X153782042Y-104463097D01*
X153481579Y-104587553D01*
X153375256Y-104608702D01*
X153162611Y-104651000D01*
X152837389Y-104651000D01*
X152624744Y-104608702D01*
X152518421Y-104587553D01*
X152217958Y-104463097D01*
X151947549Y-104282415D01*
X151717585Y-104052451D01*
X151536903Y-103782042D01*
X151412447Y-103481579D01*
X151349000Y-103162609D01*
X151349000Y-102837391D01*
X151412447Y-102518421D01*
X151536903Y-102217958D01*
X151717585Y-101947549D01*
X151947549Y-101717585D01*
X152217958Y-101536903D01*
X152518421Y-101412447D01*
X152624744Y-101391298D01*
X152837389Y-101349000D01*
X153162611Y-101349000D01*
X153375256Y-101391298D01*
X153375256Y-101391298D01*
G37*
M02*
