G04 #@! TF.GenerationSoftware,KiCad,Pcbnew,(5.1.2)-1*
G04 #@! TF.CreationDate,2023-10-09T01:29:42+09:00*
G04 #@! TF.ProjectId,usc,7573632e-6b69-4636-9164-5f7063625858,v1.4*
G04 #@! TF.SameCoordinates,Original*
G04 #@! TF.FileFunction,Copper,L1,Top*
G04 #@! TF.FilePolarity,Positive*
%FSLAX46Y46*%
G04 Gerber Fmt 4.6, Leading zero omitted, Abs format (unit mm)*
G04 Created by KiCad (PCBNEW (5.1.2)-1) date 2023-10-09 01:29:42*
%MOMM*%
%LPD*%
G04 APERTURE LIST*
%ADD10R,1.000000X1.600000*%
%ADD11O,1.600000X1.600000*%
%ADD12R,1.600000X1.600000*%
%ADD13O,1.700000X1.700000*%
%ADD14R,1.700000X1.700000*%
%ADD15C,0.100000*%
%ADD16C,0.875000*%
%ADD17R,1.400000X1.200000*%
%ADD18R,1.450000X0.450000*%
%ADD19R,1.060000X0.650000*%
%ADD20R,1.450000X0.600000*%
%ADD21R,1.450000X0.300000*%
%ADD22O,2.100000X1.000000*%
%ADD23O,1.600000X1.000000*%
%ADD24C,0.975000*%
%ADD25C,0.800000*%
%ADD26C,0.250000*%
%ADD27C,0.350000*%
%ADD28C,0.254000*%
G04 APERTURE END LIST*
D10*
X184380000Y-122840000D03*
X181880000Y-122840000D03*
X179380000Y-122840000D03*
X184380000Y-119940000D03*
X181880000Y-119940000D03*
X179380000Y-119940000D03*
D11*
X185520000Y-108200000D03*
X177900000Y-115820000D03*
X185520000Y-110740000D03*
X177900000Y-113280000D03*
X185520000Y-113280000D03*
X177900000Y-110740000D03*
X185520000Y-115820000D03*
D12*
X177900000Y-108200000D03*
D13*
X174470000Y-123650000D03*
X171930000Y-123650000D03*
X169390000Y-123650000D03*
X166850000Y-123650000D03*
X164310000Y-123650000D03*
D14*
X161770000Y-123650000D03*
D15*
G36*
X175277691Y-110888053D02*
G01*
X175298926Y-110891203D01*
X175319750Y-110896419D01*
X175339962Y-110903651D01*
X175359368Y-110912830D01*
X175377781Y-110923866D01*
X175395024Y-110936654D01*
X175410930Y-110951070D01*
X175425346Y-110966976D01*
X175438134Y-110984219D01*
X175449170Y-111002632D01*
X175458349Y-111022038D01*
X175465581Y-111042250D01*
X175470797Y-111063074D01*
X175473947Y-111084309D01*
X175475000Y-111105750D01*
X175475000Y-111543250D01*
X175473947Y-111564691D01*
X175470797Y-111585926D01*
X175465581Y-111606750D01*
X175458349Y-111626962D01*
X175449170Y-111646368D01*
X175438134Y-111664781D01*
X175425346Y-111682024D01*
X175410930Y-111697930D01*
X175395024Y-111712346D01*
X175377781Y-111725134D01*
X175359368Y-111736170D01*
X175339962Y-111745349D01*
X175319750Y-111752581D01*
X175298926Y-111757797D01*
X175277691Y-111760947D01*
X175256250Y-111762000D01*
X174743750Y-111762000D01*
X174722309Y-111760947D01*
X174701074Y-111757797D01*
X174680250Y-111752581D01*
X174660038Y-111745349D01*
X174640632Y-111736170D01*
X174622219Y-111725134D01*
X174604976Y-111712346D01*
X174589070Y-111697930D01*
X174574654Y-111682024D01*
X174561866Y-111664781D01*
X174550830Y-111646368D01*
X174541651Y-111626962D01*
X174534419Y-111606750D01*
X174529203Y-111585926D01*
X174526053Y-111564691D01*
X174525000Y-111543250D01*
X174525000Y-111105750D01*
X174526053Y-111084309D01*
X174529203Y-111063074D01*
X174534419Y-111042250D01*
X174541651Y-111022038D01*
X174550830Y-111002632D01*
X174561866Y-110984219D01*
X174574654Y-110966976D01*
X174589070Y-110951070D01*
X174604976Y-110936654D01*
X174622219Y-110923866D01*
X174640632Y-110912830D01*
X174660038Y-110903651D01*
X174680250Y-110896419D01*
X174701074Y-110891203D01*
X174722309Y-110888053D01*
X174743750Y-110887000D01*
X175256250Y-110887000D01*
X175277691Y-110888053D01*
X175277691Y-110888053D01*
G37*
D16*
X175000000Y-111324500D03*
D15*
G36*
X175277691Y-112463053D02*
G01*
X175298926Y-112466203D01*
X175319750Y-112471419D01*
X175339962Y-112478651D01*
X175359368Y-112487830D01*
X175377781Y-112498866D01*
X175395024Y-112511654D01*
X175410930Y-112526070D01*
X175425346Y-112541976D01*
X175438134Y-112559219D01*
X175449170Y-112577632D01*
X175458349Y-112597038D01*
X175465581Y-112617250D01*
X175470797Y-112638074D01*
X175473947Y-112659309D01*
X175475000Y-112680750D01*
X175475000Y-113118250D01*
X175473947Y-113139691D01*
X175470797Y-113160926D01*
X175465581Y-113181750D01*
X175458349Y-113201962D01*
X175449170Y-113221368D01*
X175438134Y-113239781D01*
X175425346Y-113257024D01*
X175410930Y-113272930D01*
X175395024Y-113287346D01*
X175377781Y-113300134D01*
X175359368Y-113311170D01*
X175339962Y-113320349D01*
X175319750Y-113327581D01*
X175298926Y-113332797D01*
X175277691Y-113335947D01*
X175256250Y-113337000D01*
X174743750Y-113337000D01*
X174722309Y-113335947D01*
X174701074Y-113332797D01*
X174680250Y-113327581D01*
X174660038Y-113320349D01*
X174640632Y-113311170D01*
X174622219Y-113300134D01*
X174604976Y-113287346D01*
X174589070Y-113272930D01*
X174574654Y-113257024D01*
X174561866Y-113239781D01*
X174550830Y-113221368D01*
X174541651Y-113201962D01*
X174534419Y-113181750D01*
X174529203Y-113160926D01*
X174526053Y-113139691D01*
X174525000Y-113118250D01*
X174525000Y-112680750D01*
X174526053Y-112659309D01*
X174529203Y-112638074D01*
X174534419Y-112617250D01*
X174541651Y-112597038D01*
X174550830Y-112577632D01*
X174561866Y-112559219D01*
X174574654Y-112541976D01*
X174589070Y-112526070D01*
X174604976Y-112511654D01*
X174622219Y-112498866D01*
X174640632Y-112487830D01*
X174660038Y-112478651D01*
X174680250Y-112471419D01*
X174701074Y-112466203D01*
X174722309Y-112463053D01*
X174743750Y-112462000D01*
X175256250Y-112462000D01*
X175277691Y-112463053D01*
X175277691Y-112463053D01*
G37*
D16*
X175000000Y-112899500D03*
D15*
G36*
X160364691Y-110126053D02*
G01*
X160385926Y-110129203D01*
X160406750Y-110134419D01*
X160426962Y-110141651D01*
X160446368Y-110150830D01*
X160464781Y-110161866D01*
X160482024Y-110174654D01*
X160497930Y-110189070D01*
X160512346Y-110204976D01*
X160525134Y-110222219D01*
X160536170Y-110240632D01*
X160545349Y-110260038D01*
X160552581Y-110280250D01*
X160557797Y-110301074D01*
X160560947Y-110322309D01*
X160562000Y-110343750D01*
X160562000Y-110856250D01*
X160560947Y-110877691D01*
X160557797Y-110898926D01*
X160552581Y-110919750D01*
X160545349Y-110939962D01*
X160536170Y-110959368D01*
X160525134Y-110977781D01*
X160512346Y-110995024D01*
X160497930Y-111010930D01*
X160482024Y-111025346D01*
X160464781Y-111038134D01*
X160446368Y-111049170D01*
X160426962Y-111058349D01*
X160406750Y-111065581D01*
X160385926Y-111070797D01*
X160364691Y-111073947D01*
X160343250Y-111075000D01*
X159905750Y-111075000D01*
X159884309Y-111073947D01*
X159863074Y-111070797D01*
X159842250Y-111065581D01*
X159822038Y-111058349D01*
X159802632Y-111049170D01*
X159784219Y-111038134D01*
X159766976Y-111025346D01*
X159751070Y-111010930D01*
X159736654Y-110995024D01*
X159723866Y-110977781D01*
X159712830Y-110959368D01*
X159703651Y-110939962D01*
X159696419Y-110919750D01*
X159691203Y-110898926D01*
X159688053Y-110877691D01*
X159687000Y-110856250D01*
X159687000Y-110343750D01*
X159688053Y-110322309D01*
X159691203Y-110301074D01*
X159696419Y-110280250D01*
X159703651Y-110260038D01*
X159712830Y-110240632D01*
X159723866Y-110222219D01*
X159736654Y-110204976D01*
X159751070Y-110189070D01*
X159766976Y-110174654D01*
X159784219Y-110161866D01*
X159802632Y-110150830D01*
X159822038Y-110141651D01*
X159842250Y-110134419D01*
X159863074Y-110129203D01*
X159884309Y-110126053D01*
X159905750Y-110125000D01*
X160343250Y-110125000D01*
X160364691Y-110126053D01*
X160364691Y-110126053D01*
G37*
D16*
X160124500Y-110600000D03*
D15*
G36*
X161939691Y-110126053D02*
G01*
X161960926Y-110129203D01*
X161981750Y-110134419D01*
X162001962Y-110141651D01*
X162021368Y-110150830D01*
X162039781Y-110161866D01*
X162057024Y-110174654D01*
X162072930Y-110189070D01*
X162087346Y-110204976D01*
X162100134Y-110222219D01*
X162111170Y-110240632D01*
X162120349Y-110260038D01*
X162127581Y-110280250D01*
X162132797Y-110301074D01*
X162135947Y-110322309D01*
X162137000Y-110343750D01*
X162137000Y-110856250D01*
X162135947Y-110877691D01*
X162132797Y-110898926D01*
X162127581Y-110919750D01*
X162120349Y-110939962D01*
X162111170Y-110959368D01*
X162100134Y-110977781D01*
X162087346Y-110995024D01*
X162072930Y-111010930D01*
X162057024Y-111025346D01*
X162039781Y-111038134D01*
X162021368Y-111049170D01*
X162001962Y-111058349D01*
X161981750Y-111065581D01*
X161960926Y-111070797D01*
X161939691Y-111073947D01*
X161918250Y-111075000D01*
X161480750Y-111075000D01*
X161459309Y-111073947D01*
X161438074Y-111070797D01*
X161417250Y-111065581D01*
X161397038Y-111058349D01*
X161377632Y-111049170D01*
X161359219Y-111038134D01*
X161341976Y-111025346D01*
X161326070Y-111010930D01*
X161311654Y-110995024D01*
X161298866Y-110977781D01*
X161287830Y-110959368D01*
X161278651Y-110939962D01*
X161271419Y-110919750D01*
X161266203Y-110898926D01*
X161263053Y-110877691D01*
X161262000Y-110856250D01*
X161262000Y-110343750D01*
X161263053Y-110322309D01*
X161266203Y-110301074D01*
X161271419Y-110280250D01*
X161278651Y-110260038D01*
X161287830Y-110240632D01*
X161298866Y-110222219D01*
X161311654Y-110204976D01*
X161326070Y-110189070D01*
X161341976Y-110174654D01*
X161359219Y-110161866D01*
X161377632Y-110150830D01*
X161397038Y-110141651D01*
X161417250Y-110134419D01*
X161438074Y-110129203D01*
X161459309Y-110126053D01*
X161480750Y-110125000D01*
X161918250Y-110125000D01*
X161939691Y-110126053D01*
X161939691Y-110126053D01*
G37*
D16*
X161699500Y-110600000D03*
D15*
G36*
X184140691Y-104626053D02*
G01*
X184161926Y-104629203D01*
X184182750Y-104634419D01*
X184202962Y-104641651D01*
X184222368Y-104650830D01*
X184240781Y-104661866D01*
X184258024Y-104674654D01*
X184273930Y-104689070D01*
X184288346Y-104704976D01*
X184301134Y-104722219D01*
X184312170Y-104740632D01*
X184321349Y-104760038D01*
X184328581Y-104780250D01*
X184333797Y-104801074D01*
X184336947Y-104822309D01*
X184338000Y-104843750D01*
X184338000Y-105356250D01*
X184336947Y-105377691D01*
X184333797Y-105398926D01*
X184328581Y-105419750D01*
X184321349Y-105439962D01*
X184312170Y-105459368D01*
X184301134Y-105477781D01*
X184288346Y-105495024D01*
X184273930Y-105510930D01*
X184258024Y-105525346D01*
X184240781Y-105538134D01*
X184222368Y-105549170D01*
X184202962Y-105558349D01*
X184182750Y-105565581D01*
X184161926Y-105570797D01*
X184140691Y-105573947D01*
X184119250Y-105575000D01*
X183681750Y-105575000D01*
X183660309Y-105573947D01*
X183639074Y-105570797D01*
X183618250Y-105565581D01*
X183598038Y-105558349D01*
X183578632Y-105549170D01*
X183560219Y-105538134D01*
X183542976Y-105525346D01*
X183527070Y-105510930D01*
X183512654Y-105495024D01*
X183499866Y-105477781D01*
X183488830Y-105459368D01*
X183479651Y-105439962D01*
X183472419Y-105419750D01*
X183467203Y-105398926D01*
X183464053Y-105377691D01*
X183463000Y-105356250D01*
X183463000Y-104843750D01*
X183464053Y-104822309D01*
X183467203Y-104801074D01*
X183472419Y-104780250D01*
X183479651Y-104760038D01*
X183488830Y-104740632D01*
X183499866Y-104722219D01*
X183512654Y-104704976D01*
X183527070Y-104689070D01*
X183542976Y-104674654D01*
X183560219Y-104661866D01*
X183578632Y-104650830D01*
X183598038Y-104641651D01*
X183618250Y-104634419D01*
X183639074Y-104629203D01*
X183660309Y-104626053D01*
X183681750Y-104625000D01*
X184119250Y-104625000D01*
X184140691Y-104626053D01*
X184140691Y-104626053D01*
G37*
D16*
X183900500Y-105100000D03*
D15*
G36*
X185715691Y-104626053D02*
G01*
X185736926Y-104629203D01*
X185757750Y-104634419D01*
X185777962Y-104641651D01*
X185797368Y-104650830D01*
X185815781Y-104661866D01*
X185833024Y-104674654D01*
X185848930Y-104689070D01*
X185863346Y-104704976D01*
X185876134Y-104722219D01*
X185887170Y-104740632D01*
X185896349Y-104760038D01*
X185903581Y-104780250D01*
X185908797Y-104801074D01*
X185911947Y-104822309D01*
X185913000Y-104843750D01*
X185913000Y-105356250D01*
X185911947Y-105377691D01*
X185908797Y-105398926D01*
X185903581Y-105419750D01*
X185896349Y-105439962D01*
X185887170Y-105459368D01*
X185876134Y-105477781D01*
X185863346Y-105495024D01*
X185848930Y-105510930D01*
X185833024Y-105525346D01*
X185815781Y-105538134D01*
X185797368Y-105549170D01*
X185777962Y-105558349D01*
X185757750Y-105565581D01*
X185736926Y-105570797D01*
X185715691Y-105573947D01*
X185694250Y-105575000D01*
X185256750Y-105575000D01*
X185235309Y-105573947D01*
X185214074Y-105570797D01*
X185193250Y-105565581D01*
X185173038Y-105558349D01*
X185153632Y-105549170D01*
X185135219Y-105538134D01*
X185117976Y-105525346D01*
X185102070Y-105510930D01*
X185087654Y-105495024D01*
X185074866Y-105477781D01*
X185063830Y-105459368D01*
X185054651Y-105439962D01*
X185047419Y-105419750D01*
X185042203Y-105398926D01*
X185039053Y-105377691D01*
X185038000Y-105356250D01*
X185038000Y-104843750D01*
X185039053Y-104822309D01*
X185042203Y-104801074D01*
X185047419Y-104780250D01*
X185054651Y-104760038D01*
X185063830Y-104740632D01*
X185074866Y-104722219D01*
X185087654Y-104704976D01*
X185102070Y-104689070D01*
X185117976Y-104674654D01*
X185135219Y-104661866D01*
X185153632Y-104650830D01*
X185173038Y-104641651D01*
X185193250Y-104634419D01*
X185214074Y-104629203D01*
X185235309Y-104626053D01*
X185256750Y-104625000D01*
X185694250Y-104625000D01*
X185715691Y-104626053D01*
X185715691Y-104626053D01*
G37*
D16*
X185475500Y-105100000D03*
D17*
X169670000Y-119570000D03*
X167270000Y-117670000D03*
X167270000Y-119570000D03*
X169670000Y-117670000D03*
D18*
X165350000Y-115025000D03*
X165350000Y-114375000D03*
X165350000Y-113725000D03*
X165350000Y-113075000D03*
X165350000Y-112425000D03*
X165350000Y-111775000D03*
X165350000Y-111125000D03*
X165350000Y-110475000D03*
X165350000Y-109825000D03*
X165350000Y-109175000D03*
X171250000Y-109175000D03*
X171250000Y-109825000D03*
X171250000Y-110475000D03*
X171250000Y-111125000D03*
X171250000Y-111775000D03*
X171250000Y-112425000D03*
X171250000Y-113075000D03*
X171250000Y-113725000D03*
X171250000Y-114375000D03*
X171250000Y-115025000D03*
D19*
X165550000Y-102750000D03*
X165550000Y-104650000D03*
X163350000Y-104650000D03*
X163350000Y-103700000D03*
X163350000Y-102750000D03*
D15*
G36*
X160340691Y-111926053D02*
G01*
X160361926Y-111929203D01*
X160382750Y-111934419D01*
X160402962Y-111941651D01*
X160422368Y-111950830D01*
X160440781Y-111961866D01*
X160458024Y-111974654D01*
X160473930Y-111989070D01*
X160488346Y-112004976D01*
X160501134Y-112022219D01*
X160512170Y-112040632D01*
X160521349Y-112060038D01*
X160528581Y-112080250D01*
X160533797Y-112101074D01*
X160536947Y-112122309D01*
X160538000Y-112143750D01*
X160538000Y-112656250D01*
X160536947Y-112677691D01*
X160533797Y-112698926D01*
X160528581Y-112719750D01*
X160521349Y-112739962D01*
X160512170Y-112759368D01*
X160501134Y-112777781D01*
X160488346Y-112795024D01*
X160473930Y-112810930D01*
X160458024Y-112825346D01*
X160440781Y-112838134D01*
X160422368Y-112849170D01*
X160402962Y-112858349D01*
X160382750Y-112865581D01*
X160361926Y-112870797D01*
X160340691Y-112873947D01*
X160319250Y-112875000D01*
X159881750Y-112875000D01*
X159860309Y-112873947D01*
X159839074Y-112870797D01*
X159818250Y-112865581D01*
X159798038Y-112858349D01*
X159778632Y-112849170D01*
X159760219Y-112838134D01*
X159742976Y-112825346D01*
X159727070Y-112810930D01*
X159712654Y-112795024D01*
X159699866Y-112777781D01*
X159688830Y-112759368D01*
X159679651Y-112739962D01*
X159672419Y-112719750D01*
X159667203Y-112698926D01*
X159664053Y-112677691D01*
X159663000Y-112656250D01*
X159663000Y-112143750D01*
X159664053Y-112122309D01*
X159667203Y-112101074D01*
X159672419Y-112080250D01*
X159679651Y-112060038D01*
X159688830Y-112040632D01*
X159699866Y-112022219D01*
X159712654Y-112004976D01*
X159727070Y-111989070D01*
X159742976Y-111974654D01*
X159760219Y-111961866D01*
X159778632Y-111950830D01*
X159798038Y-111941651D01*
X159818250Y-111934419D01*
X159839074Y-111929203D01*
X159860309Y-111926053D01*
X159881750Y-111925000D01*
X160319250Y-111925000D01*
X160340691Y-111926053D01*
X160340691Y-111926053D01*
G37*
D16*
X160100500Y-112400000D03*
D15*
G36*
X161915691Y-111926053D02*
G01*
X161936926Y-111929203D01*
X161957750Y-111934419D01*
X161977962Y-111941651D01*
X161997368Y-111950830D01*
X162015781Y-111961866D01*
X162033024Y-111974654D01*
X162048930Y-111989070D01*
X162063346Y-112004976D01*
X162076134Y-112022219D01*
X162087170Y-112040632D01*
X162096349Y-112060038D01*
X162103581Y-112080250D01*
X162108797Y-112101074D01*
X162111947Y-112122309D01*
X162113000Y-112143750D01*
X162113000Y-112656250D01*
X162111947Y-112677691D01*
X162108797Y-112698926D01*
X162103581Y-112719750D01*
X162096349Y-112739962D01*
X162087170Y-112759368D01*
X162076134Y-112777781D01*
X162063346Y-112795024D01*
X162048930Y-112810930D01*
X162033024Y-112825346D01*
X162015781Y-112838134D01*
X161997368Y-112849170D01*
X161977962Y-112858349D01*
X161957750Y-112865581D01*
X161936926Y-112870797D01*
X161915691Y-112873947D01*
X161894250Y-112875000D01*
X161456750Y-112875000D01*
X161435309Y-112873947D01*
X161414074Y-112870797D01*
X161393250Y-112865581D01*
X161373038Y-112858349D01*
X161353632Y-112849170D01*
X161335219Y-112838134D01*
X161317976Y-112825346D01*
X161302070Y-112810930D01*
X161287654Y-112795024D01*
X161274866Y-112777781D01*
X161263830Y-112759368D01*
X161254651Y-112739962D01*
X161247419Y-112719750D01*
X161242203Y-112698926D01*
X161239053Y-112677691D01*
X161238000Y-112656250D01*
X161238000Y-112143750D01*
X161239053Y-112122309D01*
X161242203Y-112101074D01*
X161247419Y-112080250D01*
X161254651Y-112060038D01*
X161263830Y-112040632D01*
X161274866Y-112022219D01*
X161287654Y-112004976D01*
X161302070Y-111989070D01*
X161317976Y-111974654D01*
X161335219Y-111961866D01*
X161353632Y-111950830D01*
X161373038Y-111941651D01*
X161393250Y-111934419D01*
X161414074Y-111929203D01*
X161435309Y-111926053D01*
X161456750Y-111925000D01*
X161894250Y-111925000D01*
X161915691Y-111926053D01*
X161915691Y-111926053D01*
G37*
D16*
X161675500Y-112400000D03*
D15*
G36*
X160340691Y-113726053D02*
G01*
X160361926Y-113729203D01*
X160382750Y-113734419D01*
X160402962Y-113741651D01*
X160422368Y-113750830D01*
X160440781Y-113761866D01*
X160458024Y-113774654D01*
X160473930Y-113789070D01*
X160488346Y-113804976D01*
X160501134Y-113822219D01*
X160512170Y-113840632D01*
X160521349Y-113860038D01*
X160528581Y-113880250D01*
X160533797Y-113901074D01*
X160536947Y-113922309D01*
X160538000Y-113943750D01*
X160538000Y-114456250D01*
X160536947Y-114477691D01*
X160533797Y-114498926D01*
X160528581Y-114519750D01*
X160521349Y-114539962D01*
X160512170Y-114559368D01*
X160501134Y-114577781D01*
X160488346Y-114595024D01*
X160473930Y-114610930D01*
X160458024Y-114625346D01*
X160440781Y-114638134D01*
X160422368Y-114649170D01*
X160402962Y-114658349D01*
X160382750Y-114665581D01*
X160361926Y-114670797D01*
X160340691Y-114673947D01*
X160319250Y-114675000D01*
X159881750Y-114675000D01*
X159860309Y-114673947D01*
X159839074Y-114670797D01*
X159818250Y-114665581D01*
X159798038Y-114658349D01*
X159778632Y-114649170D01*
X159760219Y-114638134D01*
X159742976Y-114625346D01*
X159727070Y-114610930D01*
X159712654Y-114595024D01*
X159699866Y-114577781D01*
X159688830Y-114559368D01*
X159679651Y-114539962D01*
X159672419Y-114519750D01*
X159667203Y-114498926D01*
X159664053Y-114477691D01*
X159663000Y-114456250D01*
X159663000Y-113943750D01*
X159664053Y-113922309D01*
X159667203Y-113901074D01*
X159672419Y-113880250D01*
X159679651Y-113860038D01*
X159688830Y-113840632D01*
X159699866Y-113822219D01*
X159712654Y-113804976D01*
X159727070Y-113789070D01*
X159742976Y-113774654D01*
X159760219Y-113761866D01*
X159778632Y-113750830D01*
X159798038Y-113741651D01*
X159818250Y-113734419D01*
X159839074Y-113729203D01*
X159860309Y-113726053D01*
X159881750Y-113725000D01*
X160319250Y-113725000D01*
X160340691Y-113726053D01*
X160340691Y-113726053D01*
G37*
D16*
X160100500Y-114200000D03*
D15*
G36*
X161915691Y-113726053D02*
G01*
X161936926Y-113729203D01*
X161957750Y-113734419D01*
X161977962Y-113741651D01*
X161997368Y-113750830D01*
X162015781Y-113761866D01*
X162033024Y-113774654D01*
X162048930Y-113789070D01*
X162063346Y-113804976D01*
X162076134Y-113822219D01*
X162087170Y-113840632D01*
X162096349Y-113860038D01*
X162103581Y-113880250D01*
X162108797Y-113901074D01*
X162111947Y-113922309D01*
X162113000Y-113943750D01*
X162113000Y-114456250D01*
X162111947Y-114477691D01*
X162108797Y-114498926D01*
X162103581Y-114519750D01*
X162096349Y-114539962D01*
X162087170Y-114559368D01*
X162076134Y-114577781D01*
X162063346Y-114595024D01*
X162048930Y-114610930D01*
X162033024Y-114625346D01*
X162015781Y-114638134D01*
X161997368Y-114649170D01*
X161977962Y-114658349D01*
X161957750Y-114665581D01*
X161936926Y-114670797D01*
X161915691Y-114673947D01*
X161894250Y-114675000D01*
X161456750Y-114675000D01*
X161435309Y-114673947D01*
X161414074Y-114670797D01*
X161393250Y-114665581D01*
X161373038Y-114658349D01*
X161353632Y-114649170D01*
X161335219Y-114638134D01*
X161317976Y-114625346D01*
X161302070Y-114610930D01*
X161287654Y-114595024D01*
X161274866Y-114577781D01*
X161263830Y-114559368D01*
X161254651Y-114539962D01*
X161247419Y-114519750D01*
X161242203Y-114498926D01*
X161239053Y-114477691D01*
X161238000Y-114456250D01*
X161238000Y-113943750D01*
X161239053Y-113922309D01*
X161242203Y-113901074D01*
X161247419Y-113880250D01*
X161254651Y-113860038D01*
X161263830Y-113840632D01*
X161274866Y-113822219D01*
X161287654Y-113804976D01*
X161302070Y-113789070D01*
X161317976Y-113774654D01*
X161335219Y-113761866D01*
X161353632Y-113750830D01*
X161373038Y-113741651D01*
X161393250Y-113734419D01*
X161414074Y-113729203D01*
X161435309Y-113726053D01*
X161456750Y-113725000D01*
X161894250Y-113725000D01*
X161915691Y-113726053D01*
X161915691Y-113726053D01*
G37*
D16*
X161675500Y-114200000D03*
D15*
G36*
X177057691Y-102194053D02*
G01*
X177078926Y-102197203D01*
X177099750Y-102202419D01*
X177119962Y-102209651D01*
X177139368Y-102218830D01*
X177157781Y-102229866D01*
X177175024Y-102242654D01*
X177190930Y-102257070D01*
X177205346Y-102272976D01*
X177218134Y-102290219D01*
X177229170Y-102308632D01*
X177238349Y-102328038D01*
X177245581Y-102348250D01*
X177250797Y-102369074D01*
X177253947Y-102390309D01*
X177255000Y-102411750D01*
X177255000Y-102849250D01*
X177253947Y-102870691D01*
X177250797Y-102891926D01*
X177245581Y-102912750D01*
X177238349Y-102932962D01*
X177229170Y-102952368D01*
X177218134Y-102970781D01*
X177205346Y-102988024D01*
X177190930Y-103003930D01*
X177175024Y-103018346D01*
X177157781Y-103031134D01*
X177139368Y-103042170D01*
X177119962Y-103051349D01*
X177099750Y-103058581D01*
X177078926Y-103063797D01*
X177057691Y-103066947D01*
X177036250Y-103068000D01*
X176523750Y-103068000D01*
X176502309Y-103066947D01*
X176481074Y-103063797D01*
X176460250Y-103058581D01*
X176440038Y-103051349D01*
X176420632Y-103042170D01*
X176402219Y-103031134D01*
X176384976Y-103018346D01*
X176369070Y-103003930D01*
X176354654Y-102988024D01*
X176341866Y-102970781D01*
X176330830Y-102952368D01*
X176321651Y-102932962D01*
X176314419Y-102912750D01*
X176309203Y-102891926D01*
X176306053Y-102870691D01*
X176305000Y-102849250D01*
X176305000Y-102411750D01*
X176306053Y-102390309D01*
X176309203Y-102369074D01*
X176314419Y-102348250D01*
X176321651Y-102328038D01*
X176330830Y-102308632D01*
X176341866Y-102290219D01*
X176354654Y-102272976D01*
X176369070Y-102257070D01*
X176384976Y-102242654D01*
X176402219Y-102229866D01*
X176420632Y-102218830D01*
X176440038Y-102209651D01*
X176460250Y-102202419D01*
X176481074Y-102197203D01*
X176502309Y-102194053D01*
X176523750Y-102193000D01*
X177036250Y-102193000D01*
X177057691Y-102194053D01*
X177057691Y-102194053D01*
G37*
D16*
X176780000Y-102630500D03*
D15*
G36*
X177057691Y-103769053D02*
G01*
X177078926Y-103772203D01*
X177099750Y-103777419D01*
X177119962Y-103784651D01*
X177139368Y-103793830D01*
X177157781Y-103804866D01*
X177175024Y-103817654D01*
X177190930Y-103832070D01*
X177205346Y-103847976D01*
X177218134Y-103865219D01*
X177229170Y-103883632D01*
X177238349Y-103903038D01*
X177245581Y-103923250D01*
X177250797Y-103944074D01*
X177253947Y-103965309D01*
X177255000Y-103986750D01*
X177255000Y-104424250D01*
X177253947Y-104445691D01*
X177250797Y-104466926D01*
X177245581Y-104487750D01*
X177238349Y-104507962D01*
X177229170Y-104527368D01*
X177218134Y-104545781D01*
X177205346Y-104563024D01*
X177190930Y-104578930D01*
X177175024Y-104593346D01*
X177157781Y-104606134D01*
X177139368Y-104617170D01*
X177119962Y-104626349D01*
X177099750Y-104633581D01*
X177078926Y-104638797D01*
X177057691Y-104641947D01*
X177036250Y-104643000D01*
X176523750Y-104643000D01*
X176502309Y-104641947D01*
X176481074Y-104638797D01*
X176460250Y-104633581D01*
X176440038Y-104626349D01*
X176420632Y-104617170D01*
X176402219Y-104606134D01*
X176384976Y-104593346D01*
X176369070Y-104578930D01*
X176354654Y-104563024D01*
X176341866Y-104545781D01*
X176330830Y-104527368D01*
X176321651Y-104507962D01*
X176314419Y-104487750D01*
X176309203Y-104466926D01*
X176306053Y-104445691D01*
X176305000Y-104424250D01*
X176305000Y-103986750D01*
X176306053Y-103965309D01*
X176309203Y-103944074D01*
X176314419Y-103923250D01*
X176321651Y-103903038D01*
X176330830Y-103883632D01*
X176341866Y-103865219D01*
X176354654Y-103847976D01*
X176369070Y-103832070D01*
X176384976Y-103817654D01*
X176402219Y-103804866D01*
X176420632Y-103793830D01*
X176440038Y-103784651D01*
X176460250Y-103777419D01*
X176481074Y-103772203D01*
X176502309Y-103769053D01*
X176523750Y-103768000D01*
X177036250Y-103768000D01*
X177057691Y-103769053D01*
X177057691Y-103769053D01*
G37*
D16*
X176780000Y-104205500D03*
D15*
G36*
X175297691Y-114108053D02*
G01*
X175318926Y-114111203D01*
X175339750Y-114116419D01*
X175359962Y-114123651D01*
X175379368Y-114132830D01*
X175397781Y-114143866D01*
X175415024Y-114156654D01*
X175430930Y-114171070D01*
X175445346Y-114186976D01*
X175458134Y-114204219D01*
X175469170Y-114222632D01*
X175478349Y-114242038D01*
X175485581Y-114262250D01*
X175490797Y-114283074D01*
X175493947Y-114304309D01*
X175495000Y-114325750D01*
X175495000Y-114763250D01*
X175493947Y-114784691D01*
X175490797Y-114805926D01*
X175485581Y-114826750D01*
X175478349Y-114846962D01*
X175469170Y-114866368D01*
X175458134Y-114884781D01*
X175445346Y-114902024D01*
X175430930Y-114917930D01*
X175415024Y-114932346D01*
X175397781Y-114945134D01*
X175379368Y-114956170D01*
X175359962Y-114965349D01*
X175339750Y-114972581D01*
X175318926Y-114977797D01*
X175297691Y-114980947D01*
X175276250Y-114982000D01*
X174763750Y-114982000D01*
X174742309Y-114980947D01*
X174721074Y-114977797D01*
X174700250Y-114972581D01*
X174680038Y-114965349D01*
X174660632Y-114956170D01*
X174642219Y-114945134D01*
X174624976Y-114932346D01*
X174609070Y-114917930D01*
X174594654Y-114902024D01*
X174581866Y-114884781D01*
X174570830Y-114866368D01*
X174561651Y-114846962D01*
X174554419Y-114826750D01*
X174549203Y-114805926D01*
X174546053Y-114784691D01*
X174545000Y-114763250D01*
X174545000Y-114325750D01*
X174546053Y-114304309D01*
X174549203Y-114283074D01*
X174554419Y-114262250D01*
X174561651Y-114242038D01*
X174570830Y-114222632D01*
X174581866Y-114204219D01*
X174594654Y-114186976D01*
X174609070Y-114171070D01*
X174624976Y-114156654D01*
X174642219Y-114143866D01*
X174660632Y-114132830D01*
X174680038Y-114123651D01*
X174700250Y-114116419D01*
X174721074Y-114111203D01*
X174742309Y-114108053D01*
X174763750Y-114107000D01*
X175276250Y-114107000D01*
X175297691Y-114108053D01*
X175297691Y-114108053D01*
G37*
D16*
X175020000Y-114544500D03*
D15*
G36*
X175297691Y-115683053D02*
G01*
X175318926Y-115686203D01*
X175339750Y-115691419D01*
X175359962Y-115698651D01*
X175379368Y-115707830D01*
X175397781Y-115718866D01*
X175415024Y-115731654D01*
X175430930Y-115746070D01*
X175445346Y-115761976D01*
X175458134Y-115779219D01*
X175469170Y-115797632D01*
X175478349Y-115817038D01*
X175485581Y-115837250D01*
X175490797Y-115858074D01*
X175493947Y-115879309D01*
X175495000Y-115900750D01*
X175495000Y-116338250D01*
X175493947Y-116359691D01*
X175490797Y-116380926D01*
X175485581Y-116401750D01*
X175478349Y-116421962D01*
X175469170Y-116441368D01*
X175458134Y-116459781D01*
X175445346Y-116477024D01*
X175430930Y-116492930D01*
X175415024Y-116507346D01*
X175397781Y-116520134D01*
X175379368Y-116531170D01*
X175359962Y-116540349D01*
X175339750Y-116547581D01*
X175318926Y-116552797D01*
X175297691Y-116555947D01*
X175276250Y-116557000D01*
X174763750Y-116557000D01*
X174742309Y-116555947D01*
X174721074Y-116552797D01*
X174700250Y-116547581D01*
X174680038Y-116540349D01*
X174660632Y-116531170D01*
X174642219Y-116520134D01*
X174624976Y-116507346D01*
X174609070Y-116492930D01*
X174594654Y-116477024D01*
X174581866Y-116459781D01*
X174570830Y-116441368D01*
X174561651Y-116421962D01*
X174554419Y-116401750D01*
X174549203Y-116380926D01*
X174546053Y-116359691D01*
X174545000Y-116338250D01*
X174545000Y-115900750D01*
X174546053Y-115879309D01*
X174549203Y-115858074D01*
X174554419Y-115837250D01*
X174561651Y-115817038D01*
X174570830Y-115797632D01*
X174581866Y-115779219D01*
X174594654Y-115761976D01*
X174609070Y-115746070D01*
X174624976Y-115731654D01*
X174642219Y-115718866D01*
X174660632Y-115707830D01*
X174680038Y-115698651D01*
X174700250Y-115691419D01*
X174721074Y-115686203D01*
X174742309Y-115683053D01*
X174763750Y-115682000D01*
X175276250Y-115682000D01*
X175297691Y-115683053D01*
X175297691Y-115683053D01*
G37*
D16*
X175020000Y-116119500D03*
D15*
G36*
X172970691Y-102264053D02*
G01*
X172991926Y-102267203D01*
X173012750Y-102272419D01*
X173032962Y-102279651D01*
X173052368Y-102288830D01*
X173070781Y-102299866D01*
X173088024Y-102312654D01*
X173103930Y-102327070D01*
X173118346Y-102342976D01*
X173131134Y-102360219D01*
X173142170Y-102378632D01*
X173151349Y-102398038D01*
X173158581Y-102418250D01*
X173163797Y-102439074D01*
X173166947Y-102460309D01*
X173168000Y-102481750D01*
X173168000Y-102919250D01*
X173166947Y-102940691D01*
X173163797Y-102961926D01*
X173158581Y-102982750D01*
X173151349Y-103002962D01*
X173142170Y-103022368D01*
X173131134Y-103040781D01*
X173118346Y-103058024D01*
X173103930Y-103073930D01*
X173088024Y-103088346D01*
X173070781Y-103101134D01*
X173052368Y-103112170D01*
X173032962Y-103121349D01*
X173012750Y-103128581D01*
X172991926Y-103133797D01*
X172970691Y-103136947D01*
X172949250Y-103138000D01*
X172436750Y-103138000D01*
X172415309Y-103136947D01*
X172394074Y-103133797D01*
X172373250Y-103128581D01*
X172353038Y-103121349D01*
X172333632Y-103112170D01*
X172315219Y-103101134D01*
X172297976Y-103088346D01*
X172282070Y-103073930D01*
X172267654Y-103058024D01*
X172254866Y-103040781D01*
X172243830Y-103022368D01*
X172234651Y-103002962D01*
X172227419Y-102982750D01*
X172222203Y-102961926D01*
X172219053Y-102940691D01*
X172218000Y-102919250D01*
X172218000Y-102481750D01*
X172219053Y-102460309D01*
X172222203Y-102439074D01*
X172227419Y-102418250D01*
X172234651Y-102398038D01*
X172243830Y-102378632D01*
X172254866Y-102360219D01*
X172267654Y-102342976D01*
X172282070Y-102327070D01*
X172297976Y-102312654D01*
X172315219Y-102299866D01*
X172333632Y-102288830D01*
X172353038Y-102279651D01*
X172373250Y-102272419D01*
X172394074Y-102267203D01*
X172415309Y-102264053D01*
X172436750Y-102263000D01*
X172949250Y-102263000D01*
X172970691Y-102264053D01*
X172970691Y-102264053D01*
G37*
D16*
X172693000Y-102700500D03*
D15*
G36*
X172970691Y-103839053D02*
G01*
X172991926Y-103842203D01*
X173012750Y-103847419D01*
X173032962Y-103854651D01*
X173052368Y-103863830D01*
X173070781Y-103874866D01*
X173088024Y-103887654D01*
X173103930Y-103902070D01*
X173118346Y-103917976D01*
X173131134Y-103935219D01*
X173142170Y-103953632D01*
X173151349Y-103973038D01*
X173158581Y-103993250D01*
X173163797Y-104014074D01*
X173166947Y-104035309D01*
X173168000Y-104056750D01*
X173168000Y-104494250D01*
X173166947Y-104515691D01*
X173163797Y-104536926D01*
X173158581Y-104557750D01*
X173151349Y-104577962D01*
X173142170Y-104597368D01*
X173131134Y-104615781D01*
X173118346Y-104633024D01*
X173103930Y-104648930D01*
X173088024Y-104663346D01*
X173070781Y-104676134D01*
X173052368Y-104687170D01*
X173032962Y-104696349D01*
X173012750Y-104703581D01*
X172991926Y-104708797D01*
X172970691Y-104711947D01*
X172949250Y-104713000D01*
X172436750Y-104713000D01*
X172415309Y-104711947D01*
X172394074Y-104708797D01*
X172373250Y-104703581D01*
X172353038Y-104696349D01*
X172333632Y-104687170D01*
X172315219Y-104676134D01*
X172297976Y-104663346D01*
X172282070Y-104648930D01*
X172267654Y-104633024D01*
X172254866Y-104615781D01*
X172243830Y-104597368D01*
X172234651Y-104577962D01*
X172227419Y-104557750D01*
X172222203Y-104536926D01*
X172219053Y-104515691D01*
X172218000Y-104494250D01*
X172218000Y-104056750D01*
X172219053Y-104035309D01*
X172222203Y-104014074D01*
X172227419Y-103993250D01*
X172234651Y-103973038D01*
X172243830Y-103953632D01*
X172254866Y-103935219D01*
X172267654Y-103917976D01*
X172282070Y-103902070D01*
X172297976Y-103887654D01*
X172315219Y-103874866D01*
X172333632Y-103863830D01*
X172353038Y-103854651D01*
X172373250Y-103847419D01*
X172394074Y-103842203D01*
X172415309Y-103839053D01*
X172436750Y-103838000D01*
X172949250Y-103838000D01*
X172970691Y-103839053D01*
X172970691Y-103839053D01*
G37*
D16*
X172693000Y-104275500D03*
D15*
G36*
X161915691Y-115526053D02*
G01*
X161936926Y-115529203D01*
X161957750Y-115534419D01*
X161977962Y-115541651D01*
X161997368Y-115550830D01*
X162015781Y-115561866D01*
X162033024Y-115574654D01*
X162048930Y-115589070D01*
X162063346Y-115604976D01*
X162076134Y-115622219D01*
X162087170Y-115640632D01*
X162096349Y-115660038D01*
X162103581Y-115680250D01*
X162108797Y-115701074D01*
X162111947Y-115722309D01*
X162113000Y-115743750D01*
X162113000Y-116256250D01*
X162111947Y-116277691D01*
X162108797Y-116298926D01*
X162103581Y-116319750D01*
X162096349Y-116339962D01*
X162087170Y-116359368D01*
X162076134Y-116377781D01*
X162063346Y-116395024D01*
X162048930Y-116410930D01*
X162033024Y-116425346D01*
X162015781Y-116438134D01*
X161997368Y-116449170D01*
X161977962Y-116458349D01*
X161957750Y-116465581D01*
X161936926Y-116470797D01*
X161915691Y-116473947D01*
X161894250Y-116475000D01*
X161456750Y-116475000D01*
X161435309Y-116473947D01*
X161414074Y-116470797D01*
X161393250Y-116465581D01*
X161373038Y-116458349D01*
X161353632Y-116449170D01*
X161335219Y-116438134D01*
X161317976Y-116425346D01*
X161302070Y-116410930D01*
X161287654Y-116395024D01*
X161274866Y-116377781D01*
X161263830Y-116359368D01*
X161254651Y-116339962D01*
X161247419Y-116319750D01*
X161242203Y-116298926D01*
X161239053Y-116277691D01*
X161238000Y-116256250D01*
X161238000Y-115743750D01*
X161239053Y-115722309D01*
X161242203Y-115701074D01*
X161247419Y-115680250D01*
X161254651Y-115660038D01*
X161263830Y-115640632D01*
X161274866Y-115622219D01*
X161287654Y-115604976D01*
X161302070Y-115589070D01*
X161317976Y-115574654D01*
X161335219Y-115561866D01*
X161353632Y-115550830D01*
X161373038Y-115541651D01*
X161393250Y-115534419D01*
X161414074Y-115529203D01*
X161435309Y-115526053D01*
X161456750Y-115525000D01*
X161894250Y-115525000D01*
X161915691Y-115526053D01*
X161915691Y-115526053D01*
G37*
D16*
X161675500Y-116000000D03*
D15*
G36*
X160340691Y-115526053D02*
G01*
X160361926Y-115529203D01*
X160382750Y-115534419D01*
X160402962Y-115541651D01*
X160422368Y-115550830D01*
X160440781Y-115561866D01*
X160458024Y-115574654D01*
X160473930Y-115589070D01*
X160488346Y-115604976D01*
X160501134Y-115622219D01*
X160512170Y-115640632D01*
X160521349Y-115660038D01*
X160528581Y-115680250D01*
X160533797Y-115701074D01*
X160536947Y-115722309D01*
X160538000Y-115743750D01*
X160538000Y-116256250D01*
X160536947Y-116277691D01*
X160533797Y-116298926D01*
X160528581Y-116319750D01*
X160521349Y-116339962D01*
X160512170Y-116359368D01*
X160501134Y-116377781D01*
X160488346Y-116395024D01*
X160473930Y-116410930D01*
X160458024Y-116425346D01*
X160440781Y-116438134D01*
X160422368Y-116449170D01*
X160402962Y-116458349D01*
X160382750Y-116465581D01*
X160361926Y-116470797D01*
X160340691Y-116473947D01*
X160319250Y-116475000D01*
X159881750Y-116475000D01*
X159860309Y-116473947D01*
X159839074Y-116470797D01*
X159818250Y-116465581D01*
X159798038Y-116458349D01*
X159778632Y-116449170D01*
X159760219Y-116438134D01*
X159742976Y-116425346D01*
X159727070Y-116410930D01*
X159712654Y-116395024D01*
X159699866Y-116377781D01*
X159688830Y-116359368D01*
X159679651Y-116339962D01*
X159672419Y-116319750D01*
X159667203Y-116298926D01*
X159664053Y-116277691D01*
X159663000Y-116256250D01*
X159663000Y-115743750D01*
X159664053Y-115722309D01*
X159667203Y-115701074D01*
X159672419Y-115680250D01*
X159679651Y-115660038D01*
X159688830Y-115640632D01*
X159699866Y-115622219D01*
X159712654Y-115604976D01*
X159727070Y-115589070D01*
X159742976Y-115574654D01*
X159760219Y-115561866D01*
X159778632Y-115550830D01*
X159798038Y-115541651D01*
X159818250Y-115534419D01*
X159839074Y-115529203D01*
X159860309Y-115526053D01*
X159881750Y-115525000D01*
X160319250Y-115525000D01*
X160340691Y-115526053D01*
X160340691Y-115526053D01*
G37*
D16*
X160100500Y-116000000D03*
D15*
G36*
X161939691Y-108326053D02*
G01*
X161960926Y-108329203D01*
X161981750Y-108334419D01*
X162001962Y-108341651D01*
X162021368Y-108350830D01*
X162039781Y-108361866D01*
X162057024Y-108374654D01*
X162072930Y-108389070D01*
X162087346Y-108404976D01*
X162100134Y-108422219D01*
X162111170Y-108440632D01*
X162120349Y-108460038D01*
X162127581Y-108480250D01*
X162132797Y-108501074D01*
X162135947Y-108522309D01*
X162137000Y-108543750D01*
X162137000Y-109056250D01*
X162135947Y-109077691D01*
X162132797Y-109098926D01*
X162127581Y-109119750D01*
X162120349Y-109139962D01*
X162111170Y-109159368D01*
X162100134Y-109177781D01*
X162087346Y-109195024D01*
X162072930Y-109210930D01*
X162057024Y-109225346D01*
X162039781Y-109238134D01*
X162021368Y-109249170D01*
X162001962Y-109258349D01*
X161981750Y-109265581D01*
X161960926Y-109270797D01*
X161939691Y-109273947D01*
X161918250Y-109275000D01*
X161480750Y-109275000D01*
X161459309Y-109273947D01*
X161438074Y-109270797D01*
X161417250Y-109265581D01*
X161397038Y-109258349D01*
X161377632Y-109249170D01*
X161359219Y-109238134D01*
X161341976Y-109225346D01*
X161326070Y-109210930D01*
X161311654Y-109195024D01*
X161298866Y-109177781D01*
X161287830Y-109159368D01*
X161278651Y-109139962D01*
X161271419Y-109119750D01*
X161266203Y-109098926D01*
X161263053Y-109077691D01*
X161262000Y-109056250D01*
X161262000Y-108543750D01*
X161263053Y-108522309D01*
X161266203Y-108501074D01*
X161271419Y-108480250D01*
X161278651Y-108460038D01*
X161287830Y-108440632D01*
X161298866Y-108422219D01*
X161311654Y-108404976D01*
X161326070Y-108389070D01*
X161341976Y-108374654D01*
X161359219Y-108361866D01*
X161377632Y-108350830D01*
X161397038Y-108341651D01*
X161417250Y-108334419D01*
X161438074Y-108329203D01*
X161459309Y-108326053D01*
X161480750Y-108325000D01*
X161918250Y-108325000D01*
X161939691Y-108326053D01*
X161939691Y-108326053D01*
G37*
D16*
X161699500Y-108800000D03*
D15*
G36*
X160364691Y-108326053D02*
G01*
X160385926Y-108329203D01*
X160406750Y-108334419D01*
X160426962Y-108341651D01*
X160446368Y-108350830D01*
X160464781Y-108361866D01*
X160482024Y-108374654D01*
X160497930Y-108389070D01*
X160512346Y-108404976D01*
X160525134Y-108422219D01*
X160536170Y-108440632D01*
X160545349Y-108460038D01*
X160552581Y-108480250D01*
X160557797Y-108501074D01*
X160560947Y-108522309D01*
X160562000Y-108543750D01*
X160562000Y-109056250D01*
X160560947Y-109077691D01*
X160557797Y-109098926D01*
X160552581Y-109119750D01*
X160545349Y-109139962D01*
X160536170Y-109159368D01*
X160525134Y-109177781D01*
X160512346Y-109195024D01*
X160497930Y-109210930D01*
X160482024Y-109225346D01*
X160464781Y-109238134D01*
X160446368Y-109249170D01*
X160426962Y-109258349D01*
X160406750Y-109265581D01*
X160385926Y-109270797D01*
X160364691Y-109273947D01*
X160343250Y-109275000D01*
X159905750Y-109275000D01*
X159884309Y-109273947D01*
X159863074Y-109270797D01*
X159842250Y-109265581D01*
X159822038Y-109258349D01*
X159802632Y-109249170D01*
X159784219Y-109238134D01*
X159766976Y-109225346D01*
X159751070Y-109210930D01*
X159736654Y-109195024D01*
X159723866Y-109177781D01*
X159712830Y-109159368D01*
X159703651Y-109139962D01*
X159696419Y-109119750D01*
X159691203Y-109098926D01*
X159688053Y-109077691D01*
X159687000Y-109056250D01*
X159687000Y-108543750D01*
X159688053Y-108522309D01*
X159691203Y-108501074D01*
X159696419Y-108480250D01*
X159703651Y-108460038D01*
X159712830Y-108440632D01*
X159723866Y-108422219D01*
X159736654Y-108404976D01*
X159751070Y-108389070D01*
X159766976Y-108374654D01*
X159784219Y-108361866D01*
X159802632Y-108350830D01*
X159822038Y-108341651D01*
X159842250Y-108334419D01*
X159863074Y-108329203D01*
X159884309Y-108326053D01*
X159905750Y-108325000D01*
X160343250Y-108325000D01*
X160364691Y-108326053D01*
X160364691Y-108326053D01*
G37*
D16*
X160124500Y-108800000D03*
D13*
X192540000Y-119380000D03*
X190000000Y-119380000D03*
X192540000Y-116840000D03*
X190000000Y-116840000D03*
X192540000Y-114300000D03*
X190000000Y-114300000D03*
X192540000Y-111760000D03*
X190000000Y-111760000D03*
X192540000Y-109220000D03*
X190000000Y-109220000D03*
X192540000Y-106680000D03*
D14*
X190000000Y-106680000D03*
D20*
X157695000Y-115725000D03*
X157695000Y-109275000D03*
X157695000Y-114950000D03*
X157695000Y-110050000D03*
D21*
X157695000Y-110750000D03*
X157695000Y-114250000D03*
X157695000Y-111250000D03*
X157695000Y-113750000D03*
X157695000Y-111750000D03*
X157695000Y-113250000D03*
X157695000Y-112750000D03*
X157695000Y-112250000D03*
D22*
X156780000Y-108180000D03*
X156780000Y-116820000D03*
D23*
X152600000Y-108180000D03*
X152600000Y-116820000D03*
D15*
G36*
X159027691Y-102188053D02*
G01*
X159048926Y-102191203D01*
X159069750Y-102196419D01*
X159089962Y-102203651D01*
X159109368Y-102212830D01*
X159127781Y-102223866D01*
X159145024Y-102236654D01*
X159160930Y-102251070D01*
X159175346Y-102266976D01*
X159188134Y-102284219D01*
X159199170Y-102302632D01*
X159208349Y-102322038D01*
X159215581Y-102342250D01*
X159220797Y-102363074D01*
X159223947Y-102384309D01*
X159225000Y-102405750D01*
X159225000Y-102843250D01*
X159223947Y-102864691D01*
X159220797Y-102885926D01*
X159215581Y-102906750D01*
X159208349Y-102926962D01*
X159199170Y-102946368D01*
X159188134Y-102964781D01*
X159175346Y-102982024D01*
X159160930Y-102997930D01*
X159145024Y-103012346D01*
X159127781Y-103025134D01*
X159109368Y-103036170D01*
X159089962Y-103045349D01*
X159069750Y-103052581D01*
X159048926Y-103057797D01*
X159027691Y-103060947D01*
X159006250Y-103062000D01*
X158493750Y-103062000D01*
X158472309Y-103060947D01*
X158451074Y-103057797D01*
X158430250Y-103052581D01*
X158410038Y-103045349D01*
X158390632Y-103036170D01*
X158372219Y-103025134D01*
X158354976Y-103012346D01*
X158339070Y-102997930D01*
X158324654Y-102982024D01*
X158311866Y-102964781D01*
X158300830Y-102946368D01*
X158291651Y-102926962D01*
X158284419Y-102906750D01*
X158279203Y-102885926D01*
X158276053Y-102864691D01*
X158275000Y-102843250D01*
X158275000Y-102405750D01*
X158276053Y-102384309D01*
X158279203Y-102363074D01*
X158284419Y-102342250D01*
X158291651Y-102322038D01*
X158300830Y-102302632D01*
X158311866Y-102284219D01*
X158324654Y-102266976D01*
X158339070Y-102251070D01*
X158354976Y-102236654D01*
X158372219Y-102223866D01*
X158390632Y-102212830D01*
X158410038Y-102203651D01*
X158430250Y-102196419D01*
X158451074Y-102191203D01*
X158472309Y-102188053D01*
X158493750Y-102187000D01*
X159006250Y-102187000D01*
X159027691Y-102188053D01*
X159027691Y-102188053D01*
G37*
D16*
X158750000Y-102624500D03*
D15*
G36*
X159027691Y-103763053D02*
G01*
X159048926Y-103766203D01*
X159069750Y-103771419D01*
X159089962Y-103778651D01*
X159109368Y-103787830D01*
X159127781Y-103798866D01*
X159145024Y-103811654D01*
X159160930Y-103826070D01*
X159175346Y-103841976D01*
X159188134Y-103859219D01*
X159199170Y-103877632D01*
X159208349Y-103897038D01*
X159215581Y-103917250D01*
X159220797Y-103938074D01*
X159223947Y-103959309D01*
X159225000Y-103980750D01*
X159225000Y-104418250D01*
X159223947Y-104439691D01*
X159220797Y-104460926D01*
X159215581Y-104481750D01*
X159208349Y-104501962D01*
X159199170Y-104521368D01*
X159188134Y-104539781D01*
X159175346Y-104557024D01*
X159160930Y-104572930D01*
X159145024Y-104587346D01*
X159127781Y-104600134D01*
X159109368Y-104611170D01*
X159089962Y-104620349D01*
X159069750Y-104627581D01*
X159048926Y-104632797D01*
X159027691Y-104635947D01*
X159006250Y-104637000D01*
X158493750Y-104637000D01*
X158472309Y-104635947D01*
X158451074Y-104632797D01*
X158430250Y-104627581D01*
X158410038Y-104620349D01*
X158390632Y-104611170D01*
X158372219Y-104600134D01*
X158354976Y-104587346D01*
X158339070Y-104572930D01*
X158324654Y-104557024D01*
X158311866Y-104539781D01*
X158300830Y-104521368D01*
X158291651Y-104501962D01*
X158284419Y-104481750D01*
X158279203Y-104460926D01*
X158276053Y-104439691D01*
X158275000Y-104418250D01*
X158275000Y-103980750D01*
X158276053Y-103959309D01*
X158279203Y-103938074D01*
X158284419Y-103917250D01*
X158291651Y-103897038D01*
X158300830Y-103877632D01*
X158311866Y-103859219D01*
X158324654Y-103841976D01*
X158339070Y-103826070D01*
X158354976Y-103811654D01*
X158372219Y-103798866D01*
X158390632Y-103787830D01*
X158410038Y-103778651D01*
X158430250Y-103771419D01*
X158451074Y-103766203D01*
X158472309Y-103763053D01*
X158493750Y-103762000D01*
X159006250Y-103762000D01*
X159027691Y-103763053D01*
X159027691Y-103763053D01*
G37*
D16*
X158750000Y-104199500D03*
D15*
G36*
X175014691Y-102196053D02*
G01*
X175035926Y-102199203D01*
X175056750Y-102204419D01*
X175076962Y-102211651D01*
X175096368Y-102220830D01*
X175114781Y-102231866D01*
X175132024Y-102244654D01*
X175147930Y-102259070D01*
X175162346Y-102274976D01*
X175175134Y-102292219D01*
X175186170Y-102310632D01*
X175195349Y-102330038D01*
X175202581Y-102350250D01*
X175207797Y-102371074D01*
X175210947Y-102392309D01*
X175212000Y-102413750D01*
X175212000Y-102851250D01*
X175210947Y-102872691D01*
X175207797Y-102893926D01*
X175202581Y-102914750D01*
X175195349Y-102934962D01*
X175186170Y-102954368D01*
X175175134Y-102972781D01*
X175162346Y-102990024D01*
X175147930Y-103005930D01*
X175132024Y-103020346D01*
X175114781Y-103033134D01*
X175096368Y-103044170D01*
X175076962Y-103053349D01*
X175056750Y-103060581D01*
X175035926Y-103065797D01*
X175014691Y-103068947D01*
X174993250Y-103070000D01*
X174480750Y-103070000D01*
X174459309Y-103068947D01*
X174438074Y-103065797D01*
X174417250Y-103060581D01*
X174397038Y-103053349D01*
X174377632Y-103044170D01*
X174359219Y-103033134D01*
X174341976Y-103020346D01*
X174326070Y-103005930D01*
X174311654Y-102990024D01*
X174298866Y-102972781D01*
X174287830Y-102954368D01*
X174278651Y-102934962D01*
X174271419Y-102914750D01*
X174266203Y-102893926D01*
X174263053Y-102872691D01*
X174262000Y-102851250D01*
X174262000Y-102413750D01*
X174263053Y-102392309D01*
X174266203Y-102371074D01*
X174271419Y-102350250D01*
X174278651Y-102330038D01*
X174287830Y-102310632D01*
X174298866Y-102292219D01*
X174311654Y-102274976D01*
X174326070Y-102259070D01*
X174341976Y-102244654D01*
X174359219Y-102231866D01*
X174377632Y-102220830D01*
X174397038Y-102211651D01*
X174417250Y-102204419D01*
X174438074Y-102199203D01*
X174459309Y-102196053D01*
X174480750Y-102195000D01*
X174993250Y-102195000D01*
X175014691Y-102196053D01*
X175014691Y-102196053D01*
G37*
D16*
X174737000Y-102632500D03*
D15*
G36*
X175014691Y-103771053D02*
G01*
X175035926Y-103774203D01*
X175056750Y-103779419D01*
X175076962Y-103786651D01*
X175096368Y-103795830D01*
X175114781Y-103806866D01*
X175132024Y-103819654D01*
X175147930Y-103834070D01*
X175162346Y-103849976D01*
X175175134Y-103867219D01*
X175186170Y-103885632D01*
X175195349Y-103905038D01*
X175202581Y-103925250D01*
X175207797Y-103946074D01*
X175210947Y-103967309D01*
X175212000Y-103988750D01*
X175212000Y-104426250D01*
X175210947Y-104447691D01*
X175207797Y-104468926D01*
X175202581Y-104489750D01*
X175195349Y-104509962D01*
X175186170Y-104529368D01*
X175175134Y-104547781D01*
X175162346Y-104565024D01*
X175147930Y-104580930D01*
X175132024Y-104595346D01*
X175114781Y-104608134D01*
X175096368Y-104619170D01*
X175076962Y-104628349D01*
X175056750Y-104635581D01*
X175035926Y-104640797D01*
X175014691Y-104643947D01*
X174993250Y-104645000D01*
X174480750Y-104645000D01*
X174459309Y-104643947D01*
X174438074Y-104640797D01*
X174417250Y-104635581D01*
X174397038Y-104628349D01*
X174377632Y-104619170D01*
X174359219Y-104608134D01*
X174341976Y-104595346D01*
X174326070Y-104580930D01*
X174311654Y-104565024D01*
X174298866Y-104547781D01*
X174287830Y-104529368D01*
X174278651Y-104509962D01*
X174271419Y-104489750D01*
X174266203Y-104468926D01*
X174263053Y-104447691D01*
X174262000Y-104426250D01*
X174262000Y-103988750D01*
X174263053Y-103967309D01*
X174266203Y-103946074D01*
X174271419Y-103925250D01*
X174278651Y-103905038D01*
X174287830Y-103885632D01*
X174298866Y-103867219D01*
X174311654Y-103849976D01*
X174326070Y-103834070D01*
X174341976Y-103819654D01*
X174359219Y-103806866D01*
X174377632Y-103795830D01*
X174397038Y-103786651D01*
X174417250Y-103779419D01*
X174438074Y-103774203D01*
X174459309Y-103771053D01*
X174480750Y-103770000D01*
X174993250Y-103770000D01*
X175014691Y-103771053D01*
X175014691Y-103771053D01*
G37*
D16*
X174737000Y-104207500D03*
D15*
G36*
X170927691Y-102264053D02*
G01*
X170948926Y-102267203D01*
X170969750Y-102272419D01*
X170989962Y-102279651D01*
X171009368Y-102288830D01*
X171027781Y-102299866D01*
X171045024Y-102312654D01*
X171060930Y-102327070D01*
X171075346Y-102342976D01*
X171088134Y-102360219D01*
X171099170Y-102378632D01*
X171108349Y-102398038D01*
X171115581Y-102418250D01*
X171120797Y-102439074D01*
X171123947Y-102460309D01*
X171125000Y-102481750D01*
X171125000Y-102919250D01*
X171123947Y-102940691D01*
X171120797Y-102961926D01*
X171115581Y-102982750D01*
X171108349Y-103002962D01*
X171099170Y-103022368D01*
X171088134Y-103040781D01*
X171075346Y-103058024D01*
X171060930Y-103073930D01*
X171045024Y-103088346D01*
X171027781Y-103101134D01*
X171009368Y-103112170D01*
X170989962Y-103121349D01*
X170969750Y-103128581D01*
X170948926Y-103133797D01*
X170927691Y-103136947D01*
X170906250Y-103138000D01*
X170393750Y-103138000D01*
X170372309Y-103136947D01*
X170351074Y-103133797D01*
X170330250Y-103128581D01*
X170310038Y-103121349D01*
X170290632Y-103112170D01*
X170272219Y-103101134D01*
X170254976Y-103088346D01*
X170239070Y-103073930D01*
X170224654Y-103058024D01*
X170211866Y-103040781D01*
X170200830Y-103022368D01*
X170191651Y-103002962D01*
X170184419Y-102982750D01*
X170179203Y-102961926D01*
X170176053Y-102940691D01*
X170175000Y-102919250D01*
X170175000Y-102481750D01*
X170176053Y-102460309D01*
X170179203Y-102439074D01*
X170184419Y-102418250D01*
X170191651Y-102398038D01*
X170200830Y-102378632D01*
X170211866Y-102360219D01*
X170224654Y-102342976D01*
X170239070Y-102327070D01*
X170254976Y-102312654D01*
X170272219Y-102299866D01*
X170290632Y-102288830D01*
X170310038Y-102279651D01*
X170330250Y-102272419D01*
X170351074Y-102267203D01*
X170372309Y-102264053D01*
X170393750Y-102263000D01*
X170906250Y-102263000D01*
X170927691Y-102264053D01*
X170927691Y-102264053D01*
G37*
D16*
X170650000Y-102700500D03*
D15*
G36*
X170927691Y-103839053D02*
G01*
X170948926Y-103842203D01*
X170969750Y-103847419D01*
X170989962Y-103854651D01*
X171009368Y-103863830D01*
X171027781Y-103874866D01*
X171045024Y-103887654D01*
X171060930Y-103902070D01*
X171075346Y-103917976D01*
X171088134Y-103935219D01*
X171099170Y-103953632D01*
X171108349Y-103973038D01*
X171115581Y-103993250D01*
X171120797Y-104014074D01*
X171123947Y-104035309D01*
X171125000Y-104056750D01*
X171125000Y-104494250D01*
X171123947Y-104515691D01*
X171120797Y-104536926D01*
X171115581Y-104557750D01*
X171108349Y-104577962D01*
X171099170Y-104597368D01*
X171088134Y-104615781D01*
X171075346Y-104633024D01*
X171060930Y-104648930D01*
X171045024Y-104663346D01*
X171027781Y-104676134D01*
X171009368Y-104687170D01*
X170989962Y-104696349D01*
X170969750Y-104703581D01*
X170948926Y-104708797D01*
X170927691Y-104711947D01*
X170906250Y-104713000D01*
X170393750Y-104713000D01*
X170372309Y-104711947D01*
X170351074Y-104708797D01*
X170330250Y-104703581D01*
X170310038Y-104696349D01*
X170290632Y-104687170D01*
X170272219Y-104676134D01*
X170254976Y-104663346D01*
X170239070Y-104648930D01*
X170224654Y-104633024D01*
X170211866Y-104615781D01*
X170200830Y-104597368D01*
X170191651Y-104577962D01*
X170184419Y-104557750D01*
X170179203Y-104536926D01*
X170176053Y-104515691D01*
X170175000Y-104494250D01*
X170175000Y-104056750D01*
X170176053Y-104035309D01*
X170179203Y-104014074D01*
X170184419Y-103993250D01*
X170191651Y-103973038D01*
X170200830Y-103953632D01*
X170211866Y-103935219D01*
X170224654Y-103917976D01*
X170239070Y-103902070D01*
X170254976Y-103887654D01*
X170272219Y-103874866D01*
X170290632Y-103863830D01*
X170310038Y-103854651D01*
X170330250Y-103847419D01*
X170351074Y-103842203D01*
X170372309Y-103839053D01*
X170393750Y-103838000D01*
X170906250Y-103838000D01*
X170927691Y-103839053D01*
X170927691Y-103839053D01*
G37*
D16*
X170650000Y-104275500D03*
D15*
G36*
X173777691Y-114088053D02*
G01*
X173798926Y-114091203D01*
X173819750Y-114096419D01*
X173839962Y-114103651D01*
X173859368Y-114112830D01*
X173877781Y-114123866D01*
X173895024Y-114136654D01*
X173910930Y-114151070D01*
X173925346Y-114166976D01*
X173938134Y-114184219D01*
X173949170Y-114202632D01*
X173958349Y-114222038D01*
X173965581Y-114242250D01*
X173970797Y-114263074D01*
X173973947Y-114284309D01*
X173975000Y-114305750D01*
X173975000Y-114743250D01*
X173973947Y-114764691D01*
X173970797Y-114785926D01*
X173965581Y-114806750D01*
X173958349Y-114826962D01*
X173949170Y-114846368D01*
X173938134Y-114864781D01*
X173925346Y-114882024D01*
X173910930Y-114897930D01*
X173895024Y-114912346D01*
X173877781Y-114925134D01*
X173859368Y-114936170D01*
X173839962Y-114945349D01*
X173819750Y-114952581D01*
X173798926Y-114957797D01*
X173777691Y-114960947D01*
X173756250Y-114962000D01*
X173243750Y-114962000D01*
X173222309Y-114960947D01*
X173201074Y-114957797D01*
X173180250Y-114952581D01*
X173160038Y-114945349D01*
X173140632Y-114936170D01*
X173122219Y-114925134D01*
X173104976Y-114912346D01*
X173089070Y-114897930D01*
X173074654Y-114882024D01*
X173061866Y-114864781D01*
X173050830Y-114846368D01*
X173041651Y-114826962D01*
X173034419Y-114806750D01*
X173029203Y-114785926D01*
X173026053Y-114764691D01*
X173025000Y-114743250D01*
X173025000Y-114305750D01*
X173026053Y-114284309D01*
X173029203Y-114263074D01*
X173034419Y-114242250D01*
X173041651Y-114222038D01*
X173050830Y-114202632D01*
X173061866Y-114184219D01*
X173074654Y-114166976D01*
X173089070Y-114151070D01*
X173104976Y-114136654D01*
X173122219Y-114123866D01*
X173140632Y-114112830D01*
X173160038Y-114103651D01*
X173180250Y-114096419D01*
X173201074Y-114091203D01*
X173222309Y-114088053D01*
X173243750Y-114087000D01*
X173756250Y-114087000D01*
X173777691Y-114088053D01*
X173777691Y-114088053D01*
G37*
D16*
X173500000Y-114524500D03*
D15*
G36*
X173777691Y-115663053D02*
G01*
X173798926Y-115666203D01*
X173819750Y-115671419D01*
X173839962Y-115678651D01*
X173859368Y-115687830D01*
X173877781Y-115698866D01*
X173895024Y-115711654D01*
X173910930Y-115726070D01*
X173925346Y-115741976D01*
X173938134Y-115759219D01*
X173949170Y-115777632D01*
X173958349Y-115797038D01*
X173965581Y-115817250D01*
X173970797Y-115838074D01*
X173973947Y-115859309D01*
X173975000Y-115880750D01*
X173975000Y-116318250D01*
X173973947Y-116339691D01*
X173970797Y-116360926D01*
X173965581Y-116381750D01*
X173958349Y-116401962D01*
X173949170Y-116421368D01*
X173938134Y-116439781D01*
X173925346Y-116457024D01*
X173910930Y-116472930D01*
X173895024Y-116487346D01*
X173877781Y-116500134D01*
X173859368Y-116511170D01*
X173839962Y-116520349D01*
X173819750Y-116527581D01*
X173798926Y-116532797D01*
X173777691Y-116535947D01*
X173756250Y-116537000D01*
X173243750Y-116537000D01*
X173222309Y-116535947D01*
X173201074Y-116532797D01*
X173180250Y-116527581D01*
X173160038Y-116520349D01*
X173140632Y-116511170D01*
X173122219Y-116500134D01*
X173104976Y-116487346D01*
X173089070Y-116472930D01*
X173074654Y-116457024D01*
X173061866Y-116439781D01*
X173050830Y-116421368D01*
X173041651Y-116401962D01*
X173034419Y-116381750D01*
X173029203Y-116360926D01*
X173026053Y-116339691D01*
X173025000Y-116318250D01*
X173025000Y-115880750D01*
X173026053Y-115859309D01*
X173029203Y-115838074D01*
X173034419Y-115817250D01*
X173041651Y-115797038D01*
X173050830Y-115777632D01*
X173061866Y-115759219D01*
X173074654Y-115741976D01*
X173089070Y-115726070D01*
X173104976Y-115711654D01*
X173122219Y-115698866D01*
X173140632Y-115687830D01*
X173160038Y-115678651D01*
X173180250Y-115671419D01*
X173201074Y-115666203D01*
X173222309Y-115663053D01*
X173243750Y-115662000D01*
X173756250Y-115662000D01*
X173777691Y-115663053D01*
X173777691Y-115663053D01*
G37*
D16*
X173500000Y-116099500D03*
D15*
G36*
X168530142Y-104113174D02*
G01*
X168553803Y-104116684D01*
X168577007Y-104122496D01*
X168599529Y-104130554D01*
X168621153Y-104140782D01*
X168641670Y-104153079D01*
X168660883Y-104167329D01*
X168678607Y-104183393D01*
X168694671Y-104201117D01*
X168708921Y-104220330D01*
X168721218Y-104240847D01*
X168731446Y-104262471D01*
X168739504Y-104284993D01*
X168745316Y-104308197D01*
X168748826Y-104331858D01*
X168750000Y-104355750D01*
X168750000Y-104843250D01*
X168748826Y-104867142D01*
X168745316Y-104890803D01*
X168739504Y-104914007D01*
X168731446Y-104936529D01*
X168721218Y-104958153D01*
X168708921Y-104978670D01*
X168694671Y-104997883D01*
X168678607Y-105015607D01*
X168660883Y-105031671D01*
X168641670Y-105045921D01*
X168621153Y-105058218D01*
X168599529Y-105068446D01*
X168577007Y-105076504D01*
X168553803Y-105082316D01*
X168530142Y-105085826D01*
X168506250Y-105087000D01*
X167593750Y-105087000D01*
X167569858Y-105085826D01*
X167546197Y-105082316D01*
X167522993Y-105076504D01*
X167500471Y-105068446D01*
X167478847Y-105058218D01*
X167458330Y-105045921D01*
X167439117Y-105031671D01*
X167421393Y-105015607D01*
X167405329Y-104997883D01*
X167391079Y-104978670D01*
X167378782Y-104958153D01*
X167368554Y-104936529D01*
X167360496Y-104914007D01*
X167354684Y-104890803D01*
X167351174Y-104867142D01*
X167350000Y-104843250D01*
X167350000Y-104355750D01*
X167351174Y-104331858D01*
X167354684Y-104308197D01*
X167360496Y-104284993D01*
X167368554Y-104262471D01*
X167378782Y-104240847D01*
X167391079Y-104220330D01*
X167405329Y-104201117D01*
X167421393Y-104183393D01*
X167439117Y-104167329D01*
X167458330Y-104153079D01*
X167478847Y-104140782D01*
X167500471Y-104130554D01*
X167522993Y-104122496D01*
X167546197Y-104116684D01*
X167569858Y-104113174D01*
X167593750Y-104112000D01*
X168506250Y-104112000D01*
X168530142Y-104113174D01*
X168530142Y-104113174D01*
G37*
D24*
X168050000Y-104599500D03*
D15*
G36*
X168530142Y-102238174D02*
G01*
X168553803Y-102241684D01*
X168577007Y-102247496D01*
X168599529Y-102255554D01*
X168621153Y-102265782D01*
X168641670Y-102278079D01*
X168660883Y-102292329D01*
X168678607Y-102308393D01*
X168694671Y-102326117D01*
X168708921Y-102345330D01*
X168721218Y-102365847D01*
X168731446Y-102387471D01*
X168739504Y-102409993D01*
X168745316Y-102433197D01*
X168748826Y-102456858D01*
X168750000Y-102480750D01*
X168750000Y-102968250D01*
X168748826Y-102992142D01*
X168745316Y-103015803D01*
X168739504Y-103039007D01*
X168731446Y-103061529D01*
X168721218Y-103083153D01*
X168708921Y-103103670D01*
X168694671Y-103122883D01*
X168678607Y-103140607D01*
X168660883Y-103156671D01*
X168641670Y-103170921D01*
X168621153Y-103183218D01*
X168599529Y-103193446D01*
X168577007Y-103201504D01*
X168553803Y-103207316D01*
X168530142Y-103210826D01*
X168506250Y-103212000D01*
X167593750Y-103212000D01*
X167569858Y-103210826D01*
X167546197Y-103207316D01*
X167522993Y-103201504D01*
X167500471Y-103193446D01*
X167478847Y-103183218D01*
X167458330Y-103170921D01*
X167439117Y-103156671D01*
X167421393Y-103140607D01*
X167405329Y-103122883D01*
X167391079Y-103103670D01*
X167378782Y-103083153D01*
X167368554Y-103061529D01*
X167360496Y-103039007D01*
X167354684Y-103015803D01*
X167351174Y-102992142D01*
X167350000Y-102968250D01*
X167350000Y-102480750D01*
X167351174Y-102456858D01*
X167354684Y-102433197D01*
X167360496Y-102409993D01*
X167368554Y-102387471D01*
X167378782Y-102365847D01*
X167391079Y-102345330D01*
X167405329Y-102326117D01*
X167421393Y-102308393D01*
X167439117Y-102292329D01*
X167458330Y-102278079D01*
X167478847Y-102265782D01*
X167500471Y-102255554D01*
X167522993Y-102247496D01*
X167546197Y-102241684D01*
X167569858Y-102238174D01*
X167593750Y-102237000D01*
X168506250Y-102237000D01*
X168530142Y-102238174D01*
X168530142Y-102238174D01*
G37*
D24*
X168050000Y-102724500D03*
D15*
G36*
X165277691Y-117364053D02*
G01*
X165298926Y-117367203D01*
X165319750Y-117372419D01*
X165339962Y-117379651D01*
X165359368Y-117388830D01*
X165377781Y-117399866D01*
X165395024Y-117412654D01*
X165410930Y-117427070D01*
X165425346Y-117442976D01*
X165438134Y-117460219D01*
X165449170Y-117478632D01*
X165458349Y-117498038D01*
X165465581Y-117518250D01*
X165470797Y-117539074D01*
X165473947Y-117560309D01*
X165475000Y-117581750D01*
X165475000Y-118019250D01*
X165473947Y-118040691D01*
X165470797Y-118061926D01*
X165465581Y-118082750D01*
X165458349Y-118102962D01*
X165449170Y-118122368D01*
X165438134Y-118140781D01*
X165425346Y-118158024D01*
X165410930Y-118173930D01*
X165395024Y-118188346D01*
X165377781Y-118201134D01*
X165359368Y-118212170D01*
X165339962Y-118221349D01*
X165319750Y-118228581D01*
X165298926Y-118233797D01*
X165277691Y-118236947D01*
X165256250Y-118238000D01*
X164743750Y-118238000D01*
X164722309Y-118236947D01*
X164701074Y-118233797D01*
X164680250Y-118228581D01*
X164660038Y-118221349D01*
X164640632Y-118212170D01*
X164622219Y-118201134D01*
X164604976Y-118188346D01*
X164589070Y-118173930D01*
X164574654Y-118158024D01*
X164561866Y-118140781D01*
X164550830Y-118122368D01*
X164541651Y-118102962D01*
X164534419Y-118082750D01*
X164529203Y-118061926D01*
X164526053Y-118040691D01*
X164525000Y-118019250D01*
X164525000Y-117581750D01*
X164526053Y-117560309D01*
X164529203Y-117539074D01*
X164534419Y-117518250D01*
X164541651Y-117498038D01*
X164550830Y-117478632D01*
X164561866Y-117460219D01*
X164574654Y-117442976D01*
X164589070Y-117427070D01*
X164604976Y-117412654D01*
X164622219Y-117399866D01*
X164640632Y-117388830D01*
X164660038Y-117379651D01*
X164680250Y-117372419D01*
X164701074Y-117367203D01*
X164722309Y-117364053D01*
X164743750Y-117363000D01*
X165256250Y-117363000D01*
X165277691Y-117364053D01*
X165277691Y-117364053D01*
G37*
D16*
X165000000Y-117800500D03*
D15*
G36*
X165277691Y-118939053D02*
G01*
X165298926Y-118942203D01*
X165319750Y-118947419D01*
X165339962Y-118954651D01*
X165359368Y-118963830D01*
X165377781Y-118974866D01*
X165395024Y-118987654D01*
X165410930Y-119002070D01*
X165425346Y-119017976D01*
X165438134Y-119035219D01*
X165449170Y-119053632D01*
X165458349Y-119073038D01*
X165465581Y-119093250D01*
X165470797Y-119114074D01*
X165473947Y-119135309D01*
X165475000Y-119156750D01*
X165475000Y-119594250D01*
X165473947Y-119615691D01*
X165470797Y-119636926D01*
X165465581Y-119657750D01*
X165458349Y-119677962D01*
X165449170Y-119697368D01*
X165438134Y-119715781D01*
X165425346Y-119733024D01*
X165410930Y-119748930D01*
X165395024Y-119763346D01*
X165377781Y-119776134D01*
X165359368Y-119787170D01*
X165339962Y-119796349D01*
X165319750Y-119803581D01*
X165298926Y-119808797D01*
X165277691Y-119811947D01*
X165256250Y-119813000D01*
X164743750Y-119813000D01*
X164722309Y-119811947D01*
X164701074Y-119808797D01*
X164680250Y-119803581D01*
X164660038Y-119796349D01*
X164640632Y-119787170D01*
X164622219Y-119776134D01*
X164604976Y-119763346D01*
X164589070Y-119748930D01*
X164574654Y-119733024D01*
X164561866Y-119715781D01*
X164550830Y-119697368D01*
X164541651Y-119677962D01*
X164534419Y-119657750D01*
X164529203Y-119636926D01*
X164526053Y-119615691D01*
X164525000Y-119594250D01*
X164525000Y-119156750D01*
X164526053Y-119135309D01*
X164529203Y-119114074D01*
X164534419Y-119093250D01*
X164541651Y-119073038D01*
X164550830Y-119053632D01*
X164561866Y-119035219D01*
X164574654Y-119017976D01*
X164589070Y-119002070D01*
X164604976Y-118987654D01*
X164622219Y-118974866D01*
X164640632Y-118963830D01*
X164660038Y-118954651D01*
X164680250Y-118947419D01*
X164701074Y-118942203D01*
X164722309Y-118939053D01*
X164743750Y-118938000D01*
X165256250Y-118938000D01*
X165277691Y-118939053D01*
X165277691Y-118939053D01*
G37*
D16*
X165000000Y-119375500D03*
D15*
G36*
X163914691Y-106126053D02*
G01*
X163935926Y-106129203D01*
X163956750Y-106134419D01*
X163976962Y-106141651D01*
X163996368Y-106150830D01*
X164014781Y-106161866D01*
X164032024Y-106174654D01*
X164047930Y-106189070D01*
X164062346Y-106204976D01*
X164075134Y-106222219D01*
X164086170Y-106240632D01*
X164095349Y-106260038D01*
X164102581Y-106280250D01*
X164107797Y-106301074D01*
X164110947Y-106322309D01*
X164112000Y-106343750D01*
X164112000Y-106856250D01*
X164110947Y-106877691D01*
X164107797Y-106898926D01*
X164102581Y-106919750D01*
X164095349Y-106939962D01*
X164086170Y-106959368D01*
X164075134Y-106977781D01*
X164062346Y-106995024D01*
X164047930Y-107010930D01*
X164032024Y-107025346D01*
X164014781Y-107038134D01*
X163996368Y-107049170D01*
X163976962Y-107058349D01*
X163956750Y-107065581D01*
X163935926Y-107070797D01*
X163914691Y-107073947D01*
X163893250Y-107075000D01*
X163455750Y-107075000D01*
X163434309Y-107073947D01*
X163413074Y-107070797D01*
X163392250Y-107065581D01*
X163372038Y-107058349D01*
X163352632Y-107049170D01*
X163334219Y-107038134D01*
X163316976Y-107025346D01*
X163301070Y-107010930D01*
X163286654Y-106995024D01*
X163273866Y-106977781D01*
X163262830Y-106959368D01*
X163253651Y-106939962D01*
X163246419Y-106919750D01*
X163241203Y-106898926D01*
X163238053Y-106877691D01*
X163237000Y-106856250D01*
X163237000Y-106343750D01*
X163238053Y-106322309D01*
X163241203Y-106301074D01*
X163246419Y-106280250D01*
X163253651Y-106260038D01*
X163262830Y-106240632D01*
X163273866Y-106222219D01*
X163286654Y-106204976D01*
X163301070Y-106189070D01*
X163316976Y-106174654D01*
X163334219Y-106161866D01*
X163352632Y-106150830D01*
X163372038Y-106141651D01*
X163392250Y-106134419D01*
X163413074Y-106129203D01*
X163434309Y-106126053D01*
X163455750Y-106125000D01*
X163893250Y-106125000D01*
X163914691Y-106126053D01*
X163914691Y-106126053D01*
G37*
D16*
X163674500Y-106600000D03*
D15*
G36*
X165489691Y-106126053D02*
G01*
X165510926Y-106129203D01*
X165531750Y-106134419D01*
X165551962Y-106141651D01*
X165571368Y-106150830D01*
X165589781Y-106161866D01*
X165607024Y-106174654D01*
X165622930Y-106189070D01*
X165637346Y-106204976D01*
X165650134Y-106222219D01*
X165661170Y-106240632D01*
X165670349Y-106260038D01*
X165677581Y-106280250D01*
X165682797Y-106301074D01*
X165685947Y-106322309D01*
X165687000Y-106343750D01*
X165687000Y-106856250D01*
X165685947Y-106877691D01*
X165682797Y-106898926D01*
X165677581Y-106919750D01*
X165670349Y-106939962D01*
X165661170Y-106959368D01*
X165650134Y-106977781D01*
X165637346Y-106995024D01*
X165622930Y-107010930D01*
X165607024Y-107025346D01*
X165589781Y-107038134D01*
X165571368Y-107049170D01*
X165551962Y-107058349D01*
X165531750Y-107065581D01*
X165510926Y-107070797D01*
X165489691Y-107073947D01*
X165468250Y-107075000D01*
X165030750Y-107075000D01*
X165009309Y-107073947D01*
X164988074Y-107070797D01*
X164967250Y-107065581D01*
X164947038Y-107058349D01*
X164927632Y-107049170D01*
X164909219Y-107038134D01*
X164891976Y-107025346D01*
X164876070Y-107010930D01*
X164861654Y-106995024D01*
X164848866Y-106977781D01*
X164837830Y-106959368D01*
X164828651Y-106939962D01*
X164821419Y-106919750D01*
X164816203Y-106898926D01*
X164813053Y-106877691D01*
X164812000Y-106856250D01*
X164812000Y-106343750D01*
X164813053Y-106322309D01*
X164816203Y-106301074D01*
X164821419Y-106280250D01*
X164828651Y-106260038D01*
X164837830Y-106240632D01*
X164848866Y-106222219D01*
X164861654Y-106204976D01*
X164876070Y-106189070D01*
X164891976Y-106174654D01*
X164909219Y-106161866D01*
X164927632Y-106150830D01*
X164947038Y-106141651D01*
X164967250Y-106134419D01*
X164988074Y-106129203D01*
X165009309Y-106126053D01*
X165030750Y-106125000D01*
X165468250Y-106125000D01*
X165489691Y-106126053D01*
X165489691Y-106126053D01*
G37*
D16*
X165249500Y-106600000D03*
D15*
G36*
X172277691Y-119039053D02*
G01*
X172298926Y-119042203D01*
X172319750Y-119047419D01*
X172339962Y-119054651D01*
X172359368Y-119063830D01*
X172377781Y-119074866D01*
X172395024Y-119087654D01*
X172410930Y-119102070D01*
X172425346Y-119117976D01*
X172438134Y-119135219D01*
X172449170Y-119153632D01*
X172458349Y-119173038D01*
X172465581Y-119193250D01*
X172470797Y-119214074D01*
X172473947Y-119235309D01*
X172475000Y-119256750D01*
X172475000Y-119694250D01*
X172473947Y-119715691D01*
X172470797Y-119736926D01*
X172465581Y-119757750D01*
X172458349Y-119777962D01*
X172449170Y-119797368D01*
X172438134Y-119815781D01*
X172425346Y-119833024D01*
X172410930Y-119848930D01*
X172395024Y-119863346D01*
X172377781Y-119876134D01*
X172359368Y-119887170D01*
X172339962Y-119896349D01*
X172319750Y-119903581D01*
X172298926Y-119908797D01*
X172277691Y-119911947D01*
X172256250Y-119913000D01*
X171743750Y-119913000D01*
X171722309Y-119911947D01*
X171701074Y-119908797D01*
X171680250Y-119903581D01*
X171660038Y-119896349D01*
X171640632Y-119887170D01*
X171622219Y-119876134D01*
X171604976Y-119863346D01*
X171589070Y-119848930D01*
X171574654Y-119833024D01*
X171561866Y-119815781D01*
X171550830Y-119797368D01*
X171541651Y-119777962D01*
X171534419Y-119757750D01*
X171529203Y-119736926D01*
X171526053Y-119715691D01*
X171525000Y-119694250D01*
X171525000Y-119256750D01*
X171526053Y-119235309D01*
X171529203Y-119214074D01*
X171534419Y-119193250D01*
X171541651Y-119173038D01*
X171550830Y-119153632D01*
X171561866Y-119135219D01*
X171574654Y-119117976D01*
X171589070Y-119102070D01*
X171604976Y-119087654D01*
X171622219Y-119074866D01*
X171640632Y-119063830D01*
X171660038Y-119054651D01*
X171680250Y-119047419D01*
X171701074Y-119042203D01*
X171722309Y-119039053D01*
X171743750Y-119038000D01*
X172256250Y-119038000D01*
X172277691Y-119039053D01*
X172277691Y-119039053D01*
G37*
D16*
X172000000Y-119475500D03*
D15*
G36*
X172277691Y-117464053D02*
G01*
X172298926Y-117467203D01*
X172319750Y-117472419D01*
X172339962Y-117479651D01*
X172359368Y-117488830D01*
X172377781Y-117499866D01*
X172395024Y-117512654D01*
X172410930Y-117527070D01*
X172425346Y-117542976D01*
X172438134Y-117560219D01*
X172449170Y-117578632D01*
X172458349Y-117598038D01*
X172465581Y-117618250D01*
X172470797Y-117639074D01*
X172473947Y-117660309D01*
X172475000Y-117681750D01*
X172475000Y-118119250D01*
X172473947Y-118140691D01*
X172470797Y-118161926D01*
X172465581Y-118182750D01*
X172458349Y-118202962D01*
X172449170Y-118222368D01*
X172438134Y-118240781D01*
X172425346Y-118258024D01*
X172410930Y-118273930D01*
X172395024Y-118288346D01*
X172377781Y-118301134D01*
X172359368Y-118312170D01*
X172339962Y-118321349D01*
X172319750Y-118328581D01*
X172298926Y-118333797D01*
X172277691Y-118336947D01*
X172256250Y-118338000D01*
X171743750Y-118338000D01*
X171722309Y-118336947D01*
X171701074Y-118333797D01*
X171680250Y-118328581D01*
X171660038Y-118321349D01*
X171640632Y-118312170D01*
X171622219Y-118301134D01*
X171604976Y-118288346D01*
X171589070Y-118273930D01*
X171574654Y-118258024D01*
X171561866Y-118240781D01*
X171550830Y-118222368D01*
X171541651Y-118202962D01*
X171534419Y-118182750D01*
X171529203Y-118161926D01*
X171526053Y-118140691D01*
X171525000Y-118119250D01*
X171525000Y-117681750D01*
X171526053Y-117660309D01*
X171529203Y-117639074D01*
X171534419Y-117618250D01*
X171541651Y-117598038D01*
X171550830Y-117578632D01*
X171561866Y-117560219D01*
X171574654Y-117542976D01*
X171589070Y-117527070D01*
X171604976Y-117512654D01*
X171622219Y-117499866D01*
X171640632Y-117488830D01*
X171660038Y-117479651D01*
X171680250Y-117472419D01*
X171701074Y-117467203D01*
X171722309Y-117464053D01*
X171743750Y-117463000D01*
X172256250Y-117463000D01*
X172277691Y-117464053D01*
X172277691Y-117464053D01*
G37*
D16*
X172000000Y-117900500D03*
D15*
G36*
X161430142Y-104089174D02*
G01*
X161453803Y-104092684D01*
X161477007Y-104098496D01*
X161499529Y-104106554D01*
X161521153Y-104116782D01*
X161541670Y-104129079D01*
X161560883Y-104143329D01*
X161578607Y-104159393D01*
X161594671Y-104177117D01*
X161608921Y-104196330D01*
X161621218Y-104216847D01*
X161631446Y-104238471D01*
X161639504Y-104260993D01*
X161645316Y-104284197D01*
X161648826Y-104307858D01*
X161650000Y-104331750D01*
X161650000Y-104819250D01*
X161648826Y-104843142D01*
X161645316Y-104866803D01*
X161639504Y-104890007D01*
X161631446Y-104912529D01*
X161621218Y-104934153D01*
X161608921Y-104954670D01*
X161594671Y-104973883D01*
X161578607Y-104991607D01*
X161560883Y-105007671D01*
X161541670Y-105021921D01*
X161521153Y-105034218D01*
X161499529Y-105044446D01*
X161477007Y-105052504D01*
X161453803Y-105058316D01*
X161430142Y-105061826D01*
X161406250Y-105063000D01*
X160493750Y-105063000D01*
X160469858Y-105061826D01*
X160446197Y-105058316D01*
X160422993Y-105052504D01*
X160400471Y-105044446D01*
X160378847Y-105034218D01*
X160358330Y-105021921D01*
X160339117Y-105007671D01*
X160321393Y-104991607D01*
X160305329Y-104973883D01*
X160291079Y-104954670D01*
X160278782Y-104934153D01*
X160268554Y-104912529D01*
X160260496Y-104890007D01*
X160254684Y-104866803D01*
X160251174Y-104843142D01*
X160250000Y-104819250D01*
X160250000Y-104331750D01*
X160251174Y-104307858D01*
X160254684Y-104284197D01*
X160260496Y-104260993D01*
X160268554Y-104238471D01*
X160278782Y-104216847D01*
X160291079Y-104196330D01*
X160305329Y-104177117D01*
X160321393Y-104159393D01*
X160339117Y-104143329D01*
X160358330Y-104129079D01*
X160378847Y-104116782D01*
X160400471Y-104106554D01*
X160422993Y-104098496D01*
X160446197Y-104092684D01*
X160469858Y-104089174D01*
X160493750Y-104088000D01*
X161406250Y-104088000D01*
X161430142Y-104089174D01*
X161430142Y-104089174D01*
G37*
D24*
X160950000Y-104575500D03*
D15*
G36*
X161430142Y-102214174D02*
G01*
X161453803Y-102217684D01*
X161477007Y-102223496D01*
X161499529Y-102231554D01*
X161521153Y-102241782D01*
X161541670Y-102254079D01*
X161560883Y-102268329D01*
X161578607Y-102284393D01*
X161594671Y-102302117D01*
X161608921Y-102321330D01*
X161621218Y-102341847D01*
X161631446Y-102363471D01*
X161639504Y-102385993D01*
X161645316Y-102409197D01*
X161648826Y-102432858D01*
X161650000Y-102456750D01*
X161650000Y-102944250D01*
X161648826Y-102968142D01*
X161645316Y-102991803D01*
X161639504Y-103015007D01*
X161631446Y-103037529D01*
X161621218Y-103059153D01*
X161608921Y-103079670D01*
X161594671Y-103098883D01*
X161578607Y-103116607D01*
X161560883Y-103132671D01*
X161541670Y-103146921D01*
X161521153Y-103159218D01*
X161499529Y-103169446D01*
X161477007Y-103177504D01*
X161453803Y-103183316D01*
X161430142Y-103186826D01*
X161406250Y-103188000D01*
X160493750Y-103188000D01*
X160469858Y-103186826D01*
X160446197Y-103183316D01*
X160422993Y-103177504D01*
X160400471Y-103169446D01*
X160378847Y-103159218D01*
X160358330Y-103146921D01*
X160339117Y-103132671D01*
X160321393Y-103116607D01*
X160305329Y-103098883D01*
X160291079Y-103079670D01*
X160278782Y-103059153D01*
X160268554Y-103037529D01*
X160260496Y-103015007D01*
X160254684Y-102991803D01*
X160251174Y-102968142D01*
X160250000Y-102944250D01*
X160250000Y-102456750D01*
X160251174Y-102432858D01*
X160254684Y-102409197D01*
X160260496Y-102385993D01*
X160268554Y-102363471D01*
X160278782Y-102341847D01*
X160291079Y-102321330D01*
X160305329Y-102302117D01*
X160321393Y-102284393D01*
X160339117Y-102268329D01*
X160358330Y-102254079D01*
X160378847Y-102241782D01*
X160400471Y-102231554D01*
X160422993Y-102223496D01*
X160446197Y-102217684D01*
X160469858Y-102214174D01*
X160493750Y-102213000D01*
X161406250Y-102213000D01*
X161430142Y-102214174D01*
X161430142Y-102214174D01*
G37*
D24*
X160950000Y-102700500D03*
D25*
X175300000Y-119500000D03*
X180760000Y-103880000D03*
X190330000Y-101280000D03*
X168850000Y-106260000D03*
X168092000Y-110475000D03*
X169889100Y-111212500D03*
X173518300Y-113075000D03*
X173737900Y-107887600D03*
X167783800Y-114906200D03*
X167100000Y-111600000D03*
X166835500Y-109825000D03*
X177888800Y-102626400D03*
X169400000Y-109600000D03*
D26*
X171988700Y-119486800D02*
X172000000Y-119475500D01*
X171988200Y-119486800D02*
X171988700Y-119486800D01*
X173500500Y-114525000D02*
X173500000Y-114524500D01*
X173500500Y-114525000D02*
X173757000Y-114525000D01*
X173757000Y-114525000D02*
X174588000Y-115357000D01*
X174588000Y-115357000D02*
X175951000Y-115357000D01*
X173500000Y-114525000D02*
X173500500Y-114525000D01*
X169670000Y-119570000D02*
X171905000Y-119570000D01*
X171905000Y-119570000D02*
X171988200Y-119486800D01*
X165542200Y-117670000D02*
X165130000Y-117670000D01*
X165130000Y-117670000D02*
X165000000Y-117800000D01*
X163872200Y-116000000D02*
X161675500Y-116000000D01*
X165542200Y-117670000D02*
X163872200Y-116000000D01*
X164299700Y-115025000D02*
X163872200Y-115452500D01*
X163872200Y-115452500D02*
X163872200Y-116000000D01*
X167270000Y-117670000D02*
X165542200Y-117670000D01*
X165000000Y-117800000D02*
X165000000Y-117800500D01*
X171988200Y-119486800D02*
X172000000Y-119475000D01*
X175951000Y-115357000D02*
X175951000Y-112275500D01*
X175951000Y-112275500D02*
X175000000Y-111324500D01*
X175951000Y-115357000D02*
X176306000Y-115357000D01*
X176306000Y-115357000D02*
X176769000Y-115820000D01*
X176769000Y-115820000D02*
X177900000Y-115820000D01*
X165350000Y-115025000D02*
X164299700Y-115025000D01*
X161675500Y-116000000D02*
X160888000Y-115212500D01*
X160888000Y-115212500D02*
X160888000Y-111363500D01*
X160888000Y-111363500D02*
X160124500Y-110600000D01*
X161699500Y-108800000D02*
X160124500Y-110375000D01*
X160124500Y-110375000D02*
X160124500Y-110600000D01*
X161699500Y-108575000D02*
X161699500Y-108800000D01*
X156780000Y-116820000D02*
X156780000Y-116640000D01*
X156780000Y-116640000D02*
X157695000Y-115725000D01*
X160950000Y-104575500D02*
X161650000Y-104575500D01*
X157467700Y-108180000D02*
X157695000Y-108407300D01*
X157695000Y-108407300D02*
X157695000Y-109275000D01*
X156780000Y-108180000D02*
X157467700Y-108180000D01*
X172693000Y-102700500D02*
X171905500Y-103488000D01*
X171905500Y-103488000D02*
X169161500Y-103488000D01*
X169161500Y-103488000D02*
X168050000Y-104599500D01*
X163674500Y-107423900D02*
X162523400Y-108575000D01*
X162523400Y-108575000D02*
X161699500Y-108575000D01*
X163674500Y-106600000D02*
X163674500Y-107423900D01*
X192540000Y-116840000D02*
X190000000Y-116840000D01*
X152600000Y-108180000D02*
X152600000Y-116820000D01*
X162494700Y-103700000D02*
X163350000Y-103700000D01*
X162200000Y-103700000D02*
X162494700Y-103700000D01*
X161650000Y-104575500D02*
X161650000Y-104250000D01*
X161650000Y-104250000D02*
X162200000Y-103700000D01*
X172000000Y-119475500D02*
X175275500Y-119475500D01*
X175275500Y-119475500D02*
X175300000Y-119500000D01*
X162060000Y-106600000D02*
X163674500Y-106600000D01*
X161050000Y-105590000D02*
X162060000Y-106600000D01*
X161650000Y-104575500D02*
X161050000Y-104575500D01*
X161050000Y-104575500D02*
X161050000Y-105590000D01*
X161699500Y-107749500D02*
X161699500Y-108575000D01*
X161600000Y-107650000D02*
X161699500Y-107749500D01*
X158685300Y-107650000D02*
X161600000Y-107650000D01*
X157467700Y-108180000D02*
X158155300Y-108180000D01*
X158155300Y-108180000D02*
X158685300Y-107650000D01*
X158035000Y-115725000D02*
X157695000Y-115725000D01*
X159470000Y-117160000D02*
X158035000Y-115725000D01*
X161450000Y-117160000D02*
X159470000Y-117160000D01*
X161675500Y-116000000D02*
X161675500Y-116934500D01*
X161675500Y-116934500D02*
X161450000Y-117160000D01*
X169670000Y-120495300D02*
X169670000Y-119570000D01*
X164435300Y-120495300D02*
X169670000Y-120495300D01*
X163700000Y-119760000D02*
X164435300Y-120495300D01*
X163700000Y-118210000D02*
X163700000Y-119760000D01*
X165000000Y-117800000D02*
X164110000Y-117800000D01*
X164110000Y-117800000D02*
X163700000Y-118210000D01*
X188824700Y-116840000D02*
X190000000Y-116840000D01*
X188414700Y-117250000D02*
X188824700Y-116840000D01*
X180455300Y-117250000D02*
X188414700Y-117250000D01*
X177900000Y-115820000D02*
X179025300Y-115820000D01*
X179025300Y-115820000D02*
X180455300Y-117250000D01*
X182810000Y-105100000D02*
X183900500Y-105100000D01*
X173437490Y-103444990D02*
X175218484Y-103444990D01*
X172693000Y-102700500D02*
X173437490Y-103444990D01*
X181240000Y-103530000D02*
X182810000Y-105100000D01*
X175218484Y-103444990D02*
X175220484Y-103442990D01*
X175220484Y-103442990D02*
X177261484Y-103442990D01*
X177261484Y-103442990D02*
X177348494Y-103530000D01*
X177348494Y-103530000D02*
X181240000Y-103530000D01*
X183900500Y-105100000D02*
X181980000Y-105100000D01*
X181980000Y-105100000D02*
X180760000Y-103880000D01*
X168050000Y-104599500D02*
X168050000Y-105460000D01*
X168050000Y-105460000D02*
X168850000Y-106260000D01*
X168050000Y-105350000D02*
X168050000Y-104599500D01*
X165750000Y-107650000D02*
X168050000Y-105350000D01*
X163674500Y-107423900D02*
X163900600Y-107650000D01*
X163900600Y-107650000D02*
X165750000Y-107650000D01*
D27*
X164278900Y-102750000D02*
X163802700Y-102750000D01*
X163350000Y-102750000D02*
X163802700Y-102750000D01*
X160950000Y-102700500D02*
X160874000Y-102624500D01*
X160874000Y-102624500D02*
X158750000Y-102624500D01*
X179400000Y-121575300D02*
X179400000Y-121624700D01*
X179400000Y-120400000D02*
X179400000Y-121575300D01*
X179400000Y-122800000D02*
X179400000Y-121624700D01*
X160999500Y-102750000D02*
X163350000Y-102750000D01*
X160950000Y-102700500D02*
X160999500Y-102750000D01*
X163796000Y-104650000D02*
X163350000Y-104650000D01*
X164500000Y-103946000D02*
X163796000Y-104650000D01*
X164278900Y-102750000D02*
X164500000Y-102971100D01*
X164500000Y-102971100D02*
X164500000Y-103946000D01*
X178700000Y-121100000D02*
X179400000Y-120400000D01*
X158900000Y-121100000D02*
X178700000Y-121100000D01*
X154149990Y-116349990D02*
X158900000Y-121100000D01*
X154149990Y-107050010D02*
X154149990Y-116349990D01*
X158750000Y-102624500D02*
X158575500Y-102624500D01*
X158575500Y-102624500D02*
X154149990Y-107050010D01*
D26*
X171999500Y-117900000D02*
X172000000Y-117900500D01*
X171999500Y-117900000D02*
X169900000Y-117900000D01*
X169900000Y-117900000D02*
X169670000Y-117670000D01*
X172000000Y-117900000D02*
X171999500Y-117900000D01*
X171250000Y-114375000D02*
X170365000Y-114375000D01*
X170365000Y-114375000D02*
X169670000Y-115070000D01*
X169670000Y-115070000D02*
X169670000Y-117670000D01*
X165550000Y-104650000D02*
X164694700Y-104650000D01*
X164694700Y-104650000D02*
X164694700Y-106045200D01*
X164694700Y-106045200D02*
X165249500Y-106600000D01*
X165097500Y-119472500D02*
X165097000Y-119472500D01*
X165097000Y-119472500D02*
X165000000Y-119375500D01*
X165097500Y-119472500D02*
X165000000Y-119375000D01*
X167270000Y-119570000D02*
X165195000Y-119570000D01*
X165195000Y-119570000D02*
X165097500Y-119472500D01*
X171250000Y-113725000D02*
X170275000Y-113725000D01*
X170275000Y-113725000D02*
X168295000Y-115705000D01*
X168295000Y-115705000D02*
X168295000Y-118645000D01*
X168295000Y-118645000D02*
X167370000Y-119570000D01*
X167370000Y-119570000D02*
X167270000Y-119570000D01*
D27*
X174737000Y-102632500D02*
X173990100Y-101885600D01*
X173990100Y-101885600D02*
X171464900Y-101885600D01*
X171464900Y-101885600D02*
X170650000Y-102700500D01*
X168050000Y-102724500D02*
X170626000Y-102724500D01*
X170626000Y-102724500D02*
X170650000Y-102700500D01*
X184400000Y-120400000D02*
X184400000Y-122800000D01*
X166455300Y-102750000D02*
X166480800Y-102724500D01*
X166480800Y-102724500D02*
X168050000Y-102724500D01*
X165550000Y-102750000D02*
X166455300Y-102750000D01*
X175577300Y-101792200D02*
X174737000Y-102632500D01*
X191193595Y-104093595D02*
X188892200Y-101792200D01*
X191993596Y-104093595D02*
X191193595Y-104093595D01*
X184400000Y-119224700D02*
X185514700Y-118110000D01*
X184400000Y-120400000D02*
X184400000Y-119224700D01*
X185514700Y-118110000D02*
X193390000Y-118110000D01*
X193390000Y-118110000D02*
X194000000Y-117500000D01*
X194000000Y-117500000D02*
X194000000Y-106100000D01*
X188892200Y-101792200D02*
X175577300Y-101792200D01*
X194000000Y-106100000D02*
X191993596Y-104093595D01*
D26*
X170650000Y-104275500D02*
X172693000Y-104275500D01*
X174737000Y-104207500D02*
X176778000Y-104207500D01*
X176778000Y-104207500D02*
X176780000Y-104205500D01*
D27*
X157695000Y-110050000D02*
X156980800Y-110050000D01*
X156980800Y-110050000D02*
X156142100Y-110888700D01*
X158750000Y-104199500D02*
X154700000Y-108249500D01*
X154700000Y-109446600D02*
X156142100Y-110888700D01*
X154700000Y-108249500D02*
X154700000Y-109446600D01*
X155999989Y-113983389D02*
X156966600Y-114950000D01*
X156966600Y-114950000D02*
X157695000Y-114950000D01*
X155999989Y-111030811D02*
X155999989Y-113983389D01*
X156142100Y-110888700D02*
X155999989Y-111030811D01*
D26*
X158900000Y-114799500D02*
X160100500Y-116000000D01*
X157695000Y-114250000D02*
X158900000Y-114250000D01*
X158900000Y-114250000D02*
X158900000Y-114799500D01*
X157695000Y-111250000D02*
X158745300Y-111250000D01*
X158745300Y-111250000D02*
X158745300Y-110179200D01*
X158745300Y-110179200D02*
X160124500Y-108800000D01*
X159000000Y-112400000D02*
X160100500Y-112400000D01*
X157695000Y-112750000D02*
X159000000Y-112750000D01*
X159000000Y-112750000D02*
X159000000Y-112400000D01*
X158745300Y-111750000D02*
X157695000Y-111750000D01*
X159000000Y-112400000D02*
X159000000Y-112004700D01*
X159000000Y-112004700D02*
X158745300Y-111750000D01*
X157695000Y-113250000D02*
X159150500Y-113250000D01*
X159150500Y-113250000D02*
X160100500Y-114200000D01*
X156500000Y-113250000D02*
X157695000Y-113250000D01*
X157695000Y-112250000D02*
X156500000Y-112250000D01*
X156500000Y-112250000D02*
X156500000Y-113250000D01*
X188517919Y-109500000D02*
X184424600Y-109500000D01*
X181374589Y-106449989D02*
X176326611Y-106449989D01*
X176326611Y-106449989D02*
X172951600Y-109825000D01*
X172225000Y-109825000D02*
X171250000Y-109825000D01*
X172951600Y-109825000D02*
X172225000Y-109825000D01*
X184424600Y-109500000D02*
X181374589Y-106449989D01*
X188797919Y-109220000D02*
X188517919Y-109500000D01*
X190000000Y-109220000D02*
X188797919Y-109220000D01*
X165350000Y-110475000D02*
X166400300Y-110475000D01*
X166400300Y-110475000D02*
X166475600Y-110550300D01*
X166475600Y-110550300D02*
X168016700Y-110550300D01*
X168016700Y-110550300D02*
X168092000Y-110475000D01*
X179025300Y-110740000D02*
X177900000Y-110740000D01*
X180150600Y-111865300D02*
X179025300Y-110740000D01*
X190000000Y-111760000D02*
X189894700Y-111865300D01*
X189894700Y-111865300D02*
X180150600Y-111865300D01*
X169889100Y-111212500D02*
X167776300Y-109099700D01*
X167776300Y-109099700D02*
X166475600Y-109099700D01*
X166475600Y-109099700D02*
X166400300Y-109175000D01*
X185520000Y-113280000D02*
X186645300Y-113280000D01*
X190000000Y-114300000D02*
X187665300Y-114300000D01*
X187665300Y-114300000D02*
X186645300Y-113280000D01*
X165350000Y-109175000D02*
X166400300Y-109175000D01*
X161675500Y-114200500D02*
X161675500Y-114200000D01*
X165350000Y-114375000D02*
X161850000Y-114375000D01*
X161850000Y-114375000D02*
X161675500Y-114200500D01*
X161675500Y-114200500D02*
X161675000Y-114200000D01*
X161675300Y-112400200D02*
X163000000Y-113725000D01*
X163000000Y-113725000D02*
X165350000Y-113725000D01*
X161675000Y-112400000D02*
X161675300Y-112400200D01*
X161675500Y-112400000D02*
X161675300Y-112400200D01*
D27*
X181900000Y-122349900D02*
X181900000Y-121624700D01*
X181900000Y-122800000D02*
X181900000Y-122349900D01*
D26*
X173499800Y-116099700D02*
X172425000Y-115025000D01*
X172425000Y-115025000D02*
X171250000Y-115025000D01*
X175020000Y-116120000D02*
X173520000Y-116120000D01*
X173520000Y-116120000D02*
X173499800Y-116099700D01*
D27*
X173500000Y-116099500D02*
X173499800Y-116099700D01*
X181900000Y-121575300D02*
X181900000Y-121624700D01*
X181900000Y-120400000D02*
X181900000Y-121575300D01*
X175020000Y-116119500D02*
X175020000Y-116120000D01*
X190000000Y-119380000D02*
X192540000Y-119380000D01*
X181900000Y-118700000D02*
X181900000Y-120400000D01*
X175020000Y-116120000D02*
X177600000Y-118700000D01*
X177600000Y-118700000D02*
X181900000Y-118700000D01*
X185475500Y-108155500D02*
X185475500Y-105100000D01*
X185520000Y-108200000D02*
X185475500Y-108155500D01*
X189730900Y-119380000D02*
X190000000Y-119380000D01*
X184810900Y-124300000D02*
X189730900Y-119380000D01*
X182700000Y-124300000D02*
X184810900Y-124300000D01*
X181900000Y-122349900D02*
X181900000Y-123500000D01*
X181900000Y-123500000D02*
X182700000Y-124300000D01*
D26*
X165350000Y-113075000D02*
X164175000Y-113075000D01*
X164175000Y-113075000D02*
X162312000Y-111212000D01*
X162312000Y-111212000D02*
X162311500Y-111212000D01*
X162311500Y-111212000D02*
X161699500Y-110600000D01*
X162312000Y-111212000D02*
X161700000Y-110600000D01*
X173518300Y-113075000D02*
X171250000Y-113075000D01*
X175000000Y-112900000D02*
X174825000Y-113075000D01*
X174825000Y-113075000D02*
X173518300Y-113075000D01*
X175000000Y-112900000D02*
X175000000Y-112899500D01*
X175020000Y-114544000D02*
X175020000Y-112920000D01*
X175020000Y-112920000D02*
X175000000Y-112900000D01*
X175020000Y-114544000D02*
X175020000Y-114544500D01*
X171250000Y-111775000D02*
X172300300Y-111775000D01*
X177900000Y-108200000D02*
X175875300Y-108200000D01*
X175875300Y-108200000D02*
X172300300Y-111775000D01*
X163900000Y-108700000D02*
X163900000Y-111125000D01*
X163900000Y-111125000D02*
X165350000Y-111125000D01*
X164500000Y-108100000D02*
X163900000Y-108700000D01*
X171930000Y-108100000D02*
X164500000Y-108100000D01*
X192480000Y-106680000D02*
X190098800Y-104298800D01*
X174086800Y-105943200D02*
X171930000Y-108100000D01*
X192540000Y-106680000D02*
X192480000Y-106680000D01*
X190098800Y-104298800D02*
X185021700Y-104298800D01*
X184387400Y-105943200D02*
X174086800Y-105943200D01*
X185021700Y-104298800D02*
X184688000Y-104632500D01*
X184688000Y-104632500D02*
X184688000Y-105642600D01*
X184688000Y-105642600D02*
X184387400Y-105943200D01*
X172580700Y-112425000D02*
X171250000Y-112425000D01*
X174481200Y-110524500D02*
X172580700Y-112425000D01*
X175539600Y-110524500D02*
X174481200Y-110524500D01*
X177900000Y-113280000D02*
X177900000Y-112884900D01*
X177900000Y-112884900D02*
X175539600Y-110524500D01*
X172300300Y-111125000D02*
X171250000Y-111125000D01*
X176525300Y-106900000D02*
X172300300Y-111125000D01*
X180554700Y-106900000D02*
X176525300Y-106900000D01*
X184394700Y-110740000D02*
X180554700Y-106900000D01*
X185520000Y-110740000D02*
X184394700Y-110740000D01*
X186645300Y-110740000D02*
X185520000Y-110740000D01*
X186811100Y-110574200D02*
X186645300Y-110740000D01*
X190546200Y-110574200D02*
X186811100Y-110574200D01*
X192540000Y-111760000D02*
X191732000Y-111760000D01*
X191732000Y-111760000D02*
X190546200Y-110574200D01*
X171250000Y-109175000D02*
X172300300Y-109175000D01*
X173737900Y-107887600D02*
X173587700Y-107887600D01*
X173587700Y-107887600D02*
X172300300Y-109175000D01*
X165350000Y-112425000D02*
X166143600Y-112425000D01*
X166143600Y-112425000D02*
X167783800Y-114065200D01*
X167783800Y-114065200D02*
X167783800Y-114906200D01*
X165350000Y-111775000D02*
X166925000Y-111775000D01*
X166925000Y-111775000D02*
X167100000Y-111600000D01*
X165350000Y-109825000D02*
X166835500Y-109825000D01*
X177888800Y-102626400D02*
X176784100Y-102626400D01*
X176784100Y-102626400D02*
X176780000Y-102630500D01*
X170275000Y-110475000D02*
X169400000Y-109600000D01*
X171250000Y-110475000D02*
X170275000Y-110475000D01*
D28*
G36*
X193259659Y-100688625D02*
G01*
X193509429Y-100764035D01*
X193739792Y-100886522D01*
X193941980Y-101051422D01*
X194108286Y-101252450D01*
X194232378Y-101481954D01*
X194309531Y-101731195D01*
X194340000Y-102021089D01*
X194340000Y-105294487D01*
X192594496Y-103548983D01*
X192569124Y-103518067D01*
X192445785Y-103416846D01*
X192305069Y-103341632D01*
X192152384Y-103295315D01*
X192033387Y-103283595D01*
X192033384Y-103283595D01*
X191993596Y-103279676D01*
X191953808Y-103283595D01*
X191529108Y-103283595D01*
X189493099Y-101247587D01*
X189467728Y-101216672D01*
X189344389Y-101115451D01*
X189203673Y-101040237D01*
X189050988Y-100993920D01*
X188931991Y-100982200D01*
X188931988Y-100982200D01*
X188892200Y-100978281D01*
X188852412Y-100982200D01*
X175617088Y-100982200D01*
X175577300Y-100978281D01*
X175537512Y-100982200D01*
X175537509Y-100982200D01*
X175418512Y-100993920D01*
X175310660Y-101026637D01*
X175265826Y-101040237D01*
X175155380Y-101099272D01*
X175125111Y-101115451D01*
X175001772Y-101216672D01*
X174976405Y-101247582D01*
X174737000Y-101486988D01*
X174590999Y-101340987D01*
X174565628Y-101310072D01*
X174442289Y-101208851D01*
X174301573Y-101133637D01*
X174148888Y-101087320D01*
X174029891Y-101075600D01*
X174029888Y-101075600D01*
X173990100Y-101071681D01*
X173950312Y-101075600D01*
X171504688Y-101075600D01*
X171464900Y-101071681D01*
X171425112Y-101075600D01*
X171425109Y-101075600D01*
X171306112Y-101087320D01*
X171213378Y-101115451D01*
X171153426Y-101133637D01*
X171045532Y-101191308D01*
X171012711Y-101208851D01*
X170889372Y-101310072D01*
X170864005Y-101340982D01*
X170580059Y-101624928D01*
X170393750Y-101624928D01*
X170226592Y-101641392D01*
X170065858Y-101690150D01*
X169917725Y-101769329D01*
X169787885Y-101875885D01*
X169756195Y-101914500D01*
X169176810Y-101914500D01*
X169129792Y-101857208D01*
X168996164Y-101747542D01*
X168843709Y-101666053D01*
X168678285Y-101615872D01*
X168506250Y-101598928D01*
X167593750Y-101598928D01*
X167421715Y-101615872D01*
X167256291Y-101666053D01*
X167103836Y-101747542D01*
X166970208Y-101857208D01*
X166923190Y-101914500D01*
X166520587Y-101914500D01*
X166480799Y-101910581D01*
X166456991Y-101912926D01*
X166434494Y-101894463D01*
X166324180Y-101835498D01*
X166204482Y-101799188D01*
X166080000Y-101786928D01*
X165020000Y-101786928D01*
X164895518Y-101799188D01*
X164775820Y-101835498D01*
X164665506Y-101894463D01*
X164568815Y-101973815D01*
X164557196Y-101987973D01*
X164437688Y-101951720D01*
X164318691Y-101940000D01*
X164318688Y-101940000D01*
X164286066Y-101936787D01*
X164234494Y-101894463D01*
X164124180Y-101835498D01*
X164004482Y-101799188D01*
X163880000Y-101786928D01*
X162820000Y-101786928D01*
X162695518Y-101799188D01*
X162575820Y-101835498D01*
X162465506Y-101894463D01*
X162410019Y-101940000D01*
X162117434Y-101940000D01*
X162029792Y-101833208D01*
X161896164Y-101723542D01*
X161743709Y-101642053D01*
X161578285Y-101591872D01*
X161406250Y-101574928D01*
X160493750Y-101574928D01*
X160321715Y-101591872D01*
X160156291Y-101642053D01*
X160003836Y-101723542D01*
X159893004Y-101814500D01*
X159624109Y-101814500D01*
X159612115Y-101799885D01*
X159482275Y-101693329D01*
X159334142Y-101614150D01*
X159173408Y-101565392D01*
X159006250Y-101548928D01*
X158493750Y-101548928D01*
X158326592Y-101565392D01*
X158165858Y-101614150D01*
X158017725Y-101693329D01*
X157887885Y-101799885D01*
X157781329Y-101929725D01*
X157702150Y-102077858D01*
X157653392Y-102238592D01*
X157636928Y-102405750D01*
X157636928Y-102417559D01*
X153605378Y-106449110D01*
X153574462Y-106474482D01*
X153510691Y-106552188D01*
X153473241Y-106597821D01*
X153433039Y-106673035D01*
X153398027Y-106738538D01*
X153351710Y-106891223D01*
X153339990Y-107010219D01*
X153336071Y-107050010D01*
X153339990Y-107089798D01*
X153339990Y-107131990D01*
X153245987Y-107091585D01*
X153027000Y-107045000D01*
X152727000Y-107045000D01*
X152727000Y-108053000D01*
X152747000Y-108053000D01*
X152747000Y-108307000D01*
X152727000Y-108307000D01*
X152727000Y-109315000D01*
X153027000Y-109315000D01*
X153245987Y-109268415D01*
X153339990Y-109228010D01*
X153339991Y-115771991D01*
X153245987Y-115731585D01*
X153027000Y-115685000D01*
X152727000Y-115685000D01*
X152727000Y-116693000D01*
X152747000Y-116693000D01*
X152747000Y-116947000D01*
X152727000Y-116947000D01*
X152727000Y-117955000D01*
X153027000Y-117955000D01*
X153245987Y-117908415D01*
X153451678Y-117820003D01*
X153636169Y-117693161D01*
X153792369Y-117532764D01*
X153914276Y-117344976D01*
X153936728Y-117282240D01*
X158299105Y-121644618D01*
X158324472Y-121675528D01*
X158355380Y-121700893D01*
X158447811Y-121776749D01*
X158588526Y-121851963D01*
X158741212Y-121898280D01*
X158900000Y-121913919D01*
X158939791Y-121910000D01*
X178255862Y-121910000D01*
X178254188Y-121915518D01*
X178241928Y-122040000D01*
X178241928Y-123640000D01*
X178254188Y-123764482D01*
X178290498Y-123884180D01*
X178349463Y-123994494D01*
X178428815Y-124091185D01*
X178525506Y-124170537D01*
X178635820Y-124229502D01*
X178755518Y-124265812D01*
X178880000Y-124278072D01*
X179880000Y-124278072D01*
X180004482Y-124265812D01*
X180124180Y-124229502D01*
X180234494Y-124170537D01*
X180331185Y-124091185D01*
X180410537Y-123994494D01*
X180469502Y-123884180D01*
X180505812Y-123764482D01*
X180518072Y-123640000D01*
X180518072Y-122040000D01*
X180505812Y-121915518D01*
X180469502Y-121795820D01*
X180410537Y-121685506D01*
X180331185Y-121588815D01*
X180234494Y-121509463D01*
X180210000Y-121496370D01*
X180210000Y-121283630D01*
X180234494Y-121270537D01*
X180331185Y-121191185D01*
X180410537Y-121094494D01*
X180469502Y-120984180D01*
X180505812Y-120864482D01*
X180518072Y-120740000D01*
X180518072Y-119510000D01*
X180741928Y-119510000D01*
X180741928Y-120740000D01*
X180754188Y-120864482D01*
X180790498Y-120984180D01*
X180849463Y-121094494D01*
X180928815Y-121191185D01*
X181025506Y-121270537D01*
X181090001Y-121305011D01*
X181090001Y-121474989D01*
X181025506Y-121509463D01*
X180928815Y-121588815D01*
X180849463Y-121685506D01*
X180790498Y-121795820D01*
X180754188Y-121915518D01*
X180741928Y-122040000D01*
X180741928Y-123640000D01*
X180754188Y-123764482D01*
X180790498Y-123884180D01*
X180849463Y-123994494D01*
X180928815Y-124091185D01*
X181025506Y-124170537D01*
X181135820Y-124229502D01*
X181255518Y-124265812D01*
X181380000Y-124278072D01*
X181532560Y-124278072D01*
X181594488Y-124340000D01*
X175779163Y-124340000D01*
X175814157Y-124281252D01*
X175911481Y-124006891D01*
X175790814Y-123777000D01*
X174597000Y-123777000D01*
X174597000Y-123797000D01*
X174343000Y-123797000D01*
X174343000Y-123777000D01*
X174323000Y-123777000D01*
X174323000Y-123523000D01*
X174343000Y-123523000D01*
X174343000Y-122329845D01*
X174597000Y-122329845D01*
X174597000Y-123523000D01*
X175790814Y-123523000D01*
X175911481Y-123293109D01*
X175814157Y-123018748D01*
X175665178Y-122768645D01*
X175470269Y-122552412D01*
X175236920Y-122378359D01*
X174974099Y-122253175D01*
X174826890Y-122208524D01*
X174597000Y-122329845D01*
X174343000Y-122329845D01*
X174113110Y-122208524D01*
X173965901Y-122253175D01*
X173703080Y-122378359D01*
X173469731Y-122552412D01*
X173274822Y-122768645D01*
X173205201Y-122885523D01*
X173170706Y-122820986D01*
X172985134Y-122594866D01*
X172759014Y-122409294D01*
X172501034Y-122271401D01*
X172221111Y-122186487D01*
X172002950Y-122165000D01*
X171857050Y-122165000D01*
X171638889Y-122186487D01*
X171358966Y-122271401D01*
X171100986Y-122409294D01*
X170874866Y-122594866D01*
X170689294Y-122820986D01*
X170660000Y-122875791D01*
X170630706Y-122820986D01*
X170445134Y-122594866D01*
X170219014Y-122409294D01*
X169961034Y-122271401D01*
X169681111Y-122186487D01*
X169462950Y-122165000D01*
X169317050Y-122165000D01*
X169098889Y-122186487D01*
X168818966Y-122271401D01*
X168560986Y-122409294D01*
X168334866Y-122594866D01*
X168149294Y-122820986D01*
X168120000Y-122875791D01*
X168090706Y-122820986D01*
X167905134Y-122594866D01*
X167679014Y-122409294D01*
X167421034Y-122271401D01*
X167141111Y-122186487D01*
X166922950Y-122165000D01*
X166777050Y-122165000D01*
X166558889Y-122186487D01*
X166278966Y-122271401D01*
X166020986Y-122409294D01*
X165794866Y-122594866D01*
X165609294Y-122820986D01*
X165580000Y-122875791D01*
X165550706Y-122820986D01*
X165365134Y-122594866D01*
X165139014Y-122409294D01*
X164881034Y-122271401D01*
X164601111Y-122186487D01*
X164382950Y-122165000D01*
X164237050Y-122165000D01*
X164018889Y-122186487D01*
X163738966Y-122271401D01*
X163480986Y-122409294D01*
X163254866Y-122594866D01*
X163230393Y-122624687D01*
X163209502Y-122555820D01*
X163150537Y-122445506D01*
X163071185Y-122348815D01*
X162974494Y-122269463D01*
X162864180Y-122210498D01*
X162744482Y-122174188D01*
X162620000Y-122161928D01*
X160920000Y-122161928D01*
X160795518Y-122174188D01*
X160675820Y-122210498D01*
X160565506Y-122269463D01*
X160468815Y-122348815D01*
X160389463Y-122445506D01*
X160330498Y-122555820D01*
X160294188Y-122675518D01*
X160281928Y-122800000D01*
X160281928Y-124340000D01*
X152032279Y-124340000D01*
X151740340Y-124311375D01*
X151490571Y-124235965D01*
X151260206Y-124113477D01*
X151058021Y-123948579D01*
X150891712Y-123747546D01*
X150767622Y-123518046D01*
X150690469Y-123268805D01*
X150660000Y-122978911D01*
X150660000Y-121779872D01*
X150765000Y-121779872D01*
X150765000Y-122220128D01*
X150850890Y-122651925D01*
X151019369Y-123058669D01*
X151263962Y-123424729D01*
X151575271Y-123736038D01*
X151941331Y-123980631D01*
X152348075Y-124149110D01*
X152779872Y-124235000D01*
X153220128Y-124235000D01*
X153651925Y-124149110D01*
X154058669Y-123980631D01*
X154424729Y-123736038D01*
X154736038Y-123424729D01*
X154980631Y-123058669D01*
X155149110Y-122651925D01*
X155235000Y-122220128D01*
X155235000Y-121779872D01*
X155149110Y-121348075D01*
X154980631Y-120941331D01*
X154736038Y-120575271D01*
X154424729Y-120263962D01*
X154058669Y-120019369D01*
X153651925Y-119850890D01*
X153220128Y-119765000D01*
X152779872Y-119765000D01*
X152348075Y-119850890D01*
X151941331Y-120019369D01*
X151575271Y-120263962D01*
X151263962Y-120575271D01*
X151019369Y-120941331D01*
X150850890Y-121348075D01*
X150765000Y-121779872D01*
X150660000Y-121779872D01*
X150660000Y-117121874D01*
X151205881Y-117121874D01*
X151285724Y-117344976D01*
X151407631Y-117532764D01*
X151563831Y-117693161D01*
X151748322Y-117820003D01*
X151954013Y-117908415D01*
X152173000Y-117955000D01*
X152473000Y-117955000D01*
X152473000Y-116947000D01*
X151332046Y-116947000D01*
X151205881Y-117121874D01*
X150660000Y-117121874D01*
X150660000Y-116518126D01*
X151205881Y-116518126D01*
X151332046Y-116693000D01*
X152473000Y-116693000D01*
X152473000Y-115685000D01*
X152173000Y-115685000D01*
X151954013Y-115731585D01*
X151748322Y-115819997D01*
X151563831Y-115946839D01*
X151407631Y-116107236D01*
X151285724Y-116295024D01*
X151205881Y-116518126D01*
X150660000Y-116518126D01*
X150660000Y-108481874D01*
X151205881Y-108481874D01*
X151285724Y-108704976D01*
X151407631Y-108892764D01*
X151563831Y-109053161D01*
X151748322Y-109180003D01*
X151954013Y-109268415D01*
X152173000Y-109315000D01*
X152473000Y-109315000D01*
X152473000Y-108307000D01*
X151332046Y-108307000D01*
X151205881Y-108481874D01*
X150660000Y-108481874D01*
X150660000Y-107878126D01*
X151205881Y-107878126D01*
X151332046Y-108053000D01*
X152473000Y-108053000D01*
X152473000Y-107045000D01*
X152173000Y-107045000D01*
X151954013Y-107091585D01*
X151748322Y-107179997D01*
X151563831Y-107306839D01*
X151407631Y-107467236D01*
X151285724Y-107655024D01*
X151205881Y-107878126D01*
X150660000Y-107878126D01*
X150660000Y-102779872D01*
X150765000Y-102779872D01*
X150765000Y-103220128D01*
X150850890Y-103651925D01*
X151019369Y-104058669D01*
X151263962Y-104424729D01*
X151575271Y-104736038D01*
X151941331Y-104980631D01*
X152348075Y-105149110D01*
X152779872Y-105235000D01*
X153220128Y-105235000D01*
X153651925Y-105149110D01*
X154058669Y-104980631D01*
X154424729Y-104736038D01*
X154736038Y-104424729D01*
X154980631Y-104058669D01*
X155149110Y-103651925D01*
X155235000Y-103220128D01*
X155235000Y-102779872D01*
X155149110Y-102348075D01*
X154980631Y-101941331D01*
X154736038Y-101575271D01*
X154424729Y-101263962D01*
X154058669Y-101019369D01*
X153651925Y-100850890D01*
X153220128Y-100765000D01*
X152779872Y-100765000D01*
X152348075Y-100850890D01*
X151941331Y-101019369D01*
X151575271Y-101263962D01*
X151263962Y-101575271D01*
X151019369Y-101941331D01*
X150850890Y-102348075D01*
X150765000Y-102779872D01*
X150660000Y-102779872D01*
X150660000Y-102032279D01*
X150688625Y-101740341D01*
X150764035Y-101490571D01*
X150886522Y-101260208D01*
X151051422Y-101058020D01*
X151252450Y-100891714D01*
X151481954Y-100767622D01*
X151731195Y-100690469D01*
X152021088Y-100660000D01*
X192967721Y-100660000D01*
X193259659Y-100688625D01*
X193259659Y-100688625D01*
G37*
X193259659Y-100688625D02*
X193509429Y-100764035D01*
X193739792Y-100886522D01*
X193941980Y-101051422D01*
X194108286Y-101252450D01*
X194232378Y-101481954D01*
X194309531Y-101731195D01*
X194340000Y-102021089D01*
X194340000Y-105294487D01*
X192594496Y-103548983D01*
X192569124Y-103518067D01*
X192445785Y-103416846D01*
X192305069Y-103341632D01*
X192152384Y-103295315D01*
X192033387Y-103283595D01*
X192033384Y-103283595D01*
X191993596Y-103279676D01*
X191953808Y-103283595D01*
X191529108Y-103283595D01*
X189493099Y-101247587D01*
X189467728Y-101216672D01*
X189344389Y-101115451D01*
X189203673Y-101040237D01*
X189050988Y-100993920D01*
X188931991Y-100982200D01*
X188931988Y-100982200D01*
X188892200Y-100978281D01*
X188852412Y-100982200D01*
X175617088Y-100982200D01*
X175577300Y-100978281D01*
X175537512Y-100982200D01*
X175537509Y-100982200D01*
X175418512Y-100993920D01*
X175310660Y-101026637D01*
X175265826Y-101040237D01*
X175155380Y-101099272D01*
X175125111Y-101115451D01*
X175001772Y-101216672D01*
X174976405Y-101247582D01*
X174737000Y-101486988D01*
X174590999Y-101340987D01*
X174565628Y-101310072D01*
X174442289Y-101208851D01*
X174301573Y-101133637D01*
X174148888Y-101087320D01*
X174029891Y-101075600D01*
X174029888Y-101075600D01*
X173990100Y-101071681D01*
X173950312Y-101075600D01*
X171504688Y-101075600D01*
X171464900Y-101071681D01*
X171425112Y-101075600D01*
X171425109Y-101075600D01*
X171306112Y-101087320D01*
X171213378Y-101115451D01*
X171153426Y-101133637D01*
X171045532Y-101191308D01*
X171012711Y-101208851D01*
X170889372Y-101310072D01*
X170864005Y-101340982D01*
X170580059Y-101624928D01*
X170393750Y-101624928D01*
X170226592Y-101641392D01*
X170065858Y-101690150D01*
X169917725Y-101769329D01*
X169787885Y-101875885D01*
X169756195Y-101914500D01*
X169176810Y-101914500D01*
X169129792Y-101857208D01*
X168996164Y-101747542D01*
X168843709Y-101666053D01*
X168678285Y-101615872D01*
X168506250Y-101598928D01*
X167593750Y-101598928D01*
X167421715Y-101615872D01*
X167256291Y-101666053D01*
X167103836Y-101747542D01*
X166970208Y-101857208D01*
X166923190Y-101914500D01*
X166520587Y-101914500D01*
X166480799Y-101910581D01*
X166456991Y-101912926D01*
X166434494Y-101894463D01*
X166324180Y-101835498D01*
X166204482Y-101799188D01*
X166080000Y-101786928D01*
X165020000Y-101786928D01*
X164895518Y-101799188D01*
X164775820Y-101835498D01*
X164665506Y-101894463D01*
X164568815Y-101973815D01*
X164557196Y-101987973D01*
X164437688Y-101951720D01*
X164318691Y-101940000D01*
X164318688Y-101940000D01*
X164286066Y-101936787D01*
X164234494Y-101894463D01*
X164124180Y-101835498D01*
X164004482Y-101799188D01*
X163880000Y-101786928D01*
X162820000Y-101786928D01*
X162695518Y-101799188D01*
X162575820Y-101835498D01*
X162465506Y-101894463D01*
X162410019Y-101940000D01*
X162117434Y-101940000D01*
X162029792Y-101833208D01*
X161896164Y-101723542D01*
X161743709Y-101642053D01*
X161578285Y-101591872D01*
X161406250Y-101574928D01*
X160493750Y-101574928D01*
X160321715Y-101591872D01*
X160156291Y-101642053D01*
X160003836Y-101723542D01*
X159893004Y-101814500D01*
X159624109Y-101814500D01*
X159612115Y-101799885D01*
X159482275Y-101693329D01*
X159334142Y-101614150D01*
X159173408Y-101565392D01*
X159006250Y-101548928D01*
X158493750Y-101548928D01*
X158326592Y-101565392D01*
X158165858Y-101614150D01*
X158017725Y-101693329D01*
X157887885Y-101799885D01*
X157781329Y-101929725D01*
X157702150Y-102077858D01*
X157653392Y-102238592D01*
X157636928Y-102405750D01*
X157636928Y-102417559D01*
X153605378Y-106449110D01*
X153574462Y-106474482D01*
X153510691Y-106552188D01*
X153473241Y-106597821D01*
X153433039Y-106673035D01*
X153398027Y-106738538D01*
X153351710Y-106891223D01*
X153339990Y-107010219D01*
X153336071Y-107050010D01*
X153339990Y-107089798D01*
X153339990Y-107131990D01*
X153245987Y-107091585D01*
X153027000Y-107045000D01*
X152727000Y-107045000D01*
X152727000Y-108053000D01*
X152747000Y-108053000D01*
X152747000Y-108307000D01*
X152727000Y-108307000D01*
X152727000Y-109315000D01*
X153027000Y-109315000D01*
X153245987Y-109268415D01*
X153339990Y-109228010D01*
X153339991Y-115771991D01*
X153245987Y-115731585D01*
X153027000Y-115685000D01*
X152727000Y-115685000D01*
X152727000Y-116693000D01*
X152747000Y-116693000D01*
X152747000Y-116947000D01*
X152727000Y-116947000D01*
X152727000Y-117955000D01*
X153027000Y-117955000D01*
X153245987Y-117908415D01*
X153451678Y-117820003D01*
X153636169Y-117693161D01*
X153792369Y-117532764D01*
X153914276Y-117344976D01*
X153936728Y-117282240D01*
X158299105Y-121644618D01*
X158324472Y-121675528D01*
X158355380Y-121700893D01*
X158447811Y-121776749D01*
X158588526Y-121851963D01*
X158741212Y-121898280D01*
X158900000Y-121913919D01*
X158939791Y-121910000D01*
X178255862Y-121910000D01*
X178254188Y-121915518D01*
X178241928Y-122040000D01*
X178241928Y-123640000D01*
X178254188Y-123764482D01*
X178290498Y-123884180D01*
X178349463Y-123994494D01*
X178428815Y-124091185D01*
X178525506Y-124170537D01*
X178635820Y-124229502D01*
X178755518Y-124265812D01*
X178880000Y-124278072D01*
X179880000Y-124278072D01*
X180004482Y-124265812D01*
X180124180Y-124229502D01*
X180234494Y-124170537D01*
X180331185Y-124091185D01*
X180410537Y-123994494D01*
X180469502Y-123884180D01*
X180505812Y-123764482D01*
X180518072Y-123640000D01*
X180518072Y-122040000D01*
X180505812Y-121915518D01*
X180469502Y-121795820D01*
X180410537Y-121685506D01*
X180331185Y-121588815D01*
X180234494Y-121509463D01*
X180210000Y-121496370D01*
X180210000Y-121283630D01*
X180234494Y-121270537D01*
X180331185Y-121191185D01*
X180410537Y-121094494D01*
X180469502Y-120984180D01*
X180505812Y-120864482D01*
X180518072Y-120740000D01*
X180518072Y-119510000D01*
X180741928Y-119510000D01*
X180741928Y-120740000D01*
X180754188Y-120864482D01*
X180790498Y-120984180D01*
X180849463Y-121094494D01*
X180928815Y-121191185D01*
X181025506Y-121270537D01*
X181090001Y-121305011D01*
X181090001Y-121474989D01*
X181025506Y-121509463D01*
X180928815Y-121588815D01*
X180849463Y-121685506D01*
X180790498Y-121795820D01*
X180754188Y-121915518D01*
X180741928Y-122040000D01*
X180741928Y-123640000D01*
X180754188Y-123764482D01*
X180790498Y-123884180D01*
X180849463Y-123994494D01*
X180928815Y-124091185D01*
X181025506Y-124170537D01*
X181135820Y-124229502D01*
X181255518Y-124265812D01*
X181380000Y-124278072D01*
X181532560Y-124278072D01*
X181594488Y-124340000D01*
X175779163Y-124340000D01*
X175814157Y-124281252D01*
X175911481Y-124006891D01*
X175790814Y-123777000D01*
X174597000Y-123777000D01*
X174597000Y-123797000D01*
X174343000Y-123797000D01*
X174343000Y-123777000D01*
X174323000Y-123777000D01*
X174323000Y-123523000D01*
X174343000Y-123523000D01*
X174343000Y-122329845D01*
X174597000Y-122329845D01*
X174597000Y-123523000D01*
X175790814Y-123523000D01*
X175911481Y-123293109D01*
X175814157Y-123018748D01*
X175665178Y-122768645D01*
X175470269Y-122552412D01*
X175236920Y-122378359D01*
X174974099Y-122253175D01*
X174826890Y-122208524D01*
X174597000Y-122329845D01*
X174343000Y-122329845D01*
X174113110Y-122208524D01*
X173965901Y-122253175D01*
X173703080Y-122378359D01*
X173469731Y-122552412D01*
X173274822Y-122768645D01*
X173205201Y-122885523D01*
X173170706Y-122820986D01*
X172985134Y-122594866D01*
X172759014Y-122409294D01*
X172501034Y-122271401D01*
X172221111Y-122186487D01*
X172002950Y-122165000D01*
X171857050Y-122165000D01*
X171638889Y-122186487D01*
X171358966Y-122271401D01*
X171100986Y-122409294D01*
X170874866Y-122594866D01*
X170689294Y-122820986D01*
X170660000Y-122875791D01*
X170630706Y-122820986D01*
X170445134Y-122594866D01*
X170219014Y-122409294D01*
X169961034Y-122271401D01*
X169681111Y-122186487D01*
X169462950Y-122165000D01*
X169317050Y-122165000D01*
X169098889Y-122186487D01*
X168818966Y-122271401D01*
X168560986Y-122409294D01*
X168334866Y-122594866D01*
X168149294Y-122820986D01*
X168120000Y-122875791D01*
X168090706Y-122820986D01*
X167905134Y-122594866D01*
X167679014Y-122409294D01*
X167421034Y-122271401D01*
X167141111Y-122186487D01*
X166922950Y-122165000D01*
X166777050Y-122165000D01*
X166558889Y-122186487D01*
X166278966Y-122271401D01*
X166020986Y-122409294D01*
X165794866Y-122594866D01*
X165609294Y-122820986D01*
X165580000Y-122875791D01*
X165550706Y-122820986D01*
X165365134Y-122594866D01*
X165139014Y-122409294D01*
X164881034Y-122271401D01*
X164601111Y-122186487D01*
X164382950Y-122165000D01*
X164237050Y-122165000D01*
X164018889Y-122186487D01*
X163738966Y-122271401D01*
X163480986Y-122409294D01*
X163254866Y-122594866D01*
X163230393Y-122624687D01*
X163209502Y-122555820D01*
X163150537Y-122445506D01*
X163071185Y-122348815D01*
X162974494Y-122269463D01*
X162864180Y-122210498D01*
X162744482Y-122174188D01*
X162620000Y-122161928D01*
X160920000Y-122161928D01*
X160795518Y-122174188D01*
X160675820Y-122210498D01*
X160565506Y-122269463D01*
X160468815Y-122348815D01*
X160389463Y-122445506D01*
X160330498Y-122555820D01*
X160294188Y-122675518D01*
X160281928Y-122800000D01*
X160281928Y-124340000D01*
X152032279Y-124340000D01*
X151740340Y-124311375D01*
X151490571Y-124235965D01*
X151260206Y-124113477D01*
X151058021Y-123948579D01*
X150891712Y-123747546D01*
X150767622Y-123518046D01*
X150690469Y-123268805D01*
X150660000Y-122978911D01*
X150660000Y-121779872D01*
X150765000Y-121779872D01*
X150765000Y-122220128D01*
X150850890Y-122651925D01*
X151019369Y-123058669D01*
X151263962Y-123424729D01*
X151575271Y-123736038D01*
X151941331Y-123980631D01*
X152348075Y-124149110D01*
X152779872Y-124235000D01*
X153220128Y-124235000D01*
X153651925Y-124149110D01*
X154058669Y-123980631D01*
X154424729Y-123736038D01*
X154736038Y-123424729D01*
X154980631Y-123058669D01*
X155149110Y-122651925D01*
X155235000Y-122220128D01*
X155235000Y-121779872D01*
X155149110Y-121348075D01*
X154980631Y-120941331D01*
X154736038Y-120575271D01*
X154424729Y-120263962D01*
X154058669Y-120019369D01*
X153651925Y-119850890D01*
X153220128Y-119765000D01*
X152779872Y-119765000D01*
X152348075Y-119850890D01*
X151941331Y-120019369D01*
X151575271Y-120263962D01*
X151263962Y-120575271D01*
X151019369Y-120941331D01*
X150850890Y-121348075D01*
X150765000Y-121779872D01*
X150660000Y-121779872D01*
X150660000Y-117121874D01*
X151205881Y-117121874D01*
X151285724Y-117344976D01*
X151407631Y-117532764D01*
X151563831Y-117693161D01*
X151748322Y-117820003D01*
X151954013Y-117908415D01*
X152173000Y-117955000D01*
X152473000Y-117955000D01*
X152473000Y-116947000D01*
X151332046Y-116947000D01*
X151205881Y-117121874D01*
X150660000Y-117121874D01*
X150660000Y-116518126D01*
X151205881Y-116518126D01*
X151332046Y-116693000D01*
X152473000Y-116693000D01*
X152473000Y-115685000D01*
X152173000Y-115685000D01*
X151954013Y-115731585D01*
X151748322Y-115819997D01*
X151563831Y-115946839D01*
X151407631Y-116107236D01*
X151285724Y-116295024D01*
X151205881Y-116518126D01*
X150660000Y-116518126D01*
X150660000Y-108481874D01*
X151205881Y-108481874D01*
X151285724Y-108704976D01*
X151407631Y-108892764D01*
X151563831Y-109053161D01*
X151748322Y-109180003D01*
X151954013Y-109268415D01*
X152173000Y-109315000D01*
X152473000Y-109315000D01*
X152473000Y-108307000D01*
X151332046Y-108307000D01*
X151205881Y-108481874D01*
X150660000Y-108481874D01*
X150660000Y-107878126D01*
X151205881Y-107878126D01*
X151332046Y-108053000D01*
X152473000Y-108053000D01*
X152473000Y-107045000D01*
X152173000Y-107045000D01*
X151954013Y-107091585D01*
X151748322Y-107179997D01*
X151563831Y-107306839D01*
X151407631Y-107467236D01*
X151285724Y-107655024D01*
X151205881Y-107878126D01*
X150660000Y-107878126D01*
X150660000Y-102779872D01*
X150765000Y-102779872D01*
X150765000Y-103220128D01*
X150850890Y-103651925D01*
X151019369Y-104058669D01*
X151263962Y-104424729D01*
X151575271Y-104736038D01*
X151941331Y-104980631D01*
X152348075Y-105149110D01*
X152779872Y-105235000D01*
X153220128Y-105235000D01*
X153651925Y-105149110D01*
X154058669Y-104980631D01*
X154424729Y-104736038D01*
X154736038Y-104424729D01*
X154980631Y-104058669D01*
X155149110Y-103651925D01*
X155235000Y-103220128D01*
X155235000Y-102779872D01*
X155149110Y-102348075D01*
X154980631Y-101941331D01*
X154736038Y-101575271D01*
X154424729Y-101263962D01*
X154058669Y-101019369D01*
X153651925Y-100850890D01*
X153220128Y-100765000D01*
X152779872Y-100765000D01*
X152348075Y-100850890D01*
X151941331Y-101019369D01*
X151575271Y-101263962D01*
X151263962Y-101575271D01*
X151019369Y-101941331D01*
X150850890Y-102348075D01*
X150765000Y-102779872D01*
X150660000Y-102779872D01*
X150660000Y-102032279D01*
X150688625Y-101740341D01*
X150764035Y-101490571D01*
X150886522Y-101260208D01*
X151051422Y-101058020D01*
X151252450Y-100891714D01*
X151481954Y-100767622D01*
X151731195Y-100690469D01*
X152021088Y-100660000D01*
X192967721Y-100660000D01*
X193259659Y-100688625D01*
G36*
X179586801Y-112376303D02*
G01*
X179610599Y-112405301D01*
X179639597Y-112429099D01*
X179726324Y-112500274D01*
X179858353Y-112570846D01*
X180001614Y-112614303D01*
X180150600Y-112628977D01*
X180187933Y-112625300D01*
X184242815Y-112625300D01*
X184187818Y-112728192D01*
X184105764Y-112998691D01*
X184078057Y-113280000D01*
X184105764Y-113561309D01*
X184187818Y-113831808D01*
X184321068Y-114081101D01*
X184500392Y-114299608D01*
X184718899Y-114478932D01*
X184851858Y-114550000D01*
X184718899Y-114621068D01*
X184500392Y-114800392D01*
X184321068Y-115018899D01*
X184187818Y-115268192D01*
X184105764Y-115538691D01*
X184078057Y-115820000D01*
X184105764Y-116101309D01*
X184187818Y-116371808D01*
X184321068Y-116621101D01*
X184500392Y-116839608D01*
X184718899Y-117018932D01*
X184968192Y-117152182D01*
X185238691Y-117234236D01*
X185449508Y-117255000D01*
X185590492Y-117255000D01*
X185801309Y-117234236D01*
X186071808Y-117152182D01*
X186321101Y-117018932D01*
X186539608Y-116839608D01*
X186718932Y-116621101D01*
X186852182Y-116371808D01*
X186934236Y-116101309D01*
X186961943Y-115820000D01*
X186934236Y-115538691D01*
X186852182Y-115268192D01*
X186718932Y-115018899D01*
X186539608Y-114800392D01*
X186321101Y-114621068D01*
X186188142Y-114550000D01*
X186321101Y-114478932D01*
X186539608Y-114299608D01*
X186562370Y-114271872D01*
X187101501Y-114811003D01*
X187125299Y-114840001D01*
X187241024Y-114934974D01*
X187373053Y-115005546D01*
X187516314Y-115049003D01*
X187627967Y-115060000D01*
X187627977Y-115060000D01*
X187665300Y-115063676D01*
X187702623Y-115060000D01*
X188722405Y-115060000D01*
X188759294Y-115129014D01*
X188944866Y-115355134D01*
X189170986Y-115540706D01*
X189235523Y-115575201D01*
X189118645Y-115644822D01*
X188902412Y-115839731D01*
X188728359Y-116073080D01*
X188603175Y-116335901D01*
X188558524Y-116483110D01*
X188679845Y-116713000D01*
X189873000Y-116713000D01*
X189873000Y-116693000D01*
X190127000Y-116693000D01*
X190127000Y-116713000D01*
X192413000Y-116713000D01*
X192413000Y-116693000D01*
X192667000Y-116693000D01*
X192667000Y-116713000D01*
X192687000Y-116713000D01*
X192687000Y-116967000D01*
X192667000Y-116967000D01*
X192667000Y-116987000D01*
X192413000Y-116987000D01*
X192413000Y-116967000D01*
X190127000Y-116967000D01*
X190127000Y-116987000D01*
X189873000Y-116987000D01*
X189873000Y-116967000D01*
X188679845Y-116967000D01*
X188558524Y-117196890D01*
X188589799Y-117300000D01*
X185554488Y-117300000D01*
X185514700Y-117296081D01*
X185474912Y-117300000D01*
X185474909Y-117300000D01*
X185355912Y-117311720D01*
X185203227Y-117358037D01*
X185166339Y-117377754D01*
X185062510Y-117433251D01*
X185010757Y-117475724D01*
X184939172Y-117534472D01*
X184913807Y-117565380D01*
X183977260Y-118501928D01*
X183880000Y-118501928D01*
X183755518Y-118514188D01*
X183635820Y-118550498D01*
X183525506Y-118609463D01*
X183428815Y-118688815D01*
X183349463Y-118785506D01*
X183290498Y-118895820D01*
X183254188Y-119015518D01*
X183241928Y-119140000D01*
X183241928Y-120740000D01*
X183254188Y-120864482D01*
X183290498Y-120984180D01*
X183349463Y-121094494D01*
X183428815Y-121191185D01*
X183525506Y-121270537D01*
X183590000Y-121305011D01*
X183590000Y-121474989D01*
X183525506Y-121509463D01*
X183428815Y-121588815D01*
X183349463Y-121685506D01*
X183290498Y-121795820D01*
X183254188Y-121915518D01*
X183241928Y-122040000D01*
X183241928Y-123490000D01*
X183035513Y-123490000D01*
X183018072Y-123472559D01*
X183018072Y-122040000D01*
X183005812Y-121915518D01*
X182969502Y-121795820D01*
X182910537Y-121685506D01*
X182831185Y-121588815D01*
X182734494Y-121509463D01*
X182710000Y-121496370D01*
X182710000Y-121283630D01*
X182734494Y-121270537D01*
X182831185Y-121191185D01*
X182910537Y-121094494D01*
X182969502Y-120984180D01*
X183005812Y-120864482D01*
X183018072Y-120740000D01*
X183018072Y-119140000D01*
X183005812Y-119015518D01*
X182969502Y-118895820D01*
X182910537Y-118785506D01*
X182831185Y-118688815D01*
X182734494Y-118609463D01*
X182703363Y-118592823D01*
X182698280Y-118541212D01*
X182651963Y-118388527D01*
X182576749Y-118247811D01*
X182475528Y-118124472D01*
X182352189Y-118023251D01*
X182211473Y-117948037D01*
X182058788Y-117901720D01*
X181939791Y-117890000D01*
X181900000Y-117886081D01*
X181860209Y-117890000D01*
X177935513Y-117890000D01*
X176214552Y-116169039D01*
X176508096Y-116169039D01*
X176548754Y-116303087D01*
X176668963Y-116557420D01*
X176836481Y-116783414D01*
X177044869Y-116972385D01*
X177286119Y-117117070D01*
X177550960Y-117211909D01*
X177773000Y-117090624D01*
X177773000Y-115947000D01*
X178027000Y-115947000D01*
X178027000Y-117090624D01*
X178249040Y-117211909D01*
X178513881Y-117117070D01*
X178755131Y-116972385D01*
X178963519Y-116783414D01*
X179131037Y-116557420D01*
X179251246Y-116303087D01*
X179291904Y-116169039D01*
X179169915Y-115947000D01*
X178027000Y-115947000D01*
X177773000Y-115947000D01*
X176630085Y-115947000D01*
X176508096Y-116169039D01*
X176214552Y-116169039D01*
X176133072Y-116087560D01*
X176133072Y-115900750D01*
X176116608Y-115733592D01*
X176067850Y-115572858D01*
X175988671Y-115424725D01*
X175912574Y-115332000D01*
X175988671Y-115239275D01*
X176067850Y-115091142D01*
X176116608Y-114930408D01*
X176133072Y-114763250D01*
X176133072Y-114325750D01*
X176116608Y-114158592D01*
X176067850Y-113997858D01*
X175988671Y-113849725D01*
X175882115Y-113719885D01*
X175872238Y-113711780D01*
X175968671Y-113594275D01*
X176047850Y-113446142D01*
X176096608Y-113285408D01*
X176113072Y-113118250D01*
X176113072Y-112680750D01*
X176096608Y-112513592D01*
X176047850Y-112352858D01*
X175968671Y-112204725D01*
X175950900Y-112183070D01*
X176005537Y-112116494D01*
X176023391Y-112083092D01*
X176602885Y-112662587D01*
X176567818Y-112728192D01*
X176485764Y-112998691D01*
X176458057Y-113280000D01*
X176485764Y-113561309D01*
X176567818Y-113831808D01*
X176701068Y-114081101D01*
X176880392Y-114299608D01*
X177098899Y-114478932D01*
X177236682Y-114552579D01*
X177044869Y-114667615D01*
X176836481Y-114856586D01*
X176668963Y-115082580D01*
X176548754Y-115336913D01*
X176508096Y-115470961D01*
X176630085Y-115693000D01*
X177773000Y-115693000D01*
X177773000Y-115673000D01*
X178027000Y-115673000D01*
X178027000Y-115693000D01*
X179169915Y-115693000D01*
X179291904Y-115470961D01*
X179251246Y-115336913D01*
X179131037Y-115082580D01*
X178963519Y-114856586D01*
X178755131Y-114667615D01*
X178563318Y-114552579D01*
X178701101Y-114478932D01*
X178919608Y-114299608D01*
X179098932Y-114081101D01*
X179232182Y-113831808D01*
X179314236Y-113561309D01*
X179341943Y-113280000D01*
X179314236Y-112998691D01*
X179232182Y-112728192D01*
X179098932Y-112478899D01*
X178919608Y-112260392D01*
X178701101Y-112081068D01*
X178568142Y-112010000D01*
X178701101Y-111938932D01*
X178919608Y-111759608D01*
X178942370Y-111731872D01*
X179586801Y-112376303D01*
X179586801Y-112376303D01*
G37*
X179586801Y-112376303D02*
X179610599Y-112405301D01*
X179639597Y-112429099D01*
X179726324Y-112500274D01*
X179858353Y-112570846D01*
X180001614Y-112614303D01*
X180150600Y-112628977D01*
X180187933Y-112625300D01*
X184242815Y-112625300D01*
X184187818Y-112728192D01*
X184105764Y-112998691D01*
X184078057Y-113280000D01*
X184105764Y-113561309D01*
X184187818Y-113831808D01*
X184321068Y-114081101D01*
X184500392Y-114299608D01*
X184718899Y-114478932D01*
X184851858Y-114550000D01*
X184718899Y-114621068D01*
X184500392Y-114800392D01*
X184321068Y-115018899D01*
X184187818Y-115268192D01*
X184105764Y-115538691D01*
X184078057Y-115820000D01*
X184105764Y-116101309D01*
X184187818Y-116371808D01*
X184321068Y-116621101D01*
X184500392Y-116839608D01*
X184718899Y-117018932D01*
X184968192Y-117152182D01*
X185238691Y-117234236D01*
X185449508Y-117255000D01*
X185590492Y-117255000D01*
X185801309Y-117234236D01*
X186071808Y-117152182D01*
X186321101Y-117018932D01*
X186539608Y-116839608D01*
X186718932Y-116621101D01*
X186852182Y-116371808D01*
X186934236Y-116101309D01*
X186961943Y-115820000D01*
X186934236Y-115538691D01*
X186852182Y-115268192D01*
X186718932Y-115018899D01*
X186539608Y-114800392D01*
X186321101Y-114621068D01*
X186188142Y-114550000D01*
X186321101Y-114478932D01*
X186539608Y-114299608D01*
X186562370Y-114271872D01*
X187101501Y-114811003D01*
X187125299Y-114840001D01*
X187241024Y-114934974D01*
X187373053Y-115005546D01*
X187516314Y-115049003D01*
X187627967Y-115060000D01*
X187627977Y-115060000D01*
X187665300Y-115063676D01*
X187702623Y-115060000D01*
X188722405Y-115060000D01*
X188759294Y-115129014D01*
X188944866Y-115355134D01*
X189170986Y-115540706D01*
X189235523Y-115575201D01*
X189118645Y-115644822D01*
X188902412Y-115839731D01*
X188728359Y-116073080D01*
X188603175Y-116335901D01*
X188558524Y-116483110D01*
X188679845Y-116713000D01*
X189873000Y-116713000D01*
X189873000Y-116693000D01*
X190127000Y-116693000D01*
X190127000Y-116713000D01*
X192413000Y-116713000D01*
X192413000Y-116693000D01*
X192667000Y-116693000D01*
X192667000Y-116713000D01*
X192687000Y-116713000D01*
X192687000Y-116967000D01*
X192667000Y-116967000D01*
X192667000Y-116987000D01*
X192413000Y-116987000D01*
X192413000Y-116967000D01*
X190127000Y-116967000D01*
X190127000Y-116987000D01*
X189873000Y-116987000D01*
X189873000Y-116967000D01*
X188679845Y-116967000D01*
X188558524Y-117196890D01*
X188589799Y-117300000D01*
X185554488Y-117300000D01*
X185514700Y-117296081D01*
X185474912Y-117300000D01*
X185474909Y-117300000D01*
X185355912Y-117311720D01*
X185203227Y-117358037D01*
X185166339Y-117377754D01*
X185062510Y-117433251D01*
X185010757Y-117475724D01*
X184939172Y-117534472D01*
X184913807Y-117565380D01*
X183977260Y-118501928D01*
X183880000Y-118501928D01*
X183755518Y-118514188D01*
X183635820Y-118550498D01*
X183525506Y-118609463D01*
X183428815Y-118688815D01*
X183349463Y-118785506D01*
X183290498Y-118895820D01*
X183254188Y-119015518D01*
X183241928Y-119140000D01*
X183241928Y-120740000D01*
X183254188Y-120864482D01*
X183290498Y-120984180D01*
X183349463Y-121094494D01*
X183428815Y-121191185D01*
X183525506Y-121270537D01*
X183590000Y-121305011D01*
X183590000Y-121474989D01*
X183525506Y-121509463D01*
X183428815Y-121588815D01*
X183349463Y-121685506D01*
X183290498Y-121795820D01*
X183254188Y-121915518D01*
X183241928Y-122040000D01*
X183241928Y-123490000D01*
X183035513Y-123490000D01*
X183018072Y-123472559D01*
X183018072Y-122040000D01*
X183005812Y-121915518D01*
X182969502Y-121795820D01*
X182910537Y-121685506D01*
X182831185Y-121588815D01*
X182734494Y-121509463D01*
X182710000Y-121496370D01*
X182710000Y-121283630D01*
X182734494Y-121270537D01*
X182831185Y-121191185D01*
X182910537Y-121094494D01*
X182969502Y-120984180D01*
X183005812Y-120864482D01*
X183018072Y-120740000D01*
X183018072Y-119140000D01*
X183005812Y-119015518D01*
X182969502Y-118895820D01*
X182910537Y-118785506D01*
X182831185Y-118688815D01*
X182734494Y-118609463D01*
X182703363Y-118592823D01*
X182698280Y-118541212D01*
X182651963Y-118388527D01*
X182576749Y-118247811D01*
X182475528Y-118124472D01*
X182352189Y-118023251D01*
X182211473Y-117948037D01*
X182058788Y-117901720D01*
X181939791Y-117890000D01*
X181900000Y-117886081D01*
X181860209Y-117890000D01*
X177935513Y-117890000D01*
X176214552Y-116169039D01*
X176508096Y-116169039D01*
X176548754Y-116303087D01*
X176668963Y-116557420D01*
X176836481Y-116783414D01*
X177044869Y-116972385D01*
X177286119Y-117117070D01*
X177550960Y-117211909D01*
X177773000Y-117090624D01*
X177773000Y-115947000D01*
X178027000Y-115947000D01*
X178027000Y-117090624D01*
X178249040Y-117211909D01*
X178513881Y-117117070D01*
X178755131Y-116972385D01*
X178963519Y-116783414D01*
X179131037Y-116557420D01*
X179251246Y-116303087D01*
X179291904Y-116169039D01*
X179169915Y-115947000D01*
X178027000Y-115947000D01*
X177773000Y-115947000D01*
X176630085Y-115947000D01*
X176508096Y-116169039D01*
X176214552Y-116169039D01*
X176133072Y-116087560D01*
X176133072Y-115900750D01*
X176116608Y-115733592D01*
X176067850Y-115572858D01*
X175988671Y-115424725D01*
X175912574Y-115332000D01*
X175988671Y-115239275D01*
X176067850Y-115091142D01*
X176116608Y-114930408D01*
X176133072Y-114763250D01*
X176133072Y-114325750D01*
X176116608Y-114158592D01*
X176067850Y-113997858D01*
X175988671Y-113849725D01*
X175882115Y-113719885D01*
X175872238Y-113711780D01*
X175968671Y-113594275D01*
X176047850Y-113446142D01*
X176096608Y-113285408D01*
X176113072Y-113118250D01*
X176113072Y-112680750D01*
X176096608Y-112513592D01*
X176047850Y-112352858D01*
X175968671Y-112204725D01*
X175950900Y-112183070D01*
X176005537Y-112116494D01*
X176023391Y-112083092D01*
X176602885Y-112662587D01*
X176567818Y-112728192D01*
X176485764Y-112998691D01*
X176458057Y-113280000D01*
X176485764Y-113561309D01*
X176567818Y-113831808D01*
X176701068Y-114081101D01*
X176880392Y-114299608D01*
X177098899Y-114478932D01*
X177236682Y-114552579D01*
X177044869Y-114667615D01*
X176836481Y-114856586D01*
X176668963Y-115082580D01*
X176548754Y-115336913D01*
X176508096Y-115470961D01*
X176630085Y-115693000D01*
X177773000Y-115693000D01*
X177773000Y-115673000D01*
X178027000Y-115673000D01*
X178027000Y-115693000D01*
X179169915Y-115693000D01*
X179291904Y-115470961D01*
X179251246Y-115336913D01*
X179131037Y-115082580D01*
X178963519Y-114856586D01*
X178755131Y-114667615D01*
X178563318Y-114552579D01*
X178701101Y-114478932D01*
X178919608Y-114299608D01*
X179098932Y-114081101D01*
X179232182Y-113831808D01*
X179314236Y-113561309D01*
X179341943Y-113280000D01*
X179314236Y-112998691D01*
X179232182Y-112728192D01*
X179098932Y-112478899D01*
X178919608Y-112260392D01*
X178701101Y-112081068D01*
X178568142Y-112010000D01*
X178701101Y-111938932D01*
X178919608Y-111759608D01*
X178942370Y-111731872D01*
X179586801Y-112376303D01*
G36*
X166943959Y-114300161D02*
G01*
X166866595Y-114415944D01*
X166788574Y-114604302D01*
X166748800Y-114804261D01*
X166748800Y-115008139D01*
X166788574Y-115208098D01*
X166866595Y-115396456D01*
X166979863Y-115565974D01*
X167124026Y-115710137D01*
X167293544Y-115823405D01*
X167481902Y-115901426D01*
X167535000Y-115911988D01*
X167535000Y-116455750D01*
X167397000Y-116593750D01*
X167397000Y-117543000D01*
X167417000Y-117543000D01*
X167417000Y-117797000D01*
X167397000Y-117797000D01*
X167397000Y-117817000D01*
X167143000Y-117817000D01*
X167143000Y-117797000D01*
X167123000Y-117797000D01*
X167123000Y-117543000D01*
X167143000Y-117543000D01*
X167143000Y-116593750D01*
X166984250Y-116435000D01*
X166570000Y-116431928D01*
X166445518Y-116444188D01*
X166325820Y-116480498D01*
X166215506Y-116539463D01*
X166118815Y-116618815D01*
X166039463Y-116715506D01*
X165980498Y-116825820D01*
X165946794Y-116936927D01*
X165926185Y-116911815D01*
X165829494Y-116832463D01*
X165719180Y-116773498D01*
X165599482Y-116737188D01*
X165475000Y-116724928D01*
X165285750Y-116728000D01*
X165127000Y-116886750D01*
X165127000Y-117673500D01*
X165147000Y-117673500D01*
X165147000Y-117927500D01*
X165127000Y-117927500D01*
X165127000Y-117947500D01*
X164873000Y-117947500D01*
X164873000Y-117927500D01*
X164048750Y-117927500D01*
X163890000Y-118086250D01*
X163886928Y-118238000D01*
X163899188Y-118362482D01*
X163935498Y-118482180D01*
X163994463Y-118592494D01*
X164049100Y-118659070D01*
X164031329Y-118680725D01*
X163952150Y-118828858D01*
X163903392Y-118989592D01*
X163886928Y-119156750D01*
X163886928Y-119594250D01*
X163903392Y-119761408D01*
X163952150Y-119922142D01*
X164031329Y-120070275D01*
X164137885Y-120200115D01*
X164247411Y-120290000D01*
X159235513Y-120290000D01*
X156900512Y-117955000D01*
X157457000Y-117955000D01*
X157675987Y-117908415D01*
X157881678Y-117820003D01*
X158066169Y-117693161D01*
X158222369Y-117532764D01*
X158332575Y-117363000D01*
X163886928Y-117363000D01*
X163890000Y-117514750D01*
X164048750Y-117673500D01*
X164873000Y-117673500D01*
X164873000Y-116886750D01*
X164714250Y-116728000D01*
X164525000Y-116724928D01*
X164400518Y-116737188D01*
X164280820Y-116773498D01*
X164170506Y-116832463D01*
X164073815Y-116911815D01*
X163994463Y-117008506D01*
X163935498Y-117118820D01*
X163899188Y-117238518D01*
X163886928Y-117363000D01*
X158332575Y-117363000D01*
X158344276Y-117344976D01*
X158424119Y-117121874D01*
X158297954Y-116947000D01*
X156907000Y-116947000D01*
X156907000Y-116967000D01*
X156653000Y-116967000D01*
X156653000Y-116947000D01*
X156633000Y-116947000D01*
X156633000Y-116693000D01*
X156653000Y-116693000D01*
X156653000Y-116673000D01*
X156907000Y-116673000D01*
X156907000Y-116693000D01*
X158297954Y-116693000D01*
X158320050Y-116662373D01*
X158420000Y-116663072D01*
X158544482Y-116650812D01*
X158664180Y-116614502D01*
X158774494Y-116555537D01*
X158871185Y-116476185D01*
X158950537Y-116379494D01*
X159009502Y-116269180D01*
X159024928Y-116218327D01*
X159024928Y-116256250D01*
X159041392Y-116423408D01*
X159090150Y-116584142D01*
X159169329Y-116732275D01*
X159275885Y-116862115D01*
X159405725Y-116968671D01*
X159553858Y-117047850D01*
X159714592Y-117096608D01*
X159881750Y-117113072D01*
X160319250Y-117113072D01*
X160486408Y-117096608D01*
X160647142Y-117047850D01*
X160795275Y-116968671D01*
X160816930Y-116950900D01*
X160883506Y-117005537D01*
X160993820Y-117064502D01*
X161113518Y-117100812D01*
X161238000Y-117113072D01*
X161389750Y-117110000D01*
X161548500Y-116951250D01*
X161548500Y-116127000D01*
X161802500Y-116127000D01*
X161802500Y-116951250D01*
X161961250Y-117110000D01*
X162113000Y-117113072D01*
X162237482Y-117100812D01*
X162357180Y-117064502D01*
X162467494Y-117005537D01*
X162564185Y-116926185D01*
X162643537Y-116829494D01*
X162702502Y-116719180D01*
X162738812Y-116599482D01*
X162751072Y-116475000D01*
X162748000Y-116285750D01*
X162589250Y-116127000D01*
X161802500Y-116127000D01*
X161548500Y-116127000D01*
X161528500Y-116127000D01*
X161528500Y-115873000D01*
X161548500Y-115873000D01*
X161548500Y-115853000D01*
X161802500Y-115853000D01*
X161802500Y-115873000D01*
X162589250Y-115873000D01*
X162748000Y-115714250D01*
X162751072Y-115525000D01*
X162738812Y-115400518D01*
X162702502Y-115280820D01*
X162643537Y-115170506D01*
X162614398Y-115135000D01*
X163990000Y-115135000D01*
X163990000Y-115152002D01*
X164119748Y-115152002D01*
X163990000Y-115281750D01*
X164001156Y-115383996D01*
X164039285Y-115503127D01*
X164099922Y-115612531D01*
X164180737Y-115708003D01*
X164278625Y-115785874D01*
X164389825Y-115843151D01*
X164510061Y-115877634D01*
X164634715Y-115887998D01*
X165064250Y-115885000D01*
X165223000Y-115726250D01*
X165223000Y-115238072D01*
X165477000Y-115238072D01*
X165477000Y-115726250D01*
X165635750Y-115885000D01*
X166065285Y-115887998D01*
X166189939Y-115877634D01*
X166310175Y-115843151D01*
X166421375Y-115785874D01*
X166519263Y-115708003D01*
X166600078Y-115612531D01*
X166660715Y-115503127D01*
X166698844Y-115383996D01*
X166710000Y-115281750D01*
X166551250Y-115123000D01*
X166438678Y-115123000D01*
X166526185Y-115051185D01*
X166605537Y-114954494D01*
X166664502Y-114844180D01*
X166677753Y-114800497D01*
X166710000Y-114768250D01*
X166702905Y-114703227D01*
X166713072Y-114600000D01*
X166713072Y-114150000D01*
X166704253Y-114060454D01*
X166943959Y-114300161D01*
X166943959Y-114300161D01*
G37*
X166943959Y-114300161D02*
X166866595Y-114415944D01*
X166788574Y-114604302D01*
X166748800Y-114804261D01*
X166748800Y-115008139D01*
X166788574Y-115208098D01*
X166866595Y-115396456D01*
X166979863Y-115565974D01*
X167124026Y-115710137D01*
X167293544Y-115823405D01*
X167481902Y-115901426D01*
X167535000Y-115911988D01*
X167535000Y-116455750D01*
X167397000Y-116593750D01*
X167397000Y-117543000D01*
X167417000Y-117543000D01*
X167417000Y-117797000D01*
X167397000Y-117797000D01*
X167397000Y-117817000D01*
X167143000Y-117817000D01*
X167143000Y-117797000D01*
X167123000Y-117797000D01*
X167123000Y-117543000D01*
X167143000Y-117543000D01*
X167143000Y-116593750D01*
X166984250Y-116435000D01*
X166570000Y-116431928D01*
X166445518Y-116444188D01*
X166325820Y-116480498D01*
X166215506Y-116539463D01*
X166118815Y-116618815D01*
X166039463Y-116715506D01*
X165980498Y-116825820D01*
X165946794Y-116936927D01*
X165926185Y-116911815D01*
X165829494Y-116832463D01*
X165719180Y-116773498D01*
X165599482Y-116737188D01*
X165475000Y-116724928D01*
X165285750Y-116728000D01*
X165127000Y-116886750D01*
X165127000Y-117673500D01*
X165147000Y-117673500D01*
X165147000Y-117927500D01*
X165127000Y-117927500D01*
X165127000Y-117947500D01*
X164873000Y-117947500D01*
X164873000Y-117927500D01*
X164048750Y-117927500D01*
X163890000Y-118086250D01*
X163886928Y-118238000D01*
X163899188Y-118362482D01*
X163935498Y-118482180D01*
X163994463Y-118592494D01*
X164049100Y-118659070D01*
X164031329Y-118680725D01*
X163952150Y-118828858D01*
X163903392Y-118989592D01*
X163886928Y-119156750D01*
X163886928Y-119594250D01*
X163903392Y-119761408D01*
X163952150Y-119922142D01*
X164031329Y-120070275D01*
X164137885Y-120200115D01*
X164247411Y-120290000D01*
X159235513Y-120290000D01*
X156900512Y-117955000D01*
X157457000Y-117955000D01*
X157675987Y-117908415D01*
X157881678Y-117820003D01*
X158066169Y-117693161D01*
X158222369Y-117532764D01*
X158332575Y-117363000D01*
X163886928Y-117363000D01*
X163890000Y-117514750D01*
X164048750Y-117673500D01*
X164873000Y-117673500D01*
X164873000Y-116886750D01*
X164714250Y-116728000D01*
X164525000Y-116724928D01*
X164400518Y-116737188D01*
X164280820Y-116773498D01*
X164170506Y-116832463D01*
X164073815Y-116911815D01*
X163994463Y-117008506D01*
X163935498Y-117118820D01*
X163899188Y-117238518D01*
X163886928Y-117363000D01*
X158332575Y-117363000D01*
X158344276Y-117344976D01*
X158424119Y-117121874D01*
X158297954Y-116947000D01*
X156907000Y-116947000D01*
X156907000Y-116967000D01*
X156653000Y-116967000D01*
X156653000Y-116947000D01*
X156633000Y-116947000D01*
X156633000Y-116693000D01*
X156653000Y-116693000D01*
X156653000Y-116673000D01*
X156907000Y-116673000D01*
X156907000Y-116693000D01*
X158297954Y-116693000D01*
X158320050Y-116662373D01*
X158420000Y-116663072D01*
X158544482Y-116650812D01*
X158664180Y-116614502D01*
X158774494Y-116555537D01*
X158871185Y-116476185D01*
X158950537Y-116379494D01*
X159009502Y-116269180D01*
X159024928Y-116218327D01*
X159024928Y-116256250D01*
X159041392Y-116423408D01*
X159090150Y-116584142D01*
X159169329Y-116732275D01*
X159275885Y-116862115D01*
X159405725Y-116968671D01*
X159553858Y-117047850D01*
X159714592Y-117096608D01*
X159881750Y-117113072D01*
X160319250Y-117113072D01*
X160486408Y-117096608D01*
X160647142Y-117047850D01*
X160795275Y-116968671D01*
X160816930Y-116950900D01*
X160883506Y-117005537D01*
X160993820Y-117064502D01*
X161113518Y-117100812D01*
X161238000Y-117113072D01*
X161389750Y-117110000D01*
X161548500Y-116951250D01*
X161548500Y-116127000D01*
X161802500Y-116127000D01*
X161802500Y-116951250D01*
X161961250Y-117110000D01*
X162113000Y-117113072D01*
X162237482Y-117100812D01*
X162357180Y-117064502D01*
X162467494Y-117005537D01*
X162564185Y-116926185D01*
X162643537Y-116829494D01*
X162702502Y-116719180D01*
X162738812Y-116599482D01*
X162751072Y-116475000D01*
X162748000Y-116285750D01*
X162589250Y-116127000D01*
X161802500Y-116127000D01*
X161548500Y-116127000D01*
X161528500Y-116127000D01*
X161528500Y-115873000D01*
X161548500Y-115873000D01*
X161548500Y-115853000D01*
X161802500Y-115853000D01*
X161802500Y-115873000D01*
X162589250Y-115873000D01*
X162748000Y-115714250D01*
X162751072Y-115525000D01*
X162738812Y-115400518D01*
X162702502Y-115280820D01*
X162643537Y-115170506D01*
X162614398Y-115135000D01*
X163990000Y-115135000D01*
X163990000Y-115152002D01*
X164119748Y-115152002D01*
X163990000Y-115281750D01*
X164001156Y-115383996D01*
X164039285Y-115503127D01*
X164099922Y-115612531D01*
X164180737Y-115708003D01*
X164278625Y-115785874D01*
X164389825Y-115843151D01*
X164510061Y-115877634D01*
X164634715Y-115887998D01*
X165064250Y-115885000D01*
X165223000Y-115726250D01*
X165223000Y-115238072D01*
X165477000Y-115238072D01*
X165477000Y-115726250D01*
X165635750Y-115885000D01*
X166065285Y-115887998D01*
X166189939Y-115877634D01*
X166310175Y-115843151D01*
X166421375Y-115785874D01*
X166519263Y-115708003D01*
X166600078Y-115612531D01*
X166660715Y-115503127D01*
X166698844Y-115383996D01*
X166710000Y-115281750D01*
X166551250Y-115123000D01*
X166438678Y-115123000D01*
X166526185Y-115051185D01*
X166605537Y-114954494D01*
X166664502Y-114844180D01*
X166677753Y-114800497D01*
X166710000Y-114768250D01*
X166702905Y-114703227D01*
X166713072Y-114600000D01*
X166713072Y-114150000D01*
X166704253Y-114060454D01*
X166943959Y-114300161D01*
G36*
X174287725Y-117050671D02*
G01*
X174435858Y-117129850D01*
X174596592Y-117178608D01*
X174763750Y-117195072D01*
X174949560Y-117195072D01*
X176999105Y-119244618D01*
X177024472Y-119275528D01*
X177082944Y-119323514D01*
X177147810Y-119376749D01*
X177180091Y-119394003D01*
X177288527Y-119451963D01*
X177441212Y-119498280D01*
X177560209Y-119510000D01*
X177560212Y-119510000D01*
X177600000Y-119513919D01*
X177639788Y-119510000D01*
X178241928Y-119510000D01*
X178241928Y-120290000D01*
X172987067Y-120290000D01*
X173005537Y-120267494D01*
X173064502Y-120157180D01*
X173100812Y-120037482D01*
X173113072Y-119913000D01*
X173110000Y-119761250D01*
X172951250Y-119602500D01*
X172127000Y-119602500D01*
X172127000Y-119622500D01*
X171873000Y-119622500D01*
X171873000Y-119602500D01*
X171048750Y-119602500D01*
X170900250Y-119751000D01*
X170846250Y-119697000D01*
X169797000Y-119697000D01*
X169797000Y-119717000D01*
X169543000Y-119717000D01*
X169543000Y-119697000D01*
X169523000Y-119697000D01*
X169523000Y-119443000D01*
X169543000Y-119443000D01*
X169543000Y-119423000D01*
X169797000Y-119423000D01*
X169797000Y-119443000D01*
X170846250Y-119443000D01*
X170994750Y-119294500D01*
X171048750Y-119348500D01*
X171873000Y-119348500D01*
X171873000Y-119328500D01*
X172127000Y-119328500D01*
X172127000Y-119348500D01*
X172951250Y-119348500D01*
X173110000Y-119189750D01*
X173113072Y-119038000D01*
X173100812Y-118913518D01*
X173064502Y-118793820D01*
X173005537Y-118683506D01*
X172950900Y-118616930D01*
X172968671Y-118595275D01*
X173047850Y-118447142D01*
X173096608Y-118286408D01*
X173113072Y-118119250D01*
X173113072Y-117681750D01*
X173096608Y-117514592D01*
X173047850Y-117353858D01*
X172968671Y-117205725D01*
X172869774Y-117085217D01*
X172915858Y-117109850D01*
X173076592Y-117158608D01*
X173243750Y-117175072D01*
X173756250Y-117175072D01*
X173923408Y-117158608D01*
X174084142Y-117109850D01*
X174232275Y-117030671D01*
X174247815Y-117017918D01*
X174287725Y-117050671D01*
X174287725Y-117050671D01*
G37*
X174287725Y-117050671D02*
X174435858Y-117129850D01*
X174596592Y-117178608D01*
X174763750Y-117195072D01*
X174949560Y-117195072D01*
X176999105Y-119244618D01*
X177024472Y-119275528D01*
X177082944Y-119323514D01*
X177147810Y-119376749D01*
X177180091Y-119394003D01*
X177288527Y-119451963D01*
X177441212Y-119498280D01*
X177560209Y-119510000D01*
X177560212Y-119510000D01*
X177600000Y-119513919D01*
X177639788Y-119510000D01*
X178241928Y-119510000D01*
X178241928Y-120290000D01*
X172987067Y-120290000D01*
X173005537Y-120267494D01*
X173064502Y-120157180D01*
X173100812Y-120037482D01*
X173113072Y-119913000D01*
X173110000Y-119761250D01*
X172951250Y-119602500D01*
X172127000Y-119602500D01*
X172127000Y-119622500D01*
X171873000Y-119622500D01*
X171873000Y-119602500D01*
X171048750Y-119602500D01*
X170900250Y-119751000D01*
X170846250Y-119697000D01*
X169797000Y-119697000D01*
X169797000Y-119717000D01*
X169543000Y-119717000D01*
X169543000Y-119697000D01*
X169523000Y-119697000D01*
X169523000Y-119443000D01*
X169543000Y-119443000D01*
X169543000Y-119423000D01*
X169797000Y-119423000D01*
X169797000Y-119443000D01*
X170846250Y-119443000D01*
X170994750Y-119294500D01*
X171048750Y-119348500D01*
X171873000Y-119348500D01*
X171873000Y-119328500D01*
X172127000Y-119328500D01*
X172127000Y-119348500D01*
X172951250Y-119348500D01*
X173110000Y-119189750D01*
X173113072Y-119038000D01*
X173100812Y-118913518D01*
X173064502Y-118793820D01*
X173005537Y-118683506D01*
X172950900Y-118616930D01*
X172968671Y-118595275D01*
X173047850Y-118447142D01*
X173096608Y-118286408D01*
X173113072Y-118119250D01*
X173113072Y-117681750D01*
X173096608Y-117514592D01*
X173047850Y-117353858D01*
X172968671Y-117205725D01*
X172869774Y-117085217D01*
X172915858Y-117109850D01*
X173076592Y-117158608D01*
X173243750Y-117175072D01*
X173756250Y-117175072D01*
X173923408Y-117158608D01*
X174084142Y-117109850D01*
X174232275Y-117030671D01*
X174247815Y-117017918D01*
X174287725Y-117050671D01*
G36*
X173627000Y-114397500D02*
G01*
X173647000Y-114397500D01*
X173647000Y-114651500D01*
X173627000Y-114651500D01*
X173627000Y-114671500D01*
X173373000Y-114671500D01*
X173373000Y-114651500D01*
X173353000Y-114651500D01*
X173353000Y-114397500D01*
X173373000Y-114397500D01*
X173373000Y-114377500D01*
X173627000Y-114377500D01*
X173627000Y-114397500D01*
X173627000Y-114397500D01*
G37*
X173627000Y-114397500D02*
X173647000Y-114397500D01*
X173647000Y-114651500D01*
X173627000Y-114651500D01*
X173627000Y-114671500D01*
X173373000Y-114671500D01*
X173373000Y-114651500D01*
X173353000Y-114651500D01*
X173353000Y-114397500D01*
X173373000Y-114397500D01*
X173373000Y-114377500D01*
X173627000Y-114377500D01*
X173627000Y-114397500D01*
G36*
X175147000Y-111451500D02*
G01*
X175127000Y-111451500D01*
X175127000Y-111471500D01*
X174873000Y-111471500D01*
X174873000Y-111451500D01*
X174853000Y-111451500D01*
X174853000Y-111284500D01*
X175147000Y-111284500D01*
X175147000Y-111451500D01*
X175147000Y-111451500D01*
G37*
X175147000Y-111451500D02*
X175127000Y-111451500D01*
X175127000Y-111471500D01*
X174873000Y-111471500D01*
X174873000Y-111451500D01*
X174853000Y-111451500D01*
X174853000Y-111284500D01*
X175147000Y-111284500D01*
X175147000Y-111451500D01*
G36*
X161077000Y-104448500D02*
G01*
X161097000Y-104448500D01*
X161097000Y-104702500D01*
X161077000Y-104702500D01*
X161077000Y-105539250D01*
X161235750Y-105698000D01*
X161650000Y-105701072D01*
X161774482Y-105688812D01*
X161894180Y-105652502D01*
X162004494Y-105593537D01*
X162101185Y-105514185D01*
X162180537Y-105417494D01*
X162239502Y-105307180D01*
X162253272Y-105261786D01*
X162289463Y-105329494D01*
X162368815Y-105426185D01*
X162465506Y-105505537D01*
X162575820Y-105564502D01*
X162695518Y-105600812D01*
X162820000Y-105613072D01*
X162859831Y-105613072D01*
X162785815Y-105673815D01*
X162706463Y-105770506D01*
X162647498Y-105880820D01*
X162611188Y-106000518D01*
X162598928Y-106125000D01*
X162602000Y-106314250D01*
X162760750Y-106473000D01*
X163547500Y-106473000D01*
X163547500Y-106453000D01*
X163801500Y-106453000D01*
X163801500Y-106473000D01*
X163821500Y-106473000D01*
X163821500Y-106727000D01*
X163801500Y-106727000D01*
X163801500Y-107551250D01*
X163887724Y-107637474D01*
X163389002Y-108136197D01*
X163359999Y-108159999D01*
X163319203Y-108209710D01*
X163265026Y-108275724D01*
X163220627Y-108358788D01*
X163194454Y-108407754D01*
X163150997Y-108551015D01*
X163140000Y-108662668D01*
X163140000Y-108662678D01*
X163136324Y-108700000D01*
X163140000Y-108737323D01*
X163140001Y-110965200D01*
X162875804Y-110701003D01*
X162852001Y-110671999D01*
X162823002Y-110648200D01*
X162775072Y-110600270D01*
X162775072Y-110343750D01*
X162758608Y-110176592D01*
X162709850Y-110015858D01*
X162630671Y-109867725D01*
X162544163Y-109762313D01*
X162588185Y-109726185D01*
X162667537Y-109629494D01*
X162726502Y-109519180D01*
X162762812Y-109399482D01*
X162775072Y-109275000D01*
X162772000Y-109085750D01*
X162613250Y-108927000D01*
X161826500Y-108927000D01*
X161826500Y-108947000D01*
X161572500Y-108947000D01*
X161572500Y-108927000D01*
X161552500Y-108927000D01*
X161552500Y-108673000D01*
X161572500Y-108673000D01*
X161572500Y-107848750D01*
X161826500Y-107848750D01*
X161826500Y-108673000D01*
X162613250Y-108673000D01*
X162772000Y-108514250D01*
X162775072Y-108325000D01*
X162762812Y-108200518D01*
X162726502Y-108080820D01*
X162667537Y-107970506D01*
X162588185Y-107873815D01*
X162491494Y-107794463D01*
X162381180Y-107735498D01*
X162261482Y-107699188D01*
X162137000Y-107686928D01*
X161985250Y-107690000D01*
X161826500Y-107848750D01*
X161572500Y-107848750D01*
X161413750Y-107690000D01*
X161262000Y-107686928D01*
X161137518Y-107699188D01*
X161017820Y-107735498D01*
X160907506Y-107794463D01*
X160840930Y-107849100D01*
X160819275Y-107831329D01*
X160671142Y-107752150D01*
X160510408Y-107703392D01*
X160343250Y-107686928D01*
X159905750Y-107686928D01*
X159738592Y-107703392D01*
X159577858Y-107752150D01*
X159429725Y-107831329D01*
X159299885Y-107937885D01*
X159193329Y-108067725D01*
X159114150Y-108215858D01*
X159065392Y-108376592D01*
X159048928Y-108543750D01*
X159048928Y-108800770D01*
X159034959Y-108814740D01*
X159009502Y-108730820D01*
X158950537Y-108620506D01*
X158871185Y-108523815D01*
X158774494Y-108444463D01*
X158664180Y-108385498D01*
X158544482Y-108349188D01*
X158420000Y-108336928D01*
X158320050Y-108337627D01*
X158297954Y-108307000D01*
X156907000Y-108307000D01*
X156907000Y-108327000D01*
X156653000Y-108327000D01*
X156653000Y-108307000D01*
X156633000Y-108307000D01*
X156633000Y-108053000D01*
X156653000Y-108053000D01*
X156653000Y-108033000D01*
X156907000Y-108033000D01*
X156907000Y-108053000D01*
X158297954Y-108053000D01*
X158424119Y-107878126D01*
X158344276Y-107655024D01*
X158222369Y-107467236D01*
X158066169Y-107306839D01*
X157881678Y-107179997D01*
X157675987Y-107091585D01*
X157598025Y-107075000D01*
X162598928Y-107075000D01*
X162611188Y-107199482D01*
X162647498Y-107319180D01*
X162706463Y-107429494D01*
X162785815Y-107526185D01*
X162882506Y-107605537D01*
X162992820Y-107664502D01*
X163112518Y-107700812D01*
X163237000Y-107713072D01*
X163388750Y-107710000D01*
X163547500Y-107551250D01*
X163547500Y-106727000D01*
X162760750Y-106727000D01*
X162602000Y-106885750D01*
X162598928Y-107075000D01*
X157598025Y-107075000D01*
X157457000Y-107045000D01*
X157050012Y-107045000D01*
X158819941Y-105275072D01*
X159006250Y-105275072D01*
X159173408Y-105258608D01*
X159334142Y-105209850D01*
X159482275Y-105130671D01*
X159612115Y-105024115D01*
X159612528Y-105023612D01*
X159611928Y-105063000D01*
X159624188Y-105187482D01*
X159660498Y-105307180D01*
X159719463Y-105417494D01*
X159798815Y-105514185D01*
X159895506Y-105593537D01*
X160005820Y-105652502D01*
X160125518Y-105688812D01*
X160250000Y-105701072D01*
X160664250Y-105698000D01*
X160823000Y-105539250D01*
X160823000Y-104702500D01*
X160803000Y-104702500D01*
X160803000Y-104448500D01*
X160823000Y-104448500D01*
X160823000Y-104428500D01*
X161077000Y-104428500D01*
X161077000Y-104448500D01*
X161077000Y-104448500D01*
G37*
X161077000Y-104448500D02*
X161097000Y-104448500D01*
X161097000Y-104702500D01*
X161077000Y-104702500D01*
X161077000Y-105539250D01*
X161235750Y-105698000D01*
X161650000Y-105701072D01*
X161774482Y-105688812D01*
X161894180Y-105652502D01*
X162004494Y-105593537D01*
X162101185Y-105514185D01*
X162180537Y-105417494D01*
X162239502Y-105307180D01*
X162253272Y-105261786D01*
X162289463Y-105329494D01*
X162368815Y-105426185D01*
X162465506Y-105505537D01*
X162575820Y-105564502D01*
X162695518Y-105600812D01*
X162820000Y-105613072D01*
X162859831Y-105613072D01*
X162785815Y-105673815D01*
X162706463Y-105770506D01*
X162647498Y-105880820D01*
X162611188Y-106000518D01*
X162598928Y-106125000D01*
X162602000Y-106314250D01*
X162760750Y-106473000D01*
X163547500Y-106473000D01*
X163547500Y-106453000D01*
X163801500Y-106453000D01*
X163801500Y-106473000D01*
X163821500Y-106473000D01*
X163821500Y-106727000D01*
X163801500Y-106727000D01*
X163801500Y-107551250D01*
X163887724Y-107637474D01*
X163389002Y-108136197D01*
X163359999Y-108159999D01*
X163319203Y-108209710D01*
X163265026Y-108275724D01*
X163220627Y-108358788D01*
X163194454Y-108407754D01*
X163150997Y-108551015D01*
X163140000Y-108662668D01*
X163140000Y-108662678D01*
X163136324Y-108700000D01*
X163140000Y-108737323D01*
X163140001Y-110965200D01*
X162875804Y-110701003D01*
X162852001Y-110671999D01*
X162823002Y-110648200D01*
X162775072Y-110600270D01*
X162775072Y-110343750D01*
X162758608Y-110176592D01*
X162709850Y-110015858D01*
X162630671Y-109867725D01*
X162544163Y-109762313D01*
X162588185Y-109726185D01*
X162667537Y-109629494D01*
X162726502Y-109519180D01*
X162762812Y-109399482D01*
X162775072Y-109275000D01*
X162772000Y-109085750D01*
X162613250Y-108927000D01*
X161826500Y-108927000D01*
X161826500Y-108947000D01*
X161572500Y-108947000D01*
X161572500Y-108927000D01*
X161552500Y-108927000D01*
X161552500Y-108673000D01*
X161572500Y-108673000D01*
X161572500Y-107848750D01*
X161826500Y-107848750D01*
X161826500Y-108673000D01*
X162613250Y-108673000D01*
X162772000Y-108514250D01*
X162775072Y-108325000D01*
X162762812Y-108200518D01*
X162726502Y-108080820D01*
X162667537Y-107970506D01*
X162588185Y-107873815D01*
X162491494Y-107794463D01*
X162381180Y-107735498D01*
X162261482Y-107699188D01*
X162137000Y-107686928D01*
X161985250Y-107690000D01*
X161826500Y-107848750D01*
X161572500Y-107848750D01*
X161413750Y-107690000D01*
X161262000Y-107686928D01*
X161137518Y-107699188D01*
X161017820Y-107735498D01*
X160907506Y-107794463D01*
X160840930Y-107849100D01*
X160819275Y-107831329D01*
X160671142Y-107752150D01*
X160510408Y-107703392D01*
X160343250Y-107686928D01*
X159905750Y-107686928D01*
X159738592Y-107703392D01*
X159577858Y-107752150D01*
X159429725Y-107831329D01*
X159299885Y-107937885D01*
X159193329Y-108067725D01*
X159114150Y-108215858D01*
X159065392Y-108376592D01*
X159048928Y-108543750D01*
X159048928Y-108800770D01*
X159034959Y-108814740D01*
X159009502Y-108730820D01*
X158950537Y-108620506D01*
X158871185Y-108523815D01*
X158774494Y-108444463D01*
X158664180Y-108385498D01*
X158544482Y-108349188D01*
X158420000Y-108336928D01*
X158320050Y-108337627D01*
X158297954Y-108307000D01*
X156907000Y-108307000D01*
X156907000Y-108327000D01*
X156653000Y-108327000D01*
X156653000Y-108307000D01*
X156633000Y-108307000D01*
X156633000Y-108053000D01*
X156653000Y-108053000D01*
X156653000Y-108033000D01*
X156907000Y-108033000D01*
X156907000Y-108053000D01*
X158297954Y-108053000D01*
X158424119Y-107878126D01*
X158344276Y-107655024D01*
X158222369Y-107467236D01*
X158066169Y-107306839D01*
X157881678Y-107179997D01*
X157675987Y-107091585D01*
X157598025Y-107075000D01*
X162598928Y-107075000D01*
X162611188Y-107199482D01*
X162647498Y-107319180D01*
X162706463Y-107429494D01*
X162785815Y-107526185D01*
X162882506Y-107605537D01*
X162992820Y-107664502D01*
X163112518Y-107700812D01*
X163237000Y-107713072D01*
X163388750Y-107710000D01*
X163547500Y-107551250D01*
X163547500Y-106727000D01*
X162760750Y-106727000D01*
X162602000Y-106885750D01*
X162598928Y-107075000D01*
X157598025Y-107075000D01*
X157457000Y-107045000D01*
X157050012Y-107045000D01*
X158819941Y-105275072D01*
X159006250Y-105275072D01*
X159173408Y-105258608D01*
X159334142Y-105209850D01*
X159482275Y-105130671D01*
X159612115Y-105024115D01*
X159612528Y-105023612D01*
X159611928Y-105063000D01*
X159624188Y-105187482D01*
X159660498Y-105307180D01*
X159719463Y-105417494D01*
X159798815Y-105514185D01*
X159895506Y-105593537D01*
X160005820Y-105652502D01*
X160125518Y-105688812D01*
X160250000Y-105701072D01*
X160664250Y-105698000D01*
X160823000Y-105539250D01*
X160823000Y-104702500D01*
X160803000Y-104702500D01*
X160803000Y-104448500D01*
X160823000Y-104448500D01*
X160823000Y-104428500D01*
X161077000Y-104428500D01*
X161077000Y-104448500D01*
G36*
X160251500Y-110473000D02*
G01*
X160271500Y-110473000D01*
X160271500Y-110727000D01*
X160251500Y-110727000D01*
X160251500Y-110747000D01*
X159997500Y-110747000D01*
X159997500Y-110727000D01*
X159977500Y-110727000D01*
X159977500Y-110473000D01*
X159997500Y-110473000D01*
X159997500Y-110453000D01*
X160251500Y-110453000D01*
X160251500Y-110473000D01*
X160251500Y-110473000D01*
G37*
X160251500Y-110473000D02*
X160271500Y-110473000D01*
X160271500Y-110727000D01*
X160251500Y-110727000D01*
X160251500Y-110747000D01*
X159997500Y-110747000D01*
X159997500Y-110727000D01*
X159977500Y-110727000D01*
X159977500Y-110473000D01*
X159997500Y-110473000D01*
X159997500Y-110453000D01*
X160251500Y-110453000D01*
X160251500Y-110473000D01*
G36*
X169681329Y-103580725D02*
G01*
X169602150Y-103728858D01*
X169553392Y-103889592D01*
X169536928Y-104056750D01*
X169536928Y-104494250D01*
X169553392Y-104661408D01*
X169602150Y-104822142D01*
X169681329Y-104970275D01*
X169787885Y-105100115D01*
X169917725Y-105206671D01*
X170065858Y-105285850D01*
X170226592Y-105334608D01*
X170393750Y-105351072D01*
X170906250Y-105351072D01*
X171073408Y-105334608D01*
X171234142Y-105285850D01*
X171382275Y-105206671D01*
X171512115Y-105100115D01*
X171565143Y-105035500D01*
X171777857Y-105035500D01*
X171830885Y-105100115D01*
X171960725Y-105206671D01*
X172108858Y-105285850D01*
X172269592Y-105334608D01*
X172436750Y-105351072D01*
X172949250Y-105351072D01*
X173116408Y-105334608D01*
X173277142Y-105285850D01*
X173425275Y-105206671D01*
X173555115Y-105100115D01*
X173661671Y-104970275D01*
X173733173Y-104836504D01*
X173768329Y-104902275D01*
X173874885Y-105032115D01*
X174004725Y-105138671D01*
X174082034Y-105179993D01*
X174049477Y-105183200D01*
X174049467Y-105183200D01*
X173937814Y-105194197D01*
X173794553Y-105237654D01*
X173662524Y-105308226D01*
X173546799Y-105403199D01*
X173523001Y-105432197D01*
X171615199Y-107340000D01*
X166174331Y-107340000D01*
X166180671Y-107332275D01*
X166259850Y-107184142D01*
X166308608Y-107023408D01*
X166325072Y-106856250D01*
X166325072Y-106343750D01*
X166308608Y-106176592D01*
X166259850Y-106015858D01*
X166180671Y-105867725D01*
X166074115Y-105737885D01*
X165944275Y-105631329D01*
X165910119Y-105613072D01*
X166080000Y-105613072D01*
X166204482Y-105600812D01*
X166324180Y-105564502D01*
X166434494Y-105505537D01*
X166531185Y-105426185D01*
X166610537Y-105329494D01*
X166669502Y-105219180D01*
X166705812Y-105099482D01*
X166712822Y-105028309D01*
X166711928Y-105087000D01*
X166724188Y-105211482D01*
X166760498Y-105331180D01*
X166819463Y-105441494D01*
X166898815Y-105538185D01*
X166995506Y-105617537D01*
X167105820Y-105676502D01*
X167225518Y-105712812D01*
X167350000Y-105725072D01*
X167764250Y-105722000D01*
X167923000Y-105563250D01*
X167923000Y-104726500D01*
X168177000Y-104726500D01*
X168177000Y-105563250D01*
X168335750Y-105722000D01*
X168750000Y-105725072D01*
X168874482Y-105712812D01*
X168994180Y-105676502D01*
X169104494Y-105617537D01*
X169201185Y-105538185D01*
X169280537Y-105441494D01*
X169339502Y-105331180D01*
X169375812Y-105211482D01*
X169388072Y-105087000D01*
X169385000Y-104885250D01*
X169226250Y-104726500D01*
X168177000Y-104726500D01*
X167923000Y-104726500D01*
X167903000Y-104726500D01*
X167903000Y-104472500D01*
X167923000Y-104472500D01*
X167923000Y-104452500D01*
X168177000Y-104452500D01*
X168177000Y-104472500D01*
X169226250Y-104472500D01*
X169385000Y-104313750D01*
X169388072Y-104112000D01*
X169375812Y-103987518D01*
X169339502Y-103867820D01*
X169280537Y-103757506D01*
X169201185Y-103660815D01*
X169123436Y-103597008D01*
X169129792Y-103591792D01*
X169176810Y-103534500D01*
X169719265Y-103534500D01*
X169681329Y-103580725D01*
X169681329Y-103580725D01*
G37*
X169681329Y-103580725D02*
X169602150Y-103728858D01*
X169553392Y-103889592D01*
X169536928Y-104056750D01*
X169536928Y-104494250D01*
X169553392Y-104661408D01*
X169602150Y-104822142D01*
X169681329Y-104970275D01*
X169787885Y-105100115D01*
X169917725Y-105206671D01*
X170065858Y-105285850D01*
X170226592Y-105334608D01*
X170393750Y-105351072D01*
X170906250Y-105351072D01*
X171073408Y-105334608D01*
X171234142Y-105285850D01*
X171382275Y-105206671D01*
X171512115Y-105100115D01*
X171565143Y-105035500D01*
X171777857Y-105035500D01*
X171830885Y-105100115D01*
X171960725Y-105206671D01*
X172108858Y-105285850D01*
X172269592Y-105334608D01*
X172436750Y-105351072D01*
X172949250Y-105351072D01*
X173116408Y-105334608D01*
X173277142Y-105285850D01*
X173425275Y-105206671D01*
X173555115Y-105100115D01*
X173661671Y-104970275D01*
X173733173Y-104836504D01*
X173768329Y-104902275D01*
X173874885Y-105032115D01*
X174004725Y-105138671D01*
X174082034Y-105179993D01*
X174049477Y-105183200D01*
X174049467Y-105183200D01*
X173937814Y-105194197D01*
X173794553Y-105237654D01*
X173662524Y-105308226D01*
X173546799Y-105403199D01*
X173523001Y-105432197D01*
X171615199Y-107340000D01*
X166174331Y-107340000D01*
X166180671Y-107332275D01*
X166259850Y-107184142D01*
X166308608Y-107023408D01*
X166325072Y-106856250D01*
X166325072Y-106343750D01*
X166308608Y-106176592D01*
X166259850Y-106015858D01*
X166180671Y-105867725D01*
X166074115Y-105737885D01*
X165944275Y-105631329D01*
X165910119Y-105613072D01*
X166080000Y-105613072D01*
X166204482Y-105600812D01*
X166324180Y-105564502D01*
X166434494Y-105505537D01*
X166531185Y-105426185D01*
X166610537Y-105329494D01*
X166669502Y-105219180D01*
X166705812Y-105099482D01*
X166712822Y-105028309D01*
X166711928Y-105087000D01*
X166724188Y-105211482D01*
X166760498Y-105331180D01*
X166819463Y-105441494D01*
X166898815Y-105538185D01*
X166995506Y-105617537D01*
X167105820Y-105676502D01*
X167225518Y-105712812D01*
X167350000Y-105725072D01*
X167764250Y-105722000D01*
X167923000Y-105563250D01*
X167923000Y-104726500D01*
X168177000Y-104726500D01*
X168177000Y-105563250D01*
X168335750Y-105722000D01*
X168750000Y-105725072D01*
X168874482Y-105712812D01*
X168994180Y-105676502D01*
X169104494Y-105617537D01*
X169201185Y-105538185D01*
X169280537Y-105441494D01*
X169339502Y-105331180D01*
X169375812Y-105211482D01*
X169388072Y-105087000D01*
X169385000Y-104885250D01*
X169226250Y-104726500D01*
X168177000Y-104726500D01*
X167923000Y-104726500D01*
X167903000Y-104726500D01*
X167903000Y-104472500D01*
X167923000Y-104472500D01*
X167923000Y-104452500D01*
X168177000Y-104452500D01*
X168177000Y-104472500D01*
X169226250Y-104472500D01*
X169385000Y-104313750D01*
X169388072Y-104112000D01*
X169375812Y-103987518D01*
X169339502Y-103867820D01*
X169280537Y-103757506D01*
X169201185Y-103660815D01*
X169123436Y-103597008D01*
X169129792Y-103591792D01*
X169176810Y-103534500D01*
X169719265Y-103534500D01*
X169681329Y-103580725D01*
G36*
X189493287Y-103538800D02*
G01*
X185059022Y-103538800D01*
X185021699Y-103535124D01*
X184984376Y-103538800D01*
X184984367Y-103538800D01*
X184872714Y-103549797D01*
X184729453Y-103593254D01*
X184597424Y-103663826D01*
X184481699Y-103758799D01*
X184457896Y-103787803D01*
X184257134Y-103988565D01*
X184186250Y-103990000D01*
X184027500Y-104148750D01*
X184027500Y-104255979D01*
X183983377Y-104338527D01*
X183982454Y-104340254D01*
X183938997Y-104483515D01*
X183928000Y-104595168D01*
X183928000Y-104595178D01*
X183924324Y-104632500D01*
X183928000Y-104669823D01*
X183928001Y-105183200D01*
X177425226Y-105183200D01*
X177512275Y-105136671D01*
X177642115Y-105030115D01*
X177748671Y-104900275D01*
X177827850Y-104752142D01*
X177866418Y-104625000D01*
X182824928Y-104625000D01*
X182828000Y-104814250D01*
X182986750Y-104973000D01*
X183773500Y-104973000D01*
X183773500Y-104148750D01*
X183614750Y-103990000D01*
X183463000Y-103986928D01*
X183338518Y-103999188D01*
X183218820Y-104035498D01*
X183108506Y-104094463D01*
X183011815Y-104173815D01*
X182932463Y-104270506D01*
X182873498Y-104380820D01*
X182837188Y-104500518D01*
X182824928Y-104625000D01*
X177866418Y-104625000D01*
X177876608Y-104591408D01*
X177893072Y-104424250D01*
X177893072Y-103986750D01*
X177876608Y-103819592D01*
X177828621Y-103661400D01*
X177990739Y-103661400D01*
X178190698Y-103621626D01*
X178379056Y-103543605D01*
X178548574Y-103430337D01*
X178692737Y-103286174D01*
X178806005Y-103116656D01*
X178884026Y-102928298D01*
X178923800Y-102728339D01*
X178923800Y-102602200D01*
X188556688Y-102602200D01*
X189493287Y-103538800D01*
X189493287Y-103538800D01*
G37*
X189493287Y-103538800D02*
X185059022Y-103538800D01*
X185021699Y-103535124D01*
X184984376Y-103538800D01*
X184984367Y-103538800D01*
X184872714Y-103549797D01*
X184729453Y-103593254D01*
X184597424Y-103663826D01*
X184481699Y-103758799D01*
X184457896Y-103787803D01*
X184257134Y-103988565D01*
X184186250Y-103990000D01*
X184027500Y-104148750D01*
X184027500Y-104255979D01*
X183983377Y-104338527D01*
X183982454Y-104340254D01*
X183938997Y-104483515D01*
X183928000Y-104595168D01*
X183928000Y-104595178D01*
X183924324Y-104632500D01*
X183928000Y-104669823D01*
X183928001Y-105183200D01*
X177425226Y-105183200D01*
X177512275Y-105136671D01*
X177642115Y-105030115D01*
X177748671Y-104900275D01*
X177827850Y-104752142D01*
X177866418Y-104625000D01*
X182824928Y-104625000D01*
X182828000Y-104814250D01*
X182986750Y-104973000D01*
X183773500Y-104973000D01*
X183773500Y-104148750D01*
X183614750Y-103990000D01*
X183463000Y-103986928D01*
X183338518Y-103999188D01*
X183218820Y-104035498D01*
X183108506Y-104094463D01*
X183011815Y-104173815D01*
X182932463Y-104270506D01*
X182873498Y-104380820D01*
X182837188Y-104500518D01*
X182824928Y-104625000D01*
X177866418Y-104625000D01*
X177876608Y-104591408D01*
X177893072Y-104424250D01*
X177893072Y-103986750D01*
X177876608Y-103819592D01*
X177828621Y-103661400D01*
X177990739Y-103661400D01*
X178190698Y-103621626D01*
X178379056Y-103543605D01*
X178548574Y-103430337D01*
X178692737Y-103286174D01*
X178806005Y-103116656D01*
X178884026Y-102928298D01*
X178923800Y-102728339D01*
X178923800Y-102602200D01*
X188556688Y-102602200D01*
X189493287Y-103538800D01*
G36*
X162343750Y-103573000D02*
G01*
X162425859Y-103573000D01*
X162465506Y-103605537D01*
X162575820Y-103664502D01*
X162692841Y-103700000D01*
X162575820Y-103735498D01*
X162465506Y-103794463D01*
X162425859Y-103827000D01*
X162343750Y-103827000D01*
X162259850Y-103910900D01*
X162239502Y-103843820D01*
X162180537Y-103733506D01*
X162101185Y-103636815D01*
X162023436Y-103573008D01*
X162029792Y-103567792D01*
X162036187Y-103560000D01*
X162330750Y-103560000D01*
X162343750Y-103573000D01*
X162343750Y-103573000D01*
G37*
X162343750Y-103573000D02*
X162425859Y-103573000D01*
X162465506Y-103605537D01*
X162575820Y-103664502D01*
X162692841Y-103700000D01*
X162575820Y-103735498D01*
X162465506Y-103794463D01*
X162425859Y-103827000D01*
X162343750Y-103827000D01*
X162259850Y-103910900D01*
X162239502Y-103843820D01*
X162180537Y-103733506D01*
X162101185Y-103636815D01*
X162023436Y-103573008D01*
X162029792Y-103567792D01*
X162036187Y-103560000D01*
X162330750Y-103560000D01*
X162343750Y-103573000D01*
G36*
X173844426Y-103420000D02*
G01*
X173768329Y-103512725D01*
X173696827Y-103646496D01*
X173661671Y-103580725D01*
X173643900Y-103559070D01*
X173698537Y-103492494D01*
X173757502Y-103382180D01*
X173772584Y-103332460D01*
X173844426Y-103420000D01*
X173844426Y-103420000D01*
G37*
X173844426Y-103420000D02*
X173768329Y-103512725D01*
X173696827Y-103646496D01*
X173661671Y-103580725D01*
X173643900Y-103559070D01*
X173698537Y-103492494D01*
X173757502Y-103382180D01*
X173772584Y-103332460D01*
X173844426Y-103420000D01*
G36*
X171628498Y-103382180D02*
G01*
X171687463Y-103492494D01*
X171706343Y-103515500D01*
X171565143Y-103515500D01*
X171542574Y-103488000D01*
X171618671Y-103395275D01*
X171627474Y-103378805D01*
X171628498Y-103382180D01*
X171628498Y-103382180D01*
G37*
X171628498Y-103382180D02*
X171687463Y-103492494D01*
X171706343Y-103515500D01*
X171565143Y-103515500D01*
X171542574Y-103488000D01*
X171618671Y-103395275D01*
X171627474Y-103378805D01*
X171628498Y-103382180D01*
G36*
X172840000Y-102827500D02*
G01*
X172820000Y-102827500D01*
X172820000Y-102847500D01*
X172566000Y-102847500D01*
X172566000Y-102827500D01*
X172546000Y-102827500D01*
X172546000Y-102695600D01*
X172840000Y-102695600D01*
X172840000Y-102827500D01*
X172840000Y-102827500D01*
G37*
X172840000Y-102827500D02*
X172820000Y-102827500D01*
X172820000Y-102847500D01*
X172566000Y-102847500D01*
X172566000Y-102827500D01*
X172546000Y-102827500D01*
X172546000Y-102695600D01*
X172840000Y-102695600D01*
X172840000Y-102827500D01*
M02*
