M48
; DRILL file {KiCad (5.1.2)-1} date 2023/10/09 1:29:43
; FORMAT={-:-/ absolute / metric / decimal}
; #@! TF.CreationDate,2023-10-09T01:29:43+09:00
; #@! TF.GenerationSoftware,Kicad,Pcbnew,(5.1.2)-1
FMAT,2
METRIC
T1C0.400
T2C0.600
T3C0.800
T4C1.000
T5C0.650
T6C3.200
%
G90
G05
T1
X166.835Y-109.825
X167.1Y-111.6
X167.784Y-114.906
X168.092Y-110.475
X168.85Y-106.26
X169.4Y-109.6
X169.889Y-111.212
X173.518Y-113.075
X173.738Y-107.888
X175.3Y-119.5
X177.889Y-102.626
X180.76Y-103.88
X190.33Y-101.28
T3
X177.9Y-108.2
X177.9Y-110.74
X177.9Y-113.28
X177.9Y-115.82
X185.52Y-108.2
X185.52Y-110.74
X185.52Y-113.28
X185.52Y-115.82
T4
X190.0Y-106.68
X190.0Y-109.22
X190.0Y-111.76
X190.0Y-114.3
X190.0Y-116.84
X190.0Y-119.38
X192.54Y-106.68
X192.54Y-109.22
X192.54Y-111.76
X192.54Y-114.3
X192.54Y-116.84
X192.54Y-119.38
X161.77Y-123.65
X164.31Y-123.65
X166.85Y-123.65
X169.39Y-123.65
X171.93Y-123.65
X174.47Y-123.65
T5
X156.25Y-109.61
X156.25Y-115.39
T6
X153.0Y-103.0
X153.0Y-122.0
T2
G00X152.9Y-108.18
M15
G01X152.3Y-108.18
M16
G05
G00X152.9Y-116.82
M15
G01X152.3Y-116.82
M16
G05
G00X157.33Y-108.18
M15
G01X156.23Y-108.18
M16
G05
G00X157.33Y-116.82
M15
G01X156.23Y-116.82
M16
G05
T0
M30
